<svg width="202" height="206" viewBox="0 0 202 206" fill="none" xmlns="http://www.w3.org/2000/svg">
<rect y="31" width="202" height="175" rx="20" fill="#FEECD1"/>
<path d="M127.257 168.977H70.6375C62.328 168.977 55.5654 162.237 55.5654 153.954V74.4699C55.5654 66.1876 62.328 59.4471 70.6375 59.4471H127.25C135.559 59.4471 142.322 66.1876 142.322 74.4699V153.947C142.329 162.237 135.567 168.977 127.257 168.977ZM70.6375 62.2763C63.8891 62.2763 58.4039 67.7507 58.4039 74.4699V153.947C58.4039 160.674 63.8962 166.141 70.6375 166.141H127.25C133.998 166.141 139.484 160.667 139.484 153.947V74.4699C139.484 67.7436 133.991 62.2763 127.25 62.2763H70.6375Z" fill="#2D2D82"/>
<path d="M75.9102 79.7533H123.553" stroke="#F9A01B" stroke-width="4" stroke-miterlimit="10" stroke-linecap="round" stroke-linejoin="round"/>
<path d="M75.9102 94.5636H123.553" stroke="#F9A01B" stroke-width="4" stroke-miterlimit="10" stroke-linecap="round" stroke-linejoin="round"/>
<path d="M75.9102 109.382H123.553" stroke="#F9A01B" stroke-width="4" stroke-miterlimit="10" stroke-linecap="round" stroke-linejoin="round"/>
<path d="M75.9102 124.192H123.553" stroke="#F9A01B" stroke-width="4" stroke-miterlimit="10" stroke-linecap="round" stroke-linejoin="round"/>
<path d="M139.846 159.952C122.531 159.952 108.438 145.912 108.438 128.648C108.438 111.39 122.524 97.3433 139.846 97.3433C157.167 97.3433 171.253 111.383 171.253 128.648C171.253 145.912 157.16 159.952 139.846 159.952Z" fill="white"/>
<path d="M122.184 130.373L128.62 140.254L157.508 117.048" stroke="#F9A01B" stroke-width="4" stroke-miterlimit="10" stroke-linecap="round" stroke-linejoin="round"/>
<path d="M31.816 113.246H34.9809C35.4279 113.246 35.7969 113.59 35.7969 114.022C35.7969 114.447 35.435 114.798 34.9809 114.798H31.816C31.369 114.798 31 114.454 31 114.022C31 113.806 31.0922 113.617 31.2413 113.475C31.3832 113.334 31.589 113.246 31.816 113.246Z" fill="#2D2D82"/>
<path d="M43.6382 114.008C43.6453 114.224 43.5531 114.427 43.397 114.568C43.2479 114.71 43.0493 114.798 42.8222 114.798H39.6574C39.2103 114.798 38.8413 114.454 38.8413 114.022C38.8413 113.597 39.2032 113.246 39.6574 113.246H42.8009C43.2479 113.246 43.6311 113.583 43.6382 114.008Z" fill="#2D2D82"/>
<path d="M38.1316 108.792V111.802C38.1316 112.227 37.7697 112.578 37.3156 112.578C36.8685 112.578 36.4995 112.234 36.4995 111.802V108.792C36.4995 108.367 36.8614 108.016 37.3156 108.016C37.5426 108.016 37.7413 108.104 37.8903 108.246C38.0393 108.381 38.1316 108.577 38.1316 108.792Z" fill="#2D2D82"/>
<path d="M37.3156 115.472C37.7626 115.472 38.1316 115.817 38.1316 116.248V119.258C38.1316 119.683 37.7697 120.033 37.3156 120.033C37.0885 120.033 36.8898 119.946 36.7408 119.804C36.5918 119.662 36.4995 119.473 36.4995 119.258V116.248C36.5066 115.817 36.8685 115.472 37.3156 115.472Z" fill="#2D2D82"/>
<path d="M143.313 8.6499H148.415C149.139 8.6499 149.728 9.20995 149.728 9.89819C149.728 10.5864 149.139 11.1465 148.415 11.1465H143.313C142.589 11.1465 142 10.5864 142 9.89819C142 9.55407 142.149 9.24368 142.383 9.01427C142.624 8.78485 142.951 8.6499 143.313 8.6499Z" fill="#2D2D82"/>
<path d="M162.359 9.87099C162.366 10.2219 162.217 10.5457 161.975 10.7752C161.741 10.9978 161.408 11.1395 161.046 11.1395H155.944C155.22 11.1395 154.631 10.5795 154.631 9.89124C154.631 9.20299 155.22 8.64294 155.944 8.64294H161.01C161.741 8.64969 162.351 9.18949 162.359 9.87099Z" fill="#2D2D82"/>
<path d="M153.496 1.46396V6.31533C153.496 7.00357 152.907 7.5636 152.183 7.5636C151.459 7.5636 150.87 7.00357 150.87 6.31533V1.46396C150.87 0.775731 151.459 0.215698 152.183 0.215698C152.545 0.215698 152.871 0.357393 153.113 0.580057C153.347 0.809468 153.496 1.11985 153.496 1.46396Z" fill="#2D2D82"/>
<path d="M152.183 12.233C152.907 12.233 153.496 12.7931 153.496 13.4813V18.3326C153.496 19.0208 152.907 19.5808 152.183 19.5808C151.821 19.5808 151.495 19.4391 151.253 19.2165C151.012 18.9938 150.87 18.6767 150.87 18.3326V13.4813C150.87 12.7863 151.459 12.233 152.183 12.233Z" fill="#2D2D82"/>
</svg>
