<svg width="202" height="175" viewBox="0 0 202 175" fill="none" xmlns="http://www.w3.org/2000/svg">
<rect y="-0.000976562" width="202" height="175" rx="20" fill="#FEECD1"/>
<g clip-path="url(#clip0_1_708)">
<path d="M100.8 50.49C80.79 50.49 64.5 66.77 64.5 86.79C64.5 106.81 80.78 123.09 100.8 123.09C120.81 123.09 137.1 106.81 137.1 86.79C137.1 66.78 120.81 50.49 100.8 50.49Z" fill="white"/>
<path d="M100.8 152.61C100.52 152.61 100.24 152.55 99.98 152.44C99.25 152.11 81.97 144.32 66.33 131.9C51.49 119.37 43 101.12 43 81.78V36.49C43 35.91 43.25 35.36 43.69 34.98C44.13 34.6 44.71 34.43 45.29 34.52C48.9 35.06 52.6 35.33 56.28 35.33C71.89 35.33 86.81 30.55 99.45 21.49C100.14 20.87 101.32 20.84 102.05 21.43C114.71 30.53 129.67 35.33 145.31 35.33C147.89 35.33 150.49 35.2 153.04 34.93C154.13 34.82 155.12 35.61 155.24 36.71C155.35 37.81 154.56 38.79 153.46 38.91C150.78 39.19 148.04 39.33 145.32 39.33C129.27 39.33 113.92 34.53 100.81 25.44C87.7 34.53 72.34 39.33 56.3 39.33C53.2 39.33 50.09 39.15 47.02 38.78V81.78C47.02 99.93 54.99 117.07 68.88 128.8C82.19 139.36 97.19 146.7 100.82 148.4C104.44 146.69 119.45 139.35 132.8 128.76C132.81 128.75 132.81 128.75 132.82 128.74C146.67 117.02 154.61 99.91 154.61 81.78V62.24C154.61 61.14 155.51 60.24 156.61 60.24C157.71 60.24 158.61 61.14 158.61 62.24V81.78C158.61 101.12 150.13 119.37 135.33 131.85C135.29 131.88 135.25 131.91 135.21 131.94C119.58 144.32 102.35 152.1 101.62 152.43C101.36 152.55 101.08 152.61 100.8 152.61Z" fill="#2D2D82"/>
<path d="M100.8 125.5C79.4498 125.5 62.0898 108.13 62.0898 86.79C62.0898 65.44 79.4598 48.08 100.8 48.08C122.14 48.08 139.51 65.45 139.51 86.79C139.51 108.14 122.15 125.5 100.8 125.5ZM100.8 50.49C80.7898 50.49 64.4998 66.77 64.4998 86.79C64.4998 106.81 80.7798 123.09 100.8 123.09C120.81 123.09 137.1 106.81 137.1 86.79C137.1 66.78 120.81 50.49 100.8 50.49Z" fill="#F9A01B" stroke="#F9A01B" stroke-miterlimit="10"/>
<path d="M105.54 113.11H95.7799V104.96C91.6199 104.06 87.7199 102.3 84.7199 99.9599L83.9399 99.3499L88.8499 89.3899L90.0299 90.3899C93.1799 93.0599 98.6299 95.3099 101.95 95.3099C103 95.3099 104.24 95.1199 104.24 94.2299C104.24 93.1199 101.57 92.4299 98.9899 91.7599C93.6899 90.3899 86.4399 88.5099 86.4399 80.3199C86.4399 74.8899 89.9099 70.7599 95.7799 69.1099V61.1599H105.54V68.6299C109.66 69.1499 113.66 70.5399 116.67 72.4999L117.56 73.0799L112.8 82.9899L111.67 82.3499C108.09 80.3099 103.37 78.7099 100.93 78.7099C100.33 78.7099 99.3199 78.7899 99.3199 79.3499C99.3199 80.3799 101.92 81.0899 104.43 81.7799C109.79 83.2499 117.13 85.2599 117.13 93.6999C117.13 99.9299 112.82 104.22 105.54 105.32V113.11ZM98.1899 110.69H103.12V103.18L104.2 103.07C107.36 102.74 114.7 101.16 114.7 93.7099C114.7 87.1199 108.9 85.5199 103.78 84.1199C100.24 83.1499 96.8899 82.2299 96.8899 79.3599C96.8899 77.8799 97.9499 76.2999 100.92 76.2999C103.86 76.2999 108.34 77.8899 111.72 79.6399L114.44 73.9799C111.59 72.3599 107.93 71.2599 104.22 70.9299L103.12 70.8299V63.5899H98.1899V71.0299L97.2499 71.2399C91.9099 72.4499 88.8499 75.7599 88.8499 80.3299C88.8499 86.6499 94.5599 88.1299 99.5899 89.4399C103.22 90.3799 106.65 91.2699 106.65 94.2399C106.65 95.0599 106.31 97.7399 101.94 97.7399C98.4199 97.7399 93.3099 95.8099 89.6699 93.1899L86.9799 98.6499C89.8099 100.64 93.3999 102.1 97.1899 102.79L98.1799 102.97V110.69H98.1899Z" fill="#F9A01B" stroke="#F9A01B" stroke-miterlimit="10"/>
</g>
<defs>
<clipPath id="clip0_1_708">
<rect width="115.6" height="131.61" fill="white" transform="translate(43 21)"/>
</clipPath>
</defs>
</svg>
