<svg width="202" height="175" viewBox="0 0 202 175" fill="none" xmlns="http://www.w3.org/2000/svg">
<rect y="-0.00012207" width="202" height="175" rx="20" fill="#FEECD1"/>
<g clip-path="url(#clip0_1_676)">
<path d="M87.9098 23.1599C84.9798 23.6999 82.0598 24.4499 79.2298 25.3699C78.4098 25.6399 77.9598 26.5199 78.2298 27.3399C78.4398 27.9799 79.0398 28.4199 79.7098 28.4199C79.8698 28.4199 80.0398 28.3899 80.1898 28.3399C82.8898 27.4599 85.6798 26.7499 88.4698 26.2299C88.8798 26.1499 89.2398 25.9199 89.4698 25.5799C89.7098 25.2399 89.7898 24.8199 89.7198 24.4099C89.5698 23.5599 88.7598 22.9999 87.9098 23.1599Z" fill="#2D2D82"/>
<path d="M43.0599 121.77C42.8599 121.4 42.5299 121.14 42.1299 121.02C41.7299 120.9 41.3099 120.95 40.9399 121.15C40.5699 121.35 40.3099 121.68 40.1899 122.08C40.0699 122.48 40.1199 122.9 40.3199 123.27C41.7399 125.88 43.3599 128.43 45.1099 130.84C45.3999 131.24 45.8699 131.48 46.3699 131.48C46.6999 131.48 47.0199 131.38 47.2899 131.18C47.6299 130.93 47.8499 130.57 47.9099 130.16C47.9699 129.75 47.8799 129.34 47.6299 129C45.9599 126.69 44.4199 124.26 43.0599 121.77Z" fill="#2D2D82"/>
<path d="M68.9098 30.2098C68.5098 30.0898 68.0898 30.1398 67.7198 30.3398C65.1098 31.7698 62.5598 33.3798 60.1598 35.1398C59.4598 35.6498 59.3098 36.6298 59.8198 37.3198C60.1098 37.7198 60.5798 37.9598 61.0798 37.9598C61.4098 37.9598 61.7298 37.8598 61.9998 37.6598C64.2998 35.9798 66.7298 34.4398 69.2198 33.0798C69.9798 32.6698 70.2498 31.7198 69.8398 30.9598C69.6398 30.5998 69.3098 30.3298 68.9098 30.2098Z" fill="#2D2D82"/>
<path d="M80.3399 152.73C77.6399 151.85 74.9599 150.79 72.3899 149.56C71.6099 149.19 70.6799 149.52 70.3099 150.3C69.9399 151.08 70.2699 152.01 71.0499 152.38C73.7399 153.66 76.5399 154.78 79.3799 155.7C79.5399 155.75 79.6999 155.78 79.8599 155.78C80.5399 155.78 81.1399 155.35 81.3399 154.7C81.6099 153.88 81.1599 152.99 80.3399 152.73Z" fill="#2D2D82"/>
<path d="M62.1101 143.44C59.8101 141.77 57.6001 139.93 55.5301 137.97C55.2301 137.68 54.8301 137.53 54.4101 137.54C53.9901 137.55 53.6101 137.72 53.3201 138.03C53.0301 138.33 52.8801 138.73 52.8901 139.15C52.9001 139.57 53.0701 139.95 53.3801 140.24C55.5401 142.29 57.8601 144.22 60.2701 145.97C60.5401 146.16 60.8601 146.27 61.1901 146.27C61.6901 146.27 62.1601 146.03 62.4501 145.63C62.7001 145.29 62.7901 144.88 62.7301 144.47C62.6701 144.05 62.4501 143.69 62.1101 143.44Z" fill="#2D2D82"/>
<path d="M45.3701 52.4899C45.6401 52.6799 45.9601 52.7899 46.2901 52.7899C46.7901 52.7899 47.2601 52.5499 47.5501 52.1499C49.2201 49.8499 51.0601 47.6399 53.0101 45.5699C53.6001 44.9499 53.5701 43.9599 52.9501 43.3599C52.3201 42.7699 51.3401 42.7999 50.7401 43.4199C48.6901 45.5799 46.7701 47.8999 45.0201 50.3099C44.5201 51.0099 44.6801 51.9899 45.3701 52.4899Z" fill="#2D2D82"/>
<path d="M164.79 78.4398C164.93 79.1798 165.57 79.7198 166.32 79.7198C166.42 79.7198 166.51 79.7098 166.61 79.6898C167.02 79.6098 167.38 79.3798 167.61 79.0398C167.85 78.6998 167.93 78.2798 167.86 77.8698C167.31 74.9398 166.57 72.0198 165.64 69.1898C165.51 68.7898 165.23 68.4698 164.86 68.2798C164.49 68.0898 164.07 68.0598 163.67 68.1898C163.27 68.3198 162.95 68.5998 162.76 68.9698C162.57 69.3398 162.54 69.7698 162.67 70.1598C163.55 72.8598 164.27 75.6498 164.79 78.4398Z" fill="#2D2D82"/>
<path d="M35.12 90.5899V90.5099C35.12 87.6799 35.3 84.8399 35.66 82.0499C35.71 81.6399 35.6 81.2299 35.35 80.8999C35.1 80.5699 34.73 80.3599 34.32 80.3099C33.91 80.2499 33.5 80.3599 33.17 80.6199C32.84 80.8699 32.63 81.2399 32.57 81.6599C32.19 84.5699 32 87.5499 32 90.5099V90.5899C32 91.4499 32.7 92.1499 33.56 92.1499C34.42 92.1499 35.12 91.4499 35.12 90.5899Z" fill="#2D2D82"/>
<path d="M36.3099 71.3799C36.4699 71.4299 36.6299 71.4599 36.7899 71.4599C37.4699 71.4599 38.0699 71.0299 38.2799 70.3799C39.1499 67.6799 40.2199 64.9999 41.4399 62.4299C41.8099 61.6499 41.4799 60.7199 40.6999 60.3499C40.3199 60.1699 39.8999 60.1499 39.5099 60.2899C39.1199 60.4299 38.7999 60.7099 38.6199 61.0899C37.3399 63.7799 36.2199 66.5799 35.3099 69.4199C35.0399 70.2399 35.4899 71.1199 36.3099 71.3799Z" fill="#2D2D82"/>
<path d="M36.2198 102.5C36.0598 101.65 35.2498 101.09 34.3998 101.25C33.5498 101.41 32.9898 102.22 33.1498 103.07C33.6898 106 34.4398 108.92 35.3598 111.75C35.5698 112.39 36.1698 112.83 36.8398 112.83C36.9998 112.83 37.1698 112.8 37.3198 112.75C38.1398 112.48 38.5898 111.6 38.3198 110.78C37.4498 108.08 36.7398 105.29 36.2198 102.5Z" fill="#2D2D82"/>
<path d="M138.96 143.4C136.66 145.07 134.23 146.61 131.74 147.97C130.98 148.38 130.7 149.33 131.12 150.09C131.39 150.59 131.92 150.9 132.49 150.9C132.75 150.9 133.01 150.83 133.24 150.71C135.85 149.29 138.4 147.68 140.81 145.92C141.15 145.67 141.37 145.31 141.43 144.9C141.49 144.49 141.4 144.08 141.15 143.74C140.63 143.05 139.65 142.9 138.96 143.4Z" fill="#2D2D82"/>
<path d="M164.68 109.71C164.28 109.58 163.86 109.61 163.49 109.8C163.12 109.99 162.84 110.31 162.71 110.71C161.83 113.41 160.77 116.09 159.54 118.66C159.36 119.04 159.34 119.46 159.48 119.85C159.62 120.24 159.9 120.56 160.28 120.74C160.49 120.84 160.72 120.89 160.95 120.89C161.55 120.89 162.1 120.54 162.36 120C163.65 117.31 164.76 114.51 165.68 111.67C165.95 110.86 165.5 109.97 164.68 109.71Z" fill="#2D2D82"/>
<path d="M160.66 57.6899C159.23 55.0799 157.62 52.5399 155.86 50.1299C155.35 49.4399 154.37 49.2799 153.68 49.7899C153.34 50.0399 153.12 50.3999 153.06 50.8099C153 51.2199 153.1 51.6299 153.34 51.9699C155.02 54.2699 156.56 56.6999 157.92 59.1899C158.19 59.6899 158.72 59.9999 159.29 59.9999C159.55 59.9999 159.81 59.9299 160.04 59.8099C160.79 59.3899 161.07 58.4399 160.66 57.6899Z" fill="#2D2D82"/>
<path d="M155.6 128.59C154.9 128.08 153.93 128.24 153.42 128.93C151.75 131.23 149.91 133.44 147.95 135.5C147.36 136.12 147.38 137.11 148.01 137.71C148.3 137.99 148.68 138.14 149.08 138.14C149.51 138.14 149.92 137.96 150.21 137.65C152.26 135.49 154.19 133.17 155.94 130.76C156.19 130.42 156.28 130.01 156.22 129.6C156.16 129.2 155.94 128.84 155.6 128.59Z" fill="#2D2D82"/>
<path d="M169.02 90.3499C169.02 89.4899 168.32 88.7899 167.45 88.7899C167.03 88.7899 166.64 88.9499 166.35 89.2499C166.06 89.5499 165.9 89.9399 165.9 90.3499V90.4999C165.9 93.3499 165.71 96.2199 165.35 99.0299C165.3 99.4399 165.41 99.8499 165.66 100.18C165.91 100.51 166.28 100.72 166.69 100.78C166.76 100.79 166.83 100.79 166.9 100.79C167.68 100.79 168.35 100.21 168.45 99.4299C168.83 96.4899 169.03 93.4799 169.03 90.4899L169.02 90.3499Z" fill="#2D2D82"/>
<path d="M129.89 28.5998C127.2 27.3198 124.39 26.2098 121.56 25.2898C121.16 25.1598 120.74 25.1998 120.37 25.3798C120 25.5798 119.72 25.8998 119.6 26.2998C119.33 27.1198 119.78 27.9998 120.6 28.2698C123.31 29.1398 125.98 30.2098 128.55 31.4298C128.76 31.5298 128.99 31.5798 129.22 31.5798C129.82 31.5798 130.37 31.2298 130.63 30.6898C130.81 30.3098 130.83 29.8898 130.69 29.4998C130.55 29.0998 130.27 28.7798 129.89 28.5998Z" fill="#2D2D82"/>
<path d="M120.75 152.7C118.05 153.58 115.26 154.29 112.46 154.8C111.61 154.96 111.05 155.77 111.21 156.62C111.35 157.36 111.99 157.9 112.74 157.9C112.83 157.9 112.93 157.89 113.02 157.87C115.95 157.33 118.87 156.59 121.7 155.67C122.1 155.54 122.42 155.27 122.61 154.89C122.8 154.52 122.83 154.1 122.7 153.7C122.45 152.89 121.57 152.44 120.75 152.7Z" fill="#2D2D82"/>
<path d="M109.33 22.5599C106.42 22.1899 103.46 21.9999 100.5 21.9999H100.39C99.5301 21.9999 98.8301 22.6999 98.8301 23.5599C98.8301 24.4199 99.5301 25.1199 100.39 25.1199H100.51C103.33 25.1199 106.16 25.2999 108.93 25.6599C109 25.6699 109.06 25.6699 109.13 25.6699C109.91 25.6699 110.58 25.0799 110.68 24.3099C110.79 23.4599 110.18 22.6699 109.33 22.5599Z" fill="#2D2D82"/>
<path d="M148.06 41.8099C148.05 41.3899 147.87 41.0099 147.57 40.7199C145.41 38.6699 143.09 36.7499 140.67 34.9999C139.97 34.4999 139 34.6499 138.49 35.3499C137.98 36.0499 138.14 37.0199 138.84 37.5299C141.14 39.1999 143.36 41.0299 145.42 42.9899C145.71 43.2699 146.09 43.4199 146.49 43.4199C146.92 43.4199 147.33 43.2399 147.62 42.9299C147.92 42.6299 148.07 42.2299 148.06 41.8099Z" fill="#2D2D82"/>
<path d="M100.55 155.9H100.51C97.6698 155.9 94.8098 155.72 92.0098 155.35C91.5998 155.3 91.1898 155.41 90.8598 155.66C90.5298 155.91 90.3198 156.28 90.2598 156.7C90.2098 157.11 90.3198 157.52 90.5698 157.85C90.8198 158.18 91.1898 158.39 91.6098 158.45C94.5398 158.83 97.5298 159.02 100.51 159.02H100.55C101.41 159.02 102.11 158.32 102.11 157.46C102.11 156.6 101.41 155.9 100.55 155.9Z" fill="#2D2D82"/>
</g>
<g clip-path="url(#clip1_1_676)">
<path d="M100.93 145.03C130.643 145.03 154.73 120.943 154.73 91.2299C154.73 61.517 130.643 37.4299 100.93 37.4299C71.217 37.4299 47.1299 61.517 47.1299 91.2299C47.1299 120.943 71.217 145.03 100.93 145.03Z" fill="white"/>
<path d="M100.93 147.04C70.09 147.04 45 121.96 45 91.1198C45 71.2298 55.72 52.6698 72.97 42.6898C73.93 42.1398 75.15 42.4598 75.7 43.4198C76.25 44.3798 75.93 45.5998 74.97 46.1498C58.95 55.4198 49 72.6498 49 91.1198C49 119.75 72.29 143.05 100.93 143.05C129.57 143.05 152.86 119.76 152.86 91.1198C152.86 64.6998 133.03 42.8298 107.48 39.5998L111.72 42.7798C112.6 43.4398 112.78 44.6998 112.12 45.5798C111.46 46.4598 110.21 46.6398 109.32 45.9798L99.75 38.7998C99.69 38.7598 99.63 38.7098 99.58 38.6598C99.53 38.6098 99.48 38.5598 99.44 38.5098C99.13 38.1598 98.94 37.6998 98.94 37.1898C98.94 36.6798 99.13 36.2198 99.44 35.8698C99.49 35.8198 99.54 35.7698 99.59 35.7198C99.64 35.6698 99.7 35.6298 99.75 35.5898L109.32 28.4098C110.21 27.7498 111.46 27.9298 112.12 28.8098C112.78 29.6898 112.6 30.9498 111.72 31.6098L106.56 35.4798C134.77 38.3098 156.86 62.1898 156.86 91.1298C156.86 121.96 131.77 147.04 100.93 147.04Z" fill="#F9A01B"/>
<path d="M95.75 96.0699H100.7V99.9599C100.7 100.32 100.58 100.64 100.35 100.9C100.12 101.16 99.77 101.29 99.32 101.29H95.76V110.89H89.89V101.29H73.3C72.85 101.29 72.45 101.15 72.1 100.87C71.76 100.59 71.54 100.24 71.45 99.8199L70.77 96.4199L89.39 71.5499H95.75V96.0699ZM89.88 83.2099C89.88 82.6299 89.9 81.9999 89.93 81.3299C89.97 80.6599 90.03 79.9599 90.12 79.2399L77.92 96.0699H89.88V83.2099Z" fill="#F9A01B"/>
<path d="M117.44 111.32C115.41 111.32 113.56 111.05 111.88 110.5C110.2 109.96 108.77 109.19 107.57 108.19C106.37 107.19 105.44 105.99 104.78 104.57C104.12 103.15 103.79 101.58 103.79 99.8399C103.79 97.5199 104.36 95.5599 105.5 93.9499C106.64 92.3499 108.42 91.1599 110.83 90.3799C108.91 89.5799 107.47 88.4499 106.52 86.9799C105.57 85.5099 105.09 83.7499 105.09 81.6799C105.09 80.1899 105.39 78.8099 106 77.5199C106.61 76.2299 107.45 75.1099 108.54 74.1599C109.63 73.2099 110.93 72.4699 112.44 71.9299C113.95 71.3999 115.62 71.1299 117.43 71.1299C119.24 71.1299 120.9 71.3999 122.42 71.9299C123.93 72.4599 125.23 73.2099 126.32 74.1599C127.41 75.1099 128.25 76.2299 128.86 77.5199C129.47 78.8099 129.77 80.1899 129.77 81.6799C129.77 83.7499 129.29 85.5099 128.33 86.9799C127.37 88.4499 125.94 89.5799 124.03 90.3799C126.44 91.1599 128.22 92.3499 129.36 93.9499C130.5 95.5499 131.07 97.5199 131.07 99.8399C131.07 101.58 130.74 103.16 130.08 104.57C129.42 105.98 128.49 107.19 127.29 108.19C126.09 109.19 124.66 109.96 122.98 110.5C121.32 111.05 119.47 111.32 117.44 111.32ZM117.44 106.07C118.55 106.07 119.52 105.91 120.35 105.59C121.18 105.27 121.89 104.83 122.46 104.27C123.03 103.71 123.46 103.04 123.75 102.26C124.04 101.48 124.19 100.64 124.19 99.7299C124.19 97.5699 123.59 95.9399 122.4 94.8399C121.2 93.7299 119.56 93.1799 117.45 93.1799C115.34 93.1799 113.7 93.7299 112.5 94.8399C111.3 95.9499 110.71 97.5799 110.71 99.7299C110.71 100.64 110.85 101.48 111.14 102.26C111.43 103.04 111.86 103.71 112.43 104.27C113 104.83 113.7 105.27 114.54 105.59C115.37 105.91 116.34 106.07 117.44 106.07ZM117.44 87.9099C118.53 87.9099 119.44 87.7399 120.19 87.3899C120.93 87.0499 121.53 86.5899 121.98 86.0199C122.43 85.4499 122.75 84.7999 122.94 84.0599C123.13 83.3299 123.23 82.5699 123.23 81.7899C123.23 81.0499 123.11 80.3399 122.88 79.6699C122.64 78.9999 122.29 78.4099 121.82 77.8899C121.35 77.3699 120.75 76.9599 120.03 76.6499C119.3 76.3399 118.44 76.1899 117.45 76.1899C116.46 76.1899 115.59 76.3399 114.87 76.6499C114.14 76.9599 113.54 77.3699 113.06 77.8899C112.58 78.4099 112.23 78.9999 112 79.6699C111.77 80.3399 111.66 81.0499 111.66 81.7899C111.66 82.5699 111.75 83.3299 111.95 84.0599C112.14 84.7899 112.46 85.4499 112.91 86.0199C113.36 86.5899 113.96 87.0499 114.7 87.3899C115.44 87.7399 116.35 87.9099 117.44 87.9099Z" fill="#F9A01B"/>
</g>
<defs>
<clipPath id="clip0_1_676">
<rect width="137.02" height="137.02" fill="white" transform="translate(32 21.9999)"/>
</clipPath>
<clipPath id="clip1_1_676">
<rect width="111.86" height="119.04" fill="white" transform="translate(45 27.9999)"/>
</clipPath>
</defs>
</svg>
