<svg width="202" height="175" viewBox="0 0 202 175" fill="none" xmlns="http://www.w3.org/2000/svg">
<rect width="202" height="175" rx="20" fill="white"/>
<g clip-path="url(#clip0_1_291)">
<path d="M68.9204 42.3772H46.9199C46.4016 42.3772 45.9839 41.9595 45.9839 41.4411C45.9839 34.8582 51.3381 29.5032 57.9201 29.5032H58.1969C58.2422 29.5032 58.3076 29.5083 58.3781 29.5183C58.7052 29.5183 59.0373 29.5536 59.3543 29.5989C59.299 29.5888 59.4449 29.5888 59.6009 29.624C59.7971 29.6391 60.084 29.6894 60.3607 29.7549C60.3758 29.7599 60.3909 29.7599 60.406 29.7649C60.5318 29.7851 60.6677 29.8153 60.8086 29.8555C60.874 29.8656 60.9445 29.8807 61.0099 29.9109C61.2464 29.9663 61.4779 30.0367 61.7094 30.1172C62.0616 30.238 62.429 30.3739 62.7661 30.5249C63.1133 30.6759 63.4605 30.852 63.8027 31.0533C64.0996 31.2245 64.4116 31.4157 64.7085 31.607C64.7437 31.6321 64.779 31.6573 64.8142 31.6875C65.096 31.8888 65.3728 32.1052 65.6445 32.3367C65.8659 32.5179 66.1024 32.7393 66.3289 32.9608C66.4547 33.0665 66.5352 33.1772 66.5905 33.2477C66.7616 33.4087 67.0132 33.6754 67.2296 33.9573C68.1656 35.1199 68.8751 36.4485 69.323 37.8829C69.4639 38.3207 69.5696 38.7787 69.6602 39.2317C69.7256 39.5638 69.7709 39.891 69.8011 40.2332C69.8463 40.6308 69.8665 41.0284 69.8665 41.4411C69.8564 41.9595 69.4387 42.3772 68.9204 42.3772ZM68.9204 41.4411H68.9355H68.9204ZM47.8961 40.505H67.9442C67.9442 40.4798 67.9392 40.4597 67.9392 40.4345C67.9341 40.3993 67.9341 40.3641 67.9341 40.3288V40.3137C67.914 40.1175 67.8788 39.8558 67.8234 39.589C67.7479 39.2015 67.6574 38.819 67.5416 38.4415C67.1592 37.2286 66.5603 36.1063 65.7653 35.1148C65.5841 34.8783 65.3828 34.6719 65.1866 34.4706L65.8458 33.8063L65.0759 34.3347C64.8645 34.1284 64.6632 33.9422 64.4569 33.7761C64.2003 33.5597 63.9487 33.3634 63.692 33.1822C63.6618 33.1621 63.6316 33.1369 63.6065 33.1118C63.4203 32.996 63.1435 32.8249 62.8667 32.6638C62.5799 32.4927 62.3031 32.3568 62.0163 32.231C61.7245 32.1002 61.4175 31.9844 61.1105 31.8787C60.8992 31.8183 60.713 31.763 60.5218 31.7177C60.4463 31.7076 60.3708 31.6875 60.2953 31.6573C60.25 31.6372 60.1444 31.617 60.0487 31.6019C60.0135 31.5969 59.9783 31.5868 59.9431 31.5768C59.938 31.5768 59.933 31.5768 59.928 31.5717C59.7217 31.5214 59.5103 31.4912 59.2939 31.466C59.2486 31.466 59.1228 31.456 59.0775 31.4509C58.7857 31.4056 58.4787 31.4308 58.1868 31.3754H57.9302C52.6867 31.3754 48.3691 35.3916 47.8961 40.505Z" fill="#F9A01B"/>
<path d="M68.9202 42.8805H46.9197C46.1246 42.8805 45.4805 42.2363 45.4805 41.4411C45.4805 34.5814 51.0611 29 57.9199 29H58.1967C58.247 29 58.3275 29.005 58.4081 29.0151C58.705 29.0201 59.017 29.0453 59.339 29.0906C59.4296 29.0856 59.5403 29.1007 59.6762 29.1258C59.9127 29.151 60.2146 29.2013 60.4763 29.2667C60.6222 29.2969 60.7681 29.3221 60.9191 29.3674C60.9996 29.3825 61.0801 29.4026 61.1556 29.4328C61.3921 29.4932 61.6236 29.5637 61.8702 29.6492C62.2778 29.7851 62.6502 29.9311 62.9672 30.077C63.3597 30.2481 63.717 30.4293 64.0491 30.6306C64.351 30.8018 64.6681 31.0031 64.97 31.1993C65.0354 31.2245 65.0857 31.2648 65.1411 31.3101C65.3977 31.4912 65.6795 31.7077 65.9664 31.9543C66.1676 32.1153 66.3941 32.3267 66.6759 32.6035C66.7866 32.6991 66.8822 32.8098 66.9627 32.9155C67.1338 33.0816 67.3905 33.3484 67.6219 33.6554C68.5931 34.8632 69.3278 36.2372 69.8008 37.737C69.9317 38.1446 70.0424 38.6026 70.1481 39.1411C70.2185 39.4934 70.2638 39.8357 70.294 40.198L70.299 40.2584C70.3393 40.6309 70.3594 41.0184 70.3594 41.4512C70.3594 42.2363 69.7153 42.8805 68.9202 42.8805ZM57.9199 30.0066C51.6147 30.0066 46.4869 35.135 46.4869 41.4411C46.4869 41.6777 46.6832 41.874 46.9197 41.874H68.9253C68.9303 41.874 68.9353 41.874 68.9404 41.874L68.9253 40.9379H68.9404V41.874C69.1718 41.8639 69.358 41.6777 69.358 41.4411C69.358 41.0234 69.3379 40.646 69.2976 40.2937L69.2574 39.9414H69.2624C69.2372 39.735 69.202 39.5337 69.1668 39.3324C69.0662 38.8291 68.9605 38.4063 68.8447 38.0389C68.412 36.66 67.7377 35.3967 66.8369 34.2794C66.6155 33.9976 66.384 33.751 66.2431 33.6201L66.1827 33.5497C66.1475 33.4993 66.0871 33.4239 66.0016 33.3484C65.7198 33.0716 65.5084 32.8803 65.3273 32.7344C65.0505 32.5028 64.7888 32.2965 64.5171 32.1053C64.4617 32.06 64.4466 32.0499 64.4315 32.0348C64.1447 31.8486 63.8428 31.6624 63.5509 31.4912C63.244 31.3101 62.9219 31.144 62.5646 30.988C62.2728 30.8571 61.9306 30.7263 61.5481 30.5954C61.3166 30.5149 61.1053 30.4495 60.8889 30.3991L60.8185 30.379C60.7933 30.3689 60.7631 30.3639 60.7329 30.3589L60.6625 30.3387C60.5417 30.3035 60.4209 30.2783 60.3152 30.2582L60.2297 30.2381C59.968 30.1726 59.7013 30.1374 59.5554 30.1223L59.49 30.1123C59.4397 30.1022 59.3893 30.0921 59.3642 30.0921L59.3793 29.5939H59.3692L59.2837 30.0921C58.9666 30.0418 58.6647 30.0166 58.3829 30.0166L58.3275 30.0116C58.2772 30.0116 58.2319 30.0066 58.2017 30.0066H57.9199ZM68.4673 41.0083H47.3424L47.3927 40.4597C47.8959 35.0847 52.5154 30.8722 57.9199 30.8722L58.2672 30.8823C58.398 30.9074 58.5339 30.9125 58.6697 30.9175C58.8308 30.9225 58.9918 30.9326 59.1478 30.9578C59.178 30.9628 59.2535 30.9678 59.2887 30.9678L59.344 30.9729C59.6158 31.0031 59.8372 31.0433 60.0385 31.0886C60.0989 31.1037 60.119 31.1088 60.1341 31.1138C60.3002 31.144 60.3958 31.1641 60.4813 31.1993C60.5115 31.2144 60.5467 31.2195 60.587 31.2295C60.8336 31.2849 61.0348 31.3403 61.2613 31.4208C61.6437 31.5516 61.9406 31.6624 62.2124 31.7882C62.5395 31.9291 62.8263 32.0751 63.1131 32.2462C63.3647 32.3921 63.6214 32.5481 63.8076 32.6639L63.9334 32.7545C64.2403 32.9759 64.502 33.1772 64.7737 33.4088C64.8895 33.4993 65.0052 33.605 65.1159 33.7057L65.5537 33.4037L66.1978 34.1737L65.8808 34.4908C65.9764 34.5965 66.067 34.7022 66.1576 34.8179C66.9879 35.8547 67.6169 37.0324 68.0195 38.3057C68.1302 38.658 68.2258 39.0354 68.3164 39.5035C68.3667 39.7702 68.4069 40.047 68.4321 40.2735V40.3239C68.4321 40.354 68.4321 40.3691 68.4371 40.3893C68.4422 40.4195 68.4472 40.4547 68.4472 40.495L68.4673 41.0083ZM48.4645 40.0017H67.3804C67.3653 39.9011 67.3452 39.7954 67.325 39.6847C67.2395 39.2569 67.1539 38.9096 67.0533 38.5926C66.691 37.435 66.1223 36.3731 65.3625 35.4269C65.1914 35.2055 65.0002 35.0092 64.819 34.823L64.4668 34.4707L64.4718 34.4656C64.3561 34.36 64.2403 34.2543 64.1296 34.1687C63.873 33.9523 63.6314 33.7661 63.3899 33.5899C63.3597 33.5698 63.3295 33.5446 63.2943 33.5195L63.2792 33.5144C63.098 33.4037 62.8514 33.2527 62.6049 33.1068C62.3482 32.9558 62.0966 32.83 61.8048 32.6991C61.5582 32.5884 61.2965 32.4877 60.9392 32.3619C60.743 32.2915 60.5769 32.2462 60.4109 32.2059C60.3303 32.1958 60.2146 32.1656 60.1039 32.1203C60.0888 32.1203 60.0284 32.1103 59.9731 32.1002C59.9127 32.0902 59.8624 32.0801 59.8171 32.065L59.7969 32.06C59.646 32.0247 59.4698 31.9945 59.2484 31.9694C59.1729 31.9643 59.0471 31.9543 58.9918 31.9492C58.871 31.9291 58.7502 31.9241 58.6244 31.919C58.4684 31.914 58.3024 31.9039 58.1313 31.8788H57.9149C53.2149 31.8788 49.169 35.4018 48.4645 40.0017Z" fill="#F9A01B"/>
<path d="M147.447 143.497C147.236 143.497 147.025 143.426 146.854 143.285L110.194 113.36C110.159 113.33 110.114 113.285 110.079 113.249C109.907 113.058 109.817 112.802 109.842 112.545C109.862 112.288 109.988 112.047 110.194 111.886L146.869 82.7506C147.15 82.5292 147.533 82.4839 147.855 82.6399C148.177 82.7959 148.383 83.123 148.383 83.4804V142.561C148.383 142.923 148.177 143.25 147.85 143.406C147.719 143.467 147.583 143.497 147.447 143.497ZM112.257 112.635L146.511 140.588V85.423L112.257 112.635Z" fill="#F9A01B"/>
<path d="M147.447 144C147.115 144 146.793 143.884 146.536 143.673L109.877 113.748C109.827 113.702 109.756 113.637 109.711 113.592C109.439 113.295 109.309 112.897 109.339 112.505C109.369 112.112 109.565 111.745 109.877 111.493L146.551 82.358C146.989 82.0107 147.568 81.9453 148.071 82.1869C148.564 82.4234 148.886 82.9317 148.886 83.4803V142.561C148.886 143.114 148.564 143.623 148.066 143.859C147.865 143.95 147.659 144 147.447 144ZM147.442 83.0475C147.347 83.0475 147.256 83.0777 147.175 83.1431L110.501 112.278C110.406 112.354 110.35 112.464 110.34 112.58C110.33 112.701 110.37 112.822 110.451 112.907C110.466 112.922 110.491 112.953 110.516 112.968L147.17 142.888C147.296 142.993 147.482 143.014 147.628 142.943C147.779 142.873 147.875 142.717 147.875 142.551V83.4803C147.875 83.3142 147.779 83.1632 147.628 83.0928C147.573 83.0626 147.508 83.0475 147.442 83.0475ZM147.014 141.65L111.457 112.63L147.014 84.3812V141.65ZM113.057 112.64L146.003 139.531V86.4648L113.057 112.64Z" fill="#F9A01B"/>
<path d="M126.725 100.889C126.589 100.889 126.448 100.859 126.317 100.798C125.995 100.642 125.789 100.315 125.789 99.9577V83.4852C125.789 82.9669 126.206 82.5491 126.725 82.5491H147.447C147.844 82.5491 148.197 82.8008 148.328 83.1782C148.458 83.5557 148.338 83.9734 148.026 84.22L127.303 100.692C127.137 100.823 126.931 100.889 126.725 100.889ZM127.661 84.4163V98.015L144.765 84.4163H127.661Z" fill="#F9A01B"/>
<path d="M126.724 101.392C126.508 101.392 126.292 101.342 126.1 101.251C125.607 101.015 125.285 100.506 125.285 99.9577V83.4853C125.285 82.6901 125.929 82.0459 126.724 82.0459H147.447C148.056 82.0459 148.604 82.4334 148.805 83.0122C149.007 83.591 148.821 84.2301 148.342 84.6126L127.62 101.085C127.363 101.281 127.046 101.392 126.724 101.392ZM126.724 83.0474C126.488 83.0474 126.292 83.2437 126.292 83.4803V99.9527C126.292 100.119 126.387 100.27 126.538 100.34C126.684 100.411 126.865 100.391 126.996 100.29L147.718 83.8175C147.864 83.7017 147.92 83.5104 147.859 83.3393C147.799 83.1632 147.633 83.0474 147.452 83.0474H126.724ZM127.157 99.0568V83.9131H146.209L127.157 99.0568ZM128.164 84.9196V96.9732L143.325 84.9196H128.164Z" fill="#F9A01B"/>
<path d="M147.447 84.4162H126.725C126.206 84.4162 125.789 83.9985 125.789 83.4801V67.2593C125.789 66.741 126.206 66.3232 126.725 66.3232H127.032C127.243 66.3232 127.449 66.3937 127.615 66.5246L148.031 82.7453C148.343 82.9919 148.463 83.4097 148.333 83.7871C148.197 84.1646 147.845 84.4162 147.447 84.4162ZM127.661 82.544H144.765L127.661 68.9504V82.544Z" fill="#F9A01B"/>
<path d="M147.447 84.9196H126.724C125.929 84.9196 125.285 84.2754 125.285 83.4802V67.2594C125.285 66.4642 125.929 65.82 126.724 65.82H127.031C127.353 65.82 127.67 65.9307 127.927 66.132L148.342 82.3528C148.821 82.7353 149.007 83.3745 148.805 83.9533C148.604 84.532 148.056 84.9196 147.447 84.9196ZM126.724 66.8266C126.488 66.8266 126.292 67.0228 126.292 67.2594V83.4802C126.292 83.7167 126.488 83.913 126.724 83.913H147.447C147.633 83.913 147.794 83.7972 147.854 83.6261C147.915 83.45 147.859 83.2587 147.718 83.143L127.303 66.9222C127.228 66.8618 127.132 66.8266 127.036 66.8266H126.724ZM146.204 83.0474H127.152V67.9086L146.204 83.0474ZM128.164 82.0408H143.32L128.164 69.9922V82.0408Z" fill="#F9A01B"/>
<path d="M147.447 143.497L44.4995 143.411C43.9811 143.411 43.5635 142.993 43.5635 142.475C43.5635 142.198 43.6893 141.851 43.9006 141.67L80.2076 111.533C80.5498 111.251 81.0379 111.246 81.3851 111.518L96.0538 123.129L110.189 111.886C110.577 111.579 111.13 111.624 111.462 111.991L148.036 141.836C148.343 142.088 148.459 142.5 148.328 142.873C148.192 143.245 147.84 143.497 147.447 143.497ZM46.9853 141.544L144.815 141.625L110.758 113.823L96.6325 125.056C96.2954 125.328 95.8123 125.328 95.4701 125.056L80.8165 113.456L46.9853 141.544Z" fill="#F9A01B"/>
<path d="M147.447 144L44.4993 143.914C43.7092 143.914 43.0601 143.27 43.0601 142.475C43.0601 142.098 43.2211 141.584 43.5784 141.282L79.8853 111.146C80.4036 110.713 81.1685 110.703 81.6969 111.126L96.0486 122.49L109.872 111.493C110.456 111.035 111.296 111.09 111.804 111.624L148.353 141.448C148.826 141.836 149.002 142.475 148.796 143.049C148.594 143.613 148.051 144 147.447 144ZM80.8062 111.82C80.7056 111.82 80.61 111.855 80.5294 111.921L44.2225 142.057C44.147 142.118 44.0665 142.309 44.0665 142.475C44.0665 142.712 44.2577 142.908 44.4993 142.908L147.447 142.993V143.497V142.993C147.628 142.993 147.794 142.878 147.855 142.707C147.915 142.535 147.86 142.344 147.719 142.228L111.09 112.334C110.939 112.167 110.677 112.147 110.501 112.288L96.0536 123.778L81.0729 111.921C80.9974 111.85 80.9018 111.82 80.8062 111.82ZM146.229 142.128L45.5963 142.042L80.8163 112.807L95.792 124.659C95.948 124.785 96.1694 124.785 96.3254 124.659L110.768 113.169L146.229 142.128ZM48.379 141.041L143.401 141.116L110.758 114.467L96.9493 125.449C96.426 125.867 95.6913 125.867 95.1629 125.454L80.8314 114.105L48.379 141.041Z" fill="#F9A01B"/>
<path d="M44.4995 143.326C44.3636 143.326 44.2277 143.295 44.1019 143.235C43.7748 143.079 43.5635 142.752 43.5635 142.389V83.4803C43.5635 83.1229 43.7698 82.7958 44.0919 82.6398C44.4139 82.4838 44.8014 82.524 45.0782 82.7505L69.4992 102.097L81.3851 111.523C81.6065 111.699 81.7374 111.966 81.7374 112.248C81.7424 112.53 81.6166 112.796 81.4002 112.978L45.0983 143.109C44.9272 143.255 44.7108 143.326 44.4995 143.326ZM45.4354 85.4179V140.402L79.3219 112.273L45.4354 85.4179Z" fill="#F9A01B"/>
<path d="M44.4993 143.829C44.2879 143.829 44.0766 143.784 43.8853 143.693C43.3821 143.456 43.0601 142.948 43.0601 142.389V83.4803C43.0601 82.9317 43.3771 82.4234 43.8702 82.1869C44.3684 81.9503 44.9622 82.0157 45.3899 82.3529L69.816 101.699L81.7019 111.126C82.0391 111.392 82.2404 111.8 82.2454 112.233C82.2504 112.671 82.0592 113.078 81.7271 113.36L45.4201 143.497C45.1585 143.713 44.8364 143.829 44.4993 143.829ZM44.4993 83.0525C44.4338 83.0525 44.3684 83.0676 44.308 83.0978C44.1621 83.1683 44.0665 83.3192 44.0665 83.4853V142.389C44.0665 142.556 44.1621 142.712 44.3181 142.782C44.464 142.853 44.6502 142.827 44.776 142.722L81.083 112.585C81.1836 112.505 81.239 112.374 81.239 112.248C81.239 112.117 81.1786 111.996 81.0729 111.916L69.3229 102.595H68.9958V102.333L44.766 83.1431C44.6905 83.0827 44.5949 83.0525 44.4993 83.0525ZM44.932 141.468V84.3761L80.1218 112.263L44.932 141.468ZM45.9384 86.4547V139.324L78.5266 112.278L45.9384 86.4547Z" fill="#F9A01B"/>
<path d="M68.9202 103.762C68.7139 103.762 68.5076 103.692 68.3415 103.561L43.9205 84.215C43.6085 83.9684 43.4877 83.5506 43.6185 83.1732C43.7494 82.7957 44.1067 82.5441 44.5042 82.5441H68.9252C69.4435 82.5441 69.8612 82.9618 69.8612 83.4802V102.826C69.8612 103.184 69.6549 103.511 69.3328 103.667C69.202 103.732 69.0611 103.762 68.9202 103.762ZM47.1863 84.4163L67.9842 100.889V84.4163H47.1863Z" fill="#F9A01B"/>
<path d="M68.92 104.266C68.598 104.266 68.281 104.155 68.0293 103.954L43.6083 84.6126C43.1303 84.2301 42.939 83.591 43.1403 83.0122C43.3416 82.4334 43.8851 82.0459 44.499 82.0459H68.92C69.7151 82.0459 70.3592 82.6901 70.3592 83.4853V102.831C70.3592 103.38 70.0422 103.888 69.5491 104.125C69.3528 104.215 69.1414 104.266 68.92 104.266ZM44.499 83.0474C44.3128 83.0474 44.1518 83.1632 44.0914 83.3393C44.031 83.5155 44.0864 83.7067 44.2323 83.8225L68.6533 103.169C68.7791 103.269 68.9603 103.289 69.1113 103.219C69.2572 103.149 69.3528 102.993 69.3528 102.831V83.4853C69.3528 83.2487 69.1565 83.0525 68.92 83.0525H44.499V83.0474ZM68.4873 101.931L45.742 83.9131H68.4873V101.931ZM48.6354 84.9196L67.4859 99.852V84.9196H48.6354Z" fill="#F9A01B"/>
<path d="M68.9203 84.4164H44.4993C44.1018 84.4164 43.7445 84.1648 43.6137 83.7873C43.4828 83.4099 43.6036 82.9921 43.9156 82.7455L68.2662 63.4547C68.8348 63.0018 69.8513 63.4598 69.8513 64.1895V83.4803C69.8563 83.9987 69.4387 84.4164 68.9203 84.4164ZM47.1865 82.5442H67.9844V66.0718L47.1865 82.5442Z" fill="#F9A01B"/>
<path d="M68.9203 84.9197H44.4993C43.8854 84.9197 43.3419 84.5322 43.1406 83.9534C42.9393 83.3746 43.1255 82.7304 43.6086 82.353L67.9592 63.0621C68.3819 62.7249 68.9807 62.6796 69.5192 62.9363C70.0375 63.188 70.3646 63.6661 70.3646 64.1895V83.4803C70.3595 84.2755 69.7154 84.9197 68.9203 84.9197ZM68.8096 63.7818C68.7241 63.7818 68.6486 63.802 68.5832 63.8523L44.2326 83.1431C44.0867 83.2589 44.0313 83.4501 44.0917 83.6263C44.1521 83.7974 44.3182 83.9182 44.4993 83.9182H68.9203C69.1568 83.9182 69.3531 83.7219 69.3531 83.4853V64.1895C69.3531 64.0335 69.2122 63.9077 69.0814 63.8422C69.0009 63.807 68.9052 63.7818 68.8096 63.7818ZM68.4876 83.0475H45.7423L68.4926 65.0249V83.0475H68.4876ZM48.6307 82.0409H67.4811V67.1085L48.6307 82.0409Z" fill="#F9A01B"/>
<path d="M68.9205 103.767C68.4022 103.767 67.9846 103.355 67.9846 102.841V41.441C67.9846 41.0988 67.9695 40.7666 67.9342 40.4344C67.8738 39.9211 68.2412 39.4581 68.7545 39.3977C69.2677 39.3423 69.7307 39.7047 69.7911 40.218C69.8364 40.6206 69.8565 41.0233 69.8565 41.441V102.826C69.8565 103.34 69.4388 103.767 68.9205 103.767Z" fill="#F9A01B"/>
<path d="M68.9207 104.271C68.1256 104.271 67.4815 103.627 67.4815 102.842V41.4411C67.4815 41.0737 67.4664 40.7717 67.4362 40.4949C67.3457 39.7048 67.9143 38.9901 68.6993 38.8995C69.4944 38.814 70.2039 39.3827 70.2945 40.1627C70.3398 40.5603 70.3599 40.9781 70.3599 41.4411V102.826C70.3599 103.622 69.7158 104.271 68.9207 104.271ZM68.8603 39.896C68.8452 39.896 68.8301 39.896 68.81 39.901C68.5785 39.9262 68.4074 40.1426 68.4326 40.3792C68.4678 40.7013 68.488 41.0385 68.488 41.4411V102.842C68.488 103.078 68.6792 103.264 68.9207 103.264C69.1572 103.264 69.3535 103.068 69.3535 102.826V41.4411C69.3535 41.0133 69.3334 40.6358 69.2931 40.2785C69.2679 40.0621 69.0818 39.896 68.8603 39.896Z" fill="#F9A01B"/>
<path d="M68.8648 41.2502C68.3868 41.2502 67.9741 40.8828 67.9339 40.3946C67.9087 40.1178 67.8735 39.8561 67.8232 39.5893C67.7225 39.081 68.0546 38.5928 68.5629 38.4922C69.0762 38.3966 69.5643 38.7237 69.6599 39.232C69.7253 39.5591 69.7706 39.8863 69.8008 40.2285C69.8461 40.7418 69.4636 41.1948 68.9504 41.2401C68.9202 41.2502 68.89 41.2502 68.8648 41.2502Z" fill="#F9A01B"/>
<path d="M68.865 41.7533C68.1252 41.7533 67.4962 41.1745 67.4308 40.4397C67.4107 40.1931 67.3754 39.9465 67.3251 39.6848C67.2496 39.3123 67.3302 38.9248 67.5415 38.6077C67.7579 38.2907 68.085 38.0743 68.4624 37.9988C69.2424 37.8478 70.0022 38.3611 70.1482 39.1362C70.2136 39.4835 70.2639 39.8257 70.2941 40.188C70.3293 40.5705 70.2085 40.943 69.962 41.2399C69.7154 41.5368 69.3682 41.713 68.9807 41.7482C68.9555 41.7533 68.9052 41.7533 68.865 41.7533ZM68.7392 38.9802C68.709 38.9802 68.6838 38.9852 68.6536 38.9902C68.5429 39.0104 68.4423 39.0758 68.3819 39.1714C68.3165 39.267 68.2963 39.3828 68.3165 39.4935C68.3718 39.7905 68.4121 40.0673 68.4372 40.3491C68.4574 40.5705 68.6435 40.7417 68.865 40.7417H68.8901C69.0159 40.7316 69.1216 40.6762 69.1971 40.5907C69.2726 40.5051 69.3078 40.3894 69.2977 40.2736C69.2675 39.9515 69.2273 39.6395 69.1669 39.3274C69.1216 39.1261 68.9455 38.9802 68.7392 38.9802Z" fill="#F9A01B"/>
<path d="M68.427 39.101C68.0295 39.101 67.6571 38.8444 67.5363 38.4468C67.1539 37.2339 66.5601 36.1166 65.76 35.1201C65.5788 34.8835 65.3775 34.6772 65.1813 34.4759C64.819 34.1085 64.819 33.5146 65.1863 33.1523C65.5536 32.7899 66.1474 32.7899 66.5098 33.1573C66.7614 33.4089 67.013 33.6757 67.2294 33.9575C68.1653 35.1201 68.8749 36.4487 69.3227 37.8831C69.4787 38.3763 69.202 38.8997 68.7088 39.0558C68.6132 39.0859 68.5176 39.101 68.427 39.101Z" fill="#F9A01B"/>
<path d="M68.4271 39.6044C67.793 39.6044 67.2445 39.1967 67.0533 38.5978C66.691 37.4453 66.1224 36.3834 65.3625 35.4372C65.1914 35.2157 65.0002 35.0195 64.819 34.8332C64.5473 34.5615 64.4014 34.1991 64.4014 33.8166C64.4014 33.4341 64.5523 33.0718 64.8241 32.8C65.0958 32.5282 65.4531 32.3823 65.8355 32.3823H65.8406C66.223 32.3823 66.5853 32.5332 66.8571 32.805C67.1741 33.1221 67.4156 33.3939 67.6169 33.6556C68.5881 34.8634 69.3228 36.2374 69.7958 37.7372C70.0323 38.4971 69.6096 39.3024 68.8548 39.544C68.719 39.5792 68.573 39.6044 68.4271 39.6044ZM65.8406 33.3838C65.7248 33.3838 65.6191 33.4291 65.5336 33.5096C65.4531 33.5901 65.4078 33.7009 65.4078 33.8166C65.4078 33.9324 65.4531 34.0431 65.5336 34.1236C65.7399 34.33 65.9563 34.5564 66.1526 34.8131C66.9879 35.8499 67.6119 37.0276 68.0145 38.2958C68.0849 38.5173 68.3315 38.6481 68.5529 38.5777C68.7844 38.5072 68.9102 38.2606 68.8397 38.0341C68.407 36.6551 67.7327 35.3919 66.8319 34.2746C66.6507 34.0381 66.4344 33.8015 66.1475 33.5096C66.067 33.4291 65.9462 33.3737 65.8406 33.3838Z" fill="#F9A01B"/>
<path d="M65.6998 34.5967C65.4633 34.5967 65.2217 34.5061 65.0406 34.3249C64.8493 34.1387 64.6481 33.9474 64.4468 33.7813C64.1901 33.5649 63.9385 33.3686 63.6819 33.1875C63.2592 32.8905 63.1585 32.3067 63.4605 31.884C63.7624 31.4612 64.3411 31.3606 64.7638 31.6625C65.0657 31.8739 65.3526 32.1004 65.6394 32.342C65.8759 32.5332 66.1225 32.7647 66.359 33.0013C66.7263 33.3636 66.7263 33.9575 66.364 34.3249C66.1829 34.5061 65.9413 34.5967 65.6998 34.5967Z" fill="#F9A01B"/>
<path d="M65.7 35.0998C65.3176 35.0998 64.9603 34.9538 64.6885 34.682C64.5376 34.5311 64.3363 34.3348 64.135 34.1737C63.8784 33.9573 63.6368 33.7711 63.3953 33.5949C63.0833 33.3735 62.8719 33.0413 62.8065 32.6639C62.7411 32.2864 62.8266 31.9039 63.0531 31.5919C63.511 30.9477 64.4118 30.7917 65.0609 31.2497C65.3578 31.461 65.6597 31.6925 65.9717 31.9542C66.1881 32.1304 66.4347 32.3569 66.7215 32.6387C66.9933 32.9105 67.1442 33.2728 67.1442 33.6553C67.1442 34.0378 66.9983 34.4002 66.7266 34.672C66.4498 34.9488 66.0875 35.0998 65.7 35.0998ZM64.2256 31.9895C64.0897 31.9895 63.9539 32.0549 63.8733 32.1707C63.8079 32.2663 63.7828 32.382 63.7979 32.4928C63.818 32.6085 63.8784 32.7041 63.974 32.7746C64.2407 32.9658 64.5024 33.1672 64.7741 33.3936C65.0056 33.5799 65.227 33.7963 65.3981 33.9623C65.5641 34.1284 65.8459 34.1234 66.007 33.9623C66.0875 33.8818 66.1328 33.7711 66.1328 33.6553C66.1328 33.5396 66.0875 33.4339 66.007 33.3483C65.7503 33.0917 65.5188 32.8803 65.3276 32.7243C65.0307 32.4726 64.754 32.2613 64.4772 32.065C64.3967 32.0146 64.3111 31.9895 64.2256 31.9895Z" fill="#F9A01B"/>
<path d="M64.1901 33.3335C64.014 33.3335 63.8379 33.2832 63.6819 33.1825C63.4152 33.0114 63.1334 32.8352 62.8516 32.6742C62.5648 32.5031 62.288 32.3672 62.0011 32.2414C61.7093 32.1105 61.4023 31.9947 61.0954 31.8891C60.884 31.8136 60.6777 31.7532 60.4663 31.7079C59.9631 31.5972 59.6411 31.0989 59.7518 30.5956C59.8625 30.0923 60.3657 29.7753 60.8639 29.881C61.1557 29.9464 61.4325 30.0269 61.7093 30.1225C62.0615 30.2433 62.4289 30.3792 62.766 30.5302C63.1133 30.6812 63.4605 30.8573 63.8027 31.0586C64.0996 31.2298 64.4115 31.421 64.7084 31.6123C65.1412 31.8941 65.262 32.4729 64.9802 32.9057C64.799 33.1825 64.4971 33.3335 64.1901 33.3335Z" fill="#F9A01B"/>
<path d="M64.1902 33.8367C63.9135 33.8367 63.6417 33.7562 63.4052 33.6052C63.1435 33.4341 62.8718 33.268 62.6001 33.1069C62.3485 32.956 62.0918 32.8301 61.8 32.6993C61.5534 32.5886 61.2917 32.4879 60.9344 32.3621C60.7231 32.2866 60.5419 32.2363 60.3557 32.196C59.9783 32.1155 59.6613 31.889 59.4499 31.5669C59.2436 31.2448 59.1732 30.8573 59.2537 30.4848C59.4248 29.7148 60.1846 29.2216 60.9646 29.3826C61.2665 29.4481 61.5634 29.5336 61.8704 29.6444C62.278 29.7802 62.6504 29.9262 62.9674 30.0671C63.3599 30.2382 63.7172 30.4194 64.0493 30.6207C64.3513 30.7918 64.6683 30.9932 64.9702 31.1894C65.6345 31.6223 65.8257 32.5131 65.3929 33.1774C65.1363 33.5901 64.6834 33.8367 64.1902 33.8367ZM60.6677 30.359C60.4664 30.359 60.2853 30.4999 60.24 30.7012C60.2148 30.812 60.235 30.9277 60.3004 31.0233C60.3658 31.119 60.4614 31.1894 60.5721 31.2146C60.7986 31.2649 61.02 31.3304 61.2615 31.4109C61.644 31.5417 61.9409 31.6525 62.2126 31.7783C62.5397 31.9192 62.8265 32.0651 63.1133 32.2363C63.3951 32.4023 63.687 32.5785 63.9587 32.7597C64.155 32.8855 64.4318 32.8251 64.5576 32.6339C64.6884 32.4325 64.6331 32.1658 64.4318 32.0349C64.1449 31.8487 63.843 31.6625 63.5511 31.4914C63.2442 31.3102 62.9221 31.1441 62.5648 30.9881C62.273 30.8573 61.9308 30.7264 61.5483 30.5956C61.2716 30.4999 61.02 30.4244 60.7583 30.3691C60.7281 30.364 60.6979 30.359 60.6677 30.359Z" fill="#F9A01B"/>
<path d="M60.6477 31.7278C60.5319 31.7278 60.4111 31.7027 60.2954 31.6574C60.2501 31.6373 60.1444 31.6171 60.0488 31.602L60.3659 29.76L60.1998 30.681L60.3759 29.76C60.552 29.7902 60.7735 29.8305 60.9999 29.9261C61.478 30.1224 61.7094 30.671 61.5132 31.1491C61.3672 31.5064 61.015 31.7278 60.6477 31.7278Z" fill="#F9A01B"/>
<path d="M60.6478 32.2312C60.4616 32.2312 60.2804 32.196 60.1043 32.1255C60.0892 32.1205 60.0288 32.1104 59.9735 32.1003L59.4854 32.0097L59.5508 31.5165L59.7118 30.5905H59.7068L59.8728 29.6695H59.8879L59.9835 29.1763L60.4717 29.2618C60.6629 29.2971 60.9195 29.3424 61.2013 29.4581C61.5586 29.6041 61.8354 29.8809 61.9813 30.2332C62.1272 30.5855 62.1323 30.978 61.9863 31.3354C61.7549 31.8789 61.2365 32.2312 60.6478 32.2312ZM60.6226 31.2246C60.8239 31.2397 60.9799 31.129 61.0503 30.9579C61.0956 30.8522 61.0906 30.7364 61.0503 30.6257C61.0051 30.52 60.9245 30.4345 60.8138 30.3942C60.7987 30.3892 60.7887 30.3841 60.7736 30.3791L60.6226 31.2246Z" fill="#F9A01B"/>
<path d="M60.1441 31.6019C60.0686 31.6019 59.9982 31.5919 59.9227 31.5768C59.7164 31.5265 59.505 31.4963 59.2887 31.4711C58.7754 31.4107 58.408 30.9477 58.4684 30.4343C58.5288 29.921 59.0018 29.5536 59.505 29.614C59.7969 29.6492 60.0888 29.6945 60.3605 29.7599C60.8637 29.8807 61.1707 30.384 61.0499 30.8873C60.9493 31.31 60.5668 31.6019 60.1441 31.6019Z" fill="#F9A01B"/>
<path d="M60.1443 32.1053C60.0336 32.1053 59.9178 32.0902 59.8071 32.065C59.6461 32.0248 59.465 31.9946 59.2335 31.9694C58.851 31.9241 58.5088 31.7329 58.2723 31.4359C58.0358 31.134 57.9251 30.7565 57.9704 30.374C58.061 29.5889 58.7705 29.0252 59.5656 29.1108C59.9078 29.151 60.2097 29.2013 60.4815 29.2668C61.2514 29.453 61.7294 30.2331 61.5432 31.0031C61.3872 31.6523 60.8136 32.1053 60.1443 32.1053ZM59.3995 30.1073C59.1832 30.1073 58.9919 30.2733 58.9668 30.4897C58.9517 30.6055 58.9869 30.7162 59.0574 30.8068C59.1278 30.8974 59.2335 30.9528 59.3442 30.9679C59.6159 30.9981 59.8373 31.0383 60.0386 31.0836C60.2852 31.144 60.5066 30.988 60.562 30.7666C60.6173 30.535 60.4764 30.2985 60.2449 30.2431C60.0135 30.1878 59.7518 30.1425 59.4499 30.1073C59.4297 30.1073 59.4146 30.1073 59.3995 30.1073Z" fill="#F9A01B"/>
<path d="M59.2187 31.461C59.1734 31.461 59.123 31.4559 59.0778 31.4509C58.8412 31.4157 58.5947 31.3905 58.3481 31.3905C57.8298 31.3905 57.4121 30.9728 57.4121 30.4544C57.4121 29.936 57.8298 29.5183 58.3481 29.5183C58.6903 29.5183 59.0375 29.5485 59.3646 29.5988C59.8779 29.6794 60.2251 30.1575 60.1496 30.6658C60.0691 31.1288 59.6715 31.461 59.2187 31.461Z" fill="#F9A01B"/>
<path d="M59.2186 31.9643C59.1431 31.9643 59.0727 31.9593 59.0022 31.9492C58.7556 31.914 58.5443 31.8939 58.343 31.8939C57.5479 31.8939 56.9038 31.2496 56.9038 30.4545C56.9038 29.6593 57.5479 29.0151 58.343 29.0151C58.6902 29.0151 59.0576 29.0453 59.435 29.1057C59.8124 29.1661 60.1495 29.3674 60.376 29.6794C60.6024 29.9914 60.6981 30.3689 60.6377 30.7514C60.527 31.451 59.9281 31.9643 59.2186 31.9643ZM58.343 30.0216C58.1065 30.0216 57.9102 30.2179 57.9102 30.4545C57.9102 30.691 58.1065 30.8873 58.343 30.8873C58.5946 30.8873 58.8563 30.9074 59.1481 30.9527C59.3595 30.9829 59.6061 30.8219 59.6413 30.5903C59.6614 30.4746 59.6312 30.3639 59.5608 30.2682C59.4903 30.1726 59.3897 30.1122 59.279 30.0971C58.9519 30.0468 58.6349 30.0216 58.343 30.0216Z" fill="#F9A01B"/>
<path d="M126.725 46.8212C126.207 46.8212 125.789 46.4035 125.789 45.8851V36.2774C125.789 33.5496 123.665 31.4006 120.948 31.3754H58.2021C57.6838 31.3754 57.2661 30.9577 57.2661 30.4393C57.2661 29.921 57.6838 29.5032 58.2021 29.5032H120.958C124.722 29.5334 127.661 32.5129 127.661 36.2774V45.8851C127.661 46.4035 127.243 46.8212 126.725 46.8212Z" fill="#F9A01B"/>
<path d="M126.725 47.3245C125.93 47.3245 125.285 46.6803 125.285 45.8851V36.2724C125.285 33.8265 123.378 31.8939 120.943 31.8737H58.2019C57.4068 31.8737 56.7627 31.2295 56.7627 30.4344C56.7627 29.6392 57.4068 29 58.2019 29H120.958C124.999 29.0352 128.164 32.2311 128.164 36.2775V45.8902C128.164 46.6803 127.52 47.3245 126.725 47.3245ZM120.953 30.0066H58.2019C57.9654 30.0066 57.7691 30.2028 57.7691 30.4394C57.7691 30.6759 57.9654 30.8722 58.2019 30.8722H120.948C123.947 30.8974 126.292 33.2729 126.292 36.2775V45.8902C126.292 46.1267 126.488 46.323 126.725 46.323C126.961 46.323 127.157 46.1267 127.157 45.8902V36.2775C127.157 32.7897 124.43 30.0368 120.953 30.0066Z" fill="#F9A01B"/>
<path d="M126.725 100.889C126.207 100.889 125.789 100.471 125.789 99.9524V45.8848C125.789 45.3665 126.207 44.9487 126.725 44.9487C127.243 44.9487 127.661 45.3665 127.661 45.8848V99.9524C127.661 100.471 127.243 100.889 126.725 100.889Z" fill="#F9A01B"/>
<path d="M126.725 101.392C125.93 101.392 125.286 100.748 125.286 99.9525V45.8849C125.286 45.0897 125.93 44.4455 126.725 44.4455C127.52 44.4455 128.164 45.0897 128.164 45.8849V99.9525C128.164 100.748 127.52 101.392 126.725 101.392ZM126.725 45.4571C126.488 45.4571 126.292 45.6534 126.292 45.8899V99.9575C126.292 100.194 126.488 100.39 126.725 100.39C126.961 100.39 127.158 100.194 127.158 99.9575V45.8849C127.158 45.6483 126.961 45.4571 126.725 45.4571Z" fill="#F9A01B"/>
<path d="M68.9208 42.3772C68.4025 42.3772 67.9848 41.9595 67.9848 41.4411C67.9848 41.0989 67.9697 40.7667 67.9345 40.4345C67.9093 40.1175 67.8691 39.8558 67.8187 39.594C67.7432 39.2065 67.6527 38.824 67.5369 38.4466C67.1545 37.2337 66.5557 36.1113 65.7606 35.1199C65.5845 34.8934 65.4033 34.6921 65.202 34.5008C65.1618 34.4656 65.1265 34.4253 65.0963 34.38C64.8548 34.1435 64.6585 33.9673 64.4573 33.7912C64.1905 33.5547 63.9389 33.3684 63.6823 33.1873C63.6521 33.1671 63.6269 33.142 63.5968 33.1218L63.5615 33.1017C63.3451 32.9608 63.1187 32.8098 62.8923 32.694C62.5702 32.5028 62.2934 32.3669 62.0066 32.2411C61.7097 32.1102 61.4128 31.9945 61.1008 31.8888C60.8995 31.8183 60.7133 31.763 60.5221 31.7177C60.4466 31.7076 60.3711 31.6875 60.2957 31.6573C60.2504 31.6372 60.1447 31.617 60.0491 31.6019C60.0139 31.5969 59.9786 31.5868 59.9434 31.5768H59.9384C59.717 31.5264 59.5157 31.4912 59.2943 31.466C59.249 31.466 59.1232 31.456 59.0779 31.4509C58.786 31.4056 58.4791 31.4308 58.1872 31.3754H57.9306C52.3801 31.3754 47.8612 35.8899 47.8612 41.4411C47.8612 41.9595 47.4436 42.3772 46.9252 42.3772C46.4069 42.3772 45.9893 41.9595 45.9893 41.4411C45.9842 34.8582 51.3384 29.5032 57.9205 29.5032H58.1973C58.2425 29.5032 58.308 29.5083 58.3784 29.5183C58.7055 29.5183 59.0376 29.5536 59.3547 29.5989C59.2993 29.5888 59.4452 29.5888 59.6012 29.624C59.7925 29.6391 60.0642 29.6844 60.351 29.7498C60.3711 29.7549 60.3862 29.7599 60.4064 29.7649C60.5322 29.7851 60.668 29.8153 60.8089 29.8555C60.8744 29.8656 60.9448 29.8807 61.0102 29.9109C61.2467 29.9663 61.4782 30.0367 61.7097 30.1172C62.0569 30.233 62.4041 30.3689 62.7564 30.5199C63.1187 30.6809 63.4659 30.852 63.8031 31.0533C64.0346 31.1741 64.3164 31.3553 64.5881 31.5315C64.5982 31.5415 64.6384 31.5667 64.6787 31.5969C64.734 31.6271 64.7793 31.6623 64.8296 31.7026C65.1165 31.9089 65.3983 32.1253 65.6599 32.3518C65.9065 32.5682 66.1229 32.7595 66.3242 32.9608C66.4198 33.0413 66.4902 33.1218 66.5406 33.1923C66.7922 33.4339 67.0136 33.6905 67.2249 33.9623C68.1609 35.1249 68.8704 36.4536 69.3183 37.8879C69.4592 38.3258 69.5649 38.7838 69.6555 39.2367C69.7209 39.5689 69.7662 39.896 69.7964 40.2382C69.8417 40.6258 69.8568 41.0284 69.8568 41.4461C69.8568 41.9595 69.4391 42.3772 68.9208 42.3772Z" fill="#F9A01B"/>
<path d="M68.9207 42.8805C68.1256 42.8805 67.4815 42.2363 67.4815 41.4411C67.4815 41.0737 67.4664 40.7718 67.4362 40.495C67.4111 40.198 67.3758 39.9565 67.3255 39.6897C67.24 39.2619 67.1544 38.9147 67.0538 38.5976C66.6915 37.44 66.1228 36.3781 65.363 35.4319C65.1869 35.2055 65.0258 35.0243 64.8497 34.8632C64.7994 34.8179 64.7541 34.7676 64.7088 34.7123C64.4874 34.4958 64.3012 34.3348 64.12 34.1687C63.8634 33.9422 63.6168 33.7611 63.3853 33.6C63.3602 33.5799 63.33 33.5597 63.3048 33.5396L63.2797 33.5245C63.0532 33.3786 62.8469 33.2427 62.6507 33.142C62.3487 32.9659 62.0921 32.835 61.7952 32.7042C61.5084 32.5783 61.2215 32.4676 60.9297 32.372C60.7334 32.3015 60.5673 32.2562 60.4013 32.216C60.3208 32.2059 60.205 32.1757 60.0943 32.1304C60.0792 32.1304 60.0188 32.1203 59.9635 32.1103C59.9031 32.1002 59.8528 32.0902 59.8075 32.0751C59.6364 32.0247 59.4552 31.9945 59.254 31.9694C59.1785 31.9643 59.0527 31.9543 58.9973 31.9492C58.8765 31.9291 58.7558 31.9241 58.63 31.919C58.474 31.914 58.3079 31.9039 58.1368 31.8788H57.9204C52.6467 31.8788 48.3593 36.1718 48.3593 41.4411C48.3593 42.2363 47.7152 42.8805 46.9202 42.8805C46.1251 42.8805 45.481 42.2363 45.481 41.4411C45.481 34.5814 51.0616 29 57.9204 29H58.1972C58.2475 29 58.328 29.005 58.4086 29.0151C58.7054 29.0201 59.0174 29.0453 59.3395 29.0906C59.4301 29.0856 59.5408 29.1007 59.6767 29.1258C59.893 29.146 60.1698 29.1963 60.4566 29.2617L60.5673 29.2869C60.6579 29.302 60.7837 29.3271 60.9146 29.3674C60.9951 29.3825 61.0756 29.4026 61.1511 29.4328C61.3876 29.4932 61.6191 29.5637 61.8656 29.6492C62.2129 29.77 62.5802 29.9059 62.9425 30.067C63.3501 30.2481 63.7124 30.4293 64.0496 30.6306C64.276 30.7464 64.5578 30.9276 64.8547 31.1239C64.8547 31.1239 64.89 31.144 64.9252 31.1691C65.0007 31.2144 65.0711 31.2648 65.1315 31.3201C65.4787 31.5718 65.7505 31.7832 65.9819 31.9895C66.2386 32.216 66.46 32.4123 66.6663 32.6136C66.7569 32.6891 66.8475 32.7897 66.9079 32.8652C67.1595 33.1068 67.3909 33.3685 67.6174 33.6654C68.5886 34.8733 69.3233 36.2473 69.7963 37.747C69.9271 38.1547 70.0378 38.6127 70.1435 39.1512C70.214 39.5035 70.2593 39.8457 70.2895 40.2081C70.3297 40.5805 70.3549 40.9982 70.3549 41.4562C70.3599 42.2363 69.7158 42.8805 68.9207 42.8805ZM59.9987 31.0735L60.0843 31.0937C60.0994 31.0987 60.1195 31.1037 60.1346 31.1037C60.3006 31.1339 60.3963 31.154 60.4818 31.1893C60.512 31.2044 60.5472 31.2094 60.5875 31.2195C60.834 31.2748 61.0353 31.3302 61.2618 31.4107C61.5788 31.5164 61.8908 31.6372 62.2028 31.7731C62.5399 31.919 62.8318 32.07 63.1438 32.2562C63.3602 32.367 63.5866 32.5179 63.808 32.6639L63.9238 32.7394C63.9389 32.7495 63.954 32.7646 63.964 32.7746C64.2157 32.9508 64.4874 33.1521 64.7793 33.4138C64.9856 33.595 65.1869 33.7761 65.4385 34.0228L65.4938 34.0832C65.5039 34.0982 65.519 34.1133 65.5341 34.1284C65.7454 34.3298 65.9467 34.5512 66.148 34.8079C66.9783 35.8446 67.6073 37.0173 68.0099 38.2956C68.1206 38.6479 68.2162 39.0254 68.3068 39.4934C68.3621 39.7954 68.4024 40.0772 68.4276 40.3893C68.4628 40.6963 68.4779 41.0335 68.4779 41.4361C68.4779 41.6726 68.6741 41.8689 68.9106 41.8689C69.1472 41.8689 69.3434 41.6726 69.3434 41.4361C69.3434 41.0133 69.3233 40.6359 69.283 40.2836C69.2528 39.9464 69.2126 39.6394 69.1472 39.3223C69.0465 38.819 68.9408 38.3963 68.8251 38.0289C68.3923 36.6499 67.718 35.3867 66.8173 34.2694C66.6059 33.9976 66.3996 33.7661 66.1732 33.5497L66.148 33.4993C66.1077 33.454 66.0625 33.3937 66.0021 33.3433C65.7756 33.1269 65.5693 32.9407 65.3328 32.7344C65.1114 32.5381 64.8648 32.3418 64.5327 32.1103L64.4924 32.0801C64.4723 32.06 64.4471 32.0449 64.422 32.0298L64.3213 31.9643C64.0496 31.7832 63.7779 31.612 63.5715 31.5013C63.2444 31.3101 62.9174 31.144 62.55 30.9829C62.2129 30.837 61.8757 30.7061 61.5486 30.5954C61.3171 30.5149 61.1058 30.4495 60.8944 30.3991L60.824 30.379C60.7988 30.3689 60.7686 30.3639 60.7384 30.3589L60.663 30.3387C60.5422 30.3035 60.4214 30.2783 60.3157 30.2582L59.9031 30.1726C59.7723 30.1475 59.6565 30.1324 59.5609 30.1223L59.4955 30.1123C59.4452 30.1022 59.3949 30.0921 59.3697 30.0921L59.3848 29.5939H59.3747L59.2892 30.0921C58.9722 30.0418 58.6702 30.0166 58.3884 30.0166L58.3331 30.0116C58.2777 30.0116 58.2324 30.0066 58.2022 30.0066H57.9255C51.6151 30.0066 46.4874 35.135 46.4874 41.4411C46.4874 41.6777 46.6836 41.874 46.9202 41.874C47.1567 41.874 47.3529 41.6777 47.3529 41.4411C47.3529 35.6131 52.0932 30.8722 57.9204 30.8722L58.2677 30.8823C58.3985 30.9074 58.5344 30.9125 58.6702 30.9175C58.8313 30.9225 58.9923 30.9326 59.1483 30.9578C59.1785 30.9628 59.254 30.9678 59.2892 30.9678L59.3496 30.9729C59.581 30.998 59.7823 31.0333 59.9937 31.0786L59.9987 31.0735Z" fill="#F9A01B"/>
<path d="M68.8907 42.3772H46.9204C46.402 42.3772 45.9844 41.9595 45.9844 41.4411C45.9844 40.9227 46.402 40.505 46.9204 40.505H68.8958C69.4141 40.505 69.8317 40.9227 69.8317 41.4411C69.8317 41.9595 69.409 42.3772 68.8907 42.3772Z" fill="#F9A01B"/>
<path d="M68.8905 42.8805H46.9202C46.1251 42.8805 45.481 42.2363 45.481 41.4412C45.481 40.646 46.1251 40.0018 46.9202 40.0018H68.8956C69.6906 40.0018 70.3347 40.646 70.3347 41.4412C70.3347 42.2363 69.6856 42.8805 68.8905 42.8805ZM46.9202 41.0083C46.6836 41.0083 46.4874 41.2046 46.4874 41.4412C46.4874 41.6777 46.6836 41.874 46.9202 41.874H68.8956C69.1321 41.874 69.3283 41.6777 69.3283 41.4412C69.3283 41.2046 69.1321 41.0083 68.8956 41.0083H46.9202Z" fill="#F9A01B"/>
<path d="M99.7327 76.54H76.1269C75.6086 76.54 75.1909 76.1223 75.1909 75.6039C75.1909 75.0855 75.6086 74.6678 76.1269 74.6678H99.7327C100.251 74.6678 100.669 75.0855 100.669 75.6039C100.669 76.1223 100.246 76.54 99.7327 76.54Z" fill="#F9A01B"/>
<path d="M99.7325 77.0433H76.1267C75.3316 77.0433 74.6875 76.3991 74.6875 75.6039C74.6875 74.8088 75.3316 74.1646 76.1267 74.1646H99.7325C100.528 74.1646 101.172 74.8088 101.172 75.6039C101.172 76.3991 100.523 77.0433 99.7325 77.0433ZM76.1267 75.1711C75.8902 75.1711 75.6939 75.3674 75.6939 75.6039C75.6939 75.8405 75.8902 76.0368 76.1267 76.0368H99.7325C99.969 76.0368 100.165 75.8405 100.165 75.6039C100.165 75.3674 99.969 75.1711 99.7325 75.1711H76.1267Z" fill="#F9A01B"/>
<path d="M87.6452 81.4217H76.1215C75.6032 81.4217 75.1855 81.004 75.1855 80.4856C75.1855 79.9672 75.6032 79.5495 76.1215 79.5495H87.6452C88.1635 79.5495 88.5811 79.9672 88.5811 80.4856C88.5811 81.004 88.1635 81.4217 87.6452 81.4217Z" fill="#F9A01B"/>
<path d="M87.6449 81.925H76.1213C75.3262 81.925 74.6821 81.2808 74.6821 80.4857C74.6821 79.6905 75.3262 79.0463 76.1213 79.0463H87.6449C88.44 79.0463 89.0841 79.6905 89.0841 80.4857C89.0841 81.2808 88.44 81.925 87.6449 81.925ZM76.1264 80.0528C75.8898 80.0528 75.6936 80.2491 75.6936 80.4857C75.6936 80.7222 75.8898 80.9185 76.1264 80.9185H87.65C87.8865 80.9185 88.0827 80.7222 88.0827 80.4857C88.0827 80.2491 87.8865 80.0528 87.65 80.0528H76.1264Z" fill="#F9A01B"/>
<path d="M94.5244 88.144H76.1269C75.6086 88.144 75.1909 87.7263 75.1909 87.2079C75.1909 86.6895 75.6086 86.2718 76.1269 86.2718H94.5244C95.0427 86.2718 95.4604 86.6895 95.4604 87.2079C95.4604 87.7263 95.0427 88.144 94.5244 88.144Z" fill="#F9A01B"/>
<path d="M94.5242 88.6473H76.1267C75.3316 88.6473 74.6875 88.0031 74.6875 87.2079C74.6875 86.4128 75.3316 85.7686 76.1267 85.7686H94.5242C95.3193 85.7686 95.9634 86.4128 95.9634 87.2079C95.9634 88.0031 95.3193 88.6473 94.5242 88.6473ZM76.1267 86.7751C75.8902 86.7751 75.6939 86.9714 75.6939 87.2079C75.6939 87.4445 75.8902 87.6408 76.1267 87.6408H94.5242C94.7607 87.6408 94.957 87.4445 94.957 87.2079C94.957 86.9714 94.7607 86.7751 94.5242 86.7751H76.1267Z" fill="#F9A01B"/>
<path d="M85.2249 93.2407H76.3935C75.8752 93.2407 75.4575 92.8229 75.4575 92.3046C75.4575 91.7862 75.8752 91.3685 76.3935 91.3685H85.2249C85.7432 91.3685 86.1609 91.7862 86.1609 92.3046C86.1609 92.8179 85.7432 93.2407 85.2249 93.2407Z" fill="#F9A01B"/>
<path d="M85.2247 93.744H76.3933C75.5982 93.744 74.9541 93.0998 74.9541 92.3046C74.9541 91.5094 75.5982 90.8652 76.3933 90.8652H85.2247C86.0198 90.8652 86.6639 91.5094 86.6639 92.3046C86.6639 93.0998 86.0198 93.744 85.2247 93.744ZM76.3933 91.8718C76.1568 91.8718 75.9605 92.0681 75.9605 92.3046C75.9605 92.5412 76.1568 92.7374 76.3933 92.7374H85.2247C85.4612 92.7374 85.6575 92.5412 85.6575 92.3046C85.6575 92.0681 85.4612 91.8718 85.2247 91.8718H76.3933Z" fill="#F9A01B"/>
<path d="M104.624 98.2164H76.1269C75.6086 98.2164 75.1909 97.7987 75.1909 97.2803C75.1909 96.7619 75.6086 96.3442 76.1269 96.3442H104.629C105.147 96.3442 105.565 96.7619 105.565 97.2803C105.565 97.7987 105.142 98.2164 104.624 98.2164Z" fill="#F9A01B"/>
<path d="M104.624 98.7197H76.1267C75.3316 98.7197 74.6875 98.0755 74.6875 97.2803C74.6875 96.4851 75.3316 95.8409 76.1267 95.8409H104.629C105.424 95.8409 106.068 96.4851 106.068 97.2803C106.068 98.0755 105.419 98.7197 104.624 98.7197ZM76.1267 96.8525C75.8902 96.8525 75.6939 97.0488 75.6939 97.2854C75.6939 97.5219 75.8902 97.7182 76.1267 97.7182H104.629C104.865 97.7182 105.062 97.5219 105.062 97.2854C105.062 97.0488 104.865 96.8525 104.629 96.8525H76.1267Z" fill="#F9A01B"/>
<path d="M68.9507 84.4163H68.684C68.1657 84.4163 67.748 83.9986 67.748 83.4802C67.748 82.9619 68.1657 82.5441 68.684 82.5441H68.9256C69.4439 82.5441 69.8766 82.9619 69.8766 83.4802C69.8766 83.9986 69.464 84.4163 68.9507 84.4163Z" fill="#F9A01B"/>
<path d="M68.9505 84.9197H68.6838C67.8887 84.9197 67.2446 84.2755 67.2446 83.4803C67.2446 82.6851 67.8887 82.0409 68.6838 82.0409H68.9254C69.7255 82.0409 70.3797 82.6851 70.3797 83.4803C70.3797 84.2755 69.7355 84.9197 68.9505 84.9197ZM68.6838 83.0475C68.4473 83.0475 68.2511 83.2437 68.2511 83.4803C68.2511 83.7168 68.4473 83.9131 68.6838 83.9131H68.9505C69.187 83.9131 69.3682 83.7219 69.3682 83.4803C69.3682 83.2437 69.1619 83.0475 68.9203 83.0475H68.6838Z" fill="#F9A01B"/>
<path d="M96.059 125.258C95.8527 125.258 95.6464 125.192 95.4803 125.056L43.9209 84.2149C43.5183 83.8928 43.4479 83.3039 43.77 82.9013C44.092 82.4936 44.6808 82.4282 45.0833 82.7503L96.059 123.134L146.864 82.7503C147.266 82.4282 147.855 82.4936 148.177 82.9013C148.499 83.3039 148.434 83.8928 148.026 84.2149L96.6377 125.056C96.4666 125.192 96.2653 125.258 96.059 125.258Z" fill="#F9A01B"/>
<path d="M96.0591 125.766C95.737 125.766 95.42 125.655 95.1684 125.454L43.609 84.6075C42.985 84.1142 42.8793 83.2083 43.3725 82.5843C43.8656 81.9652 44.7714 81.8595 45.3904 82.3477L96.0541 122.484L146.552 82.3528C146.849 82.1162 147.231 82.0055 147.608 82.0508C147.991 82.0961 148.333 82.2823 148.575 82.5843C148.811 82.8862 148.922 83.2587 148.877 83.6412C148.831 84.0237 148.645 84.3659 148.343 84.6075L96.9548 125.449C96.6982 125.65 96.3811 125.766 96.0591 125.766ZM44.4997 83.0523C44.3739 83.0523 44.243 83.1077 44.1575 83.2184C44.0116 83.4046 44.0417 83.6764 44.2279 83.8274L95.7823 124.669C95.9383 124.79 96.1648 124.79 96.3157 124.669L147.704 83.8274C147.795 83.7569 147.85 83.6512 147.865 83.5355C147.88 83.4197 147.845 83.309 147.775 83.2184C147.704 83.1278 147.598 83.0725 147.483 83.0574C147.367 83.0423 147.256 83.0775 147.166 83.1479L96.044 123.778L44.7664 83.1429C44.6909 83.0825 44.5953 83.0523 44.4997 83.0523Z" fill="#F9A01B"/>
<path d="M147.447 143.497L44.4994 143.411C44.1069 143.411 43.7094 143.17 43.5735 142.797C43.4376 142.43 43.493 142.017 43.7949 141.76C43.8 141.755 43.9006 141.67 43.9056 141.665L80.2126 111.528C80.6101 111.196 81.1989 111.251 81.531 111.649C81.8631 112.047 81.8078 112.635 81.4102 112.968L46.9903 141.539L144.82 141.62L110.199 113.355C109.797 113.028 109.741 112.439 110.063 112.037C110.39 111.639 110.979 111.579 111.382 111.906L148.041 141.831C148.348 142.083 148.464 142.495 148.333 142.868C148.192 143.245 147.84 143.497 147.447 143.497Z" fill="#F9A01B"/>
<path d="M147.447 144L44.4995 143.915C43.8805 143.915 43.3068 143.527 43.1005 142.973C42.8841 142.385 43.025 141.76 43.4628 141.383L43.5283 141.328C43.5735 141.292 43.6138 141.257 43.6188 141.257L79.8906 111.146C80.1824 110.899 80.5548 110.783 80.9423 110.819C81.3247 110.854 81.672 111.035 81.9185 111.332C82.1651 111.629 82.2808 112.001 82.2456 112.384C82.2104 112.766 82.0292 113.114 81.7323 113.36L48.3843 141.041L143.406 141.116L109.877 113.748C109.263 113.245 109.173 112.339 109.671 111.725C110.179 111.111 111.085 111.02 111.699 111.518L148.358 141.443C148.831 141.831 149.007 142.47 148.801 143.044C148.595 143.613 148.051 144 147.447 144ZM44.117 142.148C43.9761 142.269 43.9862 142.475 44.0415 142.626C44.0969 142.782 44.3032 142.908 44.4944 142.908L147.442 142.994V143.497V142.994C147.623 142.994 147.789 142.878 147.85 142.707C147.91 142.536 147.855 142.344 147.714 142.229L111.055 112.303C110.868 112.152 110.597 112.183 110.446 112.364C110.3 112.545 110.325 112.822 110.511 112.973L146.229 142.128L45.5965 142.042L81.0882 112.585C81.1788 112.51 81.2342 112.409 81.2442 112.293C81.2543 112.178 81.2191 112.067 81.1486 111.976C81.0731 111.886 80.9725 111.83 80.8568 111.82C80.736 111.81 80.6303 111.845 80.5448 111.916L44.1875 142.093C44.1623 142.108 44.1422 142.128 44.117 142.148Z" fill="#F9A01B"/>
<path d="M147.447 84.4164C147.241 84.4164 147.034 84.3509 146.863 84.2151L126.448 67.9943C126.045 67.6722 125.975 67.0833 126.297 66.6807C126.619 66.2731 127.208 66.2076 127.61 66.5297L148.026 82.7505C148.428 83.0726 148.499 83.6615 148.177 84.0641C147.995 84.2956 147.724 84.4164 147.447 84.4164Z" fill="#F9A01B"/>
<path d="M147.447 84.9197C147.12 84.9197 146.803 84.809 146.551 84.6077L126.141 68.3869C125.839 68.1503 125.648 67.8081 125.608 67.4256C125.562 67.0431 125.673 66.6657 125.91 66.3637C126.146 66.0617 126.488 65.8755 126.871 65.8302C127.253 65.7849 127.631 65.8956 127.932 66.1322L148.348 82.353C148.65 82.5895 148.841 82.9317 148.881 83.3142C148.927 83.6967 148.816 84.0742 148.579 84.3711C148.298 84.7234 147.89 84.9197 147.447 84.9197ZM127.032 66.8267C127.017 66.8267 126.996 66.8267 126.981 66.8317C126.866 66.8468 126.765 66.9022 126.695 66.9928C126.619 67.0834 126.589 67.1991 126.604 67.3149C126.619 67.4306 126.674 67.5313 126.765 67.6018L147.18 83.8225C147.276 83.898 147.382 83.9182 147.447 83.9182C147.578 83.9182 147.704 83.8578 147.784 83.7571C147.855 83.6665 147.89 83.5508 147.875 83.4401C147.86 83.3243 147.804 83.2236 147.714 83.1532L127.298 66.9324C127.223 66.8619 127.127 66.8267 127.032 66.8267Z" fill="#F9A01B"/>
<path d="M68.6838 84.4166H44.4993C44.1018 84.4166 43.7445 84.165 43.6137 83.7875C43.4828 83.4101 43.6036 82.9923 43.9156 82.7457L68.2662 63.4549C68.6687 63.1379 69.2575 63.2033 69.5796 63.6059C69.9016 64.0136 69.8312 64.5974 69.4286 64.9195L47.1865 82.5444H68.6788C69.1971 82.5444 69.6148 82.9621 69.6148 83.4805C69.6148 83.9989 69.1971 84.4166 68.6838 84.4166Z" fill="#F9A01B"/>
<path d="M68.6838 84.9197H44.4993C43.8854 84.9197 43.3419 84.5322 43.1406 83.9534C42.9393 83.3746 43.1255 82.7304 43.6086 82.353L67.9592 63.0622C68.5782 62.569 69.4839 62.6746 69.9771 63.2937C70.4702 63.9177 70.3646 64.8237 69.7456 65.3169L48.6357 82.0409H68.6838C69.4789 82.0409 70.123 82.6852 70.123 83.4803C70.123 84.2755 69.4739 84.9197 68.6838 84.9197ZM68.8499 63.7617C68.7543 63.7617 68.6637 63.7919 68.5832 63.8523L44.2326 83.1431C44.0867 83.2589 44.0313 83.4501 44.0917 83.6263C44.1521 83.7974 44.3182 83.9182 44.4993 83.9182H68.6838C68.9203 83.9182 69.1166 83.7219 69.1166 83.4854C69.1166 83.2488 68.9203 83.0525 68.6838 83.0525H45.7423L69.1216 64.5318C69.3078 64.3858 69.343 64.109 69.1921 63.9228C69.1065 63.8171 68.9807 63.7617 68.8499 63.7617Z" fill="#F9A01B"/>
<path d="M90.3729 66.8266H76.1269C75.6086 66.8266 75.1909 66.4088 75.1909 65.8905C75.1909 65.3721 75.6086 64.9543 76.1269 64.9543H90.3779C90.8963 64.9543 91.3139 65.3721 91.3139 65.8905C91.3139 66.4088 90.8912 66.8266 90.3729 66.8266Z" fill="#F9A01B"/>
<path d="M90.3727 67.3299H76.1267C75.3316 67.3299 74.6875 66.6857 74.6875 65.8905C74.6875 65.0953 75.3316 64.4511 76.1267 64.4511H90.3777C91.1728 64.4511 91.8169 65.0953 91.8169 65.8905C91.8169 66.6857 91.1678 67.3299 90.3727 67.3299ZM76.1267 65.4627C75.8902 65.4627 75.6939 65.659 75.6939 65.8955C75.6939 66.1321 75.8902 66.3283 76.1267 66.3283H90.3777C90.6143 66.3283 90.8105 66.1321 90.8105 65.8955C90.8105 65.659 90.6143 65.4627 90.3777 65.4627H76.1267Z" fill="#F9A01B"/>
<path d="M94.5244 62.1613H76.1269C75.6086 62.1613 75.1909 61.7436 75.1909 61.2252C75.1909 60.7068 75.6086 60.2891 76.1269 60.2891H94.5244C95.0427 60.2891 95.4604 60.7068 95.4604 61.2252C95.4604 61.7385 95.0427 62.1613 94.5244 62.1613Z" fill="#F9A01B"/>
<path d="M94.5242 62.6646H76.1267C75.3316 62.6646 74.6875 62.0204 74.6875 61.2252C74.6875 60.43 75.3316 59.7858 76.1267 59.7858H94.5242C95.3193 59.7858 95.9634 60.43 95.9634 61.2252C95.9634 62.0204 95.3193 62.6646 94.5242 62.6646ZM76.1267 60.7924C75.8902 60.7924 75.6939 60.9887 75.6939 61.2252C75.6939 61.4618 75.8902 61.658 76.1267 61.658H94.5242C94.7607 61.658 94.957 61.4618 94.957 61.2252C94.957 60.9887 94.7607 60.7924 94.5242 60.7924H76.1267Z" fill="#F9A01B"/>
<path d="M90.3729 54.0685H76.1269C75.6086 54.0685 75.1909 53.6508 75.1909 53.1324C75.1909 52.614 75.6086 52.1963 76.1269 52.1963H90.3779C90.8963 52.1963 91.3139 52.614 91.3139 53.1324C91.3089 53.6508 90.8912 54.0685 90.3729 54.0685Z" fill="#F9A01B"/>
<path d="M90.3727 54.5718H76.1267C75.3316 54.5718 74.6875 53.9276 74.6875 53.1324C74.6875 52.3373 75.3316 51.6931 76.1267 51.6931H90.3777C91.1728 51.6931 91.8169 52.3373 91.8169 53.1324C91.8169 53.9276 91.1678 54.5718 90.3727 54.5718ZM76.1267 52.6996C75.8902 52.6996 75.6939 52.8959 75.6939 53.1324C75.6939 53.369 75.8902 53.5653 76.1267 53.5653H90.3777C90.6143 53.5653 90.8105 53.369 90.8105 53.1324C90.8105 52.8959 90.6143 52.6996 90.3777 52.6996H76.1267Z" fill="#F9A01B"/>
<path d="M140.357 105.7C155.309 105.7 167.43 93.5776 167.43 78.6236C167.43 63.6697 155.309 51.5471 140.357 51.5471C125.405 51.5471 113.284 63.6697 113.284 78.6236C113.284 93.5776 125.405 105.7 140.357 105.7Z" fill="white"/>
<path d="M140.357 105.7C155.309 105.7 167.43 93.5776 167.43 78.6236C167.43 63.6697 155.309 51.5471 140.357 51.5471C125.405 51.5471 113.284 63.6697 113.284 78.6236C113.284 93.5776 125.405 105.7 140.357 105.7Z" fill="white"/>
<path d="M140.357 106.717C124.838 106.717 112.212 94.0895 112.212 78.5683C112.212 68.558 117.607 59.2171 126.287 54.1944C126.77 53.9176 127.384 54.0786 127.661 54.5618C127.938 55.0449 127.777 55.6589 127.294 55.9357C119.232 60.6011 114.225 69.2727 114.225 78.5683C114.225 92.9773 125.945 104.704 140.357 104.704C154.769 104.704 166.489 92.9823 166.489 78.5683C166.489 65.2716 156.51 54.2648 143.653 52.6392L145.787 54.2397C146.23 54.5718 146.32 55.206 145.988 55.6488C145.656 56.0917 145.027 56.1823 144.579 55.8502L139.763 52.2366C139.733 52.2165 139.703 52.1913 139.678 52.1661C139.653 52.141 139.628 52.1158 139.607 52.0906C139.451 51.9145 139.356 51.683 139.356 51.4263C139.356 51.1696 139.451 50.9381 139.607 50.762C139.633 50.7368 139.658 50.7116 139.683 50.6865C139.708 50.6613 139.738 50.6412 139.763 50.6211L144.579 47.0075C145.027 46.6753 145.656 46.7659 145.988 47.2088C146.32 47.6517 146.23 48.2858 145.787 48.618L143.19 50.5657C157.386 51.99 168.502 64.0084 168.502 78.5734C168.497 94.0895 155.876 106.717 140.357 106.717Z" fill="#2D2D82"/>
<path d="M140.357 107.22C124.561 107.22 111.709 94.3664 111.709 78.5683C111.709 68.3769 117.199 58.8749 126.03 53.7616C126.75 53.3438 127.676 53.5904 128.094 54.3101C128.511 55.0298 128.265 55.9559 127.545 56.3736C119.64 60.9484 114.728 69.4539 114.728 78.5683C114.728 92.7005 126.227 104.201 140.357 104.201C154.487 104.201 165.986 92.7005 165.986 78.5683C165.986 66.3738 157.361 55.9257 145.606 53.4797L146.089 53.8421C146.411 54.0837 146.622 54.436 146.677 54.8386C146.733 55.2412 146.632 55.6338 146.391 55.9559C145.892 56.6202 144.941 56.7561 144.277 56.2578L139.461 52.6443C139.421 52.6141 139.376 52.5788 139.335 52.5386C139.3 52.5084 139.265 52.4732 139.23 52.4329C139.008 52.1813 138.878 51.8692 138.852 51.5421L138.711 51.1898L138.883 51.1042C138.938 50.8526 139.054 50.6211 139.23 50.4248C139.27 50.3845 139.305 50.3443 139.346 50.309C139.386 50.2738 139.426 50.2386 139.471 50.2084L144.282 46.5999C144.951 46.1016 145.897 46.2375 146.396 46.9018C146.637 47.2239 146.738 47.6215 146.682 48.0191C146.627 48.4167 146.416 48.774 146.094 49.0156L144.498 50.2134C158.558 52.2366 169.01 64.2147 169.01 78.5683C169 94.3664 156.153 107.22 140.357 107.22ZM126.785 54.5618C126.7 54.5618 126.614 54.5819 126.534 54.6272C118.009 59.5594 112.71 68.7342 112.71 78.5633C112.71 93.8077 125.11 106.209 140.352 106.209C155.594 106.209 167.994 93.8077 167.994 78.5633C167.994 64.3053 157.305 52.4832 143.135 51.0589L141.852 50.9281L145.48 48.2053C145.585 48.1248 145.656 48.009 145.676 47.8732C145.696 47.7423 145.661 47.6064 145.58 47.5007C145.414 47.2793 145.097 47.234 144.876 47.4001L140.06 51.0136C140.04 51.0287 140.03 51.0388 140.015 51.0489C140 51.064 139.985 51.0791 139.975 51.0942C139.909 51.1697 139.869 51.2602 139.854 51.3609L139.954 51.683L139.929 51.6981C139.944 51.7182 139.959 51.7384 139.975 51.7585C139.985 51.7686 139.995 51.7837 140.01 51.7937C140.025 51.8088 140.04 51.8189 140.05 51.829L144.871 55.4476C145.092 55.6136 145.409 55.5683 145.575 55.3469C145.656 55.2412 145.691 55.1053 145.671 54.9745C145.651 54.8436 145.58 54.7228 145.475 54.6423L141.821 51.8994L143.708 52.136C156.978 53.8119 166.982 65.176 166.982 78.5633C166.982 93.2491 155.036 105.202 140.347 105.202C125.658 105.202 113.712 93.2541 113.712 78.5633C113.712 69.0915 118.814 60.2539 127.032 55.4979C127.273 55.357 127.354 55.05 127.218 54.8084C127.133 54.6524 126.961 54.5618 126.785 54.5618Z" fill="#2D2D82"/>
<path d="M137.75 81.0595H140.241V83.0172C140.241 83.1984 140.181 83.3595 140.065 83.4903C139.949 83.6212 139.773 83.6866 139.547 83.6866H137.755V88.5181H134.801V83.6866H126.458C126.232 83.6866 126.03 83.6161 125.854 83.4752C125.683 83.3343 125.573 83.1582 125.527 82.9468L125.185 81.2356L134.555 68.719H137.755V81.0595H137.75ZM134.796 74.5873C134.796 74.2954 134.807 73.9783 134.822 73.6411C134.842 73.3039 134.872 72.9516 134.917 72.5892L128.773 81.0595H134.791V74.5873H134.796Z" fill="#2D2D82"/>
<path d="M138.254 89.0215H134.293V84.1899H126.453C126.106 84.1899 125.799 84.0792 125.532 83.8628C125.271 83.6514 125.1 83.3746 125.029 83.0525L124.642 81.1149L134.298 68.2158H138.254V80.5562H140.744V83.0173C140.744 83.3243 140.639 83.6011 140.438 83.8276C140.287 83.9937 140.01 84.195 139.542 84.195H138.254V89.0215ZM135.3 88.0149H137.247V83.1834H139.542C139.612 83.1834 139.668 83.1733 139.688 83.1532C139.718 83.1179 139.738 83.0827 139.738 83.0173V81.5628H137.247V69.2223H134.802L125.718 81.3615L126.015 82.8512C126.036 82.9418 126.081 83.0173 126.166 83.0878C126.252 83.1582 126.337 83.1884 126.448 83.1884H135.295V88.0149H135.3ZM135.3 81.5628H127.792L135.662 70.712L135.42 72.6547C135.375 73.007 135.345 73.3492 135.33 73.6713C135.31 73.9985 135.305 74.3055 135.305 74.5873V81.5628H135.3ZM129.764 80.5562H134.293V74.5873C134.293 74.4967 134.293 74.4011 134.293 74.3055L129.764 80.5562Z" fill="#2D2D82"/>
<path d="M148.665 88.7347C147.644 88.7347 146.713 88.5988 145.867 88.322C145.022 88.0502 144.302 87.6627 143.699 87.1594C143.095 86.6561 142.627 86.0522 142.295 85.3375C141.962 84.6229 141.796 83.8327 141.796 82.957C141.796 81.7894 142.083 80.8029 142.657 79.9927C143.231 79.1874 144.126 78.5885 145.339 78.1959C144.373 77.7933 143.648 77.2246 143.17 76.4848C142.692 75.745 142.451 74.8592 142.451 73.8174C142.451 73.0675 142.602 72.373 142.908 71.7237C143.215 71.0745 143.638 70.5108 144.187 70.0327C144.735 69.5546 145.389 69.1822 146.149 68.9104C146.909 68.6436 147.749 68.5078 148.66 68.5078C149.571 68.5078 150.406 68.6436 151.171 68.9104C151.931 69.1771 152.585 69.5546 153.134 70.0327C153.682 70.5108 154.105 71.0745 154.412 71.7237C154.719 72.373 154.87 73.0675 154.87 73.8174C154.87 74.8592 154.628 75.745 154.145 76.4848C153.662 77.2246 152.943 77.7933 151.981 78.1959C153.194 78.5885 154.09 79.1874 154.664 79.9927C155.237 80.7979 155.524 81.7894 155.524 82.957C155.524 83.8327 155.358 84.6279 155.026 85.3375C154.694 86.0471 154.226 86.6561 153.622 87.1594C153.018 87.6627 152.298 88.0502 151.453 88.322C150.618 88.5988 149.687 88.7347 148.665 88.7347ZM148.665 86.0975C149.224 86.0975 149.712 86.0169 150.13 85.8559C150.547 85.6948 150.905 85.4734 151.191 85.1916C151.478 84.9097 151.695 84.5725 151.841 84.18C151.986 83.7874 152.062 83.3646 152.062 82.9067C152.062 81.8196 151.76 80.9992 151.161 80.4456C150.557 79.887 149.732 79.6102 148.67 79.6102C147.609 79.6102 146.783 79.887 146.179 80.4456C145.576 81.0043 145.279 81.8246 145.279 82.9067C145.279 83.3646 145.349 83.7874 145.495 84.18C145.641 84.5725 145.857 84.9097 146.144 85.1916C146.431 85.4734 146.783 85.6948 147.206 85.8559C147.624 86.0169 148.112 86.0975 148.665 86.0975ZM148.665 76.9579C149.214 76.9579 149.672 76.8723 150.049 76.6962C150.421 76.525 150.723 76.2935 150.95 76.0067C151.176 75.7198 151.337 75.3927 151.433 75.0202C151.529 74.6528 151.579 74.2703 151.579 73.8778C151.579 73.5053 151.519 73.148 151.403 72.8108C151.282 72.4736 151.106 72.1767 150.869 71.915C150.633 71.6533 150.331 71.4469 149.969 71.2909C149.601 71.1349 149.168 71.0594 148.67 71.0594C148.172 71.0594 147.734 71.1349 147.372 71.2909C147.005 71.4469 146.703 71.6533 146.461 71.915C146.22 72.1767 146.044 72.4736 145.928 72.8108C145.812 73.148 145.757 73.5053 145.757 73.8778C145.757 74.2703 145.802 74.6528 145.903 75.0202C145.998 75.3876 146.159 75.7198 146.386 76.0067C146.612 76.2935 146.914 76.525 147.286 76.6962C147.659 76.8673 148.117 76.9579 148.665 76.9579Z" fill="#2D2D82"/>
<path d="M148.665 89.2381C147.598 89.2381 146.602 89.0921 145.711 88.8052C144.81 88.5133 144.025 88.0906 143.376 87.5521C142.722 87.0035 142.204 86.3341 141.841 85.5591C141.479 84.784 141.293 83.9083 141.293 82.9672C141.293 81.6989 141.615 80.6017 142.249 79.7109C142.702 79.0718 143.341 78.5483 144.146 78.1457C143.567 77.7683 143.1 77.3052 142.752 76.7667C142.224 75.9464 141.952 74.9599 141.952 73.8276C141.952 73.0072 142.123 72.2322 142.46 71.5175C142.793 70.8079 143.266 70.1888 143.864 69.6654C144.458 69.147 145.173 68.7343 145.993 68.4475C146.803 68.1606 147.704 68.0146 148.67 68.0146C149.636 68.0146 150.537 68.1606 151.347 68.4475C152.167 68.7343 152.882 69.147 153.476 69.6654C154.075 70.1888 154.543 70.8129 154.88 71.5175C155.217 72.2322 155.388 73.0072 155.388 73.8276C155.388 74.9599 155.116 75.9514 154.583 76.7718C154.231 77.3103 153.763 77.7683 153.189 78.1457C153.999 78.5483 154.633 79.0718 155.091 79.7109C155.725 80.6017 156.047 81.6939 156.047 82.9672C156.047 83.9133 155.861 84.784 155.499 85.5591C155.136 86.3341 154.618 87.0035 153.964 87.5521C153.315 88.0906 152.53 88.5133 151.629 88.8052C150.728 89.0921 149.737 89.2381 148.665 89.2381ZM148.665 69.0162C147.815 69.0162 147.025 69.142 146.32 69.3886C145.621 69.6352 145.017 69.9825 144.519 70.4153C144.025 70.8481 143.638 71.3615 143.361 71.9403C143.089 72.519 142.949 73.1481 142.949 73.8175C142.949 74.7536 143.165 75.5588 143.588 76.2131C144.005 76.8623 144.659 77.3707 145.525 77.733L146.788 78.2564L145.49 78.6792C144.388 79.0365 143.573 79.5801 143.064 80.2897C142.556 81.0044 142.294 81.9052 142.294 82.9621C142.294 83.7573 142.445 84.4871 142.747 85.1313C143.044 85.7704 143.472 86.3241 144.015 86.777C144.564 87.235 145.238 87.5974 146.018 87.849C146.808 88.1057 147.694 88.2365 148.66 88.2365C149.626 88.2365 150.512 88.1057 151.302 87.849C152.082 87.5974 152.751 87.235 153.305 86.777C153.848 86.3241 154.271 85.7704 154.573 85.1313C154.875 84.4921 155.026 83.7623 155.026 82.9621C155.026 81.9052 154.769 81.0094 154.256 80.2897C153.748 79.575 152.932 79.0365 151.83 78.6792L150.537 78.2615L151.79 77.7381C152.651 77.3807 153.3 76.8674 153.722 76.2181C154.15 75.5639 154.366 74.7637 154.366 73.8276C154.366 73.1582 154.231 72.5241 153.954 71.9503C153.677 71.3665 153.29 70.8532 152.796 70.4254C152.298 69.9925 151.694 69.6453 150.995 69.3987C150.301 69.142 149.515 69.0162 148.665 69.0162ZM148.665 86.6009C148.051 86.6009 147.498 86.5103 147.025 86.3291C146.541 86.1479 146.129 85.8862 145.792 85.554C145.455 85.2219 145.193 84.8192 145.022 84.3562C144.856 83.9083 144.77 83.4251 144.77 82.9068C144.77 81.6788 145.127 80.7276 145.837 80.0733C146.531 79.4291 147.483 79.107 148.67 79.107C149.853 79.107 150.809 79.4341 151.503 80.0733C152.208 80.7276 152.57 81.6788 152.57 82.9068C152.57 83.4201 152.484 83.9083 152.318 84.3562C152.147 84.8142 151.891 85.2168 151.548 85.554C151.211 85.8862 150.799 86.1429 150.316 86.3291C149.833 86.5052 149.279 86.6009 148.665 86.6009ZM148.665 80.1136C147.729 80.1136 147.03 80.3451 146.516 80.8131C146.018 81.2761 145.777 81.9606 145.777 82.9068C145.777 83.2993 145.837 83.6718 145.963 84.0039C146.084 84.3311 146.255 84.6028 146.491 84.8343C146.728 85.0658 147.025 85.2521 147.377 85.3879C147.739 85.5238 148.167 85.5943 148.66 85.5943C149.153 85.5943 149.586 85.5238 149.943 85.3879C150.295 85.2521 150.592 85.0709 150.829 84.8343C151.065 84.6028 151.236 84.3311 151.357 84.0039C151.483 83.6718 151.543 83.2993 151.543 82.9068C151.543 81.9606 151.302 81.2761 150.804 80.8131C150.301 80.3451 149.601 80.1136 148.665 80.1136ZM148.665 77.4613C148.046 77.4613 147.513 77.3556 147.07 77.1543C146.627 76.9479 146.26 76.6661 145.983 76.3188C145.711 75.9766 145.52 75.584 145.404 75.1462C145.299 74.7385 145.243 74.3107 145.243 73.8779C145.243 73.4501 145.309 73.0374 145.439 72.6499C145.575 72.2473 145.792 71.8849 146.084 71.5729C146.37 71.2608 146.733 71.0142 147.165 70.828C147.593 70.6468 148.096 70.5562 148.66 70.5562C149.224 70.5562 149.732 70.6468 150.155 70.828C150.587 71.0092 150.95 71.2608 151.231 71.5729C151.513 71.8799 151.73 72.2422 151.866 72.6398C152.001 73.0324 152.072 73.4451 152.072 73.8729C152.072 74.3057 152.016 74.7335 151.911 75.1411C151.8 75.579 151.604 75.9715 151.332 76.3138C151.055 76.661 150.693 76.9429 150.245 77.1492C149.817 77.3556 149.284 77.4613 148.665 77.4613ZM148.665 71.5628C148.232 71.5628 147.865 71.6282 147.563 71.754C147.266 71.8799 147.02 72.051 146.828 72.2573C146.632 72.4687 146.496 72.7002 146.401 72.972C146.305 73.2538 146.255 73.5608 146.255 73.8779C146.255 74.2252 146.295 74.5674 146.38 74.8945C146.461 75.1965 146.587 75.4582 146.773 75.6947C146.949 75.9162 147.191 76.1024 147.493 76.2433C147.8 76.3842 148.192 76.4547 148.665 76.4547C149.138 76.4547 149.531 76.3842 149.838 76.2433C150.139 76.1024 150.381 75.9212 150.557 75.6947C150.743 75.4632 150.869 75.2015 150.95 74.8945C151.035 74.5674 151.075 74.2252 151.075 73.8779C151.075 73.5608 151.025 73.2588 150.925 72.977C150.829 72.7052 150.683 72.4637 150.492 72.2523C150.306 72.0459 150.059 71.8799 149.762 71.754C149.465 71.6282 149.098 71.5628 148.665 71.5628Z" fill="#2D2D82"/>
</g>
<defs>
<clipPath id="clip0_1_291">
<rect width="126" height="115" fill="white" transform="translate(43 29)"/>
</clipPath>
</defs>
</svg>
