<svg width="410" height="475" viewBox="0 0 410 475" fill="none" xmlns="http://www.w3.org/2000/svg">
<g clip-path="url(#clip0_1_471)">
<path d="M282.237 472.858H280.16L264.067 411.937C264.067 411.931 264.067 411.931 264.067 411.925L260.411 398.072C260.405 398.066 260.405 398.066 260.405 398.066L255.661 380.101L265.138 379.937L268.367 397.481L270.783 410.62C270.794 410.685 270.812 410.749 270.824 410.807L282.237 472.858Z" fill="#414141"/>
<path d="M265.395 472.758C265.459 472.788 265.535 472.817 265.623 472.852H310.363C309.942 471.261 308.48 468.359 303.361 467.528C296.417 466.399 284.384 462.369 281.699 453.483C281.617 453.202 281.535 452.904 281.47 452.611C279.341 443.122 263.845 455.518 263.845 455.518C263.845 455.518 263.798 455.893 263.733 456.542C263.371 460.017 262.452 471.284 265.395 472.758Z" fill="#414141"/>
<path d="M324.567 312.06C324.567 312.06 309.468 365.687 297.751 410.62C293.199 428.071 289.157 444.211 286.706 455.39C286.706 455.39 265.108 459.725 261.75 452.933C261.75 452.933 268.711 340.374 281.511 326.077C297.435 308.299 324.567 312.06 324.567 312.06Z" fill="#2D2D82"/>
<path d="M326.972 207.299C326.972 207.299 326.211 202.678 327.399 198.822C328.592 194.973 333.571 184.818 331.997 181.284C330.417 177.757 324.714 168.262 321.192 168.286C317.67 168.315 324.895 178.447 323.901 181.612C322.912 184.777 322.578 185.034 321.356 184.753C320.133 184.473 318.273 178.412 317.653 179.828C317.033 181.243 317.395 190.621 318.56 192.961C319.724 195.301 317.337 208.504 317.337 208.504L326.972 207.299Z" fill="#F2B394"/>
<path d="M329.785 205.24C329.785 205.24 321.993 200.817 315.968 202.678C315.968 202.678 304.01 237.116 297.423 262.441C284.782 231.249 277.007 200.139 277.007 200.139C277.007 200.139 261.68 221.304 256.146 235.379C250.612 249.454 283.676 298.827 296.511 302.706C309.901 306.748 307.462 302.7 315.02 298.377C317.454 295.23 325.222 279.534 329.785 205.24Z" fill="#F9A01B"/>
<path d="M365.032 474.367C365.096 474.402 365.172 474.431 365.26 474.461H410C409.579 472.87 408.116 469.968 402.998 469.137C396.054 468.008 384.02 463.978 381.335 455.092C381.253 454.811 381.172 454.512 381.107 454.22C378.978 444.731 363.481 457.127 363.481 457.127C363.481 457.127 363.434 457.508 363.37 458.151C363.007 461.632 362.089 472.893 365.032 474.367Z" fill="#414141"/>
<path d="M333.249 309.55C333.249 309.55 328.891 311.487 323.509 315.453C322.9 312.335 322.017 310.311 322.017 310.311C283.624 300.313 180.846 301.127 180.846 301.127C180.846 301.127 158.75 306.661 165.238 338.824C171.211 368.424 269.888 354.718 301.764 345.838C302.507 345.627 309.083 345.411 309.779 345.183C307.246 364.043 325 390.947 340.55 415.704C353.367 436.114 358.421 456.776 358.421 456.776C364.856 460.766 386.466 458.461 386.466 458.461C372.818 419.898 333.249 309.55 333.249 309.55Z" fill="#2D2D82"/>
<path d="M248.518 189.696C248.518 189.696 259.539 224.983 276.095 232.875C276.095 232.875 277.663 222.169 274.983 214.026C277.171 212.353 279.107 210.797 280.798 209.399C286.414 204.725 289.251 201.735 289.251 201.735L286.788 184.531L285.121 172.854C282.43 175.937 279.652 178.464 276.879 180.535C262.581 191.2 248.518 189.696 248.518 189.696Z" fill="#F2B394"/>
<path opacity="0.4" d="M276.873 180.541C276.873 180.541 271.321 195.815 280.798 209.405C286.414 204.731 289.251 201.741 289.251 201.741L286.788 184.537C280.857 181.22 276.873 180.541 276.873 180.541Z" fill="#EF815B"/>
<path d="M293.446 205.082C293.446 205.082 269.034 188.883 279.353 173.837C289.673 158.791 293.475 146.565 309.492 156.27C325.509 165.975 324.573 173.773 322.35 179.629C320.133 185.496 300.062 208.908 293.446 205.082Z" fill="#F2B394"/>
<path d="M278.218 248.495C270.888 265.857 264.184 276.949 263.307 278.4C260.148 283.624 256.755 288.415 253.654 292.603C253.555 292.738 253.461 292.867 253.362 293.001C247.254 301.22 237.912 303.484 238.199 305.543C238.784 309.679 228.336 319.601 211.119 324C191.136 329.107 167.982 331.564 162.132 324.807C160.172 322.538 159.523 318.366 159.739 313.183C160.184 301.829 168.046 289.117 172.79 279.119C183.695 256.158 192.037 230.354 210.476 212.073C221.871 200.771 236.28 192.546 251.94 188.895C256.099 187.924 260.493 187.082 264.787 187.105C264.787 187.105 263.465 204.158 279.996 210.072C280.014 210.101 283.875 235.092 278.218 248.495Z" fill="#FAB349"/>
<path d="M317.77 299.138C317.77 299.138 327.884 302.712 330.657 304.449C333.43 306.187 339.818 314.927 340.538 317.992C341.257 321.058 342.1 330.061 341.573 331.564C341.047 333.073 333.307 327.294 331.587 321.859C329.867 316.424 325.445 314.962 325.614 315.249C325.784 315.541 328.048 322.502 327.568 322.801C327.089 323.099 325.029 323.62 323.163 319.735C321.297 315.851 317.6 313.008 318.296 308.995C318.998 304.988 317.77 299.138 317.77 299.138Z" fill="#F2B394"/>
<path d="M238.532 306.116C239.117 310.252 228.336 319.595 211.119 323.994C196.752 295.417 224.065 229.997 224.065 229.997L253.654 292.597C247.406 301.027 238.24 304.022 238.532 306.116Z" fill="#F9A01B"/>
<path d="M263.307 278.4C260.148 283.624 256.755 288.415 253.654 292.603C253.555 292.738 253.461 292.867 253.362 293.001C249.302 291.433 245.271 288.315 243.241 285.443C238.579 278.862 238.199 239.299 238.199 239.299C238.199 239.299 257.275 262.874 263.307 278.4Z" fill="#F9A01B"/>
<path d="M321.654 300.027C321.654 300.027 275.504 287.11 251.817 281.453C253.906 253.508 260.744 169.011 217.706 202.836C217.706 202.836 214.454 293.387 235.309 311.727C235.309 311.727 302.25 313.142 314.997 312.364C314.997 312.364 318.741 310.422 319.671 309.135C322.655 304.999 321.654 300.027 321.654 300.027Z" fill="#FAB349"/>
<path d="M282.237 355.619V373.42C282.237 377.094 279.23 380.101 275.556 380.101H170.321C166.647 380.101 163.641 377.094 163.641 373.42V355.619C163.641 351.945 166.647 348.938 170.321 348.938H275.556C279.23 348.938 282.237 351.945 282.237 355.619Z" fill="#676767"/>
<path d="M282.237 370.179V373.42C282.237 377.094 279.23 380.101 275.556 380.101H170.321C166.647 380.101 163.641 377.094 163.641 373.42V369.91H280.324C280.985 369.91 281.628 370.004 282.237 370.179Z" fill="#414141"/>
<path d="M188.971 380.101L184.227 398.066C184.227 398.066 184.227 398.066 184.221 398.072L164.471 472.858H162.395L173.808 410.813C173.819 410.755 173.837 410.69 173.849 410.626L179.494 379.943L188.971 380.101Z" fill="#414141"/>
<path d="M188.971 380.101L184.226 398.066C184.226 398.066 184.226 398.066 184.221 398.072C183.946 398.206 175.311 402.67 173.849 410.62L179.494 379.937L188.971 380.101Z" fill="#414141"/>
<path d="M250.161 403.629C250.15 403.635 250.138 403.629 250.126 403.606C250.079 403.53 250.091 403.547 250.161 403.629Z" fill="#3662C1"/>
<path d="M163.711 37.3752C170.28 37.3752 175.627 32.0283 175.627 25.4588C175.627 18.8893 170.28 13.5425 163.711 13.5425C157.141 13.5425 151.794 18.8893 151.794 25.4588C151.794 32.0283 157.141 37.3752 163.711 37.3752ZM163.711 14.2913C169.871 14.2913 174.878 19.3047 174.878 25.4588C174.878 31.6188 169.865 36.6323 163.711 36.6323C157.551 36.6323 152.543 31.6188 152.543 25.4588C152.537 19.2988 157.551 14.2913 163.711 14.2913Z" fill="#57579B"/>
<path d="M164.062 28.0859C163.044 28.0859 161.365 27.3897 160.394 26.5707L160.031 26.2607L158.516 29.3261L158.756 29.5133C159.68 30.2328 160.88 30.7769 162.161 31.0518V33.5556H165.168V31.1629C167.408 30.8237 168.73 29.5016 168.73 27.5886C168.73 24.9912 166.472 24.3711 164.822 23.9207C164.05 23.7101 163.249 23.4878 163.249 23.1719C163.249 23.0023 163.559 22.973 163.746 22.973C164.501 22.973 165.951 23.4644 167.051 24.0903L167.396 24.2892L168.859 21.2414L168.584 21.0659C167.66 20.4634 166.425 20.0363 165.162 19.8784V17.5793H162.155V20.0246C160.347 20.5336 159.282 21.803 159.282 23.4761C159.282 25.9974 161.517 26.5766 163.143 26.9978C163.939 27.2025 164.758 27.419 164.758 27.7583C164.77 28.0274 164.384 28.0859 164.062 28.0859ZM163.336 26.2724C161.786 25.8687 160.031 25.4183 160.031 23.4703C160.031 22.0663 160.973 21.0425 162.617 20.674L162.909 20.6096V18.3164H164.425V20.5453L164.764 20.5745C165.905 20.674 167.034 21.0133 167.911 21.5164L167.075 23.2597C166.033 22.7215 164.659 22.2301 163.752 22.2301C162.839 22.2301 162.512 22.7156 162.512 23.1719C162.512 24.0552 163.541 24.336 164.629 24.6402C166.203 25.0731 167.993 25.5645 167.993 27.5886C167.993 29.8818 165.735 30.3674 164.758 30.4668L164.425 30.5019V32.8126H162.909V30.4317L162.605 30.3791C161.435 30.1685 160.33 29.718 159.464 29.1038L160.295 27.4248C161.412 28.2321 162.991 28.823 164.068 28.823C165.413 28.823 165.519 27.9981 165.519 27.7466C165.513 26.8398 164.454 26.5649 163.336 26.2724Z" fill="#57579B"/>
<path d="M246.096 91.3644H248.822C249.208 91.3644 249.524 91.0485 249.524 90.6624C249.524 90.4694 249.448 90.2939 249.319 90.1652C249.19 90.0365 249.015 89.9604 248.822 89.9604H246.096C245.709 89.9604 245.394 90.2763 245.394 90.6624C245.399 91.0544 245.709 91.3644 246.096 91.3644Z" fill="#2F2F81"/>
<path d="M239.351 91.3644H242.077C242.463 91.3644 242.779 91.0485 242.779 90.6624C242.779 90.2763 242.463 89.9604 242.077 89.9604H239.368C238.982 89.9604 238.655 90.2647 238.649 90.6507C238.643 90.8496 238.725 91.031 238.853 91.1597C238.982 91.2884 239.158 91.3644 239.351 91.3644Z" fill="#2F2F81"/>
<path d="M244.089 89.3525C244.475 89.3525 244.791 89.0366 244.791 88.6505V85.9244C244.791 85.5383 244.475 85.2224 244.089 85.2224C243.896 85.2224 243.721 85.2985 243.592 85.4272C243.463 85.5559 243.387 85.7314 243.387 85.9244V88.6505C243.387 89.0424 243.697 89.3525 244.089 89.3525Z" fill="#2F2F81"/>
<path d="M244.089 96.1032C244.282 96.1032 244.458 96.0272 244.586 95.8985C244.715 95.7698 244.791 95.5943 244.791 95.4012V92.6751C244.791 92.289 244.475 91.9731 244.089 91.9731C243.703 91.9731 243.387 92.289 243.387 92.6751V95.4012C243.387 95.7873 243.697 96.1032 244.089 96.1032Z" fill="#2F2F81"/>
<path d="M33.7598 111.102C35.9243 111.102 37.6851 109.347 37.6851 107.177C37.6851 105.007 35.9301 103.252 33.7598 103.252C31.5895 103.252 29.8345 105.007 29.8345 107.177C29.8345 109.347 31.5953 111.102 33.7598 111.102ZM33.7598 105.001C34.9649 105.001 35.9418 105.978 35.9418 107.183C35.9418 108.388 34.9649 109.365 33.7598 109.365C32.5547 109.365 31.5778 108.388 31.5778 107.183C31.5778 105.978 32.5547 105.001 33.7598 105.001Z" fill="#2F2F81"/>
<path d="M22.288 88.3402C22.288 88.1121 22.1944 87.9015 22.0423 87.7552C21.8902 87.609 21.6855 87.5095 21.4573 87.5095H18.234C17.7777 87.5095 17.4033 87.8781 17.4033 88.3402C17.4033 88.7965 17.7719 89.1709 18.234 89.1709H21.4573C21.9136 89.1709 22.288 88.8024 22.288 88.3402Z" fill="#F89F1E"/>
<path d="M13.4723 87.5156H10.2723C9.81603 87.5156 9.42994 87.8725 9.42409 88.3288C9.41824 88.5628 9.51184 88.7734 9.66979 88.9313C9.82188 89.0834 10.0266 89.1712 10.2548 89.1712H13.4781C13.9344 89.1712 14.3088 88.8026 14.3088 88.3405C14.3029 87.8842 13.9286 87.5156 13.4723 87.5156Z" fill="#F89F1E"/>
<path d="M15.8532 81.9114C15.625 81.9114 15.4144 82.005 15.2682 82.1512C15.1161 82.3033 15.0225 82.5081 15.0225 82.7362V85.9595C15.0225 86.4158 15.391 86.7902 15.8532 86.7902C16.3153 86.7902 16.6838 86.4217 16.6838 85.9595V82.7362C16.6838 82.2799 16.3095 81.9114 15.8532 81.9114Z" fill="#F89F1E"/>
<path d="M15.8532 89.8904C15.3969 89.8904 15.0225 90.2589 15.0225 90.7211V93.9444C15.0225 94.4007 15.391 94.7751 15.8532 94.7751C16.0813 94.7751 16.2919 94.6815 16.4381 94.5294C16.5902 94.3773 16.6838 94.1725 16.6838 93.9444V90.7211C16.6838 90.2648 16.3095 89.8904 15.8532 89.8904Z" fill="#F89F1E"/>
<path d="M107.142 5.15966C108.569 5.15966 109.722 4.00137 109.722 2.57983C109.722 1.15244 108.563 0 107.142 0C105.714 0 104.562 1.15829 104.562 2.57983C104.562 4.00722 105.714 5.15966 107.142 5.15966ZM107.142 1.14659C107.932 1.14659 108.575 1.79009 108.575 2.57983C108.575 3.36958 107.932 4.01307 107.142 4.01307C106.352 4.01307 105.709 3.36958 105.709 2.57983C105.709 1.79009 106.352 1.14659 107.142 1.14659Z" fill="#2F2F81"/>
<path d="M87.9366 32.0872C90.101 32.0872 91.8619 30.3322 91.8619 28.1619C91.8619 25.9916 90.1069 24.2366 87.9366 24.2366C85.7662 24.2366 84.0112 25.9916 84.0112 28.1619C84.0112 30.3322 85.7721 32.0872 87.9366 32.0872ZM87.9366 25.9857C89.1416 25.9857 90.1186 26.9627 90.1186 28.1677C90.1186 29.3728 89.1416 30.3498 87.9366 30.3498C86.7315 30.3498 85.7545 29.3728 85.7545 28.1677C85.7545 26.9627 86.7315 25.9857 87.9366 25.9857Z" fill="#2D2D82"/>
<path d="M158.253 9.1614C158.294 9.1614 158.34 9.15555 158.381 9.14385C159.089 8.90985 159.82 8.7285 160.558 8.5881C160.663 8.57055 160.756 8.5062 160.821 8.41845C160.885 8.3307 160.909 8.21955 160.885 8.11425C160.844 7.89196 160.628 7.74571 160.405 7.78666C159.639 7.92706 158.867 8.12595 158.124 8.3658C157.907 8.436 157.79 8.67 157.861 8.8806C157.913 9.05025 158.071 9.1614 158.253 9.1614Z" fill="#2F2F81"/>
<path d="M148.074 33.5029C147.98 33.5556 147.91 33.6433 147.875 33.7486C147.846 33.8539 147.857 33.9651 147.91 34.0587C148.285 34.7431 148.706 35.41 149.168 36.0477C149.244 36.153 149.367 36.2173 149.501 36.2173C149.589 36.2173 149.671 36.1881 149.741 36.1413C149.829 36.0769 149.887 35.9833 149.905 35.8722C149.923 35.7669 149.893 35.6557 149.829 35.568C149.39 34.9654 148.987 34.3278 148.63 33.6726C148.577 33.579 148.489 33.5088 148.384 33.4737C148.279 33.4386 148.168 33.4503 148.074 33.5029Z" fill="#2F2F81"/>
<path d="M153.362 11.6647C153.45 11.6647 153.532 11.6355 153.602 11.5887C154.205 11.1499 154.842 10.7463 155.497 10.3895C155.696 10.2783 155.766 10.0326 155.661 9.83371C155.609 9.74011 155.521 9.66991 155.415 9.63481C155.31 9.60556 155.199 9.61726 155.105 9.66991C154.421 10.0443 153.754 10.4655 153.122 10.9277C152.941 11.0622 152.9 11.3196 153.035 11.5009C153.105 11.6004 153.228 11.6647 153.362 11.6647Z" fill="#2F2F81"/>
<path d="M158.417 41.7919C157.709 41.5638 157.007 41.283 156.328 40.9612C156.124 40.8618 155.878 40.9495 155.784 41.1543C155.685 41.359 155.773 41.6047 155.977 41.6983C156.685 42.0376 157.422 42.3301 158.165 42.57C158.206 42.5817 158.247 42.5875 158.294 42.5875C158.469 42.5875 158.627 42.4764 158.686 42.3067C158.75 42.0961 158.633 41.8621 158.417 41.7919Z" fill="#2F2F81"/>
<path d="M151.215 38.2296C151.221 38.3408 151.262 38.4402 151.344 38.5163C151.911 39.0545 152.52 39.5576 153.152 40.0197C153.222 40.0724 153.304 40.0957 153.392 40.0957C153.52 40.0957 153.649 40.0314 153.725 39.9261C153.789 39.8384 153.813 39.7272 153.801 39.6219C153.783 39.5166 153.725 39.4172 153.637 39.3528C153.035 38.9141 152.456 38.4285 151.911 37.9196C151.83 37.8435 151.73 37.8026 151.619 37.8084C151.508 37.8084 151.408 37.8552 151.332 37.9371C151.256 38.019 151.209 38.1185 151.215 38.2296Z" fill="#2F2F81"/>
<path d="M149.478 15.5608C149.607 15.5608 149.735 15.4964 149.811 15.3911C150.25 14.7886 150.73 14.2036 151.245 13.6654C151.403 13.5016 151.391 13.2442 151.227 13.0863C151.063 12.9283 150.806 12.94 150.648 13.1038C150.11 13.6712 149.607 14.2796 149.145 14.9114C149.01 15.0928 149.051 15.3502 149.238 15.4847C149.308 15.5315 149.39 15.5608 149.478 15.5608Z" fill="#2F2F81"/>
<path d="M180.582 22.2939C180.617 22.487 180.787 22.6274 180.986 22.6274C181.009 22.6274 181.039 22.6274 181.062 22.6215C181.167 22.604 181.261 22.5396 181.325 22.4519C181.39 22.3641 181.413 22.253 181.39 22.1477C181.243 21.3813 181.05 20.6091 180.805 19.8662C180.769 19.7609 180.699 19.679 180.6 19.6263C180.5 19.5795 180.389 19.5678 180.29 19.6029C180.184 19.638 180.103 19.7082 180.05 19.8077C179.997 19.9071 179.991 20.0183 180.027 20.1177C180.261 20.8256 180.448 21.5568 180.582 22.2939Z" fill="#2F2F81"/>
<path d="M146.138 25.8921C146.366 25.8921 146.547 25.7108 146.547 25.4826V25.4592C146.547 24.7163 146.594 23.9675 146.687 23.2363C146.699 23.1251 146.67 23.0198 146.606 22.9321C146.541 22.8443 146.442 22.7917 146.336 22.7741C146.225 22.7624 146.12 22.7858 146.032 22.856C145.944 22.9204 145.892 23.0198 145.874 23.131C145.775 23.8973 145.728 24.6812 145.728 25.4534V25.4768C145.728 25.7049 145.909 25.8921 146.138 25.8921Z" fill="#2F2F81"/>
<path d="M146.857 20.4395C146.898 20.4512 146.939 20.4571 146.986 20.4571C147.161 20.4571 147.319 20.3459 147.377 20.1763C147.606 19.4684 147.886 18.7664 148.208 18.0878C148.308 17.8831 148.22 17.6374 148.015 17.5438C147.916 17.497 147.805 17.4911 147.699 17.5262C147.594 17.5613 147.512 17.6374 147.465 17.7368C147.126 18.4447 146.833 19.1818 146.594 19.9247C146.523 20.1412 146.64 20.3693 146.857 20.4395Z" fill="#2F2F81"/>
<path d="M146.834 28.6064C146.793 28.3841 146.576 28.2379 146.354 28.2788C146.132 28.3198 145.985 28.5362 146.026 28.7585C146.167 29.5307 146.366 30.2971 146.606 31.04C146.658 31.2097 146.816 31.3208 146.997 31.3208C147.038 31.3208 147.085 31.315 147.126 31.2974C147.343 31.2272 147.46 30.9932 147.389 30.7826C147.155 30.0748 146.968 29.3435 146.834 28.6064Z" fill="#2F2F81"/>
<path d="M173.802 39.3468C173.2 39.7855 172.562 40.1892 171.907 40.546C171.708 40.6513 171.638 40.9029 171.743 41.1018C171.813 41.2363 171.954 41.3182 172.106 41.3182C172.176 41.3182 172.24 41.3007 172.299 41.2656C172.983 40.8912 173.65 40.47 174.288 40.0078C174.376 39.9435 174.434 39.8499 174.452 39.7387C174.469 39.6276 174.44 39.5223 174.376 39.4346C174.241 39.2532 173.984 39.2123 173.802 39.3468Z" fill="#2F2F81"/>
<path d="M180.553 30.5014C180.448 30.4663 180.337 30.478 180.243 30.5248C180.144 30.5716 180.073 30.6593 180.038 30.7646C179.81 31.4725 179.529 32.1745 179.208 32.8472C179.161 32.9466 179.155 33.0578 179.19 33.1631C179.225 33.2684 179.301 33.3503 179.401 33.3971C179.459 33.4263 179.518 33.438 179.576 33.438C179.734 33.438 179.88 33.3444 179.945 33.204C180.284 32.4962 180.576 31.7591 180.816 31.0162C180.887 30.7997 180.77 30.5716 180.553 30.5014Z" fill="#2F2F81"/>
<path d="M178.78 17.2398C178.85 17.3685 178.991 17.4504 179.137 17.4504C179.207 17.4504 179.272 17.4328 179.336 17.3977C179.535 17.2866 179.605 17.0409 179.5 16.842C179.125 16.1576 178.698 15.4907 178.242 14.8589C178.108 14.6775 177.85 14.6366 177.669 14.7711C177.581 14.8355 177.523 14.9291 177.505 15.0402C177.487 15.1514 177.517 15.2567 177.581 15.3444C178.02 15.947 178.423 16.5846 178.78 17.2398Z" fill="#2F2F81"/>
<path d="M177.599 35.5501C177.16 36.1527 176.674 36.7318 176.159 37.2759C176.002 37.4397 176.013 37.6971 176.177 37.855C176.253 37.9252 176.353 37.9662 176.458 37.9662C176.569 37.9662 176.68 37.9194 176.756 37.8375C177.294 37.27 177.803 36.6616 178.26 36.0298C178.324 35.9421 178.347 35.8309 178.336 35.7256C178.318 35.6203 178.26 35.5209 178.172 35.4565C177.991 35.322 177.733 35.3629 177.599 35.5501Z" fill="#2F2F81"/>
<path d="M180.991 25.1317C180.915 25.2078 180.874 25.3131 180.874 25.4242V25.4652C180.874 26.214 180.828 26.9686 180.728 27.7057C180.716 27.8169 180.746 27.9222 180.81 28.0099C180.874 28.0977 180.974 28.1503 181.079 28.1679C181.097 28.1679 181.114 28.1737 181.132 28.1737C181.336 28.1737 181.512 28.0216 181.535 27.8169C181.635 27.0447 181.687 26.2549 181.687 25.471V25.4301C181.687 25.2019 181.5 25.0206 181.278 25.0206C181.173 25.0089 181.067 25.0557 180.991 25.1317Z" fill="#2F2F81"/>
<path d="M168.982 9.11974C169.69 9.34789 170.398 9.62869 171.07 9.95044C171.123 9.97384 171.187 9.99139 171.246 9.99139C171.404 9.99139 171.55 9.89779 171.614 9.75739C171.661 9.65794 171.667 9.54679 171.632 9.44149C171.597 9.33619 171.521 9.25429 171.421 9.20749C170.713 8.87404 169.976 8.58155 169.233 8.3417C169.128 8.3066 169.017 8.3183 168.923 8.3651C168.824 8.41775 168.754 8.49965 168.719 8.60495C168.648 8.82139 168.771 9.05539 168.982 9.11974Z" fill="#2F2F81"/>
<path d="M169.022 41.786C168.315 42.0141 167.583 42.2013 166.846 42.3359C166.624 42.3768 166.478 42.5933 166.519 42.8156C166.554 43.0086 166.723 43.149 166.922 43.149C166.946 43.149 166.969 43.149 166.998 43.1432C167.77 43.0028 168.537 42.8039 169.28 42.564C169.385 42.5289 169.467 42.4587 169.52 42.3593C169.566 42.2598 169.578 42.1487 169.543 42.0492C169.467 41.8328 169.239 41.7158 169.022 41.786Z" fill="#2F2F81"/>
<path d="M163.676 8.29532H163.705C164.442 8.29532 165.185 8.34212 165.916 8.43572C165.934 8.43572 165.951 8.44157 165.969 8.44157C166.174 8.44157 166.349 8.28947 166.372 8.08472C166.402 7.86242 166.244 7.65768 166.016 7.62843C165.255 7.52898 164.477 7.48218 163.699 7.48218H163.67C163.442 7.48218 163.26 7.66353 163.26 7.89167C163.26 8.11982 163.453 8.29532 163.676 8.29532Z" fill="#2F2F81"/>
<path d="M175.499 12.9868C175.575 13.057 175.674 13.098 175.779 13.098C175.89 13.098 176.002 13.0512 176.078 12.9693C176.154 12.8874 176.195 12.788 176.189 12.6768C176.183 12.5657 176.142 12.4662 176.06 12.3902C175.493 11.852 174.884 11.3489 174.252 10.8867C174.071 10.7522 173.814 10.7931 173.679 10.9803C173.545 11.1617 173.586 11.4191 173.773 11.5536C174.375 11.9924 174.96 12.4721 175.499 12.9868Z" fill="#2F2F81"/>
<path d="M163.723 42.6225H163.711C162.968 42.6225 162.214 42.5757 161.482 42.4763C161.371 42.4646 161.266 42.488 161.178 42.5582C161.09 42.6225 161.038 42.722 161.02 42.8273C161.008 42.9384 161.038 43.0437 161.102 43.1315C161.166 43.2192 161.266 43.2719 161.371 43.2894C162.137 43.3889 162.927 43.4415 163.705 43.4415H163.717C163.945 43.4415 164.126 43.2602 164.126 43.032C164.132 42.8097 163.945 42.6225 163.723 42.6225Z" fill="#2F2F81"/>
<path d="M190.042 141.048L210.189 174.609L211.107 175.633C213.494 173.551 215.799 171.38 218.01 169.128L200.133 139.352C196.939 140.364 193.551 140.943 190.042 141.048Z" fill="#8181B4"/>
<path d="M59.2659 97.5246C62.5419 98.3319 66.1103 97.8931 69.2284 96.027C75.4937 92.2655 77.5177 84.1457 73.7621 77.8746C72.3522 75.5346 70.3398 73.7796 68.0408 72.7032L110.184 47.4022C110.049 49.941 110.64 52.5443 112.05 54.8901C115.817 61.1554 123.937 63.1853 130.208 59.418C133.303 57.5518 135.368 54.621 136.205 51.3626L156.814 85.696C158.522 82.7125 160.628 79.9923 163.067 77.6055L130.846 23.938L37.5918 79.9221L55.4868 109.733L62.7057 103.258L59.2659 97.5246Z" fill="#8181B4"/>
<path d="M156.814 85.6959L136.198 51.3625C135.362 54.6209 133.303 57.5518 130.202 59.4179C123.931 63.1853 115.811 61.1553 112.044 54.89C110.64 52.5442 110.043 49.941 110.178 47.4021L68.0347 72.7032C70.3396 73.7737 72.352 75.5345 73.756 77.8745C77.5116 84.1398 75.4875 92.2654 69.2222 96.0269C66.1042 97.8931 62.5357 98.3377 59.2598 97.5245L62.7054 103.257L108.955 61.7637L152.45 110.248C152.11 108.236 151.923 106.171 151.923 104.059C151.929 97.3724 153.713 91.1071 156.814 85.6959Z" fill="#2D2D82"/>
<path d="M178.851 139.668L210.195 174.604L190.047 141.042C189.679 141.054 189.316 141.072 188.948 141.072C185.443 141.078 182.062 140.58 178.851 139.668Z" fill="#2D2D82"/>
<path d="M63.8462 174.381L87.8193 201.104C92.6923 202.034 97.6297 202.765 102.585 203.292L71.3458 168.473C69.1872 170.818 66.6542 172.819 63.8462 174.381Z" fill="#8181B4"/>
<path d="M58.4001 119.86L60.4593 118.011L55.4926 109.739L45.4658 118.736C46.747 118.567 48.0573 118.473 49.3853 118.473C52.5267 118.467 55.5511 118.959 58.4001 119.86Z" fill="#8181B4"/>
<path d="M210.914 175.808C210.979 175.75 211.049 175.691 211.113 175.633L210.195 174.609L210.914 175.808Z" fill="#8181B4"/>
<path d="M67.6781 111.536L62.7115 103.258L55.4927 109.74L60.4593 118.011L67.6781 111.536Z" fill="#8181B4"/>
<path d="M178.851 139.668C165.249 135.819 154.837 124.399 152.456 110.248L108.961 61.7639L62.7114 103.258L67.678 111.535L93.1078 88.7264C93.4529 91.2418 94.5293 93.6871 96.3604 95.7112C101.233 101.152 109.599 101.602 115.045 96.7291C117.736 94.3072 119.204 91.0371 119.409 87.6851L203.66 181.594C204.737 180.816 205.796 180.027 206.825 179.208C208.217 178.102 209.58 176.973 210.92 175.809L210.201 174.61L178.851 139.668Z" fill="#8181B4"/>
<path d="M71.3457 168.467L102.584 203.286C105.755 203.626 108.932 203.877 112.108 204.053L79.1846 149.209C78.9623 156.627 76.0374 163.366 71.3457 168.467Z" fill="#D5D5E6"/>
<path d="M62.5826 121.55L60.4591 118.017L58.3999 119.865C59.8448 120.316 61.2371 120.883 62.5826 121.55Z" fill="#D5D5E6"/>
<path d="M67.6778 111.535L60.4531 118.011L62.5767 121.544C72.428 126.412 79.2022 136.561 79.2022 148.29C79.2022 148.595 79.1905 148.899 79.1788 149.203L112.102 204.046C114.542 204.181 116.981 204.263 119.415 204.298C118.157 200.975 117.42 197.512 117.204 194.02L67.6778 111.535Z" fill="#D5D5E6"/>
<path d="M115.045 96.7293C109.599 101.602 101.233 101.152 96.3601 95.7114C94.5349 93.6815 93.4585 91.2421 93.1075 88.7266L67.6777 111.536L117.209 194.026C116.548 183.584 120.491 172.954 128.88 165.425C143.441 152.368 165.811 153.579 178.862 168.134C184.7 174.639 187.678 182.712 187.894 190.814C193.557 188.135 198.851 185.058 203.666 181.589L119.409 87.6853C119.204 91.0373 117.736 94.3075 115.045 96.7293Z" fill="#D5D5E6"/>
<path d="M119.421 204.304C120.743 204.322 122.065 204.327 123.387 204.322L117.209 194.031C117.432 197.518 118.163 200.981 119.421 204.304Z" fill="#2D2D82"/>
<path d="M128.88 165.431C120.491 172.96 116.548 183.589 117.209 194.032L123.387 204.322C146.576 204.164 169.256 199.636 187.889 190.82C187.672 182.718 184.7 174.645 178.856 168.14C165.811 153.585 143.441 152.368 128.88 165.431ZM147.384 171.96C145.956 171.96 144.804 170.801 144.804 169.38C144.804 167.952 145.962 166.8 147.384 166.8C148.805 166.8 149.963 167.958 149.963 169.38C149.963 170.801 148.811 171.96 147.384 171.96ZM165.319 175.505H162.096C161.868 175.505 161.657 175.411 161.511 175.265C161.359 175.113 161.265 174.896 161.265 174.662C161.271 174.206 161.657 173.849 162.114 173.849H165.319C165.776 173.849 166.15 174.218 166.15 174.68C166.15 175.142 165.782 175.505 165.319 175.505ZM168.531 180.278C168.531 180.506 168.438 180.717 168.285 180.863C168.133 181.015 167.929 181.109 167.7 181.109C167.244 181.109 166.87 180.735 166.87 180.278V177.055C166.87 176.599 167.238 176.224 167.7 176.224C168.157 176.224 168.531 176.593 168.531 177.055V180.278ZM168.531 172.293C168.531 172.749 168.163 173.124 167.7 173.124C167.244 173.124 166.87 172.755 166.87 172.293V169.07C166.87 168.842 166.963 168.631 167.115 168.485C167.268 168.333 167.472 168.245 167.7 168.245C168.157 168.245 168.531 168.613 168.531 169.076V172.293ZM173.305 175.505H170.081C169.625 175.505 169.251 175.136 169.251 174.674C169.251 174.212 169.619 173.843 170.081 173.843H173.305C173.533 173.843 173.743 173.937 173.89 174.089C174.036 174.241 174.135 174.446 174.135 174.674C174.135 175.13 173.761 175.505 173.305 175.505Z" fill="#2D2D82"/>
<path d="M147.383 167.947C146.594 167.947 145.95 168.59 145.95 169.38C145.95 170.17 146.594 170.813 147.383 170.813C148.173 170.813 148.817 170.17 148.817 169.38C148.817 168.584 148.179 167.947 147.383 167.947Z" fill="#2D2D82"/>
<path d="M173.305 173.843H170.082C169.625 173.843 169.251 174.212 169.251 174.674C169.251 175.136 169.62 175.505 170.082 175.505H173.305C173.761 175.505 174.136 175.136 174.136 174.674C174.136 174.446 174.042 174.235 173.89 174.089C173.738 173.943 173.533 173.843 173.305 173.843Z" fill="#2D2D82"/>
<path d="M165.319 173.843H162.114C161.657 173.843 161.271 174.2 161.265 174.656C161.26 174.89 161.353 175.101 161.511 175.259C161.663 175.411 161.868 175.499 162.096 175.499H165.319C165.776 175.499 166.15 175.13 166.15 174.668C166.15 174.206 165.782 173.843 165.319 173.843Z" fill="#2D2D82"/>
<path d="M167.7 168.245C167.472 168.245 167.262 168.338 167.115 168.485C166.963 168.637 166.87 168.842 166.87 169.07V172.293C166.87 172.749 167.238 173.124 167.7 173.124C168.157 173.124 168.531 172.755 168.531 172.293V169.07C168.531 168.613 168.157 168.245 167.7 168.245Z" fill="#2D2D82"/>
<path d="M167.7 176.224C167.244 176.224 166.87 176.592 166.87 177.055V180.278C166.87 180.734 167.238 181.109 167.7 181.109C167.928 181.109 168.139 181.015 168.285 180.863C168.437 180.711 168.531 180.506 168.531 180.278V177.055C168.531 176.598 168.157 176.224 167.7 176.224Z" fill="#2D2D82"/>
<path d="M147.384 166.794C145.956 166.794 144.804 167.952 144.804 169.374C144.804 170.801 145.962 171.954 147.384 171.954C148.805 171.954 149.963 170.795 149.963 169.374C149.963 167.952 148.811 166.794 147.384 166.794ZM147.384 170.813C146.594 170.813 145.95 170.169 145.95 169.38C145.95 168.59 146.594 167.946 147.384 167.946C148.173 167.946 148.817 168.59 148.817 169.38C148.817 170.169 148.179 170.813 147.384 170.813Z" fill="#2D2D82"/>
<path d="M188.942 74.236C205.415 74.236 218.765 87.5856 218.765 104.059C218.765 117.988 209.212 129.688 196.301 132.97L200.133 139.352C215.103 134.608 225.954 120.609 225.954 104.065C225.954 83.6252 209.381 67.0522 188.942 67.0522C178.868 67.0522 169.736 71.0829 163.062 77.6114L166.887 83.9879C172.345 77.9917 180.208 74.236 188.942 74.236Z" fill="#F9A01B"/>
<path d="M156.814 85.696L161.231 93.0494C162.57 89.6798 164.495 86.6144 166.899 83.9819L163.073 77.6055C160.628 79.9923 158.522 82.7125 156.814 85.696Z" fill="#F9A01B"/>
<path d="M188.941 133.888C187.824 133.888 186.718 133.824 185.63 133.701L190.041 141.049C193.551 140.943 196.932 140.364 200.132 139.352L196.301 132.97C193.949 133.566 191.486 133.888 188.941 133.888Z" fill="#F9A01B"/>
<path d="M159.119 104.059C159.119 100.169 159.873 96.4539 161.225 93.0492L156.808 85.6958C153.708 91.107 151.923 97.3723 151.923 104.059C151.923 106.171 152.111 108.236 152.45 110.248L178.845 139.668C182.056 140.574 185.438 141.071 188.936 141.071C189.305 141.071 189.673 141.054 190.036 141.042L185.625 133.695C170.719 132.051 159.119 119.409 159.119 104.059Z" fill="#F9A01B"/>
<path d="M178.851 139.668L152.456 110.248C154.836 124.405 165.249 135.824 178.851 139.668Z" fill="#F9A01B"/>
<path d="M189.854 109.88C191.557 109.88 192.639 109.295 192.639 108.061C192.639 103.96 178.482 106.551 178.482 96.9982C178.482 92.8155 181.307 89.8789 185.911 88.8317V82.7185H191.755V88.5626C195.201 88.8727 198.606 89.9959 201.039 91.5812L198.062 97.7704C195.277 96.1851 191.328 94.7519 189.041 94.7519C187.69 94.7519 186.8 95.214 186.8 96.2202C186.8 100.204 200.963 97.8465 200.963 107.633C200.963 112.781 196.938 115.49 191.75 116.028V122.1H189.784L196.307 132.964C209.218 129.688 218.77 117.988 218.77 104.053C218.77 87.5798 205.421 74.2302 188.947 74.2302C180.208 74.2302 172.351 77.9859 166.899 83.9763L180.149 106.048C182.945 108.254 187.198 109.88 189.854 109.88Z" fill="#FBC676"/>
<path d="M188.942 133.888C191.481 133.888 193.949 133.566 196.301 132.97L189.778 122.106H185.906V115.8C182.501 115.18 179.213 113.788 176.739 111.857L179.757 105.744C179.88 105.849 180.009 105.949 180.143 106.054L166.893 83.9822C164.495 86.6147 162.564 89.6859 161.225 93.0496L185.631 133.701C186.719 133.818 187.824 133.888 188.942 133.888Z" fill="#FBC676"/>
<path d="M185.631 133.701L161.225 93.0496C159.867 96.4601 159.119 100.169 159.119 104.059C159.119 119.409 170.719 132.051 185.631 133.701Z" fill="#FBC676"/>
<path d="M191.75 116.034C196.933 115.49 200.963 112.787 200.963 107.639C200.963 97.8521 186.801 100.21 186.801 96.2258C186.801 95.2196 187.69 94.7575 189.041 94.7575C191.328 94.7575 195.277 96.1849 198.062 97.7761L201.039 91.5868C198.606 90.0015 195.201 88.8783 191.755 88.5682V82.7241H185.911V88.8373C181.307 89.8786 178.482 92.8211 178.482 97.0039C178.482 106.557 192.639 103.965 192.639 108.066C192.639 109.3 191.557 109.885 189.854 109.885C187.193 109.885 182.945 108.259 180.143 106.054L189.784 122.112H191.75V116.034Z" fill="white"/>
<path d="M179.757 105.744L176.739 111.857C179.213 113.793 182.501 115.186 185.906 115.8V122.106H189.778L180.138 106.048C180.015 105.949 179.886 105.849 179.757 105.744Z" fill="white"/>
<path d="M49.3851 172.328C36.1115 172.328 25.3535 161.57 25.3535 148.296C25.3535 143.616 26.699 139.246 29.0155 135.549L27.9918 134.409L45.4656 118.731C30.8466 120.649 19.562 133.151 19.562 148.291C19.562 164.764 32.9116 178.114 49.3851 178.114C54.6325 178.114 59.564 176.751 63.8462 174.37L59.8565 169.918C56.6917 171.462 53.1349 172.328 49.3851 172.328Z" fill="#F9A01B"/>
<path d="M29.0096 135.55C33.2567 128.77 40.7914 124.265 49.3791 124.265C55.855 124.265 61.7284 126.833 66.0515 130.998C65.5367 129.033 64.5656 127.155 63.1148 125.535C61.2896 123.516 58.9789 122.177 56.5161 121.551L58.3939 119.866C55.5508 118.965 52.5206 118.474 49.3791 118.474C48.0512 118.474 46.7408 118.567 45.4597 118.737L27.9858 134.415L29.0096 135.55Z" fill="#F9A01B"/>
<path d="M71.3457 168.467L67.4497 164.127C65.3378 166.531 62.758 168.52 59.8506 169.93L63.8403 174.382C66.6541 172.82 69.1871 170.819 71.3457 168.467Z" fill="#F9A01B"/>
<path d="M56.5161 121.545C58.9731 122.171 61.2897 123.51 63.1149 125.528C64.5657 127.149 65.5367 129.027 66.0515 130.992C70.5853 135.362 73.4108 141.493 73.4108 148.291C73.4108 154.357 71.1586 159.891 67.4497 164.121L71.3457 168.461C76.0316 163.36 78.9565 156.621 79.1847 149.203L62.5825 121.545C61.2429 120.884 59.8447 120.316 58.3998 119.86L56.5161 121.545Z" fill="#F9A01B"/>
<path d="M79.2081 148.296C79.2081 136.567 72.4338 126.417 62.5825 121.55L79.1847 149.209C79.1905 148.905 79.2081 148.601 79.2081 148.296Z" fill="#F9A01B"/>
<path d="M51.6432 162.834H46.934V157.75C44.1904 157.253 41.5403 156.129 39.5455 154.573L41.8621 149.876L29.0039 135.543C26.6873 139.241 25.3418 143.605 25.3418 148.291C25.3418 161.564 36.0999 172.322 49.3734 172.322C53.1291 172.322 56.68 171.462 59.8448 169.924L51.6373 160.774V162.834H51.6432Z" fill="#FBC676"/>
<path d="M41.985 149.648C44.2255 151.549 47.8759 152.982 50.1223 152.982C51.4912 152.982 52.3628 152.514 52.3628 151.514C52.3628 148.209 40.9554 150.297 40.9554 142.598C40.9554 139.229 43.231 136.86 46.9399 136.017V131.092H51.6491V135.801C54.4278 136.046 57.1715 136.953 59.1312 138.234L56.7327 143.224C54.4922 141.943 51.3098 140.791 49.4671 140.791C48.379 140.791 47.6594 141.165 47.6594 141.972C47.6594 144.4 54.188 143.909 57.3704 146.939C59.0727 146.389 60.6931 145.488 62.1088 144.213C65.9288 140.785 67.2802 135.631 66.0575 130.986C61.7344 126.821 55.8611 124.253 49.3852 124.253C40.7974 124.253 33.2627 128.763 29.0156 135.538L41.8738 149.87L41.985 149.648Z" fill="#FBC676"/>
<path d="M51.6431 157.943V160.78L59.8506 169.93C62.7638 168.52 65.3378 166.531 67.4496 164.127L58.4173 154.059C57.2766 156.352 54.7143 157.621 51.6431 157.943Z" fill="#FBC676"/>
<path d="M66.0514 130.992C67.2741 135.643 65.9227 140.791 62.1027 144.219C60.687 145.488 59.0666 146.389 57.3643 146.945C58.388 147.922 59.0666 149.256 59.0666 151.175C59.0666 152.274 58.8326 153.228 58.4231 154.053L67.4554 164.12C71.1643 159.891 73.4165 154.357 73.4165 148.291C73.4165 141.499 70.591 135.368 66.0514 130.992Z" fill="#FBC676"/>
<path d="M39.5513 154.579C41.5461 156.135 44.1961 157.259 46.9398 157.756V162.839H51.649V160.78L41.8737 149.882L39.5513 154.579Z" fill="white"/>
<path d="M47.6538 141.979C47.6538 141.166 48.3733 140.797 49.4614 140.797C51.3041 140.797 54.4865 141.95 56.727 143.231L59.1255 138.241C57.1658 136.965 54.4222 136.059 51.6434 135.807V131.098H46.9342V136.024C43.2253 136.866 40.9497 139.235 40.9497 142.605C40.9497 150.303 52.3571 148.215 52.3571 151.52C52.3571 152.515 51.4855 152.988 50.1166 152.988C47.8761 152.988 44.2257 151.555 41.9793 149.654L41.8623 149.888L51.6376 160.786V157.949C54.7088 157.627 57.2711 156.358 58.4177 154.065L52.6087 147.589C54.2057 147.671 55.8144 147.454 57.3588 146.951C54.1823 143.915 47.6538 144.412 47.6538 141.979Z" fill="white"/>
<path d="M52.6143 147.583L58.4233 154.059C58.8328 153.234 59.0668 152.274 59.0668 151.18C59.0668 149.262 58.3882 147.922 57.3644 146.951C55.82 147.448 54.2113 147.665 52.6143 147.583Z" fill="white"/>
<path d="M291.34 44.9099H286.361C285.653 44.9099 285.08 45.4832 285.08 46.1911C285.08 46.8989 285.653 47.4722 286.361 47.4722H291.34C292.047 47.4722 292.621 46.8989 292.621 46.1911C292.621 45.8401 292.474 45.5183 292.246 45.2843C292.012 45.0503 291.696 44.9099 291.34 44.9099Z" fill="#F89F1E"/>
<path d="M272.76 46.1674C272.754 46.5301 272.9 46.8577 273.134 47.0917C273.368 47.3257 273.684 47.4661 274.041 47.4661H279.019C279.727 47.4661 280.3 46.8928 280.3 46.1849C280.3 45.4771 279.727 44.9038 279.019 44.9038H274.076C273.368 44.9097 272.772 45.4654 272.76 46.1674Z" fill="#F89F1E"/>
<path d="M281.412 37.539V42.5114C281.412 43.2193 281.985 43.7926 282.693 43.7926C283.401 43.7926 283.974 43.2193 283.974 42.5114V37.539C283.974 36.8311 283.401 36.2578 282.693 36.2578C282.342 36.2578 282.021 36.3982 281.787 36.6322C281.553 36.8662 281.412 37.188 281.412 37.539Z" fill="#F89F1E"/>
<path d="M282.693 48.5835C281.985 48.5835 281.412 49.1568 281.412 49.8646V54.8371C281.412 55.5449 281.985 56.1182 282.693 56.1182C283.044 56.1182 283.366 55.972 283.6 55.7438C283.834 55.5098 283.974 55.1939 283.974 54.8371V49.8646C283.969 49.1568 283.395 48.5835 282.693 48.5835Z" fill="#F89F1E"/>
<path d="M257.445 55.7907C257.445 57.9903 259.229 59.7745 261.429 59.7745C263.628 59.7745 265.412 57.9903 265.412 55.7907C265.412 53.5911 263.628 51.8069 261.429 51.8069C259.229 51.8069 257.445 53.5911 257.445 55.7907ZM259.217 55.7907C259.217 54.5681 260.206 53.5794 261.429 53.5794C262.651 53.5794 263.64 54.5681 263.64 55.7907C263.64 57.0133 262.651 58.002 261.429 58.002C260.206 58.0078 259.217 57.0133 259.217 55.7907Z" fill="#2F2F81"/>
<path d="M326.264 121.667C326.264 125.013 328.978 127.722 332.318 127.722C335.659 127.722 338.373 125.007 338.373 121.667C338.373 118.321 335.659 115.612 332.318 115.612C328.978 115.612 326.264 118.321 326.264 121.667ZM328.955 121.667C328.955 119.807 330.464 118.303 332.318 118.303C334.173 118.303 335.682 119.813 335.682 121.667C335.682 123.527 334.173 125.031 332.318 125.031C330.464 125.031 328.955 123.521 328.955 121.667Z" fill="#2D2D82"/>
<path d="M113.179 284.811C112.77 284.19 112.518 283.448 112.495 282.646C112.477 282.155 112.296 270.443 125.306 259.375C131.823 253.835 134.66 248.009 133.303 242.966C132.209 238.918 128.705 236.279 125.815 235.759C116.683 234.127 113.138 246.107 112.992 246.616C112.366 248.792 110.102 250.056 107.926 249.442C105.75 248.828 104.48 246.575 105.089 244.393C106.99 237.584 114.074 225.322 127.254 227.68C133.701 228.832 139.446 234.238 141.224 240.825C142.517 245.622 142.862 255.216 130.624 265.629C120.784 273.994 120.696 282.114 120.696 282.459C120.761 284.723 118.977 286.589 116.713 286.653C115.25 286.7 113.94 285.957 113.179 284.811Z" fill="#ABABCD"/>
<path d="M116.695 298.927C114.454 300.413 111.436 299.798 109.956 297.558C108.47 295.317 109.084 292.299 111.325 290.819C113.565 289.333 116.584 289.947 118.064 292.188C119.55 294.422 118.936 297.441 116.695 298.927Z" fill="#ABABCD"/>
<path d="M373.853 315.751C373.637 315.178 373.573 314.54 373.701 313.903C373.777 313.505 375.76 304.128 388.156 297.663C394.363 294.428 397.686 290.292 397.516 286.022C397.382 282.594 395.065 279.85 392.848 278.914C385.857 275.954 380.856 284.864 380.645 285.244C379.75 286.864 377.714 287.467 376.088 286.578C374.462 285.688 373.859 283.664 374.743 282.032C377.498 276.943 385.378 268.449 395.469 272.725C400.4 274.813 404.004 280.172 404.226 285.753C404.39 289.813 402.916 297.535 391.257 303.619C381.885 308.503 380.341 314.967 380.277 315.242C379.92 317.062 378.153 318.226 376.334 317.863C375.164 317.635 374.251 316.804 373.853 315.751Z" fill="#ABABCD"/>
<path d="M374.093 327.65C372.034 328.428 369.741 327.387 368.963 325.334C368.185 323.274 369.226 320.981 371.279 320.203C373.338 319.425 375.632 320.466 376.41 322.52C377.188 324.573 376.152 326.872 374.093 327.65Z" fill="#ABABCD"/>
<path d="M372.73 191.884C372.32 191.674 371.958 191.346 371.706 190.919C371.548 190.656 367.892 184.373 371.583 174.434C373.432 169.456 373.198 165.443 370.934 163.126C369.115 161.266 366.418 160.903 364.692 161.5C359.252 163.383 360.971 170.947 361.047 171.269C361.369 172.638 360.527 174.007 359.164 174.334C357.801 174.662 356.426 173.826 356.098 172.463C355.063 168.198 355.174 159.411 363.025 156.691C366.862 155.357 371.613 156.539 374.573 159.569C376.731 161.775 379.826 166.864 376.357 176.212C373.566 183.724 375.988 188.152 376.088 188.333C376.813 189.539 376.41 191.089 375.204 191.814C374.426 192.276 373.49 192.27 372.73 191.884Z" fill="#ABABCD"/>
<path d="M378.919 198.454C378.158 199.934 376.339 200.519 374.853 199.758C373.373 198.998 372.788 197.178 373.549 195.692C374.309 194.212 376.129 193.627 377.614 194.388C379.094 195.154 379.679 196.973 378.919 198.454Z" fill="#ABABCD"/>
<path d="M27.7638 311.387C17.62 311.387 9.37158 303.139 9.37158 292.995C9.37158 282.851 17.62 274.603 27.7638 274.603C37.9077 274.603 46.1561 282.851 46.1561 292.995C46.1561 303.139 37.9018 311.387 27.7638 311.387ZM27.7638 275.749C18.2577 275.749 10.5182 283.483 10.5182 292.995C10.5182 302.507 18.2518 310.241 27.7638 310.241C37.27 310.241 45.0095 302.507 45.0095 292.995C45.0037 283.489 37.27 275.749 27.7638 275.749Z" fill="#57579B"/>
<path d="M30.0103 305.502H25.3713V301.635C23.394 301.208 21.5396 300.371 20.1181 299.26L19.7495 298.973L22.0836 294.241L22.6452 294.714C24.137 295.984 26.7285 297.054 28.308 297.054C28.8052 297.054 29.3961 296.967 29.3961 296.54C29.3961 296.013 28.1266 295.686 26.8982 295.37C24.3827 294.72 20.9371 293.825 20.9371 289.935C20.9371 287.355 22.5867 285.395 25.3713 284.612V280.833H30.0103V284.383C31.9642 284.629 33.8713 285.29 35.2987 286.22L35.7199 286.495L33.456 291.204L32.9178 290.9C31.2154 289.929 28.9749 289.175 27.8166 289.175C27.53 289.175 27.0503 289.216 27.0503 289.479C27.0503 289.97 28.2846 290.309 29.478 290.637C32.0227 291.333 35.5093 292.293 35.5093 296.3C35.5093 299.26 33.4618 301.296 30.0045 301.822V305.502H30.0103ZM26.5238 304.349H28.8637V300.781L29.3785 300.728C30.8761 300.57 34.3686 299.821 34.3686 296.282C34.3686 293.153 31.6132 292.392 29.1796 291.725C27.4949 291.263 25.9037 290.83 25.9037 289.461C25.9037 288.759 26.4068 288.01 27.8166 288.01C29.2147 288.01 31.3441 288.765 32.947 289.596L34.2399 286.911C32.8885 286.138 31.1452 285.618 29.3844 285.46L28.8579 285.413V281.967H26.5179V285.501L26.0733 285.6C23.5403 286.174 22.0836 287.747 22.0836 289.917C22.0836 292.924 24.7922 293.626 27.1848 294.246C28.9105 294.691 30.5427 295.118 30.5427 296.528C30.5427 296.92 30.3789 298.189 28.308 298.189C26.6349 298.189 24.2072 297.271 22.4814 296.025L21.2003 298.616C22.5458 299.564 24.2481 300.254 26.0558 300.582L26.5238 300.67V304.349Z" fill="#57579B"/>
<path d="M72.3345 280.418C72.3345 283.764 75.0489 286.472 78.3892 286.472C81.7295 286.472 84.4439 283.758 84.4439 280.418C84.4439 277.071 81.7295 274.363 78.3892 274.363C75.0489 274.363 72.3345 277.071 72.3345 280.418ZM75.0255 280.418C75.0255 278.557 76.5347 277.054 78.3892 277.054C80.2495 277.054 81.7529 278.563 81.7529 280.418C81.7529 282.278 80.2436 283.781 78.3892 283.781C76.5289 283.781 75.0255 282.278 75.0255 280.418Z" fill="#2F2F81"/>
<path d="M59.3947 250.05H54.4164C53.7085 250.05 53.1353 250.624 53.1353 251.331C53.1353 252.039 53.7085 252.613 54.4164 252.613H59.3947C60.1026 252.613 60.6759 252.039 60.6759 251.331C60.6759 250.98 60.5296 250.659 60.3015 250.425C60.0675 250.197 59.7516 250.05 59.3947 250.05Z" fill="#F89F1E"/>
<path d="M40.8151 251.309C40.8093 251.671 40.9555 251.999 41.1895 252.233C41.4235 252.467 41.7394 252.607 42.0963 252.607H47.0746C47.7824 252.607 48.3557 252.034 48.3557 251.326C48.3557 250.618 47.7824 250.045 47.0746 250.045H42.1314C41.4235 250.051 40.8268 250.607 40.8151 251.309Z" fill="#F89F1E"/>
<path d="M49.4673 242.685V247.658C49.4673 248.366 50.0406 248.939 50.7484 248.939C51.4563 248.939 52.0296 248.366 52.0296 247.658V242.685C52.0296 241.978 51.4563 241.404 50.7484 241.404C50.3974 241.404 50.0757 241.545 49.8417 241.779C49.6077 242.007 49.4673 242.329 49.4673 242.685Z" fill="#F89F1E"/>
<path d="M50.7426 253.73C50.0347 253.73 49.4614 254.303 49.4614 255.011V259.984C49.4614 260.691 50.0347 261.265 50.7426 261.265C51.0936 261.265 51.4153 261.118 51.6493 260.89C51.8833 260.656 52.0237 260.34 52.0237 259.984V255.011C52.0237 254.303 51.4504 253.73 50.7426 253.73Z" fill="#F89F1E"/>
<path d="M22.6568 265.705C21.4692 265.927 20.2875 266.225 19.141 266.6C18.8075 266.711 18.6262 267.068 18.7373 267.395C18.8251 267.659 19.0649 267.834 19.3399 267.834C19.4042 267.834 19.4744 267.822 19.5387 267.805C20.6327 267.448 21.7617 267.161 22.8966 266.951C23.0604 266.922 23.2067 266.828 23.3003 266.688C23.3939 266.547 23.429 266.377 23.3997 266.214C23.3295 265.869 23.0019 265.64 22.6568 265.705Z" fill="#2F2F81"/>
<path d="M4.48118 305.66C4.39928 305.514 4.26473 305.403 4.10678 305.356C3.94299 305.309 3.77334 305.327 3.62709 305.409C3.48084 305.49 3.36969 305.625 3.32289 305.783C3.27609 305.947 3.29364 306.116 3.37554 306.263C3.95469 307.321 4.60403 308.351 5.31773 309.328C5.43472 309.492 5.62777 309.585 5.82667 309.585C5.96122 309.585 6.08992 309.544 6.20107 309.463C6.33562 309.363 6.42922 309.217 6.45262 309.047C6.47602 308.878 6.44092 308.714 6.34147 308.579C5.65702 307.661 5.03693 306.672 4.48118 305.66Z" fill="#2F2F81"/>
<path d="M14.9582 268.559C14.7944 268.513 14.6248 268.53 14.4785 268.612C13.4197 269.191 12.3901 269.846 11.4131 270.554C11.1323 270.759 11.068 271.157 11.2727 271.438C11.3897 271.601 11.5828 271.695 11.7817 271.695C11.9162 271.695 12.0449 271.654 12.1561 271.572C13.0862 270.894 14.069 270.268 15.0811 269.718C15.3853 269.548 15.5023 269.168 15.3326 268.858C15.2507 268.717 15.1162 268.612 14.9582 268.559Z" fill="#2F2F81"/>
<path d="M19.5918 318.208C18.4978 317.851 17.4097 317.424 16.3684 316.927C16.0525 316.775 15.6781 316.909 15.526 317.225C15.3739 317.541 15.5085 317.916 15.8244 318.068C16.9125 318.588 18.0532 319.039 19.1998 319.413C19.2642 319.437 19.3285 319.442 19.3929 319.442C19.6678 319.442 19.9076 319.267 19.9954 319.004C20.1065 318.676 19.9194 318.319 19.5918 318.208Z" fill="#2F2F81"/>
<path d="M12.203 314.447C11.2728 313.768 10.3719 313.025 9.53538 312.23C9.41254 312.113 9.24874 312.048 9.08494 312.054C8.91529 312.06 8.75734 312.13 8.64034 312.253C8.52334 312.376 8.46484 312.534 8.46484 312.703C8.47069 312.873 8.54089 313.031 8.66374 313.148C9.54124 313.979 10.4772 314.757 11.4542 315.47C11.5653 315.552 11.694 315.593 11.8227 315.593C12.0275 315.593 12.2147 315.494 12.3375 315.33C12.437 315.196 12.4779 315.026 12.4487 314.862C12.4311 314.692 12.3375 314.546 12.203 314.447Z" fill="#2F2F81"/>
<path d="M5.41705 277.592C5.5282 277.668 5.6569 277.715 5.7856 277.715C5.99035 277.715 6.17755 277.616 6.30039 277.452C6.97899 276.522 7.72193 275.621 8.51168 274.784C8.75153 274.533 8.73983 274.129 8.48828 273.889C8.23673 273.649 7.83308 273.661 7.59323 273.913C6.76254 274.79 5.9845 275.732 5.27665 276.709C5.0719 276.99 5.13625 277.387 5.41705 277.592Z" fill="#2F2F81"/>
<path d="M53.8078 288.104C53.8663 288.403 54.1237 288.619 54.4279 288.619C54.4688 288.619 54.5039 288.613 54.5449 288.608C54.7087 288.578 54.8549 288.485 54.9485 288.344C55.0421 288.204 55.0772 288.034 55.048 287.87C54.8257 286.683 54.5215 285.501 54.1471 284.355C54.0944 284.197 53.9833 284.062 53.8312 283.986C53.6791 283.91 53.5094 283.898 53.3515 283.951C53.1935 284.004 53.059 284.115 52.9829 284.267C52.9069 284.419 52.8952 284.589 52.9478 284.752C53.3105 285.846 53.5972 286.975 53.8078 288.104Z" fill="#2F2F81"/>
<path d="M1.26359 293.03V293.001C1.26359 291.854 1.33964 290.702 1.48589 289.573C1.50929 289.403 1.46249 289.239 1.35719 289.105C1.25189 288.97 1.10564 288.882 0.935993 288.865C0.766344 288.841 0.602545 288.888 0.467996 288.988C0.333447 289.093 0.245698 289.239 0.228148 289.409C0.0760494 290.591 0 291.796 0 292.995V293.024C0 293.375 0.286648 293.656 0.631795 293.656C0.982793 293.662 1.26359 293.375 1.26359 293.03Z" fill="#2F2F81"/>
<path d="M1.74897 285.249C1.81332 285.267 1.87767 285.279 1.94202 285.279C2.21697 285.279 2.45682 285.103 2.54456 284.84C2.90141 283.746 3.32846 282.658 3.82571 281.617C3.9778 281.301 3.84326 280.926 3.52736 280.774C3.37526 280.704 3.20561 280.692 3.04181 280.751C2.88386 280.809 2.75516 280.92 2.68496 281.073C2.16432 282.161 1.71387 283.301 1.33947 284.448C1.23417 284.781 1.41552 285.138 1.74897 285.249Z" fill="#2F2F81"/>
<path d="M1.708 297.856C1.64366 297.511 1.31606 297.289 0.97091 297.347C0.625763 297.412 0.403465 297.739 0.461964 298.084C0.684262 299.272 0.98261 300.454 1.35701 301.606C1.44476 301.869 1.6846 302.045 1.95955 302.045C2.0239 302.045 2.0941 302.033 2.15845 302.016C2.4919 301.91 2.67325 301.547 2.5621 301.22C2.20525 300.12 1.9186 298.985 1.708 297.856Z" fill="#2F2F81"/>
<path d="M43.3425 314.429C42.4124 315.108 41.4237 315.734 40.4175 316.284C40.1133 316.453 39.9963 316.834 40.166 317.144C40.2771 317.348 40.4877 317.471 40.7217 317.471C40.827 317.471 40.9323 317.442 41.0259 317.395C42.0848 316.816 43.1144 316.167 44.0913 315.453C44.2259 315.354 44.3195 315.207 44.3429 315.038C44.3663 314.868 44.3312 314.704 44.2317 314.57C44.0211 314.289 43.6233 314.224 43.3425 314.429Z" fill="#2F2F81"/>
<path d="M53.767 300.775C53.6032 300.723 53.4335 300.734 53.2814 300.816C53.1293 300.892 53.0182 301.021 52.9655 301.185C52.6087 302.279 52.1758 303.367 51.6785 304.402C51.6083 304.554 51.5966 304.724 51.6551 304.888C51.7136 305.052 51.8248 305.174 51.9769 305.251C52.0646 305.291 52.1524 305.315 52.2518 305.315C52.4917 305.315 52.7198 305.174 52.8251 304.952C53.3458 303.864 53.8021 302.723 54.1706 301.577C54.2818 301.243 54.1004 300.886 53.767 300.775Z" fill="#2F2F81"/>
<path d="M52.1348 279.698C51.5556 278.639 50.9004 277.609 50.1867 276.632C49.982 276.352 49.5842 276.287 49.3034 276.492C49.1688 276.591 49.0753 276.738 49.0519 276.907C49.0285 277.077 49.0636 277.241 49.1689 277.375C49.8474 278.305 50.4734 279.288 51.0233 280.3C51.1344 280.505 51.345 280.628 51.579 280.628C51.6843 280.628 51.7896 280.599 51.8832 280.552C52.1933 280.388 52.3044 280.002 52.1348 279.698Z" fill="#2F2F81"/>
<path d="M50.0873 308.427C49.8065 308.222 49.4087 308.287 49.2039 308.567C48.5253 309.498 47.7824 310.393 46.9868 311.229C46.7469 311.481 46.7586 311.884 47.0102 312.124C47.1272 312.235 47.2851 312.3 47.4431 312.3C47.6186 312.3 47.7824 312.23 47.8994 312.101C48.7301 311.223 49.514 310.287 50.2218 309.31C50.3212 309.176 50.3622 309.006 50.3329 308.842C50.3154 308.673 50.2218 308.526 50.0873 308.427Z" fill="#2F2F81"/>
<path d="M55.5221 292.931C55.5221 292.585 55.2354 292.299 54.8903 292.299C54.7206 292.299 54.5627 292.363 54.4457 292.486C54.3287 292.603 54.2585 292.767 54.2643 292.931V292.995C54.2643 294.153 54.1883 295.312 54.042 296.452C54.0186 296.622 54.0654 296.786 54.1707 296.92C54.276 297.055 54.4223 297.143 54.5861 297.16C54.6153 297.166 54.6446 297.166 54.668 297.166C54.9839 297.166 55.253 296.932 55.2939 296.616C55.4519 295.423 55.5279 294.206 55.5279 292.995L55.5221 292.931Z" fill="#2F2F81"/>
<path d="M39.6687 267.91C38.5748 267.389 37.4399 266.939 36.2933 266.57C36.1353 266.518 35.9598 266.53 35.8136 266.611C35.6615 266.687 35.5503 266.822 35.4977 266.98C35.3924 267.313 35.5737 267.67 35.9072 267.776C37.007 268.132 38.0892 268.559 39.1305 269.057C39.2183 269.098 39.306 269.115 39.3996 269.115C39.6453 269.115 39.8676 268.975 39.9729 268.753C40.0431 268.6 40.0548 268.431 39.9963 268.267C39.9378 268.109 39.8208 267.986 39.6687 267.91Z" fill="#2F2F81"/>
<path d="M35.9655 318.202C34.8716 318.559 33.7425 318.846 32.6076 319.056C32.2625 319.121 32.0402 319.448 32.0987 319.793C32.1513 320.092 32.4146 320.308 32.7188 320.308C32.7539 320.308 32.7948 320.302 32.8358 320.296C34.0233 320.074 35.205 319.776 36.3575 319.401C36.5154 319.349 36.65 319.238 36.726 319.086C36.8021 318.933 36.8138 318.764 36.7611 318.606C36.6558 318.272 36.2931 318.091 35.9655 318.202Z" fill="#2F2F81"/>
<path d="M31.3384 265.465C30.1625 265.313 28.9574 265.237 27.764 265.237H27.7172C27.3662 265.237 27.0854 265.518 27.0854 265.869C27.0854 266.22 27.3721 266.5 27.7172 266.5H27.764C28.9048 266.5 30.0514 266.576 31.1746 266.717C31.2038 266.723 31.2272 266.723 31.2565 266.723C31.5724 266.723 31.8415 266.483 31.8824 266.173C31.9292 265.822 31.6835 265.506 31.3384 265.465Z" fill="#2F2F81"/>
<path d="M47.0277 273.263C47.0219 273.093 46.9517 272.935 46.8288 272.818C45.9513 271.988 45.0095 271.21 44.0326 270.502C43.7518 270.297 43.354 270.361 43.1492 270.642C42.9445 270.923 43.0088 271.321 43.2896 271.525C44.2198 272.204 45.1206 272.947 45.9572 273.737C46.0742 273.848 46.2321 273.912 46.3901 273.912C46.5656 273.912 46.7294 273.842 46.8522 273.713C46.9751 273.591 47.0336 273.433 47.0277 273.263Z" fill="#2F2F81"/>
<path d="M27.7756 319.495H27.758C26.6056 319.495 25.4473 319.419 24.3124 319.273C24.1427 319.249 23.9789 319.296 23.8444 319.401C23.7098 319.506 23.6221 319.653 23.6045 319.822C23.5811 319.992 23.6279 320.156 23.7332 320.29C23.8385 320.425 23.9848 320.513 24.1544 320.53C25.342 320.682 26.5529 320.764 27.758 320.764H27.7756C28.1266 320.764 28.4074 320.483 28.4074 320.132C28.4132 319.776 28.1266 319.495 27.7756 319.495Z" fill="#2F2F81"/>
<path d="M321.209 150.426C316.605 147.694 313.288 143.289 308.585 140.715C302.086 137.152 293.802 135.526 286.835 138.521C279.675 141.604 273.819 147.086 268.665 152.807C260.475 161.898 252.794 171.632 242.861 178.886C237.28 182.958 231.699 187.029 226.118 191.101C204.772 206.679 210.253 240.311 235.636 247.67C237.713 248.272 239.749 248.623 241.708 248.664C261.879 249.068 290.526 231.267 280.324 204.333C273.83 187.199 282.015 175.873 288.83 169.906C290.649 172.551 288.97 174.27 291.725 174.048C294.633 173.814 300.676 164.682 307.585 167.403C314.494 170.123 320.601 180.378 325.211 179.986C329.82 179.594 347.674 166.133 321.209 150.426Z" fill="#414141"/>
</g>
<defs>
<clipPath id="clip0_1_471">
<rect width="410" height="474.461" fill="white"/>
</clipPath>
</defs>
</svg>
