<svg width="717" height="199" viewBox="0 0 717 199" fill="none" xmlns="http://www.w3.org/2000/svg">
<circle cx="614.842" cy="188.842" r="9.84242" fill="#2D2D82"/>
<circle cx="661" cy="188.842" r="9.34242" fill="white" stroke="#2D2D82"/>
<circle cx="707.157" cy="188.842" r="9.34242" fill="white" stroke="#2D2D82"/>
<path d="M75.6894 1.56583C71.7314 2.30426 67.7734 3.30853 63.9336 4.56386C62.8259 4.93308 62.2204 6.11457 62.5749 7.22222C62.8555 8.09357 63.6677 8.68432 64.5834 8.68432C64.8049 8.68432 65.0265 8.65478 65.2332 8.58094C68.8811 7.38468 72.6618 6.42471 76.4426 5.71582C77.0038 5.61244 77.4764 5.3023 77.8014 4.8297C78.1263 4.3571 78.2444 3.79589 78.141 3.24945C77.9342 2.11227 76.8266 1.35907 75.6894 1.56583Z" fill="#F89F1E"/>
<path d="M14.9901 135.016C14.7243 134.514 14.2664 134.159 13.7348 133.997C13.1883 133.834 12.6271 133.893 12.125 134.174C11.6229 134.44 11.2684 134.898 11.106 135.429C10.9435 135.961 11.0026 136.537 11.2832 137.039C13.2179 140.569 15.3888 144.025 17.7666 147.274C18.1653 147.82 18.8004 148.145 19.4798 148.145C19.9228 148.145 20.3659 148.012 20.7203 147.746C21.1781 147.407 21.4735 146.919 21.5621 146.373C21.6508 145.812 21.5179 145.25 21.1782 144.807C18.9186 141.691 16.8362 138.398 14.9901 135.016Z" fill="#F89F1E"/>
<path d="M49.9623 11.1211C49.4158 10.9587 48.8546 11.0178 48.3525 11.2984C44.8228 13.2331 41.3669 15.4188 38.1178 17.7966C37.1726 18.4759 36.9658 19.8051 37.6599 20.7503C38.0587 21.2967 38.6938 21.6216 39.3731 21.6216C39.8162 21.6216 40.2592 21.474 40.6137 21.2229C43.7299 18.9485 47.0085 16.8661 50.3758 15.0201C51.3948 14.4588 51.7788 13.174 51.2176 12.1549C50.9518 11.638 50.5087 11.2688 49.9623 11.1211Z" fill="#F89F1E"/>
<path d="M65.4401 176.928C61.7775 175.747 58.1592 174.299 54.6885 172.645C53.64 172.143 52.3699 172.586 51.8678 173.649C51.3656 174.698 51.8087 175.968 52.872 176.47C56.5199 178.213 60.3007 179.719 64.1405 180.96C64.3473 181.034 64.5688 181.063 64.7903 181.063C65.706 181.063 66.5182 180.472 66.7988 179.601C67.1533 178.479 66.5478 177.282 65.4401 176.928Z" fill="#F89F1E"/>
<path d="M40.776 164.361C37.6599 162.101 34.6618 159.606 31.8705 156.962C31.457 156.578 30.9253 156.356 30.3641 156.386C29.8029 156.401 29.2712 156.637 28.8872 157.051C28.5033 157.464 28.2965 157.996 28.3113 158.557C28.3261 159.118 28.5624 159.65 28.9759 160.034C31.9001 162.81 35.0458 165.41 38.2949 167.787C38.6641 168.053 39.0924 168.186 39.5355 168.186C40.2148 168.186 40.8499 167.861 41.2486 167.315C41.5736 166.857 41.7212 166.296 41.6326 165.749C41.5292 165.173 41.2339 164.686 40.776 164.361Z" fill="#F89F1E"/>
<path d="M18.121 41.264C18.4902 41.5298 18.9185 41.6627 19.3616 41.6627C20.0409 41.6627 20.676 41.3378 21.0747 40.7914C23.3343 37.6752 25.8154 34.6771 28.4738 31.8859C29.2713 31.0441 29.2418 29.7001 28.3852 28.9026C27.5434 28.1051 26.1994 28.1346 25.4019 28.9912C22.6254 31.9154 20.0261 35.0611 17.6484 38.325C16.969 39.2554 17.1758 40.5846 18.121 41.264Z" fill="#F89F1E"/>
<path d="M179.72 76.3842C179.912 77.3884 180.783 78.1121 181.787 78.1121C181.92 78.1121 182.053 78.0973 182.171 78.0826C182.733 77.9792 183.205 77.669 183.53 77.1964C183.855 76.7238 183.973 76.1626 183.87 75.6162C183.131 71.6582 182.127 67.7002 180.872 63.8604C180.695 63.3287 180.325 62.8856 179.823 62.6346C179.321 62.3835 178.745 62.3392 178.213 62.5164C177.682 62.6936 177.239 63.0628 176.988 63.565C176.737 64.0671 176.692 64.6431 176.869 65.1748C178.051 68.8374 179.026 72.6034 179.72 76.3842Z" fill="#F89F1E"/>
<path d="M4.23864 92.8204V92.717C4.23864 88.8919 4.48971 85.0373 4.97707 81.2713C5.05092 80.7101 4.90322 80.1637 4.54877 79.7058C4.20909 79.2628 3.70694 78.9674 3.14573 78.9083C2.58452 78.8345 2.03809 78.9822 1.58026 79.3218C1.1372 79.6615 0.841842 80.1637 0.767999 80.7249C0.251096 84.6681 0 88.6999 0 92.717V92.8204C0 93.9871 0.945228 94.9323 2.11195 94.9323C3.29344 94.9323 4.23864 93.9871 4.23864 92.8204Z" fill="#F89F1E"/>
<path d="M5.84865 66.8427C6.05541 66.9165 6.27695 66.9461 6.49848 66.9461C7.41413 66.9461 8.22639 66.3553 8.50699 65.484C9.68848 61.8214 11.1358 58.203 12.7899 54.7324C13.292 53.6838 12.849 52.4137 11.7856 51.9116C11.2687 51.6753 10.7075 51.6458 10.1759 51.823C9.64418 52.015 9.2159 52.3989 8.9796 52.9011C7.25167 56.5489 5.73048 60.3445 4.48991 64.1696C4.13547 65.2772 4.741 66.4735 5.84865 66.8427Z" fill="#F89F1E"/>
<path d="M5.73016 108.948C5.5234 107.796 4.41577 107.043 3.26382 107.25C2.11186 107.456 1.35862 108.564 1.56538 109.716C2.30382 113.689 3.30812 117.632 4.54868 121.472C4.82929 122.343 5.64154 122.934 6.5572 122.934C6.77873 122.934 7.00026 122.904 7.20702 122.831C8.31467 122.476 8.92021 121.28 8.56576 120.172C7.38427 116.495 6.42428 112.729 5.73016 108.948Z" fill="#F89F1E"/>
<path d="M144.763 164.302C141.646 166.561 138.368 168.644 134.986 170.49C133.967 171.051 133.583 172.336 134.144 173.355C134.513 174.034 135.222 174.463 136.005 174.463C136.359 174.463 136.699 174.374 137.009 174.211C140.539 172.292 143.995 170.106 147.259 167.728C147.716 167.403 148.012 166.901 148.1 166.355C148.189 165.793 148.056 165.232 147.716 164.789C147.037 163.829 145.708 163.622 144.763 164.302Z" fill="#F89F1E"/>
<path d="M179.587 118.695C179.055 118.518 178.479 118.563 177.977 118.828C177.475 119.079 177.106 119.523 176.928 120.054C175.747 123.717 174.299 127.335 172.631 130.806C172.394 131.308 172.35 131.884 172.542 132.416C172.734 132.947 173.118 133.376 173.62 133.612C173.901 133.745 174.211 133.819 174.536 133.819C175.348 133.819 176.086 133.346 176.441 132.622C178.184 128.974 179.69 125.194 180.945 121.354C181.3 120.261 180.694 119.065 179.587 118.695Z" fill="#F89F1E"/>
<path d="M174.137 48.2933C172.203 44.7636 170.017 41.3225 167.639 38.0586C166.945 37.1135 165.631 36.9067 164.685 37.6008C164.228 37.9405 163.932 38.4279 163.844 38.9891C163.755 39.5503 163.888 40.1115 164.228 40.5546C166.502 43.6707 168.584 46.9494 170.43 50.3166C170.8 50.996 171.509 51.4095 172.291 51.4095C172.646 51.4095 173 51.3209 173.31 51.1437C174.315 50.612 174.699 49.3271 174.137 48.2933Z" fill="#F89F1E"/>
<path d="M167.299 144.261C166.354 143.581 165.04 143.788 164.346 144.718C162.086 147.835 159.59 150.818 156.947 153.609C156.149 154.451 156.179 155.795 157.02 156.592C157.419 156.962 157.936 157.168 158.468 157.168C159.044 157.168 159.605 156.932 160.004 156.504C162.78 153.58 165.394 150.449 167.757 147.185C168.082 146.727 168.23 146.166 168.141 145.619C168.053 145.073 167.742 144.585 167.299 144.261Z" fill="#F89F1E"/>
<path d="M185.45 92.4964C185.45 91.3297 184.505 90.3845 183.323 90.3845C182.762 90.3845 182.23 90.606 181.832 91.0048C181.433 91.4035 181.211 91.9352 181.211 92.4964V92.7031C181.211 96.5578 180.96 100.442 180.458 104.252C180.384 104.813 180.532 105.36 180.872 105.818C181.211 106.261 181.713 106.556 182.275 106.63C182.363 106.645 182.467 106.645 182.555 106.645C183.619 106.645 184.505 105.847 184.652 104.799C185.169 100.811 185.435 96.7498 185.435 92.7031L185.45 92.4964Z" fill="#F89F1E"/>
<path d="M132.504 8.93539C128.856 7.20746 125.061 5.70106 121.221 4.46049C120.689 4.28327 120.113 4.32757 119.611 4.59341C119.109 4.84448 118.74 5.28753 118.563 5.81921C118.208 6.92685 118.814 8.12312 119.921 8.47757C123.584 9.65906 127.202 11.0916 130.688 12.7457C130.968 12.8786 131.278 12.9525 131.589 12.9525C132.401 12.9525 133.154 12.4799 133.494 11.7414C133.73 11.2245 133.76 10.6633 133.582 10.1317C133.39 9.61475 133.006 9.18646 132.504 8.93539Z" fill="#F89F1E"/>
<path d="M120.128 176.884C116.466 178.08 112.7 179.025 108.919 179.734C107.767 179.941 107.014 181.048 107.221 182.2C107.413 183.205 108.284 183.928 109.303 183.928C109.436 183.928 109.554 183.914 109.687 183.899C113.66 183.16 117.603 182.156 121.443 180.916C121.975 180.738 122.418 180.369 122.669 179.867C122.92 179.365 122.964 178.789 122.802 178.257C122.432 177.135 121.236 176.529 120.128 176.884Z" fill="#F89F1E"/>
<path d="M104.665 0.767971C100.737 0.265836 96.7199 0 92.7176 0H92.57C91.4032 0 90.458 0.945194 90.458 2.11192C90.458 3.27864 91.4032 4.22384 92.57 4.22384H92.7324C96.5427 4.22384 100.383 4.4749 104.134 4.9475C104.222 4.96227 104.311 4.96227 104.4 4.96227C105.463 4.96227 106.364 4.16476 106.497 3.11619C106.644 1.96423 105.817 0.915657 104.665 0.767971Z" fill="#F89F1E"/>
<path d="M157.094 26.8196C157.079 26.2584 156.843 25.7268 156.43 25.3428C153.505 22.5663 150.36 19.967 147.096 17.604C146.151 16.9246 144.836 17.1314 144.142 18.0766C143.463 19.0218 143.669 20.3362 144.615 21.0303C147.731 23.2899 150.729 25.7711 153.52 28.4147C153.919 28.7839 154.436 28.9906 154.967 28.9906C155.543 28.9906 156.105 28.7543 156.503 28.326C156.902 27.9125 157.109 27.3809 157.094 26.8196Z" fill="#F89F1E"/>
<path d="M92.7917 181.211H92.7326C88.8927 181.211 85.0233 180.96 81.2278 180.473C80.6666 180.399 80.1202 180.547 79.6623 180.901C79.2193 181.241 78.9239 181.743 78.8501 182.304C78.7762 182.866 78.9239 183.412 79.2784 183.87C79.6181 184.313 80.1202 184.608 80.6814 184.682C84.6541 185.199 88.7007 185.45 92.7178 185.45H92.7769C93.9436 185.45 94.8888 184.505 94.8888 183.338C94.9036 182.157 93.9584 181.211 92.7917 181.211Z" fill="#F89F1E"/>
</svg>
