<svg width="202" height="175" viewBox="0 0 202 175" fill="none" xmlns="http://www.w3.org/2000/svg">
<rect width="202" height="175" rx="20" fill="white"/>
<path d="M75.5186 151.447C67.2087 151.447 59.3619 148.75 52.8276 143.642C43.7567 136.55 38.5513 125.881 38.5513 114.367C38.5513 105.484 41.7385 96.8881 47.5229 90.1663C54.5756 81.9963 64.7769 77.3087 75.5186 77.3087C76.0866 77.3087 76.5443 77.7675 76.5443 78.3369C76.5443 78.9062 76.0866 79.3651 75.5186 79.3651C65.3724 79.3651 55.7336 83.7928 49.0724 91.5096C43.6133 97.861 40.6026 105.981 40.6026 114.367C40.6026 125.24 45.5212 135.317 54.0904 142.017C60.2608 146.837 67.6719 149.385 75.5186 149.385C84.6943 149.385 93.3571 145.848 99.908 139.419C106.696 132.769 110.435 123.869 110.435 114.361C110.435 104.953 107.628 97.4187 101.855 91.3382C101.529 90.9955 101.182 90.6472 100.823 90.3045C93.5336 83.2455 89.5192 73.771 89.5192 63.622C89.5192 54.7333 92.7009 46.1321 98.4743 39.4048C105.533 31.2403 115.734 26.5527 126.476 26.5527C146.862 26.5527 163.448 43.1858 163.448 63.6275C163.448 74.0805 159.009 84.1024 151.273 91.1171C144.452 97.2861 135.646 100.686 126.476 100.686C125.908 100.686 125.45 100.227 125.45 99.6575C125.45 99.0881 125.908 98.6293 126.476 98.6293C135.138 98.6293 143.459 95.4177 149.894 89.5914C157.201 82.9636 161.392 73.5001 161.392 63.6275C161.392 44.319 145.726 28.6091 126.47 28.6091C116.324 28.6091 106.685 33.0368 100.024 40.7536C94.5703 47.1105 91.565 55.2308 91.565 63.6275C91.565 73.2126 95.3533 82.1676 102.241 88.8286C102.621 89.1934 102.985 89.5583 103.332 89.9231C109.486 96.4072 112.48 104.4 112.48 114.361C112.48 124.427 108.521 133.847 101.336 140.884C94.4103 147.699 85.2347 151.447 75.5186 151.447Z" fill="#F9A01B"/>
<path d="M75.5188 152C67.0875 152 59.125 149.258 52.4914 144.079C43.2826 136.882 38 126.053 38 114.367C38 105.351 41.2313 96.6283 47.104 89.8015C54.2614 81.5099 64.6172 76.756 75.5188 76.756C76.39 76.756 77.0958 77.4635 77.0958 78.3369C77.0958 79.2103 76.39 79.9179 75.5188 79.9179C65.5325 79.9179 56.0481 84.2738 49.4916 91.8689C44.1153 98.1208 41.1541 106.108 41.1541 114.367C41.1541 125.069 45.9956 134.991 54.4324 141.58C60.5035 146.323 67.7989 148.833 75.5188 148.833C84.5511 148.833 93.0761 145.35 99.5222 139.021C106.205 132.476 109.883 123.72 109.883 114.361C109.883 105.102 107.126 97.6952 101.458 91.7197C101.138 91.3825 100.796 91.0397 100.443 90.7026C93.043 83.5386 88.968 73.9202 88.968 63.622C88.968 54.6007 92.1938 45.8723 98.0554 39.04C105.218 30.7539 115.574 26 126.476 26C147.165 26 164 42.8818 164 63.6275C164 74.2353 159.495 84.4064 151.643 91.5262C144.722 97.7892 135.784 101.238 126.476 101.238C125.604 101.238 124.899 100.531 124.899 99.6575C124.899 98.7842 125.604 98.0766 126.476 98.0766C135.001 98.0766 143.189 94.9147 149.525 89.1769C156.716 82.6541 160.84 73.3398 160.84 63.622C160.84 44.6175 145.423 29.1564 126.47 29.1564C116.484 29.1564 106.999 33.5122 100.443 41.1074C95.0777 47.3593 92.1221 55.358 92.1221 63.622C92.1221 73.0579 95.8552 81.8692 102.627 88.4306C103.013 88.801 103.382 89.1714 103.735 89.5417C109.994 96.1364 113.032 104.251 113.032 114.361C113.032 124.577 109.018 134.134 101.722 141.282C94.6917 148.197 85.3837 152 75.5188 152ZM75.5188 77.8615C64.937 77.8615 54.8846 82.4772 47.9366 90.5257C42.2404 97.1535 39.1028 105.622 39.1028 114.367C39.1028 125.71 44.2311 136.218 53.1696 143.205C59.6047 148.236 67.3357 150.894 75.5188 150.894C85.0915 150.894 94.1238 147.202 100.956 140.497C108.036 133.559 111.935 124.284 111.935 114.367C111.935 104.555 108.99 96.6836 102.941 90.3046C102.599 89.9453 102.241 89.5859 101.866 89.2266C94.8737 82.4551 91.0193 73.3675 91.0193 63.622C91.0193 55.0927 94.0686 46.8397 99.6104 40.3833C106.376 32.5449 116.17 28.0453 126.476 28.0453C146.035 28.0453 161.949 44.004 161.949 63.6165C161.949 73.6439 157.692 83.2566 150.27 89.995C143.73 95.9152 135.276 99.1766 126.476 99.1766C126.217 99.1766 126.001 99.3922 126.001 99.652C126.001 99.9118 126.217 100.127 126.476 100.127C135.508 100.127 144.187 96.7776 150.904 90.697C158.524 83.7818 162.897 73.9147 162.897 63.6165C162.897 43.4899 146.559 27.1056 126.476 27.1056C115.899 27.1056 105.841 31.7212 98.8936 39.7697C93.2084 46.3975 90.0708 54.8715 90.0708 63.6275C90.0708 73.6273 94.0245 82.9637 101.204 89.9121C101.568 90.2603 101.915 90.6141 102.252 90.9624C108.13 97.1535 110.986 104.809 110.986 114.367C110.986 124.024 107.187 133.062 100.294 139.817C93.6385 146.345 84.8378 149.944 75.5188 149.944C67.5452 149.944 60.0183 147.357 53.7541 142.454C45.0472 135.649 40.0513 125.411 40.0513 114.367C40.0513 105.843 43.1062 97.5957 48.6535 91.1448C55.4194 83.3064 65.2127 78.8068 75.5188 78.8068C75.7779 78.8068 75.993 78.5912 75.993 78.3314C75.993 78.0716 75.7835 77.8615 75.5188 77.8615Z" fill="#F9A01B"/>
<path d="M100.372 140.911C99.9307 140.911 99.5226 140.624 99.3903 140.181C97.7801 134.842 92.7897 131.116 87.2535 131.116H83.2171C82.6491 131.116 82.1914 130.657 82.1914 130.088C82.1914 129.518 82.6491 129.06 83.2171 129.06H87.2535C93.6886 129.06 99.4895 133.388 101.353 139.584C101.519 140.126 101.21 140.701 100.67 140.867C100.565 140.895 100.466 140.911 100.372 140.911Z" fill="#2D2D82"/>
<path d="M100.372 141.464C99.6713 141.464 99.0647 141.011 98.8607 140.342C97.3222 135.234 92.5469 131.669 87.2478 131.669H83.2113C82.3401 131.669 81.6343 130.961 81.6343 130.088C81.6343 129.214 82.3401 128.507 83.2113 128.507H87.2478C93.9255 128.507 99.9415 132.995 101.877 139.43C101.998 139.833 101.954 140.264 101.756 140.635C101.557 141.005 101.226 141.282 100.824 141.403C100.675 141.442 100.52 141.464 100.372 141.464ZM83.2113 129.612C82.9522 129.612 82.7371 129.828 82.7371 130.088C82.7371 130.348 82.9522 130.563 83.2113 130.563H87.2478C93.0267 130.563 98.2376 134.455 99.9139 140.021C99.9856 140.264 100.25 140.414 100.504 140.336C100.758 140.259 100.895 139.994 100.824 139.745C99.0261 133.78 93.4457 129.612 87.2533 129.612H83.2113Z" fill="#2D2D82"/>
<path d="M53.8371 143.393C53.7985 143.393 53.7655 143.393 53.7269 143.388C53.1644 143.327 52.7564 142.818 52.817 142.255C53.578 135.085 59.5774 129.419 66.768 129.071C66.9775 129.054 67.2367 129.054 67.4793 129.054H71.5047C72.0727 129.054 72.5304 129.513 72.5304 130.082C72.5304 130.652 72.0727 131.111 71.5047 131.111H67.4793C67.2974 131.111 67.0823 131.111 66.8948 131.122C60.6803 131.42 55.519 136.301 54.8628 142.47C54.7966 143.001 54.3555 143.393 53.8371 143.393Z" fill="#2D2D82"/>
<path d="M53.837 143.946C53.7819 143.946 53.7267 143.946 53.6716 143.935C52.8059 143.841 52.1772 143.062 52.271 142.194C53.0595 134.759 59.2851 128.877 66.7403 128.518C66.9498 128.502 67.2256 128.502 67.4792 128.502H71.5046C72.3758 128.502 73.0817 129.209 73.0817 130.083C73.0817 130.956 72.3758 131.663 71.5046 131.663H67.4792C67.2862 131.663 67.0987 131.663 66.9333 131.675C60.9835 131.962 56.0372 136.627 55.4086 142.531C55.3148 143.338 54.6421 143.946 53.837 143.946ZM67.4737 129.613C67.2476 129.613 67.005 129.613 66.801 129.629C59.8641 129.966 54.0962 135.422 53.3628 142.321C53.3352 142.581 53.5227 142.819 53.7819 142.846H53.8315C54.0741 142.846 54.2726 142.664 54.3002 142.421C54.984 135.981 60.3824 130.89 66.8561 130.58C67.0381 130.569 67.2311 130.569 67.4406 130.569H71.4936C71.7527 130.569 71.9678 130.353 71.9678 130.094C71.9678 129.834 71.7527 129.618 71.4936 129.618H67.4737V129.613Z" fill="#2D2D82"/>
<path d="M77.3553 142.979C76.9637 142.979 76.6108 142.758 76.4344 142.409L70.5893 130.558C70.3356 130.049 70.5452 129.436 71.0525 129.181C71.5598 128.933 72.1774 129.137 72.4255 129.646L77.3497 139.634L82.2298 129.723C82.2464 129.679 82.2629 129.635 82.285 129.59C82.5496 129.087 83.1783 128.877 83.6801 129.143C84.1433 129.386 84.3528 129.928 84.1653 130.409C84.1488 130.453 84.1322 130.497 84.1157 130.536L78.2706 142.404C78.0997 142.758 77.7412 142.979 77.3553 142.979Z" fill="#2D2D82"/>
<path d="M77.3552 143.532C76.7596 143.532 76.2027 143.189 75.9435 142.653L70.0984 130.801C69.911 130.425 69.8834 129.994 70.0157 129.596C70.1536 129.198 70.4348 128.872 70.8098 128.684C71.5928 128.297 72.5357 128.618 72.9217 129.397L77.3497 138.38L81.7224 129.497C81.7445 129.436 81.7721 129.38 81.7996 129.325C81.9926 128.955 82.34 128.667 82.7426 128.54C83.1451 128.413 83.5697 128.452 83.9392 128.651C84.645 129.027 84.9648 129.867 84.6836 130.602C84.667 130.646 84.6395 130.713 84.6119 130.779L78.7668 142.647C78.4966 143.194 77.9562 143.532 77.3552 143.532ZM71.5101 129.624C71.4384 129.624 71.3667 129.64 71.3006 129.673C71.1848 129.729 71.102 129.828 71.0634 129.944C71.0248 130.066 71.0304 130.193 71.0855 130.309L76.9306 142.161C77.0905 142.481 77.6199 142.487 77.7798 142.161L83.6248 130.293C83.6359 130.27 83.6414 130.254 83.6469 130.232C83.7406 129.988 83.6414 129.745 83.4263 129.629C83.316 129.574 83.1947 129.563 83.0734 129.596C82.9466 129.635 82.8418 129.723 82.7812 129.839C82.7701 129.861 82.7591 129.883 82.7536 129.906L82.7315 129.961L77.3552 140.878L71.9402 129.889C71.852 129.723 71.6865 129.624 71.5101 129.624Z" fill="#2D2D82"/>
<path d="M77.355 125.66C69.7619 125.66 63.5859 119.469 63.5859 111.852C63.5859 104.235 69.7619 98.0435 77.355 98.0435C84.948 98.0435 91.1295 104.235 91.1295 111.852C91.1295 119.469 84.948 125.66 77.355 125.66ZM77.355 100.1C70.8923 100.1 65.6372 105.373 65.6372 111.852C65.6372 118.33 70.8923 123.604 77.355 123.604C83.8176 123.604 89.0782 118.33 89.0782 111.852C89.0727 105.373 83.8176 100.1 77.355 100.1Z" fill="#2D2D82"/>
<path d="M77.3551 126.213C69.4587 126.213 63.0347 119.773 63.0347 111.852C63.0347 103.931 69.4587 97.4907 77.3551 97.4907C85.2515 97.4907 91.6811 103.931 91.6811 111.852C91.6811 119.773 85.2515 126.213 77.3551 126.213ZM77.3551 98.5963C70.0653 98.5963 64.1375 104.544 64.1375 111.852C64.1375 119.16 70.0653 125.107 77.3551 125.107C84.6449 125.107 90.5782 119.16 90.5782 111.852C90.5782 104.544 84.6449 98.5963 77.3551 98.5963ZM77.3551 124.157C70.5892 124.157 65.086 118.64 65.086 111.852C65.086 105.064 70.5892 99.5471 77.3551 99.5471C84.1211 99.5471 89.6298 105.064 89.6298 111.852C89.6298 118.64 84.1211 124.157 77.3551 124.157ZM77.3551 100.653C71.1957 100.653 66.1888 105.677 66.1888 111.852C66.1888 118.026 71.2012 123.051 77.3551 123.051C83.5145 123.051 88.5269 118.026 88.5269 111.852C88.5269 105.677 83.5145 100.653 77.3551 100.653Z" fill="#2D2D82"/>
<path d="M150.396 91.1722C149.828 91.1722 149.371 90.7134 149.371 90.144V89.2154C149.371 82.1288 143.619 76.3688 136.55 76.3688H132.481C131.913 76.3688 131.455 75.91 131.455 75.3407C131.455 74.7713 131.913 74.3125 132.481 74.3125H136.55C144.75 74.3125 151.422 80.9956 151.422 89.2154V90.144C151.422 90.7079 150.964 91.1722 150.396 91.1722Z" fill="#F9A01B"/>
<path d="M150.397 91.725C149.525 91.725 148.82 91.0175 148.82 90.1441V89.2154C148.82 82.4328 143.316 76.9216 136.55 76.9216H132.481C131.61 76.9216 130.904 76.2141 130.904 75.3407C130.904 74.4673 131.61 73.7598 132.481 73.7598H136.55C145.053 73.7598 151.974 80.6916 151.974 89.2154V90.1441C151.974 91.0119 151.268 91.725 150.397 91.725ZM132.486 74.8653C132.227 74.8653 132.012 75.0809 132.012 75.3407C132.012 75.6005 132.227 75.8161 132.486 75.8161H136.556C143.928 75.8161 149.928 81.8303 149.928 89.2154V90.1441C149.928 90.4039 150.143 90.6195 150.402 90.6195C150.661 90.6195 150.876 90.4039 150.876 90.1441V89.2154C150.876 81.2996 144.452 74.8653 136.556 74.8653H132.486Z" fill="#F9A01B"/>
<path d="M102.737 91.526C102.169 91.526 101.711 91.0672 101.711 90.4978V89.2154C101.711 81.272 107.909 74.7271 115.817 74.3291C116.054 74.3125 116.324 74.3125 116.578 74.3125H120.647C121.215 74.3125 121.673 74.7713 121.673 75.3407C121.673 75.91 121.215 76.3688 120.647 76.3688H116.578C116.374 76.3744 116.148 76.3688 115.938 76.3799C109.106 76.7281 103.763 82.3665 103.763 89.2154V90.4978C103.763 91.0672 103.305 91.526 102.737 91.526Z" fill="#F9A01B"/>
<path d="M102.737 92.0788C101.866 92.0788 101.16 91.3712 101.16 90.4979V89.2154C101.16 80.9735 107.584 74.1909 115.789 73.7763C116.032 73.7598 116.313 73.7598 116.578 73.7598H120.647C121.519 73.7598 122.224 74.4673 122.224 75.3407C122.224 76.2141 121.519 76.9217 120.647 76.9217L116.352 76.9272C116.225 76.9272 116.098 76.9272 115.977 76.9382C109.437 77.2699 104.32 82.665 104.32 89.2209V90.5034C104.314 91.3712 103.608 92.0788 102.737 92.0788ZM116.578 74.8653C116.335 74.8653 116.082 74.8653 115.856 74.8819C108.229 75.2688 102.263 81.565 102.263 89.2154V90.4979C102.263 90.7577 102.478 90.9732 102.737 90.9732C102.996 90.9732 103.211 90.7577 103.211 90.4979V89.2154C103.211 82.068 108.786 76.192 115.905 75.8272C116.043 75.8161 116.192 75.8161 116.335 75.8161H116.556H120.642C120.901 75.8161 121.116 75.6005 121.116 75.3407C121.116 75.0809 120.901 74.8653 120.642 74.8653H116.578Z" fill="#F9A01B"/>
<path d="M126.57 88.3587C126.178 88.3587 125.825 88.1376 125.649 87.7894L119.743 75.8107C119.489 75.3021 119.699 74.6886 120.206 74.4343C120.719 74.18 121.331 74.3956 121.579 74.8986L126.564 85.0089L131.555 74.882C131.797 74.3901 132.398 74.1579 132.9 74.3845C133.402 74.6112 133.644 75.175 133.44 75.6891L127.491 87.7839C127.32 88.1376 126.961 88.3587 126.57 88.3587Z" fill="#F9A01B"/>
<path d="M126.57 88.9116C125.969 88.9116 125.423 88.5744 125.152 88.0327L119.247 76.054C118.861 75.2746 119.181 74.3238 119.964 73.9369C120.747 73.5499 121.695 73.876 122.075 74.6555L126.564 83.7597L131.058 74.6389C131.433 73.8816 132.359 73.5389 133.12 73.8816C133.898 74.2298 134.256 75.1143 133.948 75.8937L127.981 88.0271C127.717 88.5744 127.176 88.9116 126.57 88.9116ZM120.664 74.8821C120.592 74.8821 120.52 74.8987 120.449 74.9318C120.217 75.0479 120.118 75.3298 120.234 75.5675L126.139 87.5462C126.222 87.7065 126.382 87.8116 126.564 87.8116C126.746 87.8116 126.906 87.7121 126.989 87.5462L132.938 75.4515C133.016 75.258 132.905 75.0037 132.668 74.8987C132.437 74.7937 132.161 74.9042 132.045 75.1364L126.564 86.2638L121.083 75.153C121.006 74.9761 120.84 74.8821 120.664 74.8821Z" fill="#F9A01B"/>
<path d="M126.58 67.9335C118.971 67.9335 112.778 61.7424 112.778 54.1251C112.778 46.5078 118.971 40.3167 126.58 40.3167C134.174 40.3167 140.355 46.5078 140.355 54.1251C140.355 61.7424 134.179 67.9335 126.58 67.9335ZM126.58 42.373C120.101 42.373 114.83 47.6465 114.83 54.1251C114.83 60.6036 120.101 65.8771 126.58 65.8771C133.043 65.8771 138.304 60.6036 138.304 54.1251C138.304 47.6465 133.049 42.373 126.58 42.373Z" fill="#F9A01B"/>
<path d="M126.581 68.4863C118.668 68.4863 112.227 62.0464 112.227 54.1251C112.227 46.2038 118.668 39.764 126.581 39.764C134.477 39.764 140.907 46.2038 140.907 54.1251C140.907 62.0464 134.482 68.4863 126.581 68.4863ZM126.581 40.8751C119.274 40.8751 113.33 46.8229 113.33 54.1307C113.33 61.4384 119.274 67.3862 126.581 67.3862C133.87 67.3862 139.804 61.4384 139.804 54.1307C139.804 46.8229 133.876 40.8751 126.581 40.8751ZM126.581 66.4299C119.798 66.4299 114.278 60.9132 114.278 54.1251C114.278 47.337 119.798 41.8203 126.581 41.8203C133.347 41.8203 138.855 47.337 138.855 54.1251C138.855 60.9132 133.352 66.4299 126.581 66.4299ZM126.581 42.9259C120.405 42.9259 115.381 47.9506 115.381 54.1251C115.381 60.2996 120.405 65.3244 126.581 65.3244C132.74 65.3244 137.752 60.2996 137.752 54.1251C137.752 47.9506 132.74 42.9259 126.581 42.9259Z" fill="#F9A01B"/>
<path d="M75.5185 79.3649H43.6463C43.0783 79.3649 42.6206 78.9061 42.6206 78.3368C42.6206 77.7674 43.0783 77.3086 43.6463 77.3086H75.5185C76.0864 77.3086 76.5441 77.7674 76.5441 78.3368C76.5441 78.9061 76.0864 79.3649 75.5185 79.3649Z" fill="#2D2D82"/>
<path d="M75.5186 79.9178H43.6464C42.7752 79.9178 42.0693 79.2102 42.0693 78.3368C42.0693 77.4634 42.7752 76.7559 43.6464 76.7559H75.5186C76.3899 76.7559 77.0957 77.4634 77.0957 78.3368C77.0957 79.2102 76.3899 79.9178 75.5186 79.9178ZM43.6464 77.8614C43.3872 77.8614 43.1722 78.077 43.1722 78.3368C43.1722 78.5966 43.3872 78.8122 43.6464 78.8122H75.5186C75.7778 78.8122 75.9928 78.5966 75.9928 78.3368C75.9928 78.077 75.7778 77.8614 75.5186 77.8614H43.6464Z" fill="#2D2D82"/>
<path d="M47.8814 85.2356C47.5892 85.2356 47.3024 85.114 47.0984 84.8708L42.1356 79.0003C41.8103 78.6189 41.8103 78.055 42.1356 77.6681L47.0984 71.8142C47.4623 71.3775 48.113 71.3333 48.5431 71.6981C48.9732 72.0629 49.0284 72.7152 48.6589 73.1464L44.2641 78.337L48.6644 83.5441C49.0284 83.9753 48.9788 84.6276 48.5431 84.9924C48.3501 85.1582 48.1185 85.2356 47.8814 85.2356Z" fill="#2D2D82"/>
<path d="M47.8816 85.7884C47.4184 85.7884 46.9772 85.5839 46.6795 85.2301L41.7167 79.3596C41.2149 78.7682 41.2149 77.9058 41.7167 77.3144L46.6795 71.4605C46.9497 71.1399 47.3246 70.9464 47.7492 70.9077C48.1738 70.8745 48.5819 71.0017 48.9017 71.278C49.5634 71.8419 49.6461 72.8424 49.0837 73.5057L44.9866 78.337L49.0837 83.1849C49.6461 83.8482 49.5634 84.8487 48.9017 85.4126C48.6205 85.6558 48.2565 85.7884 47.8816 85.7884ZM47.8816 72.0077C47.865 72.0077 47.854 72.0077 47.8375 72.0077C47.7106 72.0188 47.6004 72.074 47.5176 72.1735L42.5548 78.033C42.4115 78.2099 42.4115 78.4697 42.5604 78.6466L47.5232 84.5171C47.6169 84.6276 47.7437 84.6829 47.8871 84.6829C47.9643 84.6829 48.0856 84.6608 48.1904 84.5723C48.3889 84.401 48.4165 84.1025 48.2455 83.9035L43.5419 78.3425L48.2455 72.7927C48.4165 72.5937 48.3889 72.2896 48.1904 72.1238C48.1021 72.0464 47.9919 72.0077 47.8816 72.0077Z" fill="#2D2D82"/>
<path d="M158.37 100.691H126.475C125.907 100.691 125.45 100.232 125.45 99.6629C125.45 99.0936 125.907 98.6348 126.475 98.6348H158.37C158.938 98.6348 159.395 99.0936 159.395 99.6629C159.395 100.227 158.932 100.691 158.37 100.691Z" fill="#F9A01B"/>
<path d="M158.37 101.244H126.476C125.604 101.244 124.898 100.536 124.898 99.663C124.898 98.7896 125.604 98.082 126.476 98.082H158.37C159.241 98.082 159.947 98.7896 159.947 99.663C159.947 100.536 159.235 101.244 158.37 101.244ZM126.476 99.1876C126.216 99.1876 126.001 99.4032 126.001 99.663C126.001 99.9228 126.216 100.138 126.476 100.138H158.37C158.629 100.138 158.844 99.9228 158.844 99.663C158.844 99.4032 158.629 99.1876 158.37 99.1876H126.476Z" fill="#F9A01B"/>
<path d="M154.543 106.545C154.306 106.545 154.074 106.462 153.876 106.302C153.446 105.932 153.396 105.285 153.76 104.854L158.172 99.6633L153.76 94.4561C153.396 94.025 153.446 93.3727 153.876 93.0079C154.306 92.643 154.957 92.6928 155.321 93.1239L160.3 98.9944C160.625 99.3814 160.625 99.9452 160.3 100.327L155.321 106.181C155.122 106.424 154.835 106.545 154.543 106.545Z" fill="#F9A01B"/>
<path d="M154.543 107.098C154.168 107.098 153.804 106.965 153.523 106.722C152.861 106.158 152.784 105.158 153.341 104.494L157.449 99.6632L153.341 94.8153C152.779 94.152 152.861 93.1514 153.523 92.5876C153.843 92.3112 154.251 92.1841 154.676 92.2173C155.095 92.2504 155.475 92.4494 155.745 92.77L160.725 98.6405C161.227 99.232 161.227 100.094 160.725 100.691L155.745 106.545C155.442 106.893 155.007 107.098 154.543 107.098ZM154.543 93.3173C154.433 93.3173 154.323 93.356 154.235 93.4278C154.036 93.5992 154.008 93.8977 154.179 94.0967L158.894 99.6632L154.174 105.208C154.003 105.407 154.03 105.705 154.229 105.876C154.339 105.97 154.455 105.992 154.538 105.992C154.676 105.992 154.808 105.932 154.902 105.827L159.881 99.9727C160.03 99.7958 160.03 99.536 159.881 99.3591L154.902 93.4886C154.819 93.3891 154.703 93.3339 154.582 93.3228C154.571 93.3173 154.56 93.3173 154.543 93.3173Z" fill="#F9A01B"/>
</svg>
