<svg width="443" height="444" viewBox="0 0 443 444" fill="none" xmlns="http://www.w3.org/2000/svg">
<g filter="url(#filter0_d_1_1608)">
<g filter="url(#filter1_d_1_1608)">
<rect x="32" y="33.9999" width="366" height="365" rx="80" fill="#2D2D82"/>
</g>
</g>
<path d="M319.578 268.552C320.911 271.471 322.303 274.415 323.72 277.366L349.932 275.794L311.339 218.667C309.727 216.286 308.077 213.937 306.368 211.62C299.65 202.489 292.188 193.915 284.053 186.027C276.422 178.624 256.779 164.045 253.679 161.171C267.465 176.404 280.312 192.556 291.172 210.015C302.725 228.6 310.53 248.732 319.578 268.552Z" fill="#9595C0"/>
<path d="M253.006 160.531C253.084 160.589 253.168 160.647 253.246 160.706C253.168 160.615 253.09 160.563 253.006 160.531Z" fill="#C9C9DF"/>
<path d="M260.035 391.141L282.868 328.261C282.842 328.261 282.817 328.261 282.791 328.261L272.986 296.605C279.128 294.417 287.716 291.848 296.958 289.474L298.99 283.876C300.091 280.848 302.906 278.764 306.148 278.57L309.973 278.343C310.459 278.22 310.957 278.136 311.468 278.104L323.707 277.366C322.29 274.409 320.898 271.471 319.565 268.553C310.517 248.725 302.712 228.6 291.153 210.022C280.292 192.563 267.445 176.411 253.66 161.178C253.518 161.023 253.375 160.861 253.233 160.706C253.233 160.706 257.899 173.577 255.679 185.574C253.459 197.571 248.793 201.35 242.127 198.684C235.46 196.018 222.944 178.255 220.089 179.252C217.235 180.248 197.903 204.463 188.57 200.684C182.299 198.147 163.491 162.822 154.061 138.335C139.655 142.645 116.834 155.082 103.281 165.365C102.621 165.772 101.955 166.193 101.282 166.653C99.5406 167.824 97.845 169.429 96.1881 171.402C95.9551 171.635 95.7351 171.907 95.5215 172.218C75.6846 197.261 62.5075 275.8 59.7698 312.854C59.7698 312.86 59.731 313.3 57.2004 340.259C55.4982 358.403 64.5721 378.833 80.1762 391.115C91.3405 396.563 103.858 399.624 117.061 399.624H124.924C170.675 387.29 270.714 334.655 281.775 328.798C267.711 337.01 207.456 372.705 176.086 399.624H261.996C259.847 397.521 258.902 394.266 260.035 391.141ZM154.061 327.815C154.314 328.067 154.799 328.294 155.498 328.501L132.587 335.373C135.739 317.765 148.961 242.073 148.482 214.228C148.418 210.397 148.172 206.404 147.732 202.405C147.932 203.188 148.133 203.984 148.327 204.8C161.174 257.726 148.372 322.127 154.061 327.815ZM124.063 159.994C124.024 159.987 123.992 159.981 123.953 159.974C124.251 159.851 124.549 159.722 124.833 159.606C124.84 159.606 124.549 159.748 124.063 159.994Z" fill="#C9C9DF"/>
<path d="M124.063 159.994C124.549 159.748 124.84 159.605 124.84 159.605C124.549 159.728 124.251 159.851 123.96 159.974C123.992 159.981 124.031 159.987 124.063 159.994Z" fill="#9595C0"/>
<path d="M148.482 214.228C148.968 242.073 135.739 317.765 132.587 335.373L155.498 328.501C154.799 328.294 154.314 328.067 154.061 327.815C148.372 322.127 161.174 257.726 148.327 204.793C148.133 203.978 147.932 203.182 147.732 202.399C148.178 206.404 148.418 210.397 148.482 214.228Z" fill="#9595C0"/>
<path d="M281.788 328.792C270.727 334.648 170.695 387.29 124.937 399.618H176.099C207.462 372.704 267.724 337.004 281.788 328.792Z" fill="#9595C0"/>
<path d="M410.374 272.17L349.925 275.794L323.714 277.366L311.475 278.104C310.964 278.136 310.465 278.22 309.98 278.343H310.012C307.766 279.146 305.941 280.919 305.106 283.235L303.443 287.869C318.924 284.174 335.02 281.365 343.803 281.98C346.689 282.181 347.065 286.257 344.249 286.93C333.085 289.616 310.879 295.239 310.879 297.452C310.879 300.416 333.234 304.778 331.622 308.414C328.36 315.746 317.397 319.965 315.326 326.779C313.656 332.273 298.595 329.872 288.745 328.734L266.164 391.509C265.103 394.454 265.853 397.502 267.711 399.618H312.886C323.966 399.618 340.573 397.871 359.439 394.59L362.934 387.989C362.332 388.099 361.756 388.099 361.213 387.963C352.339 385.75 348.903 375.215 348.903 370.33C348.903 365.444 353.271 366.11 356.164 363.218C359.051 360.332 358.902 353.22 362.235 349.887C365.568 346.555 369.199 353.291 370.086 345.74C370.973 338.188 365.64 326.482 370.824 327.077C376.008 327.672 383.121 349.001 383.121 349.001C383.192 349.163 383.25 349.331 383.302 349.506L417.914 284.109C420.879 278.512 416.633 271.795 410.374 272.17Z" fill="#D1CFCD"/>
<path d="M298.99 283.876L296.958 289.474C299.094 288.923 301.262 288.386 303.443 287.869L305.106 283.235C305.941 280.919 307.76 279.146 310.012 278.343H309.98L306.155 278.57C302.906 278.757 300.09 280.848 298.99 283.876Z" fill="#B2B1B1"/>
<path d="M266.151 391.509L288.732 328.734C286.402 328.462 284.363 328.268 282.862 328.261L260.028 391.141C258.889 394.266 259.834 397.521 262.002 399.618H267.691C265.847 397.502 265.096 394.454 266.151 391.509Z" fill="#B2B1B1"/>
<path d="M296.958 289.474C287.716 291.848 279.128 294.417 272.986 296.605L282.791 328.261C282.817 328.261 282.843 328.261 282.868 328.261C284.37 328.268 286.409 328.468 288.739 328.734C298.589 329.872 313.65 332.273 315.319 326.779C317.397 319.965 328.354 315.746 331.616 308.414C333.234 304.778 310.873 300.416 310.873 297.452C310.873 295.233 333.079 289.616 344.243 286.93C347.058 286.251 346.683 282.181 343.796 281.98C335.02 281.372 318.918 284.18 303.437 287.869C301.262 288.386 299.094 288.93 296.958 289.474Z" fill="#E89C80"/>
<path d="M370.817 327.077C365.633 326.482 370.966 338.188 370.08 345.74C369.193 353.291 365.562 346.555 362.229 349.888C358.896 353.22 359.045 360.332 356.158 363.218C353.272 366.104 348.896 365.438 348.896 370.33C348.896 375.215 352.333 385.75 361.206 387.964C361.75 388.099 362.326 388.106 362.928 387.989C371.885 386.3 386.053 358.294 383.302 349.499C383.25 349.325 383.185 349.156 383.121 348.995C383.114 349.001 376.008 327.672 370.817 327.077Z" fill="#E89C80"/>
<path d="M188.583 200.684C197.916 204.463 217.248 180.242 220.102 179.252C222.956 178.255 235.473 196.018 242.14 198.684C248.806 201.35 253.472 197.571 255.692 185.574C257.912 173.577 253.246 160.706 253.246 160.706C253.168 160.647 253.084 160.589 253.006 160.531C249.065 157.735 245.259 154.377 241.784 151.064C241.784 151.064 236.541 174.515 221.041 175.822C205.54 177.129 170.94 132.518 170.94 132.518C165.931 134.271 160.948 136.504 156.068 137.772C155.414 137.94 154.741 138.115 154.061 138.296C154.068 138.309 154.068 138.322 154.074 138.335C163.51 162.822 182.312 198.147 188.583 200.684Z" fill="#9595C0"/>
<path d="M240.813 144.903C240.826 145.052 240.839 145.201 240.852 145.343C240.832 145.194 240.826 145.052 240.813 144.903Z" fill="#F2B394"/>
<path d="M240.638 141.325C240.638 141.461 240.645 141.596 240.645 141.732C240.638 141.596 240.638 141.461 240.638 141.325Z" fill="#F2B394"/>
<path d="M240.968 146.56C240.975 146.644 240.988 146.735 240.994 146.819C240.988 146.735 240.981 146.65 240.968 146.56Z" fill="#F2B394"/>
<path d="M240.709 143.344C240.716 143.441 240.722 143.531 240.729 143.628C240.722 143.531 240.716 143.441 240.709 143.344Z" fill="#F2B394"/>
<path d="M241.188 148.191C241.208 148.307 241.227 148.417 241.247 148.527C241.227 148.417 241.208 148.301 241.188 148.191Z" fill="#F2B394"/>
<path d="M240.619 140.005C240.619 139.843 240.619 139.688 240.619 139.526C240.612 139.688 240.619 139.849 240.619 140.005Z" fill="#F2B394"/>
<path d="M241.428 149.517C241.454 149.633 241.473 149.756 241.499 149.873C241.48 149.763 241.454 149.64 241.428 149.517Z" fill="#F2B394"/>
<path d="M221.047 175.829C236.548 174.521 241.79 151.07 241.79 151.07C223.189 147.809 205.411 129.793 200.576 108.665L201.721 106.866C208.116 123.102 223.888 133.818 240.664 136.336C240.664 136.336 240.664 136.336 240.67 136.336C249.052 137.591 257.679 136.808 265.51 133.637C287.955 124.558 281.496 57.9838 278.571 35.0956C266.449 36.0404 236.632 34.6232 227.506 45.4364C224.141 49.4225 219.798 58.6891 215.643 68.8487C213.714 65.0373 209.792 59.0192 204.731 60.3328C188.162 64.636 200.317 94.1247 205.76 94.9272C205.786 94.9336 205.805 94.9336 205.831 94.9336C203.359 101.974 201.767 106.847 201.767 106.847L186.823 109.765L170.947 132.524C170.947 132.518 205.546 177.136 221.047 175.829Z" fill="#F2B394"/>
<path opacity="0.4" d="M240.619 140.005C240.619 140.451 240.625 140.891 240.638 141.325C240.625 140.891 240.619 140.451 240.619 140.005Z" fill="#EF815B"/>
<path opacity="0.4" d="M240.722 143.629C240.748 144.062 240.774 144.483 240.806 144.903C240.78 144.483 240.748 144.062 240.722 143.629Z" fill="#EF815B"/>
<path opacity="0.4" d="M240.645 141.732C240.657 142.282 240.683 142.82 240.709 143.344C240.683 142.813 240.657 142.276 240.645 141.732Z" fill="#EF815B"/>
<path opacity="0.4" d="M240.612 139.532C240.612 138.969 240.612 138.393 240.625 137.811C240.619 138.393 240.612 138.963 240.612 139.532Z" fill="#EF815B"/>
<path opacity="0.4" d="M240.625 137.791C240.632 137.312 240.651 136.821 240.664 136.329C240.664 136.329 240.664 136.329 240.658 136.329C240.645 136.821 240.638 137.312 240.625 137.791Z" fill="#EF815B"/>
<path opacity="0.4" d="M240.845 145.343C240.884 145.757 240.923 146.165 240.968 146.566C240.923 146.165 240.884 145.757 240.845 145.343Z" fill="#EF815B"/>
<path opacity="0.4" d="M241.79 151.064C241.687 150.682 241.59 150.287 241.505 149.873C241.59 150.287 241.687 150.688 241.79 151.064Z" fill="#EF815B"/>
<path opacity="0.4" d="M241.246 148.527C241.305 148.864 241.363 149.2 241.428 149.524C241.363 149.2 241.305 148.864 241.246 148.527Z" fill="#EF815B"/>
<path opacity="0.4" d="M241.001 146.819C241.059 147.291 241.124 147.744 241.188 148.19C241.117 147.744 241.053 147.291 241.001 146.819Z" fill="#EF815B"/>
<path d="M201.722 106.86L200.576 108.659C205.411 129.793 223.19 147.809 241.79 151.064C241.687 150.682 241.59 150.287 241.506 149.873C241.48 149.756 241.454 149.633 241.434 149.517C241.37 149.193 241.305 148.863 241.253 148.52C241.234 148.41 241.214 148.3 241.195 148.184C241.124 147.737 241.059 147.284 241.007 146.812C240.994 146.728 240.988 146.637 240.981 146.553C240.936 146.152 240.897 145.751 240.858 145.33C240.845 145.181 240.832 145.039 240.819 144.89C240.787 144.476 240.755 144.049 240.735 143.615C240.729 143.518 240.722 143.428 240.716 143.331C240.69 142.806 240.671 142.269 240.651 141.719C240.645 141.583 240.645 141.448 240.645 141.312C240.632 140.878 240.625 140.438 240.625 139.992C240.625 139.83 240.625 139.674 240.625 139.513C240.625 138.95 240.625 138.374 240.638 137.791C240.638 137.785 240.638 137.778 240.638 137.772C240.645 137.287 240.658 136.801 240.671 136.309C223.889 133.812 208.116 123.096 201.722 106.86Z" fill="#F2B394"/>
<path opacity="0.4" d="M201.722 106.86L200.576 108.659C205.411 129.793 223.19 147.809 241.79 151.064C241.687 150.682 241.59 150.287 241.506 149.873C241.48 149.756 241.454 149.633 241.434 149.517C241.37 149.193 241.305 148.863 241.253 148.52C241.234 148.41 241.214 148.3 241.195 148.184C241.124 147.737 241.059 147.284 241.007 146.812C240.994 146.728 240.988 146.637 240.981 146.553C240.936 146.152 240.897 145.751 240.858 145.33C240.845 145.181 240.832 145.039 240.819 144.89C240.787 144.476 240.755 144.049 240.735 143.615C240.729 143.518 240.722 143.428 240.716 143.331C240.69 142.806 240.671 142.269 240.651 141.719C240.645 141.583 240.645 141.448 240.645 141.312C240.632 140.878 240.625 140.438 240.625 139.992C240.625 139.83 240.625 139.674 240.625 139.513C240.625 138.95 240.625 138.374 240.638 137.791C240.638 137.785 240.638 137.778 240.638 137.772C240.645 137.287 240.658 136.801 240.671 136.309C223.889 133.812 208.116 123.096 201.722 106.86Z" fill="#EF815B"/>
<path d="M201.76 106.84C201.76 106.84 203.353 101.968 205.825 94.9271C205.799 94.9206 205.78 94.9206 205.754 94.9206C200.311 94.1118 188.15 64.6295 204.725 60.3263C209.792 59.0126 213.714 65.0307 215.637 68.8422C219.792 58.6891 224.128 49.4225 227.5 45.4298C236.632 34.6167 266.442 36.0338 278.564 35.0891C278.687 35.0761 278.823 35.0696 278.946 35.0632C290.823 34.0602 307.876 22.807 304.815 7.68405C301.754 -7.44533 249.971 7.85877 249.971 7.85877C238.237 8.84884 195.101 -3.93153 182.221 15.2164C169.342 34.3643 161.808 62.3517 175.225 78.6135C188.642 94.8689 186.823 109.765 186.823 109.772L201.76 106.84Z" fill="#414141"/>
<defs>
<filter id="filter0_d_1_1608" x="22" y="27.9999" width="386" height="385" filterUnits="userSpaceOnUse" color-interpolation-filters="sRGB">
<feFlood flood-opacity="0" result="BackgroundImageFix"/>
<feColorMatrix in="SourceAlpha" type="matrix" values="0 0 0 0 0 0 0 0 0 0 0 0 0 0 0 0 0 0 127 0" result="hardAlpha"/>
<feOffset dy="4"/>
<feGaussianBlur stdDeviation="5"/>
<feComposite in2="hardAlpha" operator="out"/>
<feColorMatrix type="matrix" values="0 0 0 0 0.835294 0 0 0 0 0.835294 0 0 0 0 0.901961 0 0 0 1 0"/>
<feBlend mode="normal" in2="BackgroundImageFix" result="effect1_dropShadow_1_1608"/>
<feBlend mode="normal" in="SourceGraphic" in2="effect1_dropShadow_1_1608" result="shape"/>
</filter>
<filter id="filter1_d_1_1608" x="12" y="17.9999" width="406" height="405" filterUnits="userSpaceOnUse" color-interpolation-filters="sRGB">
<feFlood flood-opacity="0" result="BackgroundImageFix"/>
<feColorMatrix in="SourceAlpha" type="matrix" values="0 0 0 0 0 0 0 0 0 0 0 0 0 0 0 0 0 0 127 0" result="hardAlpha"/>
<feOffset dy="4"/>
<feGaussianBlur stdDeviation="10"/>
<feComposite in2="hardAlpha" operator="out"/>
<feColorMatrix type="matrix" values="0 0 0 0 0 0 0 0 0 0 0 0 0 0 0 0 0 0 0.25 0"/>
<feBlend mode="normal" in2="BackgroundImageFix" result="effect1_dropShadow_1_1608"/>
<feBlend mode="normal" in="SourceGraphic" in2="effect1_dropShadow_1_1608" result="shape"/>
</filter>
</defs>
</svg>
