<svg width="34" height="34" viewBox="0 0 34 34" fill="none" xmlns="http://www.w3.org/2000/svg">
<path d="M2.18999 14.79H10.7C11.91 14.79 12.89 15.77 12.89 16.98C12.89 18.19 11.91 19.17 10.7 19.17H2.18999C0.979987 19.17 0 18.19 0 16.98C0 16.38 0.249999 15.83 0.639999 15.43C1.04 15.03 1.57999 14.79 2.18999 14.79Z" fill="#F89F1E"/>
<path d="M33.9501 16.94C33.9601 17.56 33.7101 18.12 33.3101 18.52C32.9101 18.92 32.3701 19.16 31.7601 19.16H23.2501C22.0401 19.16 21.0601 18.18 21.0601 16.97C21.0601 15.76 22.0401 14.78 23.2501 14.78H31.7001C32.9101 14.79 33.9301 15.74 33.9501 16.94Z" fill="#F89F1E"/>
<path d="M19.16 2.19V10.69C19.16 11.9 18.18 12.88 16.97 12.88C15.76 12.88 14.78 11.9 14.78 10.69V2.19C14.78 0.980002 15.76 0 16.97 0C17.57 0 18.12 0.239999 18.52 0.639999C18.92 1.04 19.16 1.58 19.16 2.19Z" fill="#F89F1E"/>
<path d="M16.97 21.07C18.18 21.07 19.16 22.05 19.16 23.26V31.76C19.16 32.97 18.18 33.95 16.97 33.95C16.37 33.95 15.82 33.7 15.42 33.31C15.02 32.91 14.78 32.37 14.78 31.76V23.26C14.79 22.05 15.77 21.07 16.97 21.07Z" fill="#F89F1E"/>
</svg>
