<svg width="23" height="23" viewBox="0 0 23 23" fill="none" xmlns="http://www.w3.org/2000/svg">
<path d="M1.44 9.72998H7.03998C7.82998 9.72998 8.47998 10.37 8.47998 11.17C8.47998 11.96 7.83998 12.61 7.03998 12.61H1.44C0.650002 12.61 0 11.97 0 11.17C0 10.77 0.159983 10.41 0.419983 10.15C0.679983 9.88998 1.05 9.72998 1.44 9.72998Z" fill="#2F2F81"/>
<path d="M22.3398 11.14C22.3498 11.55 22.1799 11.92 21.9199 12.18C21.6599 12.44 21.2998 12.6 20.8998 12.6H15.2999C14.5099 12.6 13.8599 11.96 13.8599 11.16C13.8599 10.37 14.4999 9.71997 15.2999 9.71997H20.8599C21.6599 9.72997 22.3298 10.35 22.3398 11.14Z" fill="#2F2F81"/>
<path d="M12.61 1.44V7.03C12.61 7.83 11.97 8.47 11.17 8.47C10.37 8.47 9.72998 7.83 9.72998 7.03V1.44C9.72998 0.640001 10.37 0 11.17 0C11.57 0 11.93 0.16 12.19 0.42C12.45 0.68 12.61 1.04 12.61 1.44Z" fill="#2F2F81"/>
<path d="M11.17 13.86C11.97 13.86 12.61 14.5 12.61 15.3V20.9C12.61 21.69 11.97 22.34 11.17 22.34C10.77 22.34 10.41 22.18 10.15 21.92C9.88996 21.66 9.72998 21.3 9.72998 20.9V15.3C9.72998 14.5 10.38 13.86 11.17 13.86Z" fill="#2F2F81"/>
</svg>
