<svg width="138" height="138" viewBox="0 0 138 138" fill="none" xmlns="http://www.w3.org/2000/svg">
<g clip-path="url(#clip0_1_1171)">
<path d="M55.91 1.16001C52.98 1.70001 50.06 2.45001 47.23 3.37001C46.41 3.64001 45.96 4.52001 46.23 5.34001C46.44 5.98001 47.04 6.42001 47.71 6.42001C47.87 6.42001 48.04 6.39001 48.19 6.34001C50.89 5.46001 53.68 4.75001 56.47 4.23001C56.88 4.15001 57.24 3.92001 57.47 3.58001C57.71 3.24001 57.79 2.82001 57.72 2.41001C57.57 1.56001 56.76 1.00001 55.91 1.16001Z" fill="#F89F1E"/>
<path d="M11.06 99.77C10.86 99.4 10.53 99.14 10.13 99.02C9.73005 98.9 9.31005 98.95 8.94005 99.15C8.57005 99.35 8.31005 99.68 8.19005 100.08C8.07005 100.48 8.12005 100.9 8.32005 101.27C9.74005 103.88 11.36 106.43 13.11 108.84C13.4 109.24 13.87 109.48 14.37 109.48C14.7 109.48 15.02 109.38 15.29 109.18C15.63 108.93 15.85 108.57 15.91 108.16C15.97 107.75 15.88 107.34 15.63 107C13.96 104.69 12.42 102.26 11.06 99.77Z" fill="#F89F1E"/>
<path d="M36.9099 8.21001C36.5099 8.09001 36.0899 8.14001 35.7199 8.34001C33.1099 9.77001 30.5599 11.38 28.1599 13.14C27.4599 13.65 27.3099 14.63 27.8199 15.32C28.1099 15.72 28.5799 15.96 29.0799 15.96C29.4099 15.96 29.7299 15.86 29.9999 15.66C32.2999 13.98 34.7299 12.44 37.2199 11.08C37.9799 10.67 38.2499 9.72001 37.8399 8.96001C37.6399 8.60001 37.3099 8.33001 36.9099 8.21001Z" fill="#F89F1E"/>
<path d="M48.34 130.73C45.64 129.85 42.96 128.79 40.39 127.56C39.61 127.19 38.68 127.52 38.31 128.3C37.94 129.08 38.27 130.01 39.05 130.38C41.74 131.66 44.54 132.78 47.38 133.7C47.54 133.75 47.7 133.78 47.86 133.78C48.54 133.78 49.14 133.35 49.34 132.7C49.61 131.88 49.16 130.99 48.34 130.73Z" fill="#F89F1E"/>
<path d="M30.11 121.44C27.81 119.77 25.6 117.93 23.53 115.97C23.23 115.68 22.83 115.53 22.41 115.54C21.99 115.55 21.61 115.72 21.32 116.03C21.03 116.33 20.88 116.73 20.89 117.15C20.9 117.57 21.07 117.95 21.38 118.24C23.54 120.29 25.86 122.22 28.27 123.97C28.54 124.16 28.86 124.27 29.19 124.27C29.69 124.27 30.16 124.03 30.45 123.63C30.7 123.29 30.79 122.88 30.73 122.47C30.67 122.05 30.45 121.69 30.11 121.44Z" fill="#F89F1E"/>
<path d="M13.37 30.49C13.64 30.68 13.96 30.79 14.29 30.79C14.79 30.79 15.26 30.55 15.55 30.15C17.22 27.85 19.06 25.64 21.01 23.57C21.6 22.95 21.57 21.96 20.95 21.36C20.32 20.77 19.34 20.8 18.74 21.42C16.69 23.58 14.77 25.9 13.02 28.31C12.52 29.01 12.68 29.99 13.37 30.49Z" fill="#F89F1E"/>
<path d="M132.79 56.44C132.93 57.18 133.57 57.72 134.32 57.72C134.42 57.72 134.51 57.71 134.61 57.69C135.02 57.61 135.38 57.38 135.61 57.04C135.85 56.7 135.93 56.28 135.86 55.87C135.31 52.94 134.57 50.02 133.64 47.19C133.51 46.79 133.23 46.47 132.86 46.28C132.49 46.09 132.07 46.06 131.67 46.19C131.27 46.32 130.95 46.6 130.76 46.97C130.57 47.34 130.54 47.77 130.67 48.16C131.55 50.86 132.27 53.65 132.79 56.44Z" fill="#F89F1E"/>
<path d="M3.12 68.59V68.51C3.12 65.68 3.3 62.84 3.66 60.05C3.71 59.64 3.6 59.23 3.35 58.9C3.1 58.57 2.73 58.36 2.32 58.31C1.91 58.25 1.5 58.36 1.17 58.62C0.84 58.87 0.63 59.24 0.57 59.66C0.19 62.57 0 65.55 0 68.51V68.59C0 69.45 0.7 70.15 1.56 70.15C2.42 70.15 3.12 69.45 3.12 68.59Z" fill="#F89F1E"/>
<path d="M4.30999 49.38C4.46999 49.43 4.62999 49.46 4.78999 49.46C5.46999 49.46 6.06999 49.03 6.27999 48.38C7.14999 45.68 8.21999 43 9.43999 40.43C9.80999 39.65 9.47999 38.72 8.69999 38.35C8.31999 38.17 7.89999 38.15 7.50999 38.29C7.11999 38.43 6.79999 38.71 6.61999 39.09C5.33999 41.78 4.21999 44.58 3.30999 47.42C3.03999 48.24 3.48999 49.12 4.30999 49.38Z" fill="#F89F1E"/>
<path d="M4.21997 80.5C4.05997 79.65 3.24997 79.09 2.39997 79.25C1.54997 79.41 0.989969 80.22 1.14997 81.07C1.68997 84 2.43997 86.92 3.35997 89.75C3.56997 90.39 4.16997 90.83 4.83997 90.83C4.99997 90.83 5.16997 90.8 5.31997 90.75C6.13997 90.48 6.58997 89.6 6.31997 88.78C5.44997 86.08 4.73997 83.29 4.21997 80.5Z" fill="#F89F1E"/>
<path d="M106.96 121.4C104.66 123.07 102.23 124.61 99.74 125.97C98.98 126.38 98.7 127.33 99.12 128.09C99.39 128.59 99.92 128.9 100.49 128.9C100.75 128.9 101.01 128.83 101.24 128.71C103.85 127.29 106.4 125.68 108.81 123.92C109.15 123.67 109.37 123.31 109.43 122.9C109.49 122.49 109.4 122.08 109.15 121.74C108.63 121.05 107.65 120.9 106.96 121.4Z" fill="#F89F1E"/>
<path d="M132.68 87.71C132.28 87.58 131.86 87.61 131.49 87.8C131.12 87.99 130.84 88.31 130.71 88.71C129.83 91.41 128.77 94.09 127.54 96.66C127.36 97.04 127.34 97.46 127.48 97.85C127.62 98.24 127.9 98.56 128.28 98.74C128.49 98.84 128.72 98.89 128.95 98.89C129.55 98.89 130.1 98.54 130.36 98C131.65 95.31 132.76 92.51 133.68 89.67C133.95 88.86 133.5 87.97 132.68 87.71Z" fill="#F89F1E"/>
<path d="M128.66 35.69C127.23 33.08 125.62 30.54 123.86 28.13C123.35 27.44 122.37 27.28 121.68 27.79C121.34 28.04 121.12 28.4 121.06 28.81C121 29.22 121.1 29.63 121.34 29.97C123.02 32.27 124.56 34.7 125.92 37.19C126.19 37.69 126.72 38 127.29 38C127.55 38 127.81 37.93 128.04 37.81C128.79 37.39 129.07 36.44 128.66 35.69Z" fill="#F89F1E"/>
<path d="M123.6 106.59C122.9 106.08 121.93 106.24 121.42 106.93C119.75 109.23 117.91 111.44 115.95 113.5C115.36 114.12 115.38 115.11 116.01 115.71C116.3 115.99 116.68 116.14 117.08 116.14C117.51 116.14 117.92 115.96 118.21 115.65C120.26 113.49 122.19 111.17 123.94 108.76C124.19 108.42 124.28 108.01 124.22 107.6C124.16 107.2 123.94 106.84 123.6 106.59Z" fill="#F89F1E"/>
<path d="M137.02 68.35C137.02 67.49 136.32 66.79 135.45 66.79C135.03 66.79 134.64 66.95 134.35 67.25C134.06 67.55 133.9 67.94 133.9 68.35V68.5C133.9 71.35 133.71 74.22 133.35 77.03C133.3 77.44 133.41 77.85 133.66 78.18C133.91 78.51 134.28 78.72 134.69 78.78C134.76 78.79 134.83 78.79 134.9 78.79C135.68 78.79 136.35 78.21 136.45 77.43C136.83 74.49 137.03 71.48 137.03 68.49L137.02 68.35Z" fill="#F89F1E"/>
<path d="M97.89 6.60001C95.2 5.32001 92.39 4.21001 89.56 3.29001C89.16 3.16001 88.74 3.20001 88.37 3.38001C88 3.58001 87.72 3.90001 87.6 4.30001C87.33 5.12001 87.78 6.00001 88.6 6.27001C91.31 7.14001 93.98 8.21001 96.55 9.43001C96.76 9.53001 96.99 9.58001 97.22 9.58001C97.82 9.58001 98.37 9.23001 98.63 8.69001C98.81 8.31001 98.83 7.89001 98.69 7.50001C98.55 7.10001 98.27 6.78001 97.89 6.60001Z" fill="#F89F1E"/>
<path d="M88.75 130.7C86.05 131.58 83.26 132.29 80.46 132.8C79.61 132.96 79.05 133.77 79.21 134.62C79.35 135.36 79.99 135.9 80.74 135.9C80.83 135.9 80.93 135.89 81.02 135.87C83.95 135.33 86.87 134.59 89.7 133.67C90.1 133.54 90.42 133.27 90.61 132.89C90.8 132.52 90.83 132.1 90.7 131.7C90.45 130.89 89.57 130.44 88.75 130.7Z" fill="#F89F1E"/>
<path d="M77.33 0.56C74.42 0.19 71.46 0 68.5 0H68.39C67.53 0 66.83 0.7 66.83 1.56C66.83 2.42 67.53 3.12 68.39 3.12H68.51C71.33 3.12 74.16 3.3 76.93 3.66C77 3.67 77.06 3.67 77.13 3.67C77.91 3.67 78.58 3.08 78.68 2.31C78.79 1.46 78.18 0.67 77.33 0.56Z" fill="#F89F1E"/>
<path d="M116.06 19.81C116.05 19.39 115.87 19.01 115.57 18.72C113.41 16.67 111.09 14.75 108.67 13C107.97 12.5 107 12.65 106.49 13.35C105.98 14.05 106.14 15.02 106.84 15.53C109.14 17.2 111.36 19.03 113.42 20.99C113.71 21.27 114.09 21.42 114.49 21.42C114.92 21.42 115.33 21.24 115.62 20.93C115.92 20.63 116.07 20.23 116.06 19.81Z" fill="#F89F1E"/>
<path d="M68.55 133.9H68.51C65.67 133.9 62.81 133.72 60.01 133.35C59.6 133.3 59.19 133.41 58.86 133.66C58.53 133.91 58.32 134.28 58.26 134.7C58.21 135.11 58.32 135.52 58.57 135.85C58.82 136.18 59.19 136.39 59.61 136.45C62.54 136.83 65.53 137.02 68.51 137.02H68.55C69.41 137.02 70.11 136.32 70.11 135.46C70.11 134.6 69.41 133.9 68.55 133.9Z" fill="#F89F1E"/>
</g>
<defs>
<clipPath id="clip0_1_1171">
<rect width="137.02" height="137.02" fill="white"/>
</clipPath>
</defs>
</svg>
