<svg width="73" height="49" viewBox="0 0 73 49" fill="none" xmlns="http://www.w3.org/2000/svg">
<g clip-path="url(#clip0_1_1221)">
<path d="M2.65351 18.0206H12.9762C14.4455 18.0206 15.6297 19.216 15.6297 20.6848C15.6297 22.1601 14.4391 23.3491 12.9762 23.3491H2.65351C1.1906 23.3555 0 22.1601 0 20.6912C0 19.9536 0.297649 19.2859 0.778954 18.8027C1.26026 18.3194 1.92522 18.0206 2.65351 18.0206Z" fill="#B91E73"/>
<path d="M41.2149 20.6468C41.2276 21.4035 40.9299 22.0839 40.436 22.5798C39.9547 23.0631 39.2897 23.362 38.5551 23.362H28.2324C26.7631 23.362 25.5789 22.1665 25.5789 20.6977C25.5789 19.2225 26.7695 18.0334 28.2324 18.0334H38.4918C39.9547 18.0207 41.1896 19.178 41.2149 20.6468Z" fill="#B91E73"/>
<path d="M23.2609 2.66429V13.0289C23.2609 14.5042 22.0703 15.6996 20.6074 15.6996C19.1381 15.6996 17.9475 14.5042 17.9475 13.0289V2.66429C17.9475 1.18907 19.1381 0 20.601 0C21.3356 0 22.0006 0.298858 22.4819 0.782118C22.9632 1.26538 23.2609 1.92668 23.2609 2.66429Z" fill="#B91E73"/>
<path d="M20.6074 25.6828C22.0766 25.6828 23.2609 26.8783 23.2609 28.3535V38.7181C23.2609 40.1934 22.0703 41.3824 20.601 41.3824C19.8664 41.3824 19.2014 41.0836 18.7265 40.6003C18.2452 40.1171 17.9475 39.4494 17.9475 38.7118V28.3471C17.9475 26.8719 19.1381 25.6828 20.6074 25.6828Z" fill="#B91E73"/>
<path d="M64.7291 32.3974C60.163 32.3974 56.4583 36.1172 56.4583 40.7019C56.4583 45.2865 60.163 49.0063 64.7291 49.0063C69.2952 49.0063 72.9999 45.2865 72.9999 40.7019C72.9999 36.1172 69.2952 32.3974 64.7291 32.3974ZM64.7291 45.3119C62.1896 45.3119 60.1377 43.2453 60.1377 40.7019C60.1377 38.152 62.1959 36.0918 64.7291 36.0918C67.2686 36.0918 69.3205 38.1584 69.3205 40.7019C69.3205 43.2453 67.2686 45.3119 64.7291 45.3119Z" fill="#2F2F81"/>
</g>
<defs>
<clipPath id="clip0_1_1221">
<rect width="73" height="49" fill="white"/>
</clipPath>
</defs>
</svg>
