<svg width="59" height="227" viewBox="0 0 59 227" fill="none" xmlns="http://www.w3.org/2000/svg">
<path d="M1.44765 0.861746C1.06962 1.05809 0.848507 1.4621 0.848507 1.88122C0.848507 2.04735 0.88417 2.21727 0.955498 2.37963C4.20088 9.40272 8.03828 16.743 13.0312 25.4727C13.3379 26.0051 13.9941 26.1788 14.5005 25.8541C15.0034 25.5294 15.1674 24.8346 14.8607 24.2985C9.90348 15.6291 6.09462 8.34549 2.87776 1.38281C2.62098 0.820209 1.97904 0.586109 1.44765 0.861746Z" fill="#2D2D82"/>
<path d="M18.2059 224.294C17.8029 224.479 17.564 224.894 17.564 225.332C17.564 225.483 17.5925 225.638 17.6532 225.782C17.8885 226.356 18.5198 226.616 19.0619 226.367C26.3658 222.984 32.9528 217.396 38.6447 209.749C39.0085 209.259 38.93 208.549 38.4664 208.16C38.0028 207.775 37.3323 207.858 36.965 208.349C31.4978 215.7 25.1853 221.062 18.2059 224.294Z" fill="#2D2D82"/>
<path d="M22.7745 39.8776C22.4535 40.0929 22.2787 40.4591 22.2787 40.8329C22.2787 41.0406 22.3322 41.2483 22.4499 41.4408L23.7516 43.6082C25.2959 46.1833 26.8365 48.7471 28.3558 51.2996C30.8202 55.4417 33.1668 59.6631 35.3245 63.843C35.6062 64.3905 36.2588 64.5906 36.776 64.2923C37.2931 63.994 37.4821 63.303 37.2004 62.7555C35.0178 58.5341 32.6533 54.2712 30.1639 50.0913C28.6411 47.5351 27.1004 44.9675 25.5526 42.3923L24.2509 40.225C23.9335 39.6964 23.2737 39.5416 22.7745 39.8776Z" fill="#2D2D82"/>
<path d="M43.6626 79.1125C43.2596 79.2976 43.0207 79.7129 43.0207 80.1509C43.0207 80.3019 43.0528 80.4567 43.1098 80.6078C46.505 88.8316 49.2903 97.1083 51.3838 105.211C51.5407 105.815 52.1291 106.17 52.6997 106.004C53.2704 105.838 53.6056 105.215 53.4487 104.611C51.3267 96.4022 48.5093 88.0198 45.0713 79.6978C44.8359 79.1239 44.2047 78.8633 43.6626 79.1125Z" fill="#2D2D82"/>
<path d="M46.0592 192.554C45.9879 192.713 45.9558 192.875 45.9558 193.038C45.9558 193.46 46.184 193.868 46.5692 194.061C47.1006 194.329 47.7389 194.087 47.9921 193.521C51.423 185.826 54.0871 177.36 55.913 168.359C56.0378 167.747 55.6705 167.147 55.0928 167.014C54.515 166.882 53.948 167.271 53.8231 167.883C52.0328 176.715 49.4187 185.014 46.0592 192.554Z" fill="#2D2D82"/>
<path d="M55.913 122.165C55.3816 122.244 54.9965 122.727 54.9965 123.282C54.9965 123.335 55 123.392 55.0072 123.445C55.8952 129.909 56.3446 136.366 56.3446 142.641C56.3446 144.914 56.2839 147.206 56.1698 149.449C56.1377 150.076 56.5906 150.608 57.1791 150.642C57.7675 150.676 58.274 150.197 58.3061 149.574C58.4237 147.289 58.4844 144.956 58.4844 142.641C58.4844 136.256 58.0279 129.69 57.1256 123.124C57.04 122.505 56.4979 122.074 55.913 122.165Z" fill="#2D2D82"/>
</svg>
