<svg width="94" height="233" viewBox="0 0 94 233" fill="none" xmlns="http://www.w3.org/2000/svg">
<path d="M56.2792 231.907C56.6844 231.776 56.9689 231.414 57.0378 231C57.0652 230.836 57.0579 230.663 57.0143 230.491C54.968 223.03 52.39 215.158 48.9007 205.726C48.6857 205.151 48.067 204.872 47.5141 205.109C46.9647 205.346 46.6886 206.005 46.903 206.584C50.367 215.95 52.9262 223.761 54.9542 231.158C55.115 231.755 55.7097 232.092 56.2792 231.907Z" fill="#2D2D82"/>
<path d="M76.493 8.7611C76.9209 8.64488 77.2249 8.27448 77.297 7.84244C77.3218 7.69347 77.3191 7.53605 77.2829 7.38456C77.1451 6.77973 76.5653 6.41893 75.9896 6.57559C68.2288 8.71156 60.8124 13.1405 53.9406 19.7465C53.5011 20.1708 53.4617 20.8839 53.8551 21.3437C54.249 21.7999 54.924 21.8282 55.3671 21.4044C61.9689 15.052 69.0771 10.8015 76.493 8.7611Z" fill="#2D2D82"/>
<path d="M41.659 189.915C42.011 189.756 42.2436 189.423 42.3051 189.055C42.3392 188.85 42.3206 188.636 42.2362 188.427L41.3086 186.075C40.2089 183.281 39.1108 180.499 38.032 177.731C36.2824 173.24 34.6619 168.69 33.221 164.212C33.0331 163.626 32.4223 163.321 31.8632 163.531C31.304 163.74 31.0039 164.39 31.1918 164.977C32.6505 169.499 34.2817 174.093 36.0498 178.626C37.1315 181.397 38.2289 184.183 39.3322 186.978L40.2598 189.33C40.4859 189.904 41.1112 190.165 41.659 189.915Z" fill="#2D2D82"/>
<path d="M27.5075 147.78C27.9354 147.663 28.2394 147.293 28.3115 146.861C28.3363 146.712 28.3301 146.554 28.2987 146.396C26.3021 137.725 24.9159 129.103 24.1835 120.766C24.128 120.145 23.606 119.698 23.0158 119.768C22.4256 119.838 21.9925 120.397 22.0479 121.019C22.7911 129.465 24.1916 138.197 26.2142 146.971C26.352 147.575 26.9318 147.936 27.5075 147.78Z" fill="#2D2D82"/>
<path d="M43.7993 35.4882C43.8957 35.3435 43.9541 35.1887 43.9808 35.0285C44.0503 34.6114 43.8923 34.1716 43.544 33.9183C43.0639 33.5665 42.3945 33.6999 42.0516 34.2169C37.402 41.2431 33.382 49.1552 30.1006 57.734C29.8769 58.3168 30.1405 58.9694 30.6886 59.1948C31.2368 59.4202 31.8601 59.1298 32.0838 58.547C35.3021 50.1299 39.2455 42.3735 43.7993 35.4882Z" fill="#2D2D82"/>
<path d="M22.5039 103.299C23.0411 103.308 23.5005 102.895 23.5918 102.347C23.6005 102.295 23.6063 102.239 23.6079 102.185C23.7951 95.663 24.4136 89.2202 25.4457 83.0302C25.8195 80.7881 26.2562 78.5373 26.7376 76.3438C26.8723 75.7308 26.5131 75.1312 25.9383 75.0009C25.3634 74.8706 24.785 75.2603 24.6509 75.8696C24.1592 78.1035 23.7156 80.3952 23.335 82.6783C22.285 88.9764 21.6554 95.5282 21.4656 102.153C21.4482 102.778 21.9121 103.292 22.5039 103.299Z" fill="#2D2D82"/>
</svg>
