<svg width="1067" height="410" viewBox="0 0 1067 410" fill="none" xmlns="http://www.w3.org/2000/svg">
<g clip-path="url(#clip0_1_1514)">
<path d="M583.06 15.4514H588.283C589.022 15.4514 589.628 16.0489 589.628 16.7957C589.628 17.5343 589.03 18.14 588.283 18.14H583.06C582.321 18.14 581.715 17.5426 581.715 16.7957C581.715 16.4223 581.865 16.0904 582.106 15.8497C582.355 15.6008 582.687 15.4514 583.06 15.4514Z" fill="#B91E73"/>
<path d="M602.556 16.7708C602.564 17.1526 602.415 17.4928 602.165 17.7417C601.925 17.9824 601.584 18.1317 601.219 18.1317H595.996C595.257 18.1317 594.651 17.5343 594.651 16.7874C594.651 16.0489 595.249 15.4431 595.996 15.4431H601.186C601.916 15.4514 602.539 16.0323 602.556 16.7708Z" fill="#B91E73"/>
<path d="M593.481 7.72566V12.9453C593.481 13.6838 592.883 14.2896 592.136 14.2896C591.397 14.2896 590.791 13.6921 590.791 12.9453V7.72566C590.791 6.98712 591.388 6.38135 592.136 6.38135C592.509 6.38135 592.841 6.53072 593.082 6.77137C593.331 7.01201 593.481 7.35224 593.481 7.72566Z" fill="#B91E73"/>
<path d="M592.136 19.3018C592.875 19.3018 593.481 19.8992 593.481 20.6461V25.8657C593.481 26.6042 592.883 27.21 592.136 27.21C591.762 27.21 591.43 27.0606 591.189 26.82C590.948 26.5793 590.799 26.2391 590.799 25.874V20.6544C590.791 19.9075 591.397 19.3018 592.136 19.3018Z" fill="#B91E73"/>
<path d="M256.205 283.178H262.175C263.022 283.178 263.711 283.867 263.711 284.713C263.711 285.56 263.022 286.248 262.175 286.248H256.205C255.358 286.248 254.669 285.56 254.669 284.713C254.669 284.29 254.844 283.908 255.118 283.626C255.4 283.352 255.782 283.178 256.205 283.178Z" fill="#2D2D82"/>
<path d="M278.499 284.688C278.507 285.12 278.333 285.518 278.05 285.8C277.776 286.074 277.386 286.248 276.963 286.248H270.993C270.146 286.248 269.457 285.56 269.457 284.713C269.457 283.867 270.146 283.178 270.993 283.178H276.921C277.768 283.178 278.482 283.842 278.499 284.688Z" fill="#2D2D82"/>
<path d="M268.12 274.349V280.315C268.12 281.161 267.431 281.85 266.584 281.85C265.737 281.85 265.048 281.161 265.048 280.315V274.349C265.048 273.502 265.737 272.813 266.584 272.813C267.007 272.813 267.389 272.988 267.672 273.262C267.946 273.535 268.12 273.917 268.12 274.349Z" fill="#2D2D82"/>
<path d="M266.584 287.584C267.431 287.584 268.12 288.273 268.12 289.12V295.086C268.12 295.933 267.431 296.621 266.584 296.621C266.16 296.621 265.779 296.447 265.496 296.173C265.214 295.899 265.048 295.509 265.048 295.086V289.12C265.048 288.273 265.737 287.584 266.584 287.584Z" fill="#2D2D82"/>
<path d="M530.304 324.437C525.554 324.437 521.71 328.287 521.71 333.025C521.71 337.772 525.563 341.614 530.304 341.614C535.045 341.614 538.897 337.764 538.897 333.025C538.905 328.287 535.053 324.437 530.304 324.437ZM530.304 337.805C527.663 337.805 525.529 335.664 525.529 333.034C525.529 330.395 527.671 328.262 530.304 328.262C532.944 328.262 535.078 330.403 535.078 333.034C535.078 335.664 532.944 337.805 530.304 337.805Z" fill="#2D2D82"/>
<path d="M1040.63 170.919H1047.7C1048.7 170.919 1049.51 171.732 1049.51 172.737C1049.51 173.741 1048.7 174.554 1047.7 174.554H1040.63C1039.63 174.554 1038.81 173.741 1038.81 172.737C1038.81 172.239 1039.02 171.782 1039.34 171.45C1039.67 171.118 1040.12 170.919 1040.63 170.919Z" fill="#F9A01B"/>
<path d="M1067 172.703C1067.01 173.218 1066.8 173.682 1066.47 174.014C1066.14 174.346 1065.69 174.546 1065.18 174.546H1058.12C1057.11 174.546 1056.3 173.732 1056.3 172.728C1056.3 171.724 1057.11 170.911 1058.12 170.911H1065.13C1066.14 170.919 1066.98 171.708 1067 172.703Z" fill="#F9A01B"/>
<path d="M1054.72 160.463V167.517C1054.72 168.521 1053.91 169.334 1052.9 169.334C1051.9 169.334 1051.08 168.521 1051.08 167.517V160.463C1051.08 159.459 1051.9 158.646 1052.9 158.646C1053.4 158.646 1053.86 158.845 1054.19 159.177C1054.52 159.509 1054.72 159.965 1054.72 160.463Z" fill="#F9A01B"/>
<path d="M1052.9 176.13C1053.91 176.13 1054.72 176.944 1054.72 177.948V185.001C1054.72 186.005 1053.91 186.819 1052.9 186.819C1052.4 186.819 1051.95 186.611 1051.61 186.287C1051.28 185.956 1051.08 185.507 1051.08 185.001V177.948C1051.09 176.944 1051.91 176.13 1052.9 176.13Z" fill="#F9A01B"/>
<path d="M721.147 290.29H728.213C729.218 290.29 730.032 291.103 730.032 292.107C730.032 293.111 729.218 293.924 728.213 293.924H721.147C720.143 293.924 719.329 293.111 719.329 292.107C719.329 291.609 719.537 291.153 719.861 290.821C720.184 290.489 720.641 290.29 721.147 290.29Z" fill="#F9A01B"/>
<path d="M747.518 292.074C747.526 292.588 747.318 293.053 746.986 293.385C746.654 293.717 746.206 293.916 745.699 293.916H738.634C737.629 293.916 736.815 293.103 736.815 292.099C736.815 291.094 737.629 290.281 738.634 290.281H745.65C746.654 290.29 747.501 291.078 747.518 292.074Z" fill="#F9A01B"/>
<path d="M735.238 279.834V286.887C735.238 287.891 734.424 288.705 733.419 288.705C732.415 288.705 731.601 287.891 731.601 286.887V279.834C731.601 278.83 732.415 278.016 733.419 278.016C733.918 278.016 734.374 278.216 734.706 278.547C735.039 278.879 735.238 279.327 735.238 279.834Z" fill="#F9A01B"/>
<path d="M733.419 295.501C734.424 295.501 735.238 296.314 735.238 297.318V304.372C735.238 305.376 734.424 306.189 733.419 306.189C732.921 306.189 732.465 305.981 732.132 305.658C731.8 305.326 731.601 304.878 731.601 304.372V297.318C731.601 296.314 732.415 295.501 733.419 295.501Z" fill="#F9A01B"/>
<path d="M326.98 43.624H334.046C335.05 43.624 335.864 44.4373 335.864 45.4413C335.864 46.4454 335.05 47.2587 334.046 47.2587H326.98C325.975 47.2587 325.161 46.4454 325.161 45.4413C325.161 44.9434 325.369 44.487 325.693 44.1551C326.025 43.8232 326.482 43.624 326.98 43.624Z" fill="#F9A01B"/>
<path d="M353.35 45.4081C353.358 45.9226 353.151 46.3873 352.819 46.7193C352.486 47.0512 352.038 47.2504 351.532 47.2504H344.466C343.461 47.2504 342.647 46.4371 342.647 45.433C342.647 44.429 343.461 43.6157 344.466 43.6157H351.482C352.495 43.624 353.333 44.4124 353.35 45.4081Z" fill="#F9A01B"/>
<path d="M341.078 33.1681V40.2217C341.078 41.2258 340.264 42.039 339.26 42.039C338.255 42.039 337.441 41.2258 337.441 40.2217V33.1681C337.441 32.1641 338.255 31.3508 339.26 31.3508C339.758 31.3508 340.215 31.55 340.547 31.8819C340.871 32.2138 341.078 32.662 341.078 33.1681Z" fill="#F9A01B"/>
<path d="M339.26 48.8352C340.264 48.8352 341.078 49.6484 341.078 50.6525V57.706C341.078 58.7101 340.264 59.5234 339.26 59.5234C338.762 59.5234 338.305 59.3159 337.973 58.9923C337.641 58.6603 337.441 58.2122 337.441 57.706V50.6525C337.441 49.6484 338.255 48.8352 339.26 48.8352Z" fill="#F9A01B"/>
<path d="M425.287 61.3823C422.165 61.3823 419.633 63.9133 419.633 67.0334C419.633 70.1536 422.165 72.6845 425.287 72.6845C428.409 72.6845 430.941 70.1536 430.941 67.0334C430.941 63.9133 428.417 61.3823 425.287 61.3823ZM425.287 70.1702C423.552 70.1702 422.149 68.7678 422.149 67.0334C422.149 65.2991 423.552 63.8967 425.287 63.8967C427.022 63.8967 428.426 65.2991 428.426 67.0334C428.434 68.7678 427.022 70.1702 425.287 70.1702Z" fill="#F9A01B"/>
<path d="M1038.81 68.5022C1035.69 68.5022 1033.16 71.0332 1033.16 74.1533C1033.16 77.2735 1035.69 79.8044 1038.81 79.8044C1041.93 79.8044 1044.47 77.2735 1044.47 74.1533C1044.47 71.0332 1041.93 68.5022 1038.81 68.5022ZM1038.81 77.29C1037.08 77.29 1035.67 75.8876 1035.67 74.1533C1035.67 72.419 1037.08 71.0166 1038.81 71.0166C1040.55 71.0166 1041.95 72.419 1041.95 74.1533C1041.95 75.8876 1040.55 77.29 1038.81 77.29Z" fill="#2D2D82"/>
<path d="M763.601 300.073C760.479 300.073 757.946 302.604 757.946 305.724C757.946 308.844 760.479 311.375 763.601 311.375C766.723 311.375 769.255 308.844 769.255 305.724C769.255 302.604 766.723 300.073 763.601 300.073ZM763.601 308.869C761.865 308.869 760.462 307.467 760.462 305.732C760.462 303.998 761.865 302.596 763.601 302.596C765.336 302.596 766.739 303.998 766.739 305.732C766.739 307.458 765.336 308.869 763.601 308.869Z" fill="#2D2D82"/>
<path d="M64.6304 47.6404H69.2801C69.9444 47.6404 70.4757 48.1715 70.4757 48.8353C70.4757 49.4909 69.9444 50.0303 69.2801 50.0303H64.6304C63.9745 50.0303 63.4348 49.4992 63.4348 48.8353C63.4348 48.5034 63.5677 48.2047 63.7835 47.9889C63.9994 47.7732 64.2983 47.6404 64.6304 47.6404Z" fill="#2D2D82"/>
<path d="M81.9838 48.8187C81.9921 49.159 81.851 49.466 81.6351 49.6818C81.4192 49.8975 81.1203 50.0303 80.7882 50.0303H76.1385C75.4826 50.0303 74.9429 49.4992 74.9429 48.8353C74.9429 48.1798 75.4743 47.6404 76.1385 47.6404H80.755C81.4109 47.6404 81.9672 48.1549 81.9838 48.8187Z" fill="#2D2D82"/>
<path d="M73.9049 40.7611V45.3998C73.9049 46.0637 73.3735 46.5948 72.7093 46.5948C72.0451 46.5948 71.5137 46.0637 71.5137 45.3998V40.7611C71.5137 40.0972 72.0451 39.5662 72.7093 39.5662C73.0414 39.5662 73.3403 39.6989 73.5562 39.9147C73.7721 40.1304 73.9049 40.4292 73.9049 40.7611Z" fill="#2D2D82"/>
<path d="M72.7093 51.0674C73.3735 51.0674 73.9049 51.5985 73.9049 52.2623V56.9094C73.9049 57.5649 73.3735 58.1043 72.7093 58.1043C72.3772 58.1043 72.0783 57.9715 71.8624 57.7558C71.6465 57.54 71.5137 57.2413 71.5137 56.9094V52.2623C71.5137 51.6068 72.0451 51.0674 72.7093 51.0674Z" fill="#2D2D82"/>
<path d="M8.59359 172.736C3.85259 172.736 0 176.578 0 181.325C0 186.072 3.85259 189.914 8.59359 189.914C13.3346 189.914 17.1872 186.063 17.1872 181.325C17.1955 176.578 13.3429 172.736 8.59359 172.736ZM8.59359 186.097C5.95324 186.097 3.81937 183.956 3.81937 181.325C3.81937 178.686 5.96154 176.554 8.59359 176.554C11.2256 176.554 13.3678 178.694 13.3678 181.325C13.3678 183.964 11.2339 186.097 8.59359 186.097Z" fill="#008CBE"/>
<path d="M283.837 297.26C281.405 297.708 278.98 298.33 276.631 299.094C275.95 299.318 275.576 300.048 275.8 300.729C275.975 301.26 276.473 301.625 277.029 301.625C277.162 301.625 277.303 301.6 277.428 301.558C279.669 300.828 281.986 300.239 284.302 299.808C284.643 299.741 284.942 299.55 285.133 299.268C285.332 298.986 285.398 298.637 285.34 298.297C285.216 297.592 284.535 297.127 283.837 297.26Z" fill="#2D2D82"/>
<path d="M246.599 379.089C246.433 378.782 246.159 378.566 245.826 378.467C245.494 378.367 245.146 378.408 244.838 378.574C244.531 378.74 244.315 379.014 244.216 379.346C244.116 379.678 244.157 380.027 244.324 380.334C245.503 382.499 246.848 384.616 248.301 386.615C248.541 386.947 248.932 387.147 249.347 387.147C249.621 387.147 249.887 387.064 250.111 386.898C250.393 386.69 250.576 386.391 250.626 386.051C250.675 385.711 250.592 385.371 250.393 385.089C249.006 383.172 247.728 381.155 246.599 379.089Z" fill="#2D2D82"/>
<path d="M268.062 303.118C267.73 303.019 267.381 303.06 267.074 303.226C264.907 304.413 262.789 305.749 260.797 307.209C260.215 307.633 260.091 308.446 260.514 309.018C260.755 309.35 261.145 309.55 261.561 309.55C261.835 309.55 262.1 309.467 262.324 309.301C264.234 307.906 266.252 306.629 268.319 305.5C268.95 305.16 269.174 304.371 268.834 303.741C268.668 303.434 268.394 303.21 268.062 303.118Z" fill="#2D2D82"/>
<path d="M277.552 404.78C275.31 404.05 273.085 403.17 270.951 402.15C270.304 401.843 269.532 402.117 269.224 402.764C268.917 403.411 269.191 404.183 269.839 404.49C272.072 405.552 274.397 406.481 276.755 407.245C276.888 407.286 277.021 407.311 277.154 407.311C277.718 407.311 278.216 406.954 278.382 406.415C278.607 405.735 278.233 405.004 277.552 404.78Z" fill="#2D2D82"/>
<path d="M262.416 397.08C260.506 395.694 258.671 394.167 256.952 392.541C256.703 392.3 256.371 392.175 256.022 392.184C255.674 392.192 255.358 392.333 255.117 392.59C254.877 392.839 254.752 393.171 254.76 393.52C254.769 393.868 254.91 394.184 255.167 394.424C256.961 396.125 258.887 397.727 260.888 399.179C261.112 399.337 261.378 399.428 261.652 399.428C262.067 399.428 262.457 399.229 262.698 398.897C262.906 398.615 262.98 398.275 262.931 397.934C262.881 397.578 262.698 397.279 262.416 397.08Z" fill="#2D2D82"/>
<path d="M248.517 321.599C248.741 321.756 249.006 321.848 249.28 321.848C249.696 321.848 250.086 321.648 250.327 321.316C251.713 319.408 253.241 317.574 254.86 315.856C255.35 315.342 255.325 314.52 254.81 314.022C254.287 313.533 253.473 313.558 252.975 314.072C251.273 315.865 249.679 317.79 248.226 319.79C247.811 320.37 247.935 321.184 248.517 321.599Z" fill="#2D2D82"/>
<path d="M347.663 343.141C347.779 343.755 348.31 344.203 348.933 344.203C349.016 344.203 349.091 344.195 349.174 344.178C349.514 344.112 349.813 343.921 350.004 343.639C350.203 343.357 350.27 343.008 350.212 342.668C349.755 340.237 349.141 337.814 348.368 335.465C348.26 335.133 348.028 334.868 347.721 334.71C347.414 334.552 347.065 334.527 346.733 334.635C346.401 334.743 346.135 334.976 345.977 335.283C345.819 335.59 345.795 335.946 345.902 336.27C346.641 338.511 347.231 340.818 347.663 343.141Z" fill="#2D2D82"/>
<path d="M240.006 353.215V353.149C240.006 350.8 240.156 348.444 240.454 346.128C240.496 345.788 240.405 345.448 240.197 345.174C239.989 344.9 239.682 344.726 239.342 344.684C239.001 344.635 238.661 344.726 238.387 344.942C238.113 345.149 237.939 345.456 237.889 345.805C237.573 348.228 237.416 350.701 237.416 353.157V353.223C237.416 353.937 237.997 354.518 238.711 354.518C239.425 354.51 240.006 353.929 240.006 353.215Z" fill="#2D2D82"/>
<path d="M240.994 337.282C241.127 337.324 241.26 337.349 241.393 337.349C241.957 337.349 242.455 336.992 242.63 336.453C243.352 334.212 244.241 331.988 245.253 329.855C245.561 329.208 245.287 328.436 244.639 328.129C244.324 327.98 243.975 327.963 243.651 328.08C243.327 328.196 243.061 328.428 242.912 328.744C241.849 330.976 240.919 333.299 240.164 335.656C239.94 336.328 240.313 337.058 240.994 337.282Z" fill="#2D2D82"/>
<path d="M240.911 363.098C240.778 362.393 240.106 361.928 239.4 362.061C238.694 362.194 238.229 362.866 238.362 363.571C238.81 366.003 239.433 368.426 240.197 370.774C240.371 371.305 240.87 371.67 241.426 371.67C241.559 371.67 241.7 371.645 241.824 371.604C242.505 371.38 242.879 370.65 242.655 369.969C241.932 367.737 241.343 365.422 240.911 363.098Z" fill="#2D2D82"/>
<path d="M326.216 397.046C324.306 398.432 322.289 399.71 320.221 400.839C319.59 401.179 319.358 401.967 319.706 402.598C319.931 403.013 320.371 403.27 320.844 403.27C321.06 403.27 321.276 403.212 321.467 403.112C323.634 401.934 325.751 400.598 327.752 399.137C328.034 398.93 328.217 398.631 328.267 398.291C328.317 397.951 328.242 397.611 328.034 397.328C327.611 396.756 326.797 396.623 326.216 397.046Z" fill="#2D2D82"/>
<path d="M347.58 369.081C347.248 368.973 346.899 368.998 346.592 369.156C346.284 369.314 346.052 369.579 345.944 369.911C345.213 372.152 344.333 374.376 343.312 376.508C343.162 376.824 343.146 377.172 343.262 377.496C343.378 377.819 343.611 378.085 343.926 378.234C344.101 378.317 344.292 378.359 344.483 378.359C344.981 378.359 345.437 378.068 345.653 377.62C346.724 375.388 347.646 373.065 348.41 370.708C348.634 370.036 348.26 369.305 347.58 369.081Z" fill="#2D2D82"/>
<path d="M344.233 325.914C343.046 323.748 341.709 321.64 340.248 319.64C339.824 319.068 339.011 318.935 338.438 319.358C338.156 319.566 337.973 319.864 337.923 320.205C337.873 320.545 337.956 320.885 338.156 321.167C339.55 323.076 340.829 325.092 341.958 327.159C342.182 327.574 342.623 327.831 343.096 327.831C343.312 327.831 343.528 327.773 343.719 327.673C344.35 327.333 344.582 326.545 344.233 325.914Z" fill="#2D2D82"/>
<path d="M340.04 384.757C339.459 384.334 338.654 384.466 338.23 385.039C336.844 386.947 335.316 388.781 333.689 390.491C333.199 391.005 333.215 391.827 333.738 392.325C333.979 392.557 334.295 392.682 334.627 392.682C334.984 392.682 335.324 392.532 335.565 392.275C337.267 390.483 338.87 388.557 340.323 386.557C340.53 386.275 340.605 385.935 340.555 385.595C340.505 385.255 340.314 384.956 340.04 384.757Z" fill="#2D2D82"/>
<path d="M351.175 353.016C351.175 352.302 350.593 351.721 349.871 351.721C349.522 351.721 349.199 351.854 348.958 352.103C348.717 352.352 348.584 352.676 348.584 353.016V353.14C348.584 355.505 348.426 357.887 348.127 360.219C348.086 360.559 348.177 360.899 348.385 361.173C348.592 361.447 348.9 361.621 349.24 361.671C349.298 361.679 349.356 361.679 349.414 361.679C350.062 361.679 350.618 361.198 350.701 360.551C351.017 358.111 351.183 355.613 351.183 353.132L351.175 353.016Z" fill="#2D2D82"/>
<path d="M318.694 301.782C316.46 300.72 314.127 299.799 311.777 299.036C311.445 298.928 311.096 298.961 310.789 299.11C310.482 299.268 310.249 299.534 310.15 299.866C309.934 300.546 310.308 301.276 310.988 301.492C313.238 302.214 315.455 303.102 317.589 304.114C317.764 304.197 317.955 304.239 318.146 304.239C318.644 304.239 319.1 303.948 319.316 303.5C319.466 303.185 319.482 302.836 319.366 302.513C319.242 302.189 319.009 301.932 318.694 301.782Z" fill="#2D2D82"/>
<path d="M311.096 404.764C308.854 405.494 306.538 406.083 304.213 406.506C303.507 406.639 303.042 407.311 303.175 408.017C303.291 408.631 303.823 409.079 304.446 409.079C304.52 409.079 304.603 409.071 304.678 409.054C307.111 408.606 309.535 407.992 311.885 407.228C312.217 407.121 312.483 406.896 312.641 406.581C312.798 406.266 312.823 405.926 312.715 405.594C312.516 404.913 311.777 404.54 311.096 404.764Z" fill="#2D2D82"/>
<path d="M301.614 296.77C299.206 296.463 296.74 296.306 294.291 296.306H294.2C293.486 296.306 292.904 296.887 292.904 297.6C292.904 298.314 293.486 298.895 294.2 298.895H294.299C296.641 298.895 298.99 299.044 301.29 299.343C301.348 299.351 301.398 299.351 301.456 299.351C302.104 299.351 302.66 298.862 302.743 298.223C302.826 297.509 302.328 296.862 301.614 296.77Z" fill="#2D2D82"/>
<path d="M333.78 312.745C333.772 312.396 333.622 312.081 333.373 311.84C331.58 310.139 329.653 308.546 327.644 307.093C327.063 306.679 326.257 306.803 325.834 307.384C325.411 307.965 325.543 308.77 326.125 309.193C328.034 310.579 329.878 312.097 331.588 313.724C331.829 313.956 332.144 314.081 332.476 314.081C332.833 314.081 333.174 313.931 333.415 313.674C333.664 313.417 333.788 313.085 333.78 312.745Z" fill="#2D2D82"/>
<path d="M294.324 407.411H294.291C291.933 407.411 289.558 407.262 287.233 406.955C286.893 406.913 286.552 407.004 286.278 407.212C286.004 407.419 285.83 407.726 285.78 408.075C285.739 408.415 285.83 408.755 286.038 409.029C286.245 409.303 286.552 409.477 286.901 409.527C289.334 409.842 291.817 410 294.291 410H294.324C295.038 410 295.619 409.419 295.619 408.706C295.628 407.992 295.046 407.411 294.324 407.411Z" fill="#2D2D82"/>
</g>
<defs>
<clipPath id="clip0_1_1514">
<rect width="1067" height="410" fill="white"/>
</clipPath>
</defs>
</svg>
