<svg width="830" height="52" viewBox="0 0 830 52" fill="none" xmlns="http://www.w3.org/2000/svg">
<path d="M803.998 52C789.662 52 778 40.3381 778 26.0018C778 11.6619 789.662 0 803.998 0C818.335 0 830 11.6619 830 26.0018C830 40.3381 818.338 52 803.998 52ZM803.998 1.42261C790.448 1.42261 779.423 12.4478 779.423 26.0018C779.423 39.5521 790.448 50.5774 803.998 50.5774C817.549 50.5774 828.577 39.5521 828.577 26.0018C828.577 12.4478 817.552 1.42261 803.998 1.42261Z" fill="#2D2D82"/>
<path d="M796.473 18.6324C796.64 17.5263 796.953 16.5554 797.412 15.7232C797.87 14.8874 798.443 14.1939 799.133 13.6426C799.823 13.0913 800.605 12.6752 801.487 12.3978C802.369 12.1204 803.323 11.9817 804.343 11.9817C805.428 11.9817 806.403 12.1346 807.263 12.444C808.124 12.7535 808.853 13.1731 809.447 13.703C810.041 14.233 810.5 14.8554 810.816 15.5667C811.133 16.278 811.293 17.0391 811.293 17.85C811.293 18.5684 811.218 19.205 811.065 19.7527C810.912 20.3004 810.688 20.777 810.393 21.186C810.094 21.5914 809.731 21.9364 809.298 22.2174C808.864 22.4983 808.366 22.7331 807.804 22.9216C810.411 23.7787 811.716 25.5143 811.716 28.1319C811.716 29.2913 811.503 30.3085 811.076 31.1905C810.649 32.0725 810.073 32.8087 809.354 33.4062C808.636 34.0002 807.797 34.4483 806.844 34.7435C805.89 35.0422 804.891 35.188 803.845 35.188C802.739 35.188 801.765 35.0636 800.918 34.811C800.072 34.5585 799.329 34.1851 798.688 33.6836C798.048 33.1822 797.497 32.5562 797.038 31.7987C796.579 31.0411 796.178 30.1591 795.833 29.1455L797.742 28.3631C798.244 28.1532 798.71 28.0963 799.144 28.1923C799.578 28.2848 799.887 28.516 800.075 28.8823C800.285 29.2771 800.506 29.6434 800.741 29.9777C800.975 30.312 801.238 30.6001 801.53 30.8455C801.822 31.0909 802.152 31.283 802.522 31.4181C802.892 31.5533 803.319 31.6208 803.799 31.6208C804.404 31.6208 804.93 31.5213 805.378 31.3221C805.826 31.1229 806.203 30.8669 806.506 30.5468C806.808 30.2302 807.036 29.8675 807.185 29.4656C807.334 29.0637 807.413 28.6654 807.413 28.267C807.413 27.7442 807.366 27.2748 807.27 26.8515C807.178 26.4283 806.961 26.0691 806.619 25.7703C806.282 25.4716 805.78 25.244 805.119 25.0804C804.457 24.9203 803.557 24.8385 802.419 24.8385V21.8013C803.369 21.8013 804.144 21.723 804.752 21.5665C805.36 21.41 805.833 21.1895 806.175 20.9086C806.516 20.6276 806.755 20.2862 806.886 19.8914C807.018 19.4966 807.082 19.0627 807.082 18.5933C807.082 17.601 806.822 16.847 806.306 16.3242C805.791 15.8014 805.058 15.5418 804.109 15.5418C803.692 15.5418 803.308 15.6022 802.96 15.7232C802.611 15.8441 802.298 16.0077 802.021 16.2175C801.743 16.4273 801.505 16.6727 801.31 16.9537C801.11 17.2347 800.965 17.5441 800.872 17.8784C800.673 18.4012 800.417 18.7462 800.104 18.9205C799.791 19.0912 799.336 19.1303 798.742 19.0378L796.473 18.6324Z" fill="#2D2D82"/>
<g clip-path="url(#clip0_1_448)">
<path d="M415.002 52C400.662 52 389 40.3381 389 26.0018C389 11.6619 400.662 0 415.002 0C429.342 0 441.004 11.6619 441.004 26.0018C441 40.3381 429.338 52 415.002 52ZM415.002 1.42261C401.448 1.42261 390.423 12.4478 390.423 26.0018C390.423 39.5521 401.448 50.5774 415.002 50.5774C428.556 50.5774 439.581 39.5521 439.581 26.0018C439.577 12.4478 428.552 1.42261 415.002 1.42261Z" fill="#2D2D82"/>
<path d="M421.243 30.9811C421.713 30.9811 422.079 31.1127 422.346 31.3723C422.613 31.6319 422.744 31.9769 422.744 32.4037V34.9395H407.003V33.5311C407.003 33.2608 407.06 32.9656 407.174 32.6456C407.287 32.329 407.483 32.0374 407.753 31.7778L414.482 25.0346C415.055 24.462 415.563 23.9107 416.001 23.3844C416.438 22.858 416.805 22.3423 417.096 21.8337C417.388 21.3287 417.608 20.813 417.754 20.2937C417.9 19.7709 417.975 19.2232 417.975 18.6506C417.975 17.6406 417.715 16.8688 417.192 16.3424C416.67 15.8161 415.933 15.5529 414.987 15.5529C414.571 15.5529 414.187 15.6133 413.839 15.7343C413.49 15.8552 413.177 16.0188 412.9 16.2286C412.622 16.4385 412.388 16.6839 412.188 16.9648C411.989 17.2458 411.843 17.5552 411.751 17.8895C411.562 18.4123 411.31 18.7573 410.993 18.9316C410.673 19.1023 410.225 19.1414 409.638 19.0489L407.355 18.6435C407.522 17.5374 407.835 16.5665 408.294 15.7343C408.753 14.8985 409.325 14.205 410.015 13.6537C410.705 13.1024 411.491 12.6863 412.377 12.4089C413.262 12.1315 414.219 11.9928 415.24 11.9928C416.314 11.9928 417.292 12.1528 418.174 12.4694C419.056 12.7895 419.81 13.2305 420.436 13.7995C421.062 14.3686 421.546 15.055 421.891 15.8587C422.236 16.6625 422.406 17.5481 422.406 18.519C422.406 19.3548 422.285 20.1266 422.047 20.8343C421.805 21.5456 421.482 22.2178 421.069 22.8615C420.656 23.5017 420.18 24.1277 419.636 24.7323C419.092 25.3369 418.519 25.9486 417.914 26.5639L413.092 31.4826C413.625 31.3261 414.152 31.2052 414.671 31.1162C415.194 31.0273 415.681 30.9847 416.143 30.9847H421.243V30.9811Z" fill="#2D2D82"/>
</g>
<path d="M25.9982 52C11.6619 52 0 40.3381 0 26.0018C0 11.6619 11.6619 0 25.9982 0C40.3346 0 52 11.6619 52 26.0018C52 40.3381 40.3381 52 25.9982 52ZM25.9982 1.42261C12.4478 1.42261 1.42261 12.4478 1.42261 26.0018C1.42261 39.5521 12.4478 50.5774 25.9982 50.5774C39.5486 50.5774 50.5774 39.5521 50.5774 26.0018C50.5774 12.4478 39.5521 1.42261 25.9982 1.42261Z" fill="#2D2D82"/>
<path d="M33.2284 31.7636V34.9396H20.4925V31.7636H24.9986V19.3371C24.9986 19.0668 25.0022 18.7894 25.0128 18.5084C25.0235 18.2275 25.0377 17.9394 25.0591 17.6477L22.0858 20.1195C21.876 20.276 21.6733 20.3756 21.4741 20.4183C21.2749 20.461 21.09 20.461 20.9122 20.4254C20.7343 20.3898 20.5779 20.3258 20.4427 20.2369C20.3076 20.148 20.2009 20.0555 20.1297 19.963L18.7676 18.1314L25.749 12.2169H29.302V31.7636H33.2284Z" fill="#2D2D82"/>
<defs>
<clipPath id="clip0_1_448">
<rect width="52" height="52" fill="white" transform="translate(389)"/>
</clipPath>
</defs>
</svg>
