<svg width="204" height="466" viewBox="0 0 204 466" fill="none" xmlns="http://www.w3.org/2000/svg">
<path d="M199.46 46.3709C198.672 46.3709 197.891 46.0766 197.277 45.488C194.787 43.0707 191.872 40.31 188.755 38.0608C188.72 38.0328 188.678 38.0048 188.643 37.9768L182.102 32.8058C182.074 32.7847 182.046 32.7637 182.011 32.7427L170.114 25.1403C169.054 24.5518 167.924 23.9842 166.92 23.4797L158.042 18.9884C156.682 18.3017 155.887 16.7602 156.299 15.2888C156.856 13.3059 159.011 12.423 160.741 13.2989L169.73 17.8463C170.811 18.3858 172.039 19.0024 173.238 19.675C173.294 19.7101 173.35 19.7381 173.399 19.7731L185.401 27.4456C185.617 27.5857 185.791 27.7118 185.965 27.852L192.458 32.9809C195.847 35.4263 198.895 38.3131 201.503 40.8355C202.821 42.1108 202.919 44.3039 201.566 45.5441C200.987 46.0976 200.22 46.3709 199.46 46.3709ZM7.49684 39.0488C6.23457 40.1208 4.37254 40.0297 3.24277 38.8246L3.13816 38.7055C1.96655 37.4162 2.07813 35.3913 3.40317 34.2632C7.75487 30.5636 12.3646 27.4316 16.8418 24.3906L20.0359 22.2115C20.1963 22.0994 20.3985 21.9733 20.6077 21.8542L31.3963 15.9124C32.031 15.5621 32.6726 15.2047 33.349 14.8754C33.3978 14.8544 33.4397 14.8334 33.4885 14.8123L41.4875 11.386C42.0943 11.1408 42.6592 10.9166 43.2171 10.6923C44.6328 10.1318 46.3135 10.5732 47.1294 11.8625C48.2243 13.6002 47.4432 15.8073 45.637 16.515C45.0582 16.7392 44.4793 16.9704 43.9005 17.2087L36.027 20.5789C35.5109 20.8312 35.0018 21.1184 34.43 21.4337L23.5926 27.4035L20.3567 29.6107C16.0329 32.5605 11.5835 35.5804 7.49684 39.0488ZM126.297 8.91263C126.109 8.91263 125.913 8.89861 125.718 8.85657C116.631 7.16794 107.335 6.3061 98.0945 6.3061C94.775 6.3061 91.4066 6.41821 88.087 6.63542C84.9418 6.84563 81.7268 7.18896 78.5328 7.6444C77.0264 7.86161 75.4922 7.06284 74.9831 5.61944C74.2997 3.67155 75.5619 1.70265 77.4867 1.42238C80.89 0.931902 84.3142 0.567549 87.6686 0.343332C91.1276 0.119115 94.6355 0 98.0945 0C107.67 0 117.301 0.882854 126.722 2.63455C128.389 2.94285 129.63 4.49835 129.4 6.18699C129.184 7.78453 127.824 8.91263 126.297 8.91263Z" fill="#2D2D8C"/>
<path d="M200.862 48.0387C200.694 48.0387 200.527 48.0247 200.359 47.9967C198.142 47.6323 195.199 47.1839 192.081 46.9176C187.576 46.6654 183.029 46.5323 178.566 46.5252C176.83 46.5252 175.428 45.1099 175.435 43.3652C175.435 41.6275 176.844 40.2191 178.573 40.2191C178.573 40.2191 178.573 40.2191 178.58 40.2191C183.169 40.2261 187.841 40.3593 192.479 40.6185C192.507 40.6185 192.542 40.6255 192.57 40.6255C194.027 40.7517 195.436 40.9128 196.754 41.081C196.433 39.7917 196.112 38.6216 195.785 37.5145C194.278 32.9391 192.611 28.2866 190.826 23.6761C190.199 22.0506 191.001 20.2288 192.611 19.5982C194.222 18.9676 196.043 19.7734 196.67 21.3919C198.497 26.1145 200.206 30.8861 201.754 35.5736C201.761 35.6017 201.775 35.6367 201.782 35.6647C202.5 38.0891 203.177 40.7937 203.923 44.199C204.146 45.222 203.853 46.287 203.135 47.0437C202.542 47.6884 201.712 48.0387 200.862 48.0387Z" fill="#2D2D8C"/>
<path d="M105.905 466C96.33 466 86.699 465.11 77.2773 463.365C75.6594 463.064 74.425 461.592 74.5854 459.946C74.7667 458.075 76.4893 456.807 78.2816 457.136C87.3685 458.832 96.6647 459.694 105.905 459.694C109.225 459.694 112.593 459.581 115.913 459.364C119.107 459.147 122.37 458.804 125.613 458.334C127.433 458.075 129.093 459.413 129.198 461.291C129.289 462.945 128.005 464.36 126.38 464.598C123.026 465.082 119.644 465.439 116.331 465.663C112.865 465.888 109.364 466 105.905 466ZM159.499 455.574C158.174 455.574 156.926 454.726 156.501 453.352C155.999 451.741 156.954 450.031 158.523 449.415C159.046 449.211 159.569 449.001 160.092 448.784L167.966 445.414C168.482 445.161 168.991 444.874 169.563 444.559L180.407 438.589L183.636 436.389C187.967 433.446 192.416 430.426 196.503 426.958C197.758 425.893 199.627 425.977 200.757 427.182L200.861 427.294C202.033 428.583 201.922 430.601 200.596 431.729C196.238 435.436 191.635 438.561 187.158 441.602L183.964 443.781C183.803 443.893 183.601 444.019 183.392 444.139L172.603 450.08C171.969 450.431 171.327 450.788 170.651 451.117C170.602 451.138 170.56 451.159 170.511 451.18L162.512 454.607C161.857 454.873 161.257 455.111 160.657 455.349C160.267 455.504 159.883 455.574 159.499 455.574ZM44.6605 453.037C44.1863 453.037 43.7051 452.932 43.2518 452.701L34.2624 448.153C33.1815 447.614 31.9541 446.997 30.7546 446.325C30.6988 446.29 30.643 446.262 30.5942 446.227L18.5921 438.554C18.3759 438.414 18.2016 438.288 18.0272 438.148L11.5345 433.019C8.13825 430.566 5.08369 427.68 2.47546 425.15C1.2899 423.994 1.05976 422.095 2.09887 420.806C3.27746 419.342 5.41146 419.236 6.72953 420.512C9.21223 422.929 12.1273 425.69 15.2516 427.939C15.2865 427.967 15.3283 427.995 15.3632 428.023L21.9047 433.194C21.9326 433.215 21.9605 433.236 21.9954 433.257L33.8928 440.859C34.9528 441.441 36.0826 442.015 37.0868 442.52L45.9576 447.004C47.4082 447.74 48.1893 449.45 47.6174 450.977C47.1223 452.28 45.9158 453.037 44.6605 453.037Z" fill="#FAA019"/>
<path d="M10.2514 446.612C8.99609 446.612 7.81053 445.848 7.32236 444.601C5.4952 439.886 3.7866 435.114 2.24537 430.413C2.2384 430.384 2.22445 430.349 2.21748 430.321C1.49917 427.904 0.8227 425.192 0.076495 421.787C-0.146669 420.764 0.146234 419.699 0.864544 418.942C1.57588 418.186 2.62196 417.828 3.64712 417.996C5.86482 418.361 8.8078 418.809 11.9251 419.075C16.4303 419.328 20.9772 419.454 25.4405 419.468C27.177 419.468 28.5788 420.883 28.5718 422.628C28.5718 424.366 27.1631 425.774 25.4335 425.774C25.4335 425.774 25.4335 425.774 25.4266 425.774C20.8377 425.767 16.1583 425.634 11.5276 425.375C11.4997 425.375 11.4648 425.368 11.4369 425.368C9.97941 425.241 8.57068 425.08 7.24565 424.912C7.56645 426.194 7.88724 427.358 8.21502 428.479C9.72138 433.061 11.3951 437.714 13.1734 442.317C13.8011 443.943 12.9991 445.764 11.3881 446.395C11.0115 446.549 10.628 446.612 10.2514 446.612Z" fill="#FAA019"/>
</svg>
