<svg width="202" height="175" viewBox="0 0 202 175" fill="none" xmlns="http://www.w3.org/2000/svg">
<rect width="202" height="175" rx="20" fill="#EEEEF7"/>
<g clip-path="url(#clip0_1_1045)">
<path d="M101.5 141.635C71.5748 141.635 47.2368 117.265 47.2368 87.3128C47.2368 57.3602 71.5843 33 101.5 33C131.416 33 155.763 57.3602 155.763 87.3128C155.763 117.275 131.425 141.635 101.5 141.635Z" fill="white"/>
<path d="M101.5 141.635C71.5747 141.635 47.2367 117.265 47.2367 87.3127C47.2367 57.3601 71.5841 32.9999 101.5 32.9999C131.416 32.9999 155.763 57.3601 155.763 87.3127C155.763 117.275 131.425 141.635 101.5 141.635ZM101.5 36.3932C73.4497 36.3932 50.6175 59.2368 50.6175 87.3221C50.6175 115.407 73.4403 138.251 101.5 138.251C129.55 138.251 152.382 115.407 152.382 87.3221C152.382 59.2368 129.56 36.3932 101.5 36.3932Z" fill="#2D2D8C" stroke="#2D2D8C" stroke-width="0.5" stroke-miterlimit="10"/>
<path d="M108.138 124.242H94.4637V112.82C88.6301 111.559 83.1659 109.095 78.9612 105.806L77.8722 104.952L84.7664 90.9809L86.4236 92.3837C90.8367 96.1278 98.479 99.2842 103.129 99.2842C104.597 99.2842 106.339 99.0188 106.339 97.7676C106.339 96.2131 102.598 95.2463 98.9714 94.3079C91.5469 92.3837 81.3761 89.7487 81.3761 78.251C81.3761 70.6396 86.2437 64.8387 94.4637 62.5259V51.3695H108.148V61.8529C113.915 62.5828 119.531 64.5259 123.745 67.2747L124.995 68.0899L118.309 81.9951L116.728 81.0946C111.718 78.2321 105.099 75.9951 101.67 75.9951C100.828 75.9951 99.407 76.1088 99.407 76.8956C99.407 78.3363 103.053 79.3411 106.576 80.3079C114.086 82.3742 124.379 85.1989 124.379 97.0283C124.379 105.768 118.347 111.787 108.138 113.332V124.242ZM97.8445 120.858H104.758V110.317L106.273 110.156C110.695 109.692 120.999 107.483 120.999 97.0283C120.999 87.7771 112.864 85.5401 105.686 83.5686C100.714 82.2036 96.0262 80.9145 96.0262 76.8861C96.0262 74.8103 97.5036 72.6017 101.67 72.6017C105.799 72.6017 112.078 74.8387 116.813 77.2842L120.629 69.3505C116.633 67.0757 111.5 65.5306 106.301 65.0662L104.758 64.9335V54.7629H97.8445V65.2084L96.5281 65.5117C89.0468 67.2084 84.7569 71.8529 84.7569 78.2605C84.7569 87.1325 92.7496 89.2084 99.8142 91.0378C104.909 92.3553 109.72 93.6065 109.72 97.7771C109.72 98.924 109.246 102.678 103.119 102.678C98.1949 102.678 91.0166 99.9667 85.9217 96.2889L82.1432 103.948C86.1111 106.744 91.1397 108.791 96.4619 109.758L97.8539 110.014V120.858H97.8445Z" fill="#2D2D8C" stroke="#2D2D8C" stroke-width="0.5" stroke-miterlimit="10"/>
<path d="M140.962 30.7014C140.64 30.7014 140.327 30.5782 140.081 30.3412C139.077 29.3649 137.893 28.2559 136.634 27.346C136.615 27.3365 136.605 27.327 136.586 27.3081L133.935 25.2227C133.925 25.2133 133.916 25.2038 133.897 25.1943L129.077 22.1232C128.651 21.8863 128.187 21.6588 127.779 21.4502L124.181 19.6398C123.631 19.3649 123.309 18.7393 123.48 18.1517C123.707 17.3555 124.578 16.9953 125.279 17.346L128.916 19.1754C129.351 19.3934 129.853 19.6398 130.336 19.9147C130.355 19.9242 130.384 19.9431 130.402 19.9526L135.261 23.0521C135.346 23.109 135.422 23.1564 135.488 23.2133L138.121 25.2796C139.494 26.2654 140.725 27.4313 141.785 28.4455C142.316 28.9573 142.354 29.8483 141.814 30.3412C141.577 30.5972 141.274 30.7014 140.962 30.7014ZM63.2411 27.7536C62.7297 28.1801 61.9721 28.1517 61.5175 27.6588L61.4702 27.6114C60.9967 27.09 61.044 26.2749 61.5743 25.8199C63.3358 24.3318 65.2014 23.0616 67.0196 21.8389L68.317 20.9573C68.3833 20.91 68.459 20.8626 68.5537 20.8152L72.9194 18.4171C73.1751 18.2749 73.4308 18.1327 73.7054 18C73.7244 17.9905 73.7433 17.981 73.7623 17.9716L77.001 16.5877C77.2472 16.4834 77.4745 16.3981 77.7018 16.3128C78.2795 16.0853 78.9518 16.2654 79.2833 16.7867C79.7284 17.4882 79.4064 18.3791 78.6772 18.6635C78.4405 18.7583 78.2132 18.8436 77.9764 18.9384L74.785 20.2938C74.5767 20.3981 74.3683 20.5118 74.1411 20.6351L69.7564 23.0427L68.4496 23.9337C66.6976 25.1374 64.8888 26.3507 63.2411 27.7536ZM111.339 15.5924C111.264 15.5924 111.188 15.5829 111.103 15.5735C107.419 14.891 103.659 14.5403 99.9185 14.5403C98.5737 14.5403 97.21 14.5877 95.8653 14.673C94.5868 14.7583 93.2895 14.891 92.0015 15.0806C91.3955 15.1659 90.7704 14.8436 90.5621 14.2654C90.2875 13.4787 90.7988 12.6825 91.5754 12.5687C92.9485 12.3697 94.3406 12.2275 95.6948 12.1327C97.0964 12.0474 98.5169 12 99.9185 12C103.792 12 107.693 12.3602 111.51 13.0616C112.182 13.1848 112.684 13.8104 112.599 14.4929C112.504 15.1374 111.955 15.5924 111.339 15.5924Z" fill="#B91E73"/>
<path d="M141.53 31.3745C141.463 31.3745 141.397 31.365 141.321 31.3555C140.422 31.2133 139.228 31.0237 137.969 30.9195C136.141 30.8152 134.304 30.7678 132.495 30.7583C131.795 30.7583 131.226 30.1896 131.226 29.4882C131.226 28.7868 131.795 28.2181 132.495 28.2181C134.351 28.2181 136.245 28.2749 138.12 28.3792C138.13 28.3792 138.149 28.3792 138.158 28.3792C138.746 28.4266 139.323 28.4929 139.854 28.5593C139.721 28.038 139.598 27.564 139.465 27.1185C138.859 25.2702 138.177 23.3934 137.458 21.5356C137.202 20.8816 137.524 20.1422 138.177 19.8863C138.831 19.6304 139.569 19.9527 139.825 20.6067C140.564 22.5119 141.255 24.4361 141.88 26.3318C141.88 26.3413 141.89 26.3602 141.89 26.3697C142.183 27.346 142.458 28.4361 142.761 29.8105C142.856 30.2181 142.732 30.6541 142.439 30.9574C142.212 31.2323 141.88 31.3745 141.53 31.3745Z" fill="#B91E73"/>
<path d="M103.081 162C99.1987 162 95.3066 161.64 91.4901 160.938C90.8367 160.815 90.3348 160.228 90.4011 159.564C90.4769 158.806 91.1682 158.294 91.8974 158.436C95.5812 159.119 99.3408 159.469 103.081 159.469C104.426 159.469 105.79 159.422 107.135 159.337C108.432 159.251 109.748 159.109 111.065 158.92C111.803 158.815 112.476 159.356 112.514 160.114C112.551 160.777 112.031 161.356 111.368 161.45C110.004 161.649 108.64 161.792 107.296 161.877C105.904 161.953 104.483 162 103.081 162ZM124.787 157.792C124.247 157.792 123.745 157.45 123.575 156.901C123.376 156.247 123.755 155.564 124.389 155.308C124.597 155.223 124.815 155.138 125.024 155.052L128.215 153.697C128.423 153.593 128.632 153.479 128.859 153.356L133.253 150.948L134.56 150.057C136.312 148.872 138.111 147.649 139.768 146.256C140.28 145.829 141.028 145.858 141.492 146.351L141.539 146.398C142.013 146.92 141.965 147.735 141.435 148.19C139.674 149.687 137.808 150.948 135.99 152.171L134.692 153.052C134.626 153.1 134.541 153.147 134.456 153.194L130.09 155.593C129.834 155.735 129.579 155.877 129.304 156.01C129.285 156.019 129.266 156.029 129.247 156.038L126.008 157.422C125.743 157.526 125.497 157.63 125.26 157.725C125.099 157.763 124.938 157.792 124.787 157.792ZM78.2889 156.777C78.0995 156.777 77.9007 156.73 77.7207 156.645L74.0842 154.815C73.6486 154.597 73.1467 154.351 72.6637 154.076C72.6448 154.066 72.6164 154.047 72.5974 154.038L67.7393 150.938C67.6541 150.882 67.5783 150.834 67.512 150.777L64.8794 148.711C63.5062 147.725 62.2656 146.559 61.2145 145.536C60.7315 145.071 60.6463 144.303 61.063 143.782C61.5365 143.194 62.4077 143.147 62.938 143.668C63.9418 144.645 65.1256 145.754 66.3851 146.664C66.404 146.673 66.4135 146.683 66.4325 146.702L69.0841 148.787C69.0935 148.796 69.103 148.806 69.1219 148.815L73.9422 151.886C74.3683 152.123 74.8324 152.351 75.2396 152.559L78.8287 154.37C79.4159 154.664 79.7284 155.356 79.5011 155.972C79.2833 156.465 78.7908 156.777 78.2889 156.777Z" fill="#B91E73"/>
<path d="M64.3491 154.18C63.8377 154.18 63.3642 153.867 63.1653 153.365C62.4267 151.46 61.7354 149.536 61.1103 147.64C61.1103 147.63 61.1009 147.611 61.1009 147.602C60.8073 146.626 60.5327 145.536 60.2296 144.161C60.1349 143.754 60.258 143.318 60.5516 143.014C60.8452 142.711 61.2619 142.569 61.6785 142.635C62.5782 142.777 63.7714 142.967 65.0309 143.071C66.8586 143.175 68.6958 143.223 70.5046 143.232C71.2054 143.232 71.7736 143.801 71.7736 144.502C71.7736 145.204 71.2054 145.773 70.5046 145.773C68.6485 145.773 66.7545 145.716 64.8794 145.611C64.8699 145.611 64.851 145.611 64.8415 145.611C64.2544 145.564 63.6767 145.498 63.1464 145.431C63.279 145.953 63.4021 146.417 63.5347 146.872C64.1502 148.72 64.8226 150.597 65.5423 152.455C65.798 153.109 65.476 153.848 64.8226 154.104C64.6616 154.152 64.5006 154.18 64.3491 154.18Z" fill="#B91E73"/>
</g>
<defs>
<clipPath id="clip0_1_1045">
<rect width="109" height="150" fill="white" transform="translate(47 12)"/>
</clipPath>
</defs>
</svg>
