<svg width="202" height="175" viewBox="0 0 202 175" fill="none" xmlns="http://www.w3.org/2000/svg">
<rect width="202" height="175" rx="20" fill="#EEEEF7"/>
<g clip-path="url(#clip0_1_1084)">
<path d="M123.912 69.9833L123.311 69.8418V59.4935C123.311 58.4764 122.479 57.645 121.461 57.645H71.7404C70.7228 57.645 69.8911 58.4764 69.8911 59.4935V69.8771L69.307 70.0275C64.5376 71.2392 61.2017 75.5112 61.2017 80.4111V140.272C61.2017 146.18 66.033 150.991 71.9705 150.991H121.24C127.177 150.991 132.009 146.18 132.009 140.272V80.4288C132 75.3873 128.673 71.0977 123.912 69.9833ZM109.533 140.634V147.312H80.8723V140.634H109.533ZM105.33 130.259V136.937H76.6691V130.259H105.33ZM111.374 136.937H109.029V130.259H111.374C112.391 130.259 113.223 129.428 113.223 128.411V119.885H115.568C116.586 119.885 117.417 119.053 117.417 118.036V107.661C117.417 106.644 116.586 105.813 115.568 105.813H113.223V97.2866C113.223 96.2695 112.391 95.4381 111.374 95.4381H79.0229C78.0053 95.4381 77.1735 96.2695 77.1735 97.2866V107.661C77.1735 108.679 78.0053 109.51 79.0229 109.51H81.3678V116.188H79.0229C78.0053 116.188 77.1735 117.019 77.1735 118.036V126.562H74.8286C73.811 126.562 72.9793 127.394 72.9793 128.411V138.786C72.9793 139.803 73.811 140.634 74.8286 140.634H77.1735V147.312H71.9705C68.0682 147.312 64.9004 144.163 64.9004 140.289V80.4288C64.9004 76.5548 68.0682 73.4061 71.9705 73.4061H102.189C103.206 73.4061 104.038 72.5747 104.038 71.5576C104.038 70.5405 103.206 69.7091 102.189 69.7091H73.5898V61.3509H119.612V71.5576C119.612 72.5747 120.444 73.4061 121.461 73.4061C125.301 73.4061 128.301 76.4929 128.301 80.4288V140.289C128.301 144.163 125.125 147.312 121.231 147.312H113.232V138.786C113.232 137.76 112.4 136.937 111.374 136.937ZM109.533 119.885V126.562H80.8723V119.885H109.533ZM113.727 109.51V116.188H85.0665V109.51H113.727ZM109.533 99.1352V105.813H80.8723V99.1352H109.533Z" fill="#2D2D8B"/>
<path d="M78.1823 59.3254C78.0761 58.5383 78.0053 57.7334 78.0053 56.9109C78.0053 46.6688 86.3407 38.3283 96.5964 38.3283C106.852 38.3283 115.187 46.6599 115.187 56.9109C115.187 57.7334 115.117 58.5294 115.01 59.3254H117.426C117.515 58.5294 117.568 57.7334 117.568 56.9109C117.568 45.3509 108.162 35.9491 96.5964 35.9491C85.0311 35.9491 75.625 45.3509 75.625 56.9109C75.625 57.7246 75.6781 58.5294 75.7666 59.3254H78.1823Z" fill="#2D2D8B"/>
<path d="M117.815 59.7677H114.506L114.568 59.2724C114.683 58.3791 114.736 57.6273 114.736 56.9197C114.736 46.9165 106.595 38.7794 96.5875 38.7794C86.5797 38.7794 78.4389 46.9165 78.4389 56.9197C78.4389 57.6273 78.492 58.3791 78.607 59.2724L78.6689 59.7677H75.3595L75.333 59.3786C75.2356 58.5383 75.1914 57.7069 75.1914 56.9197C75.1914 45.121 84.7922 35.5157 96.6052 35.5157C108.418 35.5157 118.019 45.1122 118.019 56.9197C118.019 57.7069 117.966 58.5383 117.877 59.3786L117.815 59.7677ZM115.515 58.8833H117.028C117.09 58.2111 117.125 57.5477 117.125 56.9109C117.125 45.5986 107.914 36.3914 96.5964 36.3914C85.2789 36.3914 76.0674 45.5986 76.0674 56.9109C76.0674 57.5477 76.1028 58.2022 76.1648 58.8833H77.6779C77.5982 58.158 77.5629 57.5212 77.5629 56.9109C77.5629 46.4212 86.1018 37.8861 96.5964 37.8861C107.091 37.8861 115.63 46.4212 115.63 56.9109C115.63 57.53 115.594 58.158 115.515 58.8833Z" fill="#2D2D8B"/>
<path d="M94.4108 59.3255H98.9767C98.2511 58.7949 97.145 58.503 95.9859 58.2023C93.3667 57.5212 90.4023 56.7606 90.4023 53.5058C90.4023 51.1531 91.9863 49.4461 94.7471 48.8181L95.3311 48.6855V44.785H97.7114V48.597L98.3927 48.6589C100.295 48.827 102.162 49.3753 103.649 50.2067L102.313 52.9928C100.729 52.1879 98.3396 51.2769 96.6672 51.2769C95.0214 51.2769 94.4285 52.1702 94.4285 53.0016C94.4285 54.6025 96.2336 55.0978 98.1449 55.6196C100.446 56.2476 103.012 56.9552 103.658 59.3344H105.197C104.543 55.8408 101.118 54.8855 98.5431 54.178C97.3751 53.8596 95.9239 53.4616 95.9239 53.0016C95.9239 52.8601 96.2159 52.7717 96.6584 52.7717C97.9326 52.7717 100.393 53.6031 102.268 54.6733L102.967 55.0713L105.578 49.6495L105.029 49.2957C103.445 48.2698 101.384 47.5445 99.2156 47.2526V43.2991H93.8445V47.518C90.7563 48.4113 88.9158 50.649 88.9158 53.5058C88.9158 57.3178 91.8004 58.5826 94.4108 59.3255Z" fill="#2D2D8B"/>
<path d="M105.728 59.7677H103.321L103.233 59.4405C102.649 57.3001 100.295 56.6633 98.0299 56.0353C96.0389 55.4869 93.9861 54.9297 93.9861 52.9928C93.9861 51.9933 94.6851 50.8258 96.6672 50.8258C98.2777 50.8258 100.454 51.6041 102.109 52.3913L103.074 50.3924C101.702 49.7026 100.047 49.2515 98.3661 49.1011L97.2778 49.0038V45.236H95.7823V49.048L94.8532 49.2603C92.3136 49.8352 90.8536 51.383 90.8536 53.5146C90.8536 56.4245 93.5259 57.1143 96.1009 57.7777C97.2424 58.0784 98.4281 58.3791 99.2422 58.9717L100.331 59.7677L94.2869 59.75C91.5792 58.9717 88.4645 57.5654 88.4645 53.5057C88.4645 50.5428 90.2962 48.199 93.3932 47.1907V42.8568H99.6492V46.8634C101.746 47.1907 103.728 47.9159 105.268 48.9154L106.144 49.4814L103.224 55.5665C104.392 56.3714 105.312 57.5124 105.64 59.2371L105.728 59.7677ZM103.985 58.8833H104.64C103.808 56.0707 100.835 55.257 98.4281 54.5936C96.6053 54.0895 95.4903 53.7445 95.4903 52.9928C95.4903 52.7451 95.6408 52.3206 96.6672 52.3206C98.0299 52.3206 100.534 53.1608 102.498 54.2841L102.782 54.4433L105.012 49.7998L104.79 49.6495C103.268 48.6589 101.269 47.9513 99.1537 47.6771L98.7732 47.6241V43.7324H94.2869V47.8452L93.9684 47.9425C91.0837 48.7827 89.3582 50.8612 89.3582 53.5057C89.3582 56.9198 91.8093 58.1138 94.4727 58.8833H96.8176C96.4991 58.7948 96.1805 58.7064 95.8708 58.6268C93.2339 57.9457 89.9599 57.0967 89.9599 53.5057C89.9599 50.932 91.6677 49.0657 94.6497 48.3935L94.8886 48.3405V44.3516H98.1538V48.199L98.4369 48.2255C100.401 48.4024 102.33 48.9684 103.87 49.8264L104.233 50.0298L102.516 53.603L102.109 53.3996C100.587 52.6301 98.2511 51.728 96.6672 51.728C95.5434 51.728 94.8709 52.2056 94.8709 53.0104C94.8709 54.1868 96.154 54.6202 98.26 55.2039C100.552 55.8142 103.136 56.5218 103.985 58.8833ZM96.9592 53.2227C97.4901 53.4173 98.2157 53.6207 98.6582 53.7445C99.2599 53.9126 99.9147 54.0895 100.569 54.3106C99.2422 53.7269 97.8618 53.3112 96.9592 53.2227Z" fill="#2D2D8B"/>
<path d="M125.859 53.7534C125.859 53.7888 125.859 53.8242 125.85 53.8507C125.496 56.4068 124.788 58.9629 123.744 61.4483C123.284 62.545 122.753 63.6683 122.16 64.765C121.974 65.1188 121.523 65.2603 121.169 65.0657C120.815 64.88 120.674 64.4377 120.868 64.0751C121.435 63.0138 121.948 61.9347 122.39 60.8734C123.381 58.503 124.063 56.0707 124.39 53.6473C124.443 53.2493 124.815 52.9663 125.213 53.0193C125.594 53.0812 125.859 53.3908 125.859 53.7534ZM125.744 45.696C125.744 46.0409 125.496 46.3505 125.133 46.4124C124.735 46.4831 124.355 46.2178 124.284 45.8198C123.656 42.2023 122.24 38.8149 120.072 35.7546C119.842 35.4274 119.913 34.9674 120.249 34.7375C120.576 34.5075 121.036 34.5783 121.267 34.9144C123.558 38.1515 125.063 41.7424 125.726 45.5721C125.735 45.6164 125.744 45.6606 125.744 45.696ZM117.886 71.2127C117.886 71.3631 117.842 71.5223 117.736 71.655C115.418 74.7417 112.825 77.6605 110.365 80.3404C110.091 80.6411 109.631 80.6588 109.33 80.3846C109.029 80.1104 109.011 79.6505 109.285 79.3498C111.719 76.6875 114.285 73.813 116.559 70.7705C116.798 70.4432 117.258 70.3813 117.586 70.6201C117.78 70.7705 117.886 70.9916 117.886 71.2127ZM115.754 29.6076C115.754 29.758 115.71 29.9083 115.612 30.0321C115.373 30.3594 114.913 30.4301 114.595 30.1913C111.622 28.0333 108.153 26.5562 104.569 25.9105C104.171 25.8398 103.905 25.4595 103.976 25.0615C104.047 24.6634 104.428 24.3981 104.826 24.4689C108.631 25.1499 112.303 26.7242 115.453 29.0062C115.648 29.1565 115.754 29.3865 115.754 29.6076ZM97.3751 25.1411C97.3751 25.4948 97.1274 25.8044 96.7646 25.8575C95.8797 26.0078 94.9948 26.2201 94.1454 26.4766C93.756 26.5916 93.349 26.3793 93.2339 25.9901C93.1189 25.601 93.3313 25.1941 93.7206 25.0791C94.632 24.7961 95.5788 24.575 96.5257 24.4158C96.9238 24.345 97.3043 24.6192 97.3663 25.0172C97.3663 25.0615 97.3751 25.0968 97.3751 25.1411Z" fill="#B91E73"/>
<path d="M111.374 136.937H109.029V130.259H111.374C112.391 130.259 113.223 129.428 113.223 128.411V119.885H115.568C116.586 119.885 117.417 119.053 117.417 118.036V107.661C117.417 106.644 116.586 105.813 115.568 105.813H113.223V97.2866C113.223 96.2694 112.391 95.438 111.374 95.438H79.023C78.0054 95.438 77.1736 96.2694 77.1736 97.2866V107.661C77.1736 108.678 78.0054 109.51 79.023 109.51H81.3679V116.188H79.023C78.0054 116.188 77.1736 117.019 77.1736 118.036V126.562H74.8287C73.8111 126.562 72.9794 127.394 72.9794 128.411V138.786C72.9794 139.803 73.8111 140.634 74.8287 140.634H77.1736V147.312H71.9706C68.0683 147.312 64.9005 144.163 64.9005 140.289V80.4287C64.9005 76.5547 68.0683 73.4061 71.9706 73.4061H102.189C103.206 73.4061 104.038 72.5747 104.038 71.5575C104.038 70.5404 103.206 69.709 102.189 69.709H73.5899V61.3508H119.612V71.5575C119.612 72.5747 120.444 73.4061 121.461 73.4061C125.302 73.4061 128.301 76.4928 128.301 80.4287V140.289C128.301 144.163 125.125 147.312 121.231 147.312H113.232V138.786C113.232 137.76 112.4 136.937 111.374 136.937Z" fill="white"/>
</g>
<g clip-path="url(#clip1_1_1084)">
<path d="M161.02 107.04C169.3 107.04 176.04 100.3 176.04 92.02C176.04 83.74 169.3 77 161.02 77C152.74 77 146 83.74 146 92.02C146 100.3 152.74 107.04 161.02 107.04ZM148.15 92.02C148.15 84.92 153.92 79.15 161.02 79.15C168.12 79.15 173.89 84.92 173.89 92.02C173.89 99.12 168.12 104.89 161.02 104.89C153.92 104.89 148.15 99.11 148.15 92.02Z" fill="#B91E73"/>
<path d="M161.45 95.06C160.24 95.06 158.25 94.24 157.1 93.26L156.54 92.78L154.6 96.72L154.97 97.01C156.07 97.87 157.51 98.53 159.03 98.87V101.92H162.91V99.01C165.61 98.56 167.22 96.92 167.22 94.58C167.22 91.35 164.44 90.59 162.41 90.03C161.69 89.83 160.6 89.53 160.6 89.25C160.6 89.2 160.75 89.14 161.07 89.14C161.96 89.14 163.69 89.73 165 90.48L165.54 90.78L167.37 86.97L167.42 86.87L166.99 86.6C165.88 85.88 164.43 85.37 162.91 85.16V82.37H159.03V85.36C156.85 86 155.55 87.59 155.55 89.62C155.55 92.76 158.3 93.48 160.31 94C161.1 94.2 162.17 94.48 162.17 94.8C162.17 95.04 161.66 95.06 161.45 95.06ZM160.17 86.26V83.52H161.75V86.2L162.27 86.25C163.59 86.37 164.88 86.74 165.92 87.31L165.01 89.19C163.89 88.63 162.22 87.99 161.05 87.99C159.85 87.99 159.43 88.64 159.43 89.25C159.43 90.41 160.72 90.77 162.08 91.14C163.94 91.65 166.05 92.23 166.05 94.58C166.05 97.25 163.4 97.82 162.26 97.94L161.76 98V100.78H160.18V97.93L159.71 97.85C158.37 97.61 157.07 97.09 156.05 96.39L156.94 94.59C158.33 95.55 160.17 96.22 161.45 96.22C163.19 96.22 163.33 95.13 163.33 94.8C163.33 93.6 162.01 93.25 160.61 92.89C158.78 92.42 156.71 91.88 156.71 89.63C156.71 88 157.81 86.81 159.74 86.37L160.17 86.26Z" fill="#B91E73"/>
</g>
<path d="M42 70C53.0253 70 62 61.0253 62 50C62 38.9747 53.0253 30 42 30C30.9747 30 22 38.9747 22 50C22 61.0253 30.9747 70 42 70ZM24.8628 50C24.8628 40.5459 32.5459 32.8628 42 32.8628C51.4541 32.8628 59.1371 40.5459 59.1371 50C59.1371 59.4541 51.4541 67.1371 42 67.1371C32.5459 67.1371 24.8628 59.4407 24.8628 50Z" fill="#B91E73"/>
<path d="M42.5726 54.048C40.9614 54.048 38.3116 52.9561 36.7803 51.6512L36.0346 51.012L33.4514 56.2584L33.9441 56.6445C35.4088 57.7897 37.3262 58.6685 39.3502 59.1212V63.1825H44.5167V59.3076C48.1119 58.7084 50.2557 56.5247 50.2557 53.4088C50.2557 49.1079 46.5539 48.0959 43.8509 47.3502C42.8922 47.0839 41.4408 46.6845 41.4408 46.3116C41.4408 46.2451 41.6405 46.1652 42.0666 46.1652C43.2517 46.1652 45.5553 46.9508 47.2996 47.9494L48.0187 48.3489L50.4554 43.2757L50.522 43.1425L49.9494 42.783C48.4714 41.8243 46.5406 41.1452 44.5167 40.8656V37.1505H39.3502V41.1319C36.4474 41.9841 34.7164 44.1012 34.7164 46.8043C34.7164 50.9854 38.3782 51.9441 41.0546 52.6365C42.1065 52.9028 43.5313 53.2757 43.5313 53.7018C43.5313 54.0214 42.8522 54.048 42.5726 54.048ZM40.8682 42.3303V38.6818H42.9721V42.2504L43.6645 42.317C45.4221 42.4767 47.1398 42.9694 48.5247 43.7284L47.3129 46.2317C45.8216 45.4861 43.5979 44.6339 42.04 44.6339C40.4421 44.6339 39.8828 45.4994 39.8828 46.3116C39.8828 47.8562 41.6005 48.3356 43.4115 48.8283C45.8882 49.5074 48.6978 50.2797 48.6978 53.4088C48.6978 56.9641 45.1691 57.7231 43.6511 57.8829L42.9854 57.9628V61.6645H40.8815V57.8696L40.2557 57.763C38.4714 57.4435 36.7404 56.751 35.3822 55.819L36.5673 53.4221C38.4181 54.7004 40.8682 55.5926 42.5726 55.5926C44.8895 55.5926 45.0759 54.1412 45.0759 53.7018C45.0759 52.1039 43.3183 51.6379 41.4541 51.1585C39.0173 50.5327 36.261 49.8136 36.261 46.8176C36.261 44.6472 37.7257 43.0626 40.2956 42.4767L40.8682 42.3303Z" fill="#B91E73"/>
<defs>
<clipPath id="clip0_1_1084">
<rect width="89" height="127" fill="white" transform="translate(43 24)"/>
</clipPath>
<clipPath id="clip1_1_1084">
<rect width="30.04" height="30.04" fill="white" transform="translate(146 77)"/>
</clipPath>
</defs>
</svg>
