<svg width="208" height="175" viewBox="0 0 208 175" fill="none" xmlns="http://www.w3.org/2000/svg">
<rect width="202" height="175" rx="20" fill="#EEEEF7"/>
<g clip-path="url(#clip0_1_1109)">
<path d="M48.02 98.04C56.3 98.04 63.04 91.3 63.04 83.02C63.04 74.74 56.3 68 48.02 68C39.74 68 33 74.74 33 83.02C33 91.3 39.74 98.04 48.02 98.04ZM35.15 83.02C35.15 75.92 40.92 70.15 48.02 70.15C55.12 70.15 60.89 75.92 60.89 83.02C60.89 90.12 55.12 95.89 48.02 95.89C40.92 95.89 35.15 90.11 35.15 83.02Z" fill="#B91E73"/>
<path d="M48.4501 86.06C47.2401 86.06 45.2501 85.24 44.1001 84.26L43.5401 83.78L41.6001 87.72L41.9701 88.01C43.0701 88.87 44.5101 89.53 46.0301 89.87V92.92H49.9101V90.01C52.6101 89.56 54.2201 87.92 54.2201 85.58C54.2201 82.35 51.4401 81.59 49.4101 81.03C48.6901 80.83 47.6001 80.53 47.6001 80.25C47.6001 80.2 47.7501 80.14 48.0701 80.14C48.9601 80.14 50.6901 80.73 52.0001 81.48L52.5401 81.78L54.3701 77.97L54.4201 77.87L53.9901 77.6C52.8801 76.88 51.4301 76.37 49.9101 76.16V73.37H46.0301V76.36C43.8501 77 42.5501 78.59 42.5501 80.62C42.5501 83.76 45.3001 84.48 47.3101 85C48.1001 85.2 49.1701 85.48 49.1701 85.8C49.1701 86.04 48.6601 86.06 48.4501 86.06ZM47.1701 77.26V74.52H48.7501V77.2L49.2701 77.25C50.5901 77.37 51.8801 77.74 52.9201 78.31L52.0101 80.19C50.8901 79.63 49.2201 78.99 48.0501 78.99C46.8501 78.99 46.4301 79.64 46.4301 80.25C46.4301 81.41 47.7201 81.77 49.0801 82.14C50.9401 82.65 53.0501 83.23 53.0501 85.58C53.0501 88.25 50.4001 88.82 49.2601 88.94L48.7601 89V91.78H47.1801V88.93L46.7101 88.85C45.3701 88.61 44.0701 88.09 43.0501 87.39L43.9401 85.59C45.3301 86.55 47.1701 87.22 48.4501 87.22C50.1901 87.22 50.3301 86.13 50.3301 85.8C50.3301 84.6 49.0101 84.25 47.6101 83.89C45.7801 83.42 43.7101 82.88 43.7101 80.63C43.7101 79 44.8101 77.81 46.7401 77.37L47.1701 77.26Z" fill="#B91E73"/>
</g>
<path d="M150 125C154.961 125 159 120.961 159 116C159 111.039 154.961 107 150 107C145.039 107 141 111.039 141 116C141 120.961 145.039 125 150 125ZM142.288 116C142.288 111.746 145.746 108.288 150 108.288C154.254 108.288 157.712 111.746 157.712 116C157.712 120.254 154.254 123.712 150 123.712C145.746 123.712 142.288 120.248 142.288 116Z" fill="#B91E73"/>
<path d="M150.258 117.822C149.533 117.822 148.34 117.33 147.651 116.743L147.316 116.455L146.153 118.816L146.375 118.99C147.034 119.505 147.897 119.901 148.808 120.104V121.932H151.132V120.188C152.75 119.919 153.715 118.936 153.715 117.534C153.715 115.598 152.049 115.143 150.833 114.808C150.401 114.688 149.748 114.508 149.748 114.34C149.748 114.31 149.838 114.274 150.03 114.274C150.563 114.274 151.6 114.628 152.385 115.077L152.708 115.257L153.805 112.974L153.835 112.914L153.577 112.752C152.912 112.321 152.043 112.015 151.132 111.889V110.218H148.808V112.009C147.501 112.393 146.722 113.345 146.722 114.562C146.722 116.443 148.37 116.875 149.575 117.186C150.048 117.306 150.689 117.474 150.689 117.666C150.689 117.81 150.383 117.822 150.258 117.822ZM149.491 112.549V110.907H150.437V112.513L150.749 112.543C151.54 112.614 152.313 112.836 152.936 113.178L152.391 114.304C151.72 113.969 150.719 113.585 150.018 113.585C149.299 113.585 149.047 113.975 149.047 114.34C149.047 115.035 149.82 115.251 150.635 115.473C151.75 115.778 153.014 116.126 153.014 117.534C153.014 119.134 151.426 119.475 150.743 119.547L150.443 119.583V121.249H149.497V119.541L149.215 119.493C148.412 119.349 147.633 119.038 147.022 118.618L147.555 117.54C148.388 118.115 149.491 118.517 150.258 118.517C151.3 118.517 151.384 117.863 151.384 117.666C151.384 116.947 150.593 116.737 149.754 116.521C148.658 116.24 147.417 115.916 147.417 114.568C147.417 113.591 148.077 112.878 149.233 112.614L149.491 112.549Z" fill="#B91E73"/>
<g clip-path="url(#clip1_1_1109)">
<path d="M127.286 28.7211H80.8147V106.677H127.286V28.7211Z" fill="white"/>
<path d="M99.2111 151H77.2063C76.2452 151 75.4189 150.313 75.2419 149.376L73.3449 139.136C72.8053 136.206 72.5271 133.217 72.5271 130.245V108.024C72.5271 104.885 74.9046 102.306 77.9398 102.147C79.2466 102.063 80.4859 102.44 81.5314 103.168C82.619 101.896 84.1787 101.059 85.9408 100.966C87.4162 100.883 88.841 101.31 90.0045 102.172C91.0921 100.791 92.7193 99.8864 94.5656 99.786C95.4762 99.7357 96.3867 99.8864 97.2214 100.213V85.1761C97.2214 81.7099 99.8434 78.8549 103.191 78.6791C104.927 78.587 106.597 79.1982 107.87 80.3871C109.117 81.5676 109.834 83.2253 109.834 84.9333V119.729L119.867 110.662C121.739 108.97 123.948 108.359 125.92 109.012C127.826 109.64 129.183 111.34 129.655 113.676C130.035 115.585 129.436 117.535 128.045 118.9L112.068 134.657C108.738 137.939 105.855 141.64 103.494 145.667L100.939 150.012C100.577 150.623 99.9193 151 99.2111 151ZM78.8672 147.031H98.0645L100.037 143.666C102.575 139.346 105.669 135.369 109.244 131.844L125.221 116.087C125.659 115.66 125.845 115.04 125.726 114.438C125.549 113.542 125.162 112.931 124.664 112.772C124.108 112.587 123.315 112.889 122.548 113.584L109.177 125.673C108.595 126.201 107.752 126.335 107.027 126.025C106.302 125.707 105.838 124.995 105.838 124.217V84.9333C105.838 84.297 105.585 83.7026 105.113 83.2672C104.649 82.8318 104.025 82.6058 103.393 82.6393C102.187 82.7063 101.201 83.8449 101.201 85.1761V106.049C101.201 107.145 100.307 108.033 99.2027 108.033C98.0982 108.033 97.2045 107.145 97.2045 106.049C97.2045 105.412 96.9516 104.818 96.4795 104.382C96.0158 103.939 95.3919 103.721 94.7596 103.754C93.5539 103.821 92.5675 104.96 92.5675 106.291V107.229C92.5675 108.326 91.6738 109.213 90.5694 109.213C89.4649 109.213 88.5712 108.326 88.5712 107.229C88.5712 106.593 88.3099 105.998 87.8462 105.563C87.3825 105.119 86.7586 104.901 86.1262 104.935C84.9206 105.002 83.9342 106.141 83.9342 107.48V107.832C83.9342 108.929 83.0405 109.816 81.9361 109.816C80.8316 109.816 79.9379 108.929 79.9379 107.832C79.9379 107.355 79.744 106.919 79.3983 106.593C79.0527 106.266 78.5974 106.107 78.1168 106.124C77.2231 106.174 76.4897 107.028 76.4897 108.041V130.253C76.4897 132.991 76.7426 135.737 77.24 138.433L78.8672 147.031Z" fill="#2D2D8B"/>
<path d="M99.2109 108.016C98.1149 108.016 97.2212 107.137 97.2128 106.04C97.1875 105.354 96.9346 104.793 96.4877 104.374C96.024 103.939 95.4086 103.729 94.7678 103.746C93.6212 103.805 92.6685 104.86 92.6011 106.141C92.5421 107.187 91.6652 108.008 90.6114 108.008C89.5069 108.008 88.7313 107.43 88.4783 106.584C88.1748 105.555 87.2052 104.876 86.1429 104.927C85.165 104.977 84.4989 105.714 84.1954 106.383C83.9678 106.903 83.5293 107.296 82.9898 107.472C82.4502 107.648 81.86 107.581 81.371 107.296C79.7776 106.375 78.7827 104.667 78.7827 102.859V31.149C78.7827 28.3108 81.1097 26 83.9678 26H124.563C127.421 26 129.748 28.3108 129.748 31.149V102.867C129.748 105.705 127.421 108.016 124.563 108.016H107.836C106.731 108.016 105.838 107.129 105.838 106.032V84.9334C105.838 84.2971 105.585 83.7026 105.113 83.2673C104.649 82.8319 104.025 82.6058 103.393 82.6393C102.187 82.7063 101.201 83.8449 101.201 85.1762V106.04C101.209 107.129 100.315 108.016 99.2109 108.016C99.2194 108.016 99.2109 108.016 99.2109 108.016ZM109.834 104.056H124.571C125.229 104.056 125.768 103.52 125.768 102.867V31.149C125.768 30.496 125.229 29.9601 124.571 29.9601H83.9762C83.3186 29.9601 82.779 30.496 82.779 31.149V102.063C83.7064 101.419 84.7856 101.033 85.9406 100.975C87.4413 100.883 88.8746 101.352 90.0128 102.189C91.1004 100.799 92.7275 99.8865 94.5655 99.7944C95.476 99.7441 96.3866 99.8948 97.2212 100.221V85.1762C97.2212 81.71 99.8433 78.855 103.19 78.6792C104.927 78.5871 106.596 79.1983 107.87 80.3871C109.117 81.5676 109.834 83.2254 109.834 84.9334V104.056Z" fill="#2D2D8B"/>
<path d="M114.867 151H64.9981C63.8937 151 63 150.112 63 149.016C63 147.919 63.8937 147.031 64.9981 147.031H114.867C115.972 147.031 116.865 147.919 116.865 149.016C116.865 150.112 115.972 151 114.867 151Z" fill="#2D2D8B"/>
<path d="M138.01 151H114.867C113.763 151 112.869 150.112 112.869 149.016C112.869 147.919 113.763 147.031 114.867 147.031H138.01C139.115 147.031 140.008 147.919 140.008 149.016C140.008 150.112 139.106 151 138.01 151Z" fill="#2D2D8B"/>
<path d="M99.211 119.118C98.1066 119.118 97.2129 118.23 97.2129 117.133V106.032C97.2129 104.935 98.1066 104.047 99.211 104.047C100.315 104.047 101.209 104.935 101.209 106.032V117.133C101.209 118.23 100.315 119.118 99.211 119.118Z" fill="#2D2D8B"/>
<path d="M90.6114 117.527C89.507 117.527 88.6133 116.639 88.6133 115.543V106.032C88.6133 104.935 89.507 104.047 90.6114 104.047C91.7159 104.047 92.6096 104.935 92.6096 106.032V115.543C92.6096 116.639 91.7159 117.527 90.6114 117.527Z" fill="#2D2D8B"/>
<path d="M81.9613 119.377C80.8568 119.377 79.9631 118.49 79.9631 117.393V107.815C79.9631 106.718 80.8568 105.831 81.9613 105.831C83.0657 105.831 83.9594 106.718 83.9594 107.815V117.393C83.9594 118.49 83.0657 119.377 81.9613 119.377Z" fill="#2D2D8B"/>
<path d="M115.727 36.5659H92.8203C90.8391 36.5659 89.2288 34.9668 89.2288 32.9993V27.9758C89.2288 26.8791 90.1224 25.9916 91.2269 25.9916H117.329C118.434 25.9916 119.327 26.8791 119.327 27.9758V32.9993C119.319 34.9668 117.709 36.5659 115.727 36.5659ZM93.2166 32.6058H115.331V29.9601H93.2166V32.6058Z" fill="#2D2D8B"/>
<path d="M107.836 87.5456C107.591 87.5456 107.355 87.5037 107.119 87.4116C106.352 87.1186 105.846 86.3818 105.846 85.5613V84.925C105.846 84.2887 105.593 83.6942 105.121 83.2589C104.657 82.8235 104.034 82.5975 103.401 82.631C102.432 82.6812 101.572 83.4598 101.31 84.5315C101.133 85.2431 100.577 85.7957 99.8602 85.9799C99.1436 86.1557 98.3932 85.9297 97.8958 85.3938L88.3266 74.92C85.654 71.998 84.8868 67.862 86.3201 64.1363C87.7028 60.5445 90.7801 58.1668 94.5487 57.7733C94.9618 57.7314 95.3749 57.7063 95.7965 57.7063C99.034 57.7063 102.094 59.0375 104.295 61.3064C106.495 59.0375 109.556 57.7063 112.793 57.7063C116.967 57.7733 120.449 60.1008 122.05 63.7847C123.72 67.6192 123.02 71.8975 120.221 74.9618L109.311 86.8925C108.932 87.3195 108.392 87.5456 107.836 87.5456ZM103.536 78.6708C105.155 78.6708 106.681 79.2736 107.87 80.3871C108.241 80.7304 108.561 81.1239 108.831 81.5342L117.279 72.291C119.344 70.0305 119.209 67.2257 118.4 65.3503C117.405 63.0814 115.365 61.6999 112.928 61.6581C110.011 61.6581 107.423 63.1567 106.032 65.5596C105.315 66.7904 103.283 66.7904 102.575 65.5596C101.184 63.1484 98.5871 61.6581 95.8049 61.6581C95.5267 61.6581 95.2485 61.6748 94.9702 61.6999C92.7276 61.9344 90.8812 63.366 90.055 65.5345C89.1613 67.862 89.6334 70.4324 91.2943 72.2492L98.9918 80.6718C100.071 79.4913 101.563 78.7545 103.207 78.6708C103.308 78.6708 103.418 78.6708 103.536 78.6708Z" fill="#B91E73"/>
</g>
<g clip-path="url(#clip2_1_1109)">
<path d="M144.355 29.1484H149.619C150.367 29.1484 150.973 29.7546 150.973 30.5031C150.973 31.2515 150.367 31.8577 149.619 31.8577H144.355C143.606 31.8515 143 31.2453 143 30.4969C143 30.1258 143.155 29.7856 143.396 29.5381C143.643 29.2969 143.977 29.1484 144.355 29.1484Z" fill="#B91E73"/>
<path d="M164 30.4783C164.006 30.8618 163.852 31.2082 163.604 31.4556C163.357 31.703 163.023 31.8515 162.645 31.8515H157.381C156.633 31.8515 156.027 31.2453 156.027 30.4969C156.027 29.7484 156.633 29.1422 157.381 29.1422H162.608C163.357 29.1484 163.988 29.7298 164 30.4783Z" fill="#B91E73"/>
<path d="M154.852 21.3546V26.6124C154.852 27.3608 154.245 27.967 153.497 27.967C152.749 27.967 152.142 27.3608 152.142 26.6124V21.3546C152.142 20.6062 152.749 20 153.497 20C153.868 20 154.208 20.1485 154.456 20.3959C154.703 20.6433 154.852 20.9773 154.852 21.3546Z" fill="#B91E73"/>
<path d="M153.497 33.0328C154.245 33.0328 154.852 33.639 154.852 34.3875V39.6452C154.852 40.3937 154.245 40.9998 153.497 40.9998C153.126 40.9998 152.786 40.8452 152.538 40.604C152.291 40.3565 152.142 40.0225 152.142 39.6452V34.3875C152.149 33.639 152.755 33.0328 153.497 33.0328Z" fill="#B91E73"/>
</g>
<defs>
<clipPath id="clip0_1_1109">
<rect width="30.04" height="30.04" fill="white" transform="translate(33 68)"/>
</clipPath>
<clipPath id="clip1_1_1109">
<rect width="77" height="125" fill="white" transform="translate(63 26)"/>
</clipPath>
<clipPath id="clip2_1_1109">
<rect width="21" height="21" fill="white" transform="translate(143 20)"/>
</clipPath>
</defs>
</svg>
