<svg width="334" height="72" viewBox="0 0 334 72" fill="none" xmlns="http://www.w3.org/2000/svg">
<path d="M47.1378 71.0097C47.1075 71.0097 47.0773 71.0097 47.0471 71.0061C37.5093 70.2929 28.6436 68.0033 21.4053 64.3799C20.854 64.1017 20.6426 63.4562 20.9333 62.9319C21.2278 62.4077 21.9113 62.2115 22.4663 62.4861C29.4328 65.9704 37.9926 68.178 47.2246 68.8699C47.8476 68.9163 48.312 69.4334 48.263 70.0218C48.2176 70.5853 47.7192 71.0097 47.1378 71.0097ZM65.8849 70.514C65.3223 70.514 64.8352 70.1181 64.7634 69.576C64.6842 68.9911 65.1259 68.4562 65.7452 68.3813C73.9954 67.4077 82.2494 65.489 90.9867 62.5218C91.5758 62.3221 92.2252 62.6109 92.4367 63.1673C92.6481 63.7236 92.3423 64.3371 91.7532 64.5368C82.8611 67.5575 74.4447 69.5083 66.0284 70.5033C65.9793 70.5104 65.9302 70.514 65.8849 70.514ZM108.635 57.6359C108.216 57.6359 107.812 57.4148 107.616 57.0367C107.34 56.5053 107.574 55.8634 108.137 55.6066C115.099 52.3898 122.383 48.5809 131.052 43.6237C131.588 43.317 132.283 43.481 132.608 43.9839C132.933 44.4903 132.759 45.1465 132.227 45.4532C123.497 50.4461 116.157 54.2835 109.133 57.5289C108.971 57.6002 108.801 57.6359 108.635 57.6359ZM7.76315 53.1173C7.40822 53.1173 7.06085 52.9604 6.84185 52.6679C2.2995 46.6658 0 39.5081 0 31.3946C0 30.4317 0.0339827 29.4438 0.0981722 28.4524C0.135931 27.8639 0.672102 27.4146 1.29889 27.4502C1.92191 27.4859 2.39767 27.9959 2.35991 28.5843C2.29572 29.533 2.26551 30.4781 2.26551 31.3946C2.26551 39.0516 4.4253 45.792 8.68446 51.4268C9.04694 51.9083 8.92989 52.5752 8.42015 52.9176C8.22003 53.0531 7.98971 53.1173 7.76315 53.1173ZM332.086 40.9204C331.648 40.9204 331.233 40.6814 331.048 40.2784C327.816 33.2991 322.454 26.9866 315.103 21.5194C314.612 21.1521 314.529 20.4816 314.914 20.018C315.303 19.5543 316.013 19.4759 316.503 19.8396C324.149 25.5315 329.738 32.1186 333.121 39.4225C333.37 39.9646 333.11 40.5958 332.536 40.8312C332.392 40.8918 332.237 40.9204 332.086 40.9204ZM147.587 36.2056C147.213 36.2056 146.847 36.0309 146.632 35.7099C146.295 35.2106 146.45 34.5508 146.979 34.2334L149.146 32.9317C151.721 31.3839 154.289 29.8433 156.845 28.3204C161.025 25.8311 165.288 23.4666 169.509 21.284C170.057 21.0023 170.748 21.1913 171.046 21.7084C171.344 22.2255 171.144 22.8782 170.597 23.1599C166.417 25.3176 162.196 27.6642 158.053 30.1286C155.501 31.6478 152.937 33.1885 150.362 34.7327L148.195 36.0345C148.002 36.1521 147.794 36.2056 147.587 36.2056ZM186.905 15.4637C186.467 15.4637 186.051 15.2248 185.866 14.8218C185.617 14.2797 185.878 13.6484 186.452 13.4131C194.774 9.9751 203.156 7.15768 211.365 5.03569C211.969 4.87877 212.592 5.21401 212.758 5.78463C212.924 6.35525 212.569 6.94369 211.965 7.10061C203.862 9.19406 195.585 11.9794 187.362 15.3746C187.211 15.4316 187.056 15.4637 186.905 15.4637ZM299.791 12.5286C299.629 12.5286 299.467 12.4965 299.308 12.4252C291.768 9.06568 283.468 6.45154 274.637 4.66123C274.025 4.5364 273.636 3.96935 273.768 3.3916C273.9 2.81385 274.501 2.44652 275.112 2.57134C284.114 4.39732 292.58 7.06138 300.275 10.4922C300.841 10.7454 301.083 11.3838 300.815 11.9152C300.622 12.3004 300.214 12.5286 299.791 12.5286ZM230.036 3.4879C229.481 3.4879 228.998 3.10273 228.919 2.57134C228.828 1.98646 229.258 1.44437 229.878 1.35878C236.444 0.456493 243.01 0 249.395 0C251.71 0 254.043 0.060628 256.328 0.178318C256.951 0.210415 257.43 0.716837 257.396 1.30529C257.362 1.89373 256.83 2.34666 256.203 2.31456C253.96 2.20044 251.668 2.13981 249.395 2.13981C243.12 2.13981 236.663 2.58917 230.199 3.4772C230.146 3.48433 230.089 3.4879 230.036 3.4879Z" fill="#B91E73"/>
</svg>
