<svg width="574" height="438" viewBox="0 0 574 438" fill="none" xmlns="http://www.w3.org/2000/svg">
<g clip-path="url(#clip0_1_852)">
<path d="M418.848 241.815C418.735 241.815 418.616 241.809 418.498 241.792C409.624 240.573 400.751 238.112 392.125 234.488C388.304 232.879 384.426 231.033 380.599 229.001C379.363 228.341 378.888 226.805 379.549 225.563C380.209 224.327 381.745 223.853 382.986 224.513C386.673 226.472 390.409 228.25 394.095 229.803C402.32 233.257 410.764 235.6 419.198 236.757C420.586 236.949 421.557 238.23 421.365 239.619C421.185 240.889 420.095 241.815 418.848 241.815ZM446.812 241.397C445.598 241.397 444.526 240.528 444.311 239.291C444.074 237.908 445 236.593 446.383 236.356C458.943 234.183 470.695 229.266 481.324 221.742C482.47 220.929 484.056 221.2 484.863 222.346C485.676 223.492 485.405 225.078 484.259 225.885C473.009 233.85 460.563 239.054 447.252 241.357C447.1 241.38 446.953 241.397 446.812 241.397ZM358.195 214.116C357.664 214.116 357.128 213.952 356.671 213.608C345.934 205.564 335.824 196.56 326.499 188.031C325.466 187.083 325.393 185.48 326.341 184.441C327.29 183.408 328.893 183.335 329.931 184.283C339.166 192.728 349.163 201.629 359.724 209.543C360.848 210.385 361.073 211.976 360.232 213.1C359.73 213.76 358.968 214.116 358.195 214.116ZM502.69 206.721C502.17 206.721 501.651 206.563 501.199 206.236C500.065 205.411 499.811 203.825 500.635 202.691C508.125 192.366 513.274 180.326 515.514 167.874C515.763 166.491 517.084 165.576 518.467 165.825C519.85 166.073 520.764 167.394 520.516 168.777C518.139 181.974 512.686 194.732 504.75 205.677C504.248 206.354 503.474 206.721 502.69 206.721ZM307.488 169.742C306.884 169.742 306.274 169.528 305.789 169.093C294.307 158.769 284.846 150.685 276.012 143.658C274.917 142.783 274.731 141.185 275.606 140.09C276.481 138.989 278.078 138.809 279.173 139.684C288.092 146.779 297.626 154.925 309.187 165.322C310.231 166.259 310.316 167.868 309.379 168.907C308.876 169.454 308.182 169.742 307.488 169.742ZM518.213 142.918C516.999 142.918 515.927 142.043 515.712 140.807C515.187 137.731 514.459 134.666 513.55 131.708C513.138 130.364 513.894 128.947 515.232 128.535C516.576 128.123 517.993 128.88 518.405 130.217C519.376 133.384 520.154 136.658 520.713 139.949C520.95 141.332 520.019 142.647 518.636 142.884C518.501 142.907 518.354 142.918 518.213 142.918ZM254.991 127.542C254.5 127.542 254.009 127.401 253.574 127.107C245.835 121.886 238.074 117.184 230.504 113.136C226.982 111.257 223.392 109.45 219.83 107.768C218.56 107.17 218.018 105.657 218.616 104.387C219.215 103.117 220.728 102.575 221.998 103.173C225.633 104.889 229.302 106.735 232.898 108.654C240.62 112.781 248.534 117.573 256.419 122.896C257.582 123.681 257.887 125.261 257.102 126.424C256.606 127.147 255.804 127.542 254.991 127.542ZM194.835 97.6189C194.575 97.6189 194.31 97.5794 194.05 97.4947C181.248 93.3289 168.513 90.5968 156.213 89.3832C154.819 89.2477 153.797 88.0002 153.939 86.606C154.074 85.2117 155.316 84.1843 156.716 84.3255C169.383 85.5786 182.473 88.3841 195.625 92.6628C196.957 93.0974 197.691 94.5312 197.257 95.8634C196.901 96.9415 195.902 97.6189 194.835 97.6189Z" fill="#2D2D82"/>
<path opacity="0.78" d="M188.552 41.4479C185.894 36.3337 178.019 33.8726 173.684 30.8301C168.587 27.2513 168.474 20.5453 166.447 14.8215C164.302 8.74774 158.759 5.75037 153.216 5.78988C147.481 5.8294 141.926 8.86628 136.694 11.1863C134.323 12.2419 132.189 13.7885 129.897 15.0304C128.289 15.9053 126.008 13.3652 124.755 12.4676C119.861 8.9566 116.892 4.44643 110.525 4.97139C105.202 5.40604 101.262 8.7929 97.107 12.2531C96.3449 12.8854 95.6111 13.4273 94.8829 13.9353C94.6628 13.9466 94.4483 13.9579 94.2281 13.9635C90.1187 14.1046 86.4327 13.5627 82.4588 12.3886C76.0746 10.5033 70.2943 9.3856 64.0794 12.5862C57.2154 16.1198 52.2536 22.5944 47.7434 29.21C45.4404 32.5856 43.1768 35.9838 40.6649 39.1618C40.0722 39.9125 39.4908 40.6746 38.9207 41.4479H188.552Z" fill="#D5D5E6"/>
<path opacity="0.78" d="M503.288 106.453C499.974 100.086 490.169 97.0208 484.773 93.2331C478.423 88.7794 478.287 80.4251 475.764 73.2958C473.094 65.7318 466.19 62.0006 459.292 62.0458C452.152 62.0966 445.231 65.8786 438.717 68.7687C435.759 70.0783 433.106 72.0088 430.256 73.5498C428.246 74.6393 425.412 71.4782 423.849 70.3549C417.747 65.9858 414.055 60.3636 406.124 61.0184C399.497 61.5603 394.586 65.7713 389.41 70.0896C388.467 70.8742 387.547 71.5516 386.644 72.1838C386.373 72.1951 386.102 72.212 385.831 72.2233C380.723 72.3983 376.122 71.7265 371.177 70.2646C363.224 67.9163 356.027 66.5277 348.294 70.5129C339.742 74.9158 333.572 82.9766 327.95 91.218C325.082 95.4233 322.266 99.6512 319.133 103.614C318.399 104.545 317.671 105.499 316.965 106.459H503.288V106.453Z" fill="#D5D5E6"/>
<path opacity="0.78" d="M454.02 196.318C451.785 192.022 445.169 189.951 441.528 187.399C437.244 184.396 437.154 178.763 435.449 173.948C433.648 168.845 428.991 166.327 424.34 166.361C419.525 166.395 414.851 168.947 410.46 170.9C408.467 171.78 406.672 173.084 404.747 174.123C403.392 174.857 401.479 172.723 400.429 171.972C396.308 169.026 393.819 165.232 388.468 165.673C383.991 166.039 380.683 168.879 377.189 171.791C376.551 172.322 375.936 172.779 375.321 173.203C375.14 173.208 374.954 173.22 374.773 173.231C371.324 173.344 368.225 172.898 364.884 171.91C359.521 170.329 354.667 169.387 349.445 172.079C343.676 175.049 339.51 180.484 335.723 186.045C333.792 188.884 331.884 191.734 329.779 194.41C329.282 195.042 328.791 195.68 328.317 196.329H454.02V196.318Z" fill="#D5D5E6"/>
<path d="M390.223 250.017H285.157V258.252H390.223V250.017Z" fill="#81ABC0"/>
<path d="M390.562 93.4929H100.116V303.484H390.562V93.4929Z" fill="#D5D5E6"/>
<path d="M390.556 257.846H100.443V303.479H390.556V257.846Z" fill="#F9A01B"/>
<path d="M181.542 226.959H121.741C118.371 226.959 115.639 224.227 115.639 220.857V116.802C115.639 113.432 118.371 110.7 121.741 110.7H181.542C184.912 110.7 187.644 113.432 187.644 116.802V220.863C187.644 224.227 184.912 226.959 181.542 226.959Z" fill="#ABABCD"/>
<path d="M173.583 215.081H129.7C127.798 215.081 126.251 213.337 126.251 211.186V114.525C126.251 112.375 127.792 110.63 129.7 110.63H173.583C175.485 110.63 177.032 112.375 177.032 114.525V211.186C177.026 213.337 175.485 215.081 173.583 215.081Z" fill="white"/>
<path d="M275.239 226.959H215.433C212.063 226.959 209.331 224.227 209.331 220.857V116.802C209.331 113.432 212.063 110.7 215.433 110.7H275.239C278.609 110.7 281.341 113.432 281.341 116.802V220.863C281.341 224.227 278.609 226.959 275.239 226.959Z" fill="#ABABCD"/>
<path d="M267.274 215.081H223.392C221.49 215.081 219.943 213.337 219.943 211.186V114.525C219.943 112.375 221.484 110.63 223.392 110.63H267.274C269.177 110.63 270.723 112.375 270.723 114.525V211.186C270.723 213.337 269.177 215.081 267.274 215.081Z" fill="white"/>
<path d="M368.931 226.959H309.13C305.76 226.959 303.028 224.227 303.028 220.857V116.802C303.028 113.432 305.76 110.7 309.13 110.7H368.931C372.301 110.7 375.033 113.432 375.033 116.802V220.863C375.039 224.227 372.307 226.959 368.931 226.959Z" fill="#ABABCD"/>
<path d="M360.972 215.081H317.09C315.187 215.081 313.641 213.337 313.641 211.186V114.525C313.641 112.375 315.182 110.63 317.09 110.63H360.972C362.874 110.63 364.421 112.375 364.421 114.525V211.186C364.421 213.337 362.874 215.081 360.972 215.081Z" fill="white"/>
<path d="M75.6399 92.5274L109.435 31.8123H379.763L417.764 92.5274H75.6399Z" fill="#FEECD1"/>
<path d="M113.736 92.5274L132.692 35.8313H107.143L75.6399 92.5274H113.736Z" fill="#FBC676"/>
<path d="M151.647 92.5274L164.037 35.8313H194.451L189.647 92.5274H151.647Z" fill="#FBC676"/>
<path d="M227.654 92.5274L225.655 35.8313H256.493L265.654 92.5274H227.654Z" fill="#FBC676"/>
<path d="M303.655 92.5274L284.705 35.8313H318.715L341.757 92.5274H303.655Z" fill="#FBC676"/>
<path d="M379.763 92.5274L356.592 35.8313H382.332L417.764 92.5274H379.763Z" fill="#FBC676"/>
<path d="M75.6399 92.5276V109.688C75.6399 120.21 84.1691 128.739 94.691 128.739C105.207 128.739 113.742 120.21 113.742 109.688V92.5276H75.6399Z" fill="#F9A01B"/>
<path d="M113.64 92.5276V109.688C113.64 120.21 122.17 128.739 132.691 128.739C143.213 128.739 151.743 120.21 151.743 109.688V92.5276H113.64Z" fill="#FDD9A4"/>
<path d="M151.647 92.5276V109.688C151.647 120.21 160.17 128.739 170.698 128.739C181.22 128.739 189.749 120.21 189.749 109.688V92.5276H151.647Z" fill="#F9A01B"/>
<path d="M189.647 92.5276V109.688C189.647 120.21 198.177 128.739 208.699 128.739C219.215 128.739 227.75 120.21 227.75 109.688V92.5276H189.647Z" fill="#FDD9A4"/>
<path d="M227.654 92.5276V109.688C227.654 120.21 236.183 128.739 246.699 128.739C257.221 128.739 265.75 120.21 265.75 109.688V92.5276H227.654Z" fill="#F9A01B"/>
<path d="M265.654 92.5276V109.688C265.654 120.21 274.183 128.739 284.705 128.739C295.227 128.739 303.756 120.21 303.756 109.688V92.5276H265.654Z" fill="#FDD9A4"/>
<path d="M303.655 92.5276V109.688C303.655 120.21 312.184 128.739 322.706 128.739C333.222 128.739 341.757 120.21 341.757 109.688V92.5276H303.655Z" fill="#F9A01B"/>
<path d="M379.667 92.5276V109.688C379.667 120.21 388.196 128.739 398.718 128.739C409.24 128.739 417.769 120.21 417.769 109.688V92.5276H379.667Z" fill="#F9A01B"/>
<path d="M341.667 92.5276V109.688C341.667 120.21 350.19 128.739 360.718 128.739C371.24 128.739 379.769 120.21 379.769 109.688V92.5276H341.667Z" fill="#FDD9A4"/>
<path d="M388.863 29.9778H102.204V35.8314H388.863V29.9778Z" fill="#ABABCD"/>
<path d="M496.147 160.123C496.147 190.583 471.463 215.262 441.009 215.262C410.556 215.262 385.871 190.577 385.871 160.123C385.871 129.676 410.556 104.985 441.009 104.985C471.463 104.985 496.147 129.67 496.147 160.123Z" fill="#2D2D82"/>
<path d="M485.439 160.124C485.439 184.661 465.553 204.554 441.009 204.554C416.471 204.554 396.585 184.661 396.585 160.124C396.585 135.586 416.477 115.694 441.009 115.694C465.553 115.694 485.439 135.586 485.439 160.124Z" fill="#ABABCD"/>
<path d="M458.915 165.452C458.915 173.118 452.914 177.154 445.192 177.961V187.009H436.488V177.617C431.413 176.696 426.519 174.619 422.833 171.74L427.326 162.63C431.475 166.146 438.221 168.799 442.37 168.799C444.904 168.799 446.519 167.93 446.519 166.09C446.519 159.982 425.424 163.843 425.424 149.607C425.424 143.381 429.629 139.001 436.488 137.443V128.338H445.192V137.042C450.323 137.499 455.398 139.176 459.022 141.535L454.585 150.759C450.436 148.394 444.56 146.265 441.15 146.265C439.135 146.265 437.809 146.954 437.809 148.456C437.82 154.383 458.915 150.872 458.915 165.452Z" fill="white"/>
<path d="M141.949 315.886C141.949 340.429 122.057 360.316 97.5247 360.316C72.9869 360.316 53.1003 340.429 53.1003 315.886C53.1003 291.348 72.9925 271.461 97.5247 271.461C122.057 271.456 141.949 291.348 141.949 315.886Z" fill="#2D2D82"/>
<path d="M133.318 315.886C133.318 335.653 117.293 351.685 97.5191 351.685C77.7511 351.685 61.72 335.659 61.72 315.886C61.72 296.112 77.7455 280.086 97.5191 280.086C117.293 280.086 133.318 296.112 133.318 315.886Z" fill="#ABABCD"/>
<path d="M111.947 320.181C111.947 326.357 107.115 329.608 100.889 330.257V337.544H93.8781V329.975C89.7913 329.235 85.8456 327.559 82.8765 325.239L86.5004 317.901C89.8421 320.734 95.278 322.868 98.6197 322.868C100.663 322.868 101.961 322.168 101.961 320.684C101.961 315.761 84.965 318.872 84.965 307.407C84.965 302.389 88.3519 298.861 93.8781 297.608V290.27H100.889V297.28C105.027 297.653 109.113 298.996 112.032 300.904L108.459 308.338C105.117 306.431 100.381 304.715 97.6319 304.715C96.0118 304.715 94.9393 305.268 94.9393 306.476C94.9506 311.262 111.947 308.429 111.947 320.181Z" fill="white"/>
<path d="M26.7901 290.67C17.0021 290.67 9.04297 282.711 9.04297 272.923C9.04297 263.135 17.0021 255.176 26.7901 255.176C36.5782 255.176 44.5373 263.135 44.5373 272.923C44.5373 282.706 36.5725 290.67 26.7901 290.67ZM26.7901 256.282C17.6174 256.282 10.1493 263.745 10.1493 272.923C10.1493 282.102 17.6117 289.564 26.7901 289.564C35.9629 289.564 43.4309 282.102 43.4309 272.923C43.4253 263.745 35.9629 256.282 26.7901 256.282Z" fill="#57579B"/>
<path d="M28.9578 284.986H24.4815V281.255C22.5736 280.843 20.7842 280.036 19.4125 278.963L19.0569 278.687L21.3092 274.12L21.851 274.577C23.2905 275.802 25.7911 276.835 27.3152 276.835C27.795 276.835 28.3651 276.75 28.3651 276.338C28.3651 275.83 27.1402 275.514 25.9548 275.209C23.5275 274.583 20.2028 273.719 20.2028 269.965C20.2028 267.476 21.7946 265.585 24.4815 264.829V261.182H28.9578V264.609C30.8432 264.846 32.6834 265.483 34.0607 266.381L34.4671 266.646L32.2826 271.19L31.7633 270.897C30.1206 269.96 27.9587 269.232 26.841 269.232C26.5644 269.232 26.1016 269.271 26.1016 269.525C26.1016 269.999 27.2926 270.327 28.4441 270.643C30.8996 271.315 34.2639 272.24 34.2639 276.107C34.2639 278.963 32.2882 280.928 28.9522 281.436V284.986H28.9578ZM25.5935 283.88H27.8514V280.436L28.3482 280.386C29.7932 280.233 33.1632 279.511 33.1632 276.096C33.1632 273.076 30.5045 272.342 28.1563 271.698C26.5306 271.252 24.9952 270.835 24.9952 269.514C24.9952 268.836 25.4806 268.114 26.841 268.114C28.1901 268.114 30.2448 268.842 31.7915 269.644L33.039 267.053C31.735 266.308 30.0529 265.805 28.3538 265.653L27.8458 265.608V262.289H25.5879V265.698L25.1589 265.794C22.7147 266.347 21.3092 267.866 21.3092 269.96C21.3092 272.861 23.9227 273.539 26.2314 274.137C27.8966 274.566 29.4715 274.978 29.4715 276.338C29.4715 276.717 29.3134 277.941 27.3152 277.941C25.7008 277.941 23.3582 277.055 21.693 275.853L20.4568 278.354C21.7551 279.268 23.3977 279.934 25.142 280.25L25.5935 280.335V283.88Z" fill="#57579B"/>
<path d="M572.956 149.512H568.897C568.321 149.512 567.853 149.98 567.853 150.556C567.853 151.132 568.321 151.6 568.897 151.6H572.956C573.531 151.6 574 151.132 574 150.556C574 150.268 573.881 150.008 573.695 149.817C573.509 149.63 573.244 149.512 572.956 149.512Z" fill="#2F2F81"/>
<path d="M557.805 150.539C557.799 150.833 557.918 151.104 558.11 151.295C558.296 151.482 558.562 151.6 558.849 151.6H562.908C563.484 151.6 563.952 151.132 563.952 150.556C563.952 149.98 563.484 149.512 562.908 149.512H558.878C558.302 149.512 557.816 149.963 557.805 150.539Z" fill="#2F2F81"/>
<path d="M564.861 143.5V147.558C564.861 148.134 565.33 148.603 565.905 148.603C566.481 148.603 566.95 148.134 566.95 147.558V143.5C566.95 142.924 566.481 142.456 565.905 142.456C565.618 142.456 565.358 142.574 565.166 142.76C564.974 142.952 564.861 143.212 564.861 143.5Z" fill="#2F2F81"/>
<path d="M565.905 152.509C565.33 152.509 564.861 152.978 564.861 153.553V157.612C564.861 158.188 565.33 158.656 565.905 158.656C566.193 158.656 566.453 158.538 566.645 158.351C566.837 158.165 566.95 157.9 566.95 157.612V153.553C566.95 152.978 566.481 152.509 565.905 152.509Z" fill="#2F2F81"/>
<path d="M69.7976 260.787C69.7976 264.016 72.4168 266.629 75.64 266.629C78.8631 266.629 81.4823 264.01 81.4823 260.787C81.4823 257.558 78.8631 254.945 75.64 254.945C72.4168 254.945 69.7976 257.558 69.7976 260.787ZM72.3942 260.787C72.3942 258.992 73.8506 257.541 75.64 257.541C77.435 257.541 78.8857 258.998 78.8857 260.787C78.8857 262.582 77.4293 264.033 75.64 264.033C73.8449 264.033 72.3942 262.576 72.3942 260.787Z" fill="#2F2F81"/>
<path d="M57.3114 231.485H52.5077C51.8247 231.485 51.2715 232.038 51.2715 232.721C51.2715 233.404 51.8247 233.957 52.5077 233.957H57.3114C57.9944 233.957 58.5476 233.404 58.5476 232.721C58.5476 232.382 58.4065 232.072 58.1863 231.846C57.9605 231.62 57.6557 231.485 57.3114 231.485Z" fill="#F89F1E"/>
<path d="M39.3835 232.699C39.3778 233.048 39.5189 233.365 39.7447 233.59C39.9705 233.816 40.2753 233.952 40.6197 233.952H45.4234C46.1064 233.952 46.6596 233.398 46.6596 232.715C46.6596 232.032 46.1064 231.479 45.4234 231.479H40.6535C39.9705 231.485 39.3948 232.021 39.3835 232.699Z" fill="#F89F1E"/>
<path d="M47.7322 224.372V229.17C47.7322 229.854 48.2854 230.407 48.9684 230.407C49.6514 230.407 50.2046 229.854 50.2046 229.17V224.372C50.2046 223.689 49.6514 223.136 48.9684 223.136C48.6297 223.136 48.3192 223.272 48.0934 223.497C47.8677 223.723 47.7322 224.034 47.7322 224.372Z" fill="#F89F1E"/>
<path d="M48.9628 235.03C48.2797 235.03 47.7266 235.583 47.7266 236.266V241.064C47.7266 241.747 48.2797 242.3 48.9628 242.3C49.3015 242.3 49.6119 242.159 49.8377 241.939C50.0635 241.713 50.199 241.408 50.199 241.064V236.266C50.199 235.583 49.6458 235.03 48.9628 235.03Z" fill="#F89F1E"/>
<path d="M390.771 8.84351H385.967C385.284 8.84351 384.731 9.39669 384.731 10.0797C384.731 10.7627 385.284 11.3159 385.967 11.3159H390.771C391.454 11.3159 392.007 10.7627 392.007 10.0797C392.007 9.74102 391.866 9.43056 391.646 9.20477C391.42 8.97898 391.115 8.84351 390.771 8.84351Z" fill="#F89F1E"/>
<path d="M372.843 10.0574C372.837 10.4074 372.978 10.7235 373.204 10.9493C373.43 11.1751 373.735 11.3105 374.079 11.3105H378.883C379.566 11.3105 380.119 10.7574 380.119 10.0743C380.119 9.39132 379.566 8.83813 378.883 8.83813H374.113C373.43 8.84378 372.854 9.37439 372.843 10.0574Z" fill="#F89F1E"/>
<path d="M381.192 1.73132V6.52938C381.192 7.2124 381.745 7.76558 382.428 7.76558C383.111 7.76558 383.664 7.2124 383.664 6.52938V1.73132C383.664 1.0483 383.111 0.495117 382.428 0.495117C382.089 0.495117 381.779 0.630592 381.553 0.856383C381.327 1.08217 381.192 1.38699 381.192 1.73132Z" fill="#F89F1E"/>
<path d="M382.428 12.3887C381.745 12.3887 381.192 12.9419 381.192 13.6249V18.4229C381.192 19.106 381.745 19.6591 382.428 19.6591C382.767 19.6591 383.077 19.518 383.303 19.2979C383.529 19.0721 383.664 18.7673 383.664 18.4229V13.6249C383.658 12.9419 383.111 12.3887 382.428 12.3887Z" fill="#F89F1E"/>
<path d="M519.257 73.6851H514.453C513.77 73.6851 513.217 74.2382 513.217 74.9213C513.217 75.6043 513.77 76.1575 514.453 76.1575H519.257C519.94 76.1575 520.493 75.6043 520.493 74.9213C520.493 74.5826 520.352 74.2721 520.132 74.0463C519.906 73.8262 519.601 73.6851 519.257 73.6851Z" fill="#F89F1E"/>
<path d="M501.329 74.899C501.324 75.2489 501.465 75.565 501.691 75.7908C501.916 76.0166 502.221 76.1521 502.565 76.1521H507.369C508.052 76.1521 508.605 75.5989 508.605 74.9159C508.605 74.2329 508.052 73.6797 507.369 73.6797H502.599C501.916 73.6853 501.341 74.2216 501.329 74.899Z" fill="#F89F1E"/>
<path d="M509.678 66.5729V71.3709C509.678 72.0539 510.231 72.6071 510.914 72.6071C511.597 72.6071 512.15 72.0539 512.15 71.3709V66.5729C512.15 65.8899 511.597 65.3367 510.914 65.3367C510.575 65.3367 510.265 65.4721 510.039 65.6979C509.813 65.9237 509.678 66.2342 509.678 66.5729Z" fill="#F89F1E"/>
<path d="M510.914 77.2302C510.231 77.2302 509.678 77.7834 509.678 78.4664V83.2645C509.678 83.9475 510.231 84.5007 510.914 84.5007C511.253 84.5007 511.563 84.3596 511.789 84.1394C512.015 83.9136 512.15 83.6088 512.15 83.2645V78.4664C512.15 77.7834 511.597 77.2302 510.914 77.2302Z" fill="#F89F1E"/>
<path d="M460.467 274.464H455.663C454.98 274.464 454.427 275.017 454.427 275.7C454.427 276.383 454.98 276.937 455.663 276.937H460.467C461.15 276.937 461.703 276.383 461.703 275.7C461.703 275.362 461.562 275.051 461.342 274.825C461.121 274.6 460.805 274.464 460.467 274.464Z" fill="#F89F1E"/>
<path d="M442.539 275.678C442.533 276.028 442.674 276.344 442.9 276.57C443.126 276.796 443.431 276.931 443.775 276.931H448.579C449.262 276.931 449.815 276.378 449.815 275.695C449.815 275.012 449.262 274.459 448.579 274.459H443.809C443.126 274.464 442.55 274.995 442.539 275.678Z" fill="#F89F1E"/>
<path d="M450.882 267.352V272.15C450.882 272.833 451.435 273.386 452.118 273.386C452.801 273.386 453.354 272.833 453.354 272.15V267.352C453.354 266.669 452.801 266.116 452.118 266.116C451.779 266.116 451.469 266.251 451.243 266.477C451.023 266.703 450.882 267.008 450.882 267.352Z" fill="#F89F1E"/>
<path d="M452.118 278.009C451.435 278.009 450.882 278.562 450.882 279.245V284.044C450.882 284.727 451.435 285.28 452.118 285.28C452.457 285.28 452.767 285.139 452.993 284.918C453.219 284.693 453.354 284.388 453.354 284.044V279.245C453.354 278.562 452.801 278.009 452.118 278.009Z" fill="#F89F1E"/>
<path d="M418.012 267.809C418.012 269.931 419.734 271.653 421.857 271.653C423.979 271.653 425.701 269.931 425.701 267.809C425.701 265.687 423.979 263.965 421.857 263.965C419.734 263.959 418.012 265.681 418.012 267.809ZM419.717 267.809C419.717 266.629 420.671 265.675 421.851 265.675C423.031 265.675 423.985 266.629 423.985 267.809C423.985 268.989 423.031 269.943 421.851 269.943C420.677 269.943 419.717 268.983 419.717 267.809Z" fill="#F89F1E"/>
<path d="M358.065 19.3431C358.065 21.4655 359.787 23.1872 361.909 23.1872C364.031 23.1872 365.753 21.4655 365.753 19.3431C365.753 17.2207 364.031 15.499 361.909 15.499C359.787 15.499 358.065 17.2207 358.065 19.3431ZM359.775 19.3431C359.775 18.1634 360.729 17.2094 361.909 17.2094C363.089 17.2094 364.043 18.1634 364.043 19.3431C364.043 20.5229 363.089 21.4768 361.909 21.4768C360.729 21.4825 359.775 20.5229 359.775 19.3431Z" fill="#2F2F81"/>
<path d="M424.47 82.9031C424.47 86.1319 427.089 88.7455 430.312 88.7455C433.536 88.7455 436.155 86.1263 436.155 82.9031C436.155 79.6743 433.536 77.0608 430.312 77.0608C427.089 77.0608 424.47 79.68 424.47 82.9031ZM427.067 82.9031C427.067 81.1081 428.523 79.6574 430.312 79.6574C432.102 79.6574 433.558 81.1137 433.558 82.9031C433.558 84.6982 432.102 86.1489 430.312 86.1489C428.523 86.1489 427.067 84.6982 427.067 82.9031Z" fill="#2D2D82"/>
<path d="M21.8621 246.584C20.7163 246.799 19.576 247.087 18.4696 247.448C18.1479 247.555 17.9729 247.9 18.0801 248.216C18.1648 248.47 18.3963 248.639 18.6616 248.639C18.7237 248.639 18.7914 248.628 18.8535 248.611C19.9091 248.267 20.9985 247.99 22.0936 247.787C22.2516 247.759 22.3928 247.668 22.4831 247.533C22.5734 247.397 22.6073 247.234 22.579 247.076C22.5113 246.742 22.1952 246.528 21.8621 246.584Z" fill="#2F2F81"/>
<path d="M4.32394 285.144C4.24491 285.003 4.11508 284.896 3.96267 284.851C3.80462 284.805 3.64092 284.822 3.4998 284.901C3.35868 284.98 3.25143 285.11 3.20627 285.263C3.16111 285.421 3.17805 285.584 3.25708 285.725C3.81591 286.747 4.44248 287.741 5.13114 288.683C5.24404 288.841 5.43031 288.932 5.62224 288.932C5.75207 288.932 5.87625 288.892 5.9835 288.813C6.11333 288.717 6.20365 288.576 6.22623 288.412C6.24881 288.249 6.21494 288.091 6.11898 287.961C5.45854 287.069 4.86019 286.121 4.32394 285.144Z" fill="#2F2F81"/>
<path d="M14.4336 249.345C14.2756 249.3 14.1119 249.317 13.9708 249.396C12.9491 249.955 11.9556 250.587 11.0129 251.27C10.742 251.467 10.6799 251.851 10.8774 252.122C10.9903 252.28 11.1766 252.371 11.3685 252.371C11.4984 252.371 11.6225 252.331 11.7298 252.252C12.6273 251.597 13.5756 250.993 14.5522 250.463C14.8457 250.299 14.9586 249.932 14.7949 249.633C14.7159 249.497 14.586 249.39 14.4336 249.345Z" fill="#2F2F81"/>
<path d="M18.9045 297.252C17.8489 296.908 16.799 296.496 15.7942 296.016C15.4894 295.869 15.1281 295.999 14.9814 296.304C14.8346 296.609 14.9644 296.97 15.2692 297.117C16.3192 297.619 17.4199 298.054 18.5263 298.415C18.5884 298.438 18.6505 298.443 18.7126 298.443C18.9779 298.443 19.2093 298.274 19.294 298.02C19.4012 297.698 19.2206 297.354 18.9045 297.252Z" fill="#2F2F81"/>
<path d="M11.775 293.623C10.8775 292.968 10.0082 292.251 9.20096 291.483C9.08242 291.37 8.92437 291.308 8.76631 291.314C8.60262 291.319 8.45021 291.387 8.33731 291.506C8.22442 291.624 8.16797 291.777 8.16797 291.94C8.17361 292.104 8.24135 292.256 8.35989 292.369C9.20661 293.171 10.1098 293.922 11.0524 294.61C11.1597 294.689 11.2839 294.729 11.4081 294.729C11.6056 294.729 11.7863 294.633 11.9048 294.475C12.0008 294.345 12.0403 294.181 12.0121 294.023C11.9951 293.86 11.9048 293.718 11.775 293.623Z" fill="#2F2F81"/>
<path d="M5.22701 258.055C5.33426 258.128 5.45845 258.173 5.58263 258.173C5.7802 258.173 5.96083 258.077 6.07937 257.919C6.73417 257.022 7.45105 256.153 8.2131 255.345C8.44453 255.103 8.43324 254.713 8.19052 254.482C7.94779 254.25 7.5583 254.262 7.32687 254.504C6.52531 255.351 5.77456 256.26 5.09154 257.202C4.89397 257.479 4.95606 257.857 5.22701 258.055Z" fill="#2F2F81"/>
<path d="M51.9205 268.204C51.977 268.492 52.2253 268.701 52.5189 268.701C52.5584 268.701 52.5922 268.695 52.6318 268.69C52.7898 268.661 52.9309 268.571 53.0213 268.436C53.1116 268.3 53.1454 268.137 53.1172 267.978C52.9027 266.833 52.6092 265.692 52.2479 264.586C52.1971 264.434 52.0899 264.304 51.9431 264.23C51.7963 264.157 51.6326 264.146 51.4802 264.196C51.3278 264.247 51.198 264.355 51.1246 264.501C51.0512 264.648 51.0399 264.812 51.0907 264.97C51.4407 266.02 51.7173 267.115 51.9205 268.204Z" fill="#2F2F81"/>
<path d="M1.21927 272.951V272.923C1.21927 271.817 1.29265 270.705 1.43377 269.615C1.45635 269.452 1.41119 269.294 1.30959 269.164C1.20798 269.034 1.06686 268.949 0.903164 268.932C0.739465 268.91 0.581412 268.955 0.451582 269.051C0.321752 269.152 0.23708 269.294 0.220146 269.457C0.073382 270.597 0 271.766 0 272.923V272.951C0 273.29 0.276594 273.561 0.609635 273.561C0.948322 273.561 1.21927 273.29 1.21927 272.951Z" fill="#2F2F81"/>
<path d="M1.68778 265.444C1.74988 265.461 1.81197 265.472 1.87406 265.472C2.13936 265.472 2.3708 265.303 2.45547 265.049C2.7998 263.993 3.21187 262.943 3.69168 261.938C3.83844 261.633 3.70861 261.272 3.40379 261.125C3.25703 261.058 3.09333 261.046 2.93528 261.103C2.78287 261.159 2.65868 261.266 2.59095 261.413C2.08856 262.463 1.65391 263.564 1.29265 264.67C1.19104 264.998 1.36603 265.342 1.68778 265.444Z" fill="#2F2F81"/>
<path d="M1.64823 277.608C1.58613 277.275 1.27003 277.061 0.936985 277.117C0.603944 277.179 0.389442 277.495 0.44589 277.828C0.660391 278.974 0.948275 280.114 1.30954 281.226C1.39421 281.481 1.62565 281.65 1.89095 281.65C1.95304 281.65 2.02078 281.639 2.08287 281.622C2.40463 281.52 2.57961 281.17 2.47236 280.854C2.12803 279.793 1.85144 278.703 1.64823 277.608Z" fill="#2F2F81"/>
<path d="M41.8221 293.606C40.9246 294.26 39.9706 294.864 38.9997 295.395C38.7062 295.559 38.5933 295.926 38.757 296.225C38.8643 296.422 39.0675 296.541 39.2933 296.541C39.3949 296.541 39.4965 296.513 39.5868 296.468C40.6085 295.909 41.602 295.282 42.5446 294.593C42.6745 294.497 42.7648 294.356 42.7874 294.193C42.8099 294.029 42.7761 293.871 42.6801 293.741C42.4769 293.464 42.0931 293.408 41.8221 293.606Z" fill="#2F2F81"/>
<path d="M51.881 280.431C51.723 280.38 51.5593 280.391 51.4125 280.47C51.2658 280.544 51.1585 280.668 51.1077 280.826C50.7634 281.882 50.3457 282.932 49.8658 283.931C49.7981 284.077 49.7868 284.241 49.8433 284.399C49.8997 284.557 50.007 284.676 50.1537 284.749C50.2384 284.789 50.3231 284.811 50.419 284.811C50.6505 284.811 50.8706 284.676 50.9722 284.461C51.4746 283.411 51.9149 282.311 52.2705 281.204C52.3778 280.877 52.2028 280.533 51.881 280.431Z" fill="#2F2F81"/>
<path d="M50.3062 260.087C49.7474 259.065 49.1151 258.072 48.4265 257.129C48.2289 256.858 47.8451 256.796 47.5741 256.994C47.4443 257.09 47.354 257.231 47.3314 257.394C47.3088 257.558 47.3427 257.716 47.4443 257.846C48.0991 258.743 48.7031 259.692 49.2337 260.668C49.3409 260.866 49.5441 260.984 49.7699 260.984C49.8715 260.984 49.9731 260.956 50.0635 260.911C50.3626 260.753 50.4699 260.386 50.3062 260.087Z" fill="#2F2F81"/>
<path d="M48.3306 287.814C48.0596 287.617 47.6758 287.679 47.4782 287.95C46.8234 288.847 46.1066 289.711 45.3389 290.518C45.1074 290.761 45.1187 291.15 45.3614 291.382C45.4743 291.489 45.6267 291.551 45.7792 291.551C45.9485 291.551 46.1066 291.483 46.2194 291.359C47.021 290.512 47.7774 289.609 48.4604 288.667C48.5564 288.537 48.5959 288.373 48.5677 288.215C48.5507 288.051 48.4604 287.91 48.3306 287.814Z" fill="#2F2F81"/>
<path d="M53.5745 272.861C53.5745 272.528 53.2979 272.251 52.9648 272.251C52.8011 272.251 52.6487 272.314 52.5358 272.432C52.4229 272.545 52.3552 272.703 52.3608 272.861V272.923C52.3608 274.041 52.2874 275.159 52.1463 276.259C52.1237 276.423 52.1689 276.581 52.2705 276.711C52.3721 276.841 52.5132 276.925 52.6713 276.942C52.6995 276.948 52.7277 276.948 52.7503 276.948C53.0551 276.948 53.3148 276.722 53.3543 276.417C53.5067 275.266 53.5801 274.092 53.5801 272.923L53.5745 272.861Z" fill="#2F2F81"/>
<path d="M38.2772 248.718C37.2216 248.216 36.1266 247.781 35.0202 247.426C34.8678 247.375 34.6984 247.386 34.5573 247.465C34.4105 247.539 34.3033 247.669 34.2525 247.821C34.1509 248.143 34.3259 248.487 34.6476 248.589C35.7088 248.933 36.7531 249.345 37.7579 249.825C37.8426 249.864 37.9272 249.881 38.0176 249.881C38.2546 249.881 38.4691 249.746 38.5707 249.531C38.6385 249.385 38.6498 249.221 38.5933 249.063C38.5369 248.91 38.424 248.786 38.2772 248.718Z" fill="#2F2F81"/>
<path d="M34.7041 297.241C33.6485 297.585 32.559 297.862 31.464 298.065C31.1309 298.127 30.9164 298.443 30.9729 298.776C31.0237 299.064 31.2777 299.273 31.5712 299.273C31.6051 299.273 31.6446 299.267 31.6841 299.262C32.83 299.047 33.9702 298.759 35.0823 298.398C35.2347 298.347 35.3645 298.24 35.4379 298.093C35.5113 297.946 35.5226 297.783 35.4717 297.63C35.3701 297.314 35.0202 297.139 34.7041 297.241Z" fill="#2F2F81"/>
<path d="M30.239 246.353C29.1044 246.206 27.9416 246.133 26.79 246.133H26.7449C26.4062 246.133 26.1353 246.404 26.1353 246.743C26.1353 247.081 26.4118 247.352 26.7449 247.352H26.79C27.8908 247.352 28.9972 247.426 30.081 247.561C30.1092 247.567 30.1318 247.567 30.16 247.567C30.4648 247.567 30.7245 247.335 30.764 247.036C30.8091 246.703 30.572 246.398 30.239 246.353Z" fill="#2F2F81"/>
<path d="M45.3785 253.884C45.3728 253.72 45.3051 253.567 45.1865 253.455C44.3398 252.653 43.431 251.902 42.4883 251.219C42.2174 251.022 41.8335 251.084 41.636 251.355C41.4384 251.626 41.5005 252.009 41.7714 252.207C42.669 252.862 43.5383 253.579 44.3455 254.341C44.4584 254.448 44.6108 254.51 44.7632 254.51C44.9325 254.51 45.0906 254.442 45.2091 254.318C45.3277 254.2 45.3841 254.047 45.3785 253.884Z" fill="#2F2F81"/>
<path d="M26.8014 298.488H26.7845C25.6725 298.488 24.5548 298.415 23.4597 298.274C23.296 298.251 23.138 298.296 23.0081 298.398C22.8783 298.5 22.7936 298.641 22.7767 298.804C22.7541 298.968 22.7993 299.126 22.9009 299.256C23.0025 299.386 23.1436 299.47 23.3073 299.487C24.4532 299.634 25.6217 299.713 26.7845 299.713H26.8014C27.1401 299.713 27.4111 299.442 27.4111 299.104C27.4111 298.765 27.1401 298.488 26.8014 298.488Z" fill="#2F2F81"/>
<path d="M40.4673 114.288C40.4673 116.41 42.1889 118.132 44.3114 118.132C46.4338 118.132 48.1555 116.41 48.1555 114.288C48.1555 112.166 46.4338 110.444 44.3114 110.444C42.1889 110.444 40.4673 112.16 40.4673 114.288ZM42.1777 114.288C42.1777 113.108 43.1316 112.154 44.3114 112.154C45.4911 112.154 46.4451 113.108 46.4451 114.288C46.4451 115.468 45.4911 116.422 44.3114 116.422C43.1316 116.422 42.1777 115.468 42.1777 114.288Z" fill="#2F2F81"/>
<path d="M63.7691 75.3677H60.608C60.1564 75.3677 59.7952 75.7289 59.7952 76.1805C59.7952 76.6264 60.1564 76.9933 60.608 76.9933H63.7691C64.215 76.9933 64.5819 76.6321 64.5819 76.1805C64.5819 75.9547 64.4916 75.7515 64.3449 75.6048C64.1981 75.4636 63.9949 75.3677 63.7691 75.3677Z" fill="#2F2F81"/>
<path d="M51.9714 76.1692C51.9658 76.4007 52.0617 76.6095 52.2085 76.7563C52.3553 76.903 52.5585 76.9933 52.7843 76.9933H55.9453C56.3913 76.9933 56.7582 76.6321 56.7582 76.1805C56.7582 75.7346 56.3969 75.3677 55.9453 75.3677H52.8069C52.3609 75.3677 51.9827 75.7233 51.9714 76.1692Z" fill="#2F2F81"/>
<path d="M57.4639 70.6937V73.8491C57.4639 74.3007 57.8251 74.662 58.2767 74.662C58.7283 74.662 59.0896 74.3007 59.0896 73.8491V70.6937C59.0896 70.2421 58.7283 69.8809 58.2767 69.8809C58.0509 69.8809 57.8477 69.9712 57.7009 70.1179C57.5542 70.2647 57.4639 70.4679 57.4639 70.6937Z" fill="#2F2F81"/>
<path d="M58.2767 77.7046C57.8251 77.7046 57.4639 78.0659 57.4639 78.5174V81.6785C57.4639 82.1244 57.8251 82.4913 58.2767 82.4913C58.5025 82.4913 58.7057 82.401 58.8525 82.2543C58.9992 82.1075 59.0896 81.9043 59.0896 81.6785V78.5174C59.0896 78.0659 58.7283 77.7046 58.2767 77.7046Z" fill="#2F2F81"/>
<path d="M303.627 423.831C303.627 423.831 306.974 430.497 306.167 432.032C305.36 433.562 299.732 436.114 297.632 436.605C295.532 437.096 294.031 437.418 293.799 436.667C293.105 434.471 299.738 431.462 297.372 432.67C295.606 433.573 302.108 430.553 301.51 427.375C301.036 424.79 301.425 424.514 301.425 424.514L303.627 423.831Z" fill="#414141"/>
<path d="M242.341 422.837C242.341 422.837 243.572 430.198 242.347 431.417C241.122 432.648 234.986 433.415 232.841 433.274C230.696 433.116 229.161 432.981 229.161 432.196C229.15 429.899 236.375 428.973 233.756 429.436C231.797 429.775 238.904 428.815 239.276 425.603C239.581 422.995 240.044 422.843 240.044 422.843L242.341 422.837Z" fill="#414141"/>
<path d="M296.932 369.968C297.626 369.014 294.934 329.535 294.81 314.305C294.787 311.906 294.759 309.654 294.714 307.475H294.719C294.719 307.475 294.437 277.964 289.803 273.031C289.571 272.782 289.233 272.545 288.809 272.319L244.12 272.731C243.809 276.598 238.83 297.512 238.413 304.963C238.317 306.668 238.209 308.48 238.091 310.416C237.329 322.592 235.348 352.012 236.2 365.52C236.166 366.423 236.143 367.417 236.143 368.54C236.149 376.663 236.172 427.11 236.172 427.11L243.318 427.105C243.318 427.105 249.064 405.638 250.148 388.466C250.73 379.231 250.363 373.299 249.9 369.765C250.295 369.285 250.572 368.783 250.662 368.269C251.288 364.736 257.848 331.2 261.799 316.495C262.601 313.537 263.312 310.805 263.972 308.186C264.706 308.169 265.457 308.158 266.196 308.141C266.62 310.467 267.139 312.917 267.805 315.558C270.514 326.255 276.696 350.562 281.539 364.442C281.635 366.028 282.075 368.326 282.989 371.605C285.168 379.435 298.704 428.036 298.704 428.036L305.591 426.117C305.591 426.117 305.382 403.888 301.82 387.055C300.071 378.763 298.287 373.344 296.932 369.968Z" fill="#2D2D82"/>
<path d="M229.985 231.203L248.06 237.305C248.06 237.305 251.108 221.008 251.362 215.922C251.61 210.831 250.402 196.787 248.968 197.063C247.535 197.34 241.427 197.086 238.633 205.237C235.827 213.382 229.985 231.203 229.985 231.203Z" fill="#414141"/>
<path d="M241.427 204.074C241.704 201.709 242.799 197.543 247.529 196.431C255.167 194.647 271.457 196.341 279.857 198.706C283.848 199.829 288.516 201.246 292.078 204.554C295.645 207.862 295.905 221.353 292.089 231.79C288.279 242.227 286.755 247.573 287.009 251.902C287.263 256.232 288.03 260.815 290.068 267.685C292.106 274.56 295.419 275.063 291.344 278.122C287.274 281.176 266.654 284.501 255.708 281.447C248.235 279.37 247.303 275.853 247.303 275.853C247.303 275.853 248.06 261.848 247.8 252.941C247.54 244.034 244.735 225.225 243.205 220.867C241.687 216.515 240.947 208.161 241.427 204.074Z" fill="#414141"/>
<path d="M225.78 322.671C225.78 322.671 240.535 286.691 243.245 275.153C245.954 263.61 245.965 233.483 244.594 227.63C243.222 221.782 251.384 195.867 251.384 195.867L255.415 195.692L251.362 215.923L271.869 218.124L276.809 197.955L279.862 198.712C279.862 198.712 277.362 221.68 276.825 237.294C276.289 252.901 280.918 263.706 282.002 270.722C283.368 279.562 281.703 293.798 278.773 306.357C275.843 318.917 271.406 335.208 271.406 335.208L225.78 322.671Z" fill="#FBC676"/>
<path d="M276.837 259.862L287.624 257.395L288.55 262.007L276.837 265.896V259.862Z" fill="#FBC676"/>
<path d="M251.367 165.526C249.663 167.823 249.42 170.663 249.064 178.673C248.743 185.994 252.745 190.002 256.053 191.272C259.366 192.542 264.915 191.232 268.053 186.395C271.192 181.557 272.863 174.682 269.403 166.288C267.794 162.37 262.527 161.202 259.727 161.456C256.933 161.704 252.694 163.736 251.367 165.526Z" fill="#F2B394"/>
<path d="M257.667 201.443C257.667 201.443 260.072 192.502 259.343 188.686C258.615 184.87 257.34 181.055 257.34 181.055L271.333 172.407C271.333 172.407 272.541 185.153 272.547 191.266C272.547 196.245 273.117 198.175 272.422 201.443C271.632 205.146 268.973 207.015 263.21 204.983C257.351 202.905 257.667 201.443 257.667 201.443Z" fill="#F2B394"/>
<path d="M276.109 178.12C276.109 180.242 274.607 181.969 272.756 181.969C270.904 181.969 269.403 180.248 269.397 178.125C269.397 176.003 270.898 174.281 272.75 174.275C274.601 174.27 276.109 175.991 276.109 178.12Z" fill="#F2B394"/>
<path d="M270.757 173.225C270.656 172.813 268.765 171.018 268.488 170.691C269.894 176.206 269.318 181.964 266.744 185.367C263.605 189.533 258.948 190.391 255.398 189.849C252.959 189.477 251.379 187.399 249.578 183.657C249.584 183.668 249.68 185.108 249.685 185.113C250.684 192.418 251.797 196.448 257.345 197.701C260.777 198.474 265.666 196.341 268.81 192.181C271.954 188.02 272.755 181.422 270.757 173.225Z" fill="#414141"/>
<path d="M269.617 159.621C267.382 157.691 264.074 157.33 261.257 157.674C258.677 157.99 256.696 163.307 256.058 164.194C255.928 164.374 255.99 164.679 256.216 164.747C257.029 164.99 257.786 165.119 258.632 165.232C260.614 165.509 262.341 166.869 263.899 168.049C266.529 170.042 268.945 171.916 270.514 174.907C270.701 175.269 271.113 175.28 271.372 175.003C275.956 170.172 274.33 163.691 269.617 159.621Z" fill="#414141"/>
<path d="M268.962 161.987C268.669 160.197 265.863 158.684 264.588 157.73C260.501 154.682 254.483 155.224 250.035 157.183C248.218 157.984 246.643 159.272 245.565 160.937C244.266 162.946 244.978 165.199 243.183 166.79C242.804 166.937 242.432 167.078 242.087 167.236C240.654 167.88 239.361 169.105 239.164 170.747C238.672 174.868 242.748 176.55 246.191 177.103C251.193 177.905 253.264 172.796 257.046 170.708C259.152 169.545 261.827 170.222 264.096 169.579C265.745 169.11 266.704 167.795 267.528 166.384C268.341 164.995 269.233 163.641 268.962 161.987Z" fill="#414141"/>
<path d="M252.886 189.883C252.779 189.713 253.377 186.88 254.737 186.496C256.098 186.112 257.182 185.807 258.22 186.366C259.259 186.925 261.816 189.595 261.816 189.595C261.816 189.595 260.89 191.938 258.226 192.101C255.562 192.265 254.416 192.033 253.654 191.525C252.892 191.017 252.886 189.883 252.886 189.883Z" fill="#414141"/>
<path d="M288.487 338.747L145.934 258.693L180.526 197.097L323.079 277.146L288.487 338.747Z" fill="#8181B4"/>
<path d="M305.032 290.891C300.895 288.565 299.421 283.327 301.747 279.189C302.904 277.134 304.773 275.735 306.878 275.136L192.374 210.842C192.95 212.948 192.73 215.268 191.584 217.317C189.258 221.46 184.02 222.928 179.882 220.608C178.335 219.738 177.161 218.457 176.422 216.984L160.792 244.818C162.434 244.683 164.139 245.027 165.686 245.891C169.823 248.216 171.296 253.455 168.971 257.587C167.814 259.641 165.94 261.041 163.834 261.64L278.355 325.945C277.768 323.839 277.983 321.519 279.14 319.459C281.46 315.321 286.698 313.854 290.836 316.174C291.711 316.665 292.456 317.291 293.077 318.003L307.77 291.85C306.827 291.692 305.902 291.382 305.032 290.891Z" fill="#2D2D82"/>
<path d="M163.27 268.43L178.99 223.165L301.459 265.602L278.152 325.047L163.27 268.43Z" fill="#2D2D82"/>
<path d="M180.347 225.466L158.048 292.511L313.188 344.11L335.487 277.065L180.347 225.466Z" fill="#8181B4"/>
<path d="M320.369 294.001C315.87 292.505 313.432 287.639 314.928 283.14C315.673 280.9 317.247 279.178 319.195 278.184L194.587 236.74C195.552 238.699 195.778 241.014 195.038 243.249C193.537 247.753 188.671 250.186 184.166 248.69C182.484 248.132 181.09 247.104 180.085 245.795L170.004 276.085C171.59 275.644 173.328 275.656 175.011 276.209C179.515 277.71 181.954 282.576 180.458 287.081C179.713 289.316 178.138 291.049 176.185 292.031L300.804 333.486C299.839 331.527 299.608 329.196 300.347 326.961C301.849 322.456 306.714 320.023 311.213 321.525C312.162 321.841 313.014 322.315 313.765 322.897L323.225 294.436C322.283 294.447 321.317 294.317 320.369 294.001Z" fill="#D5D5E6"/>
<path d="M268.584 292.059C264.582 304.099 251.565 310.619 239.519 306.617C227.473 302.609 220.953 289.592 224.955 277.552C228.963 265.5 241.98 258.986 254.02 262.994C266.072 266.996 272.586 280.013 268.584 292.059Z" fill="#2D2D82"/>
<path d="M299.901 265.247C298.812 268.56 297.705 271.275 296.723 272.415C296.029 273.228 295.459 273.889 294.973 274.459C294.584 274.606 294.177 274.758 293.754 274.905C291.615 275.65 287.483 277.309 287.483 277.309C287.483 277.309 287.59 277.857 288.138 278.072C288.685 278.292 289.769 278.179 291.186 278.072C291.457 278.049 291.716 278.038 291.959 278.032C291.66 278.399 291.338 278.8 290.954 279.28C289.058 281.656 286.625 284.326 287.782 285.681C288.939 287.035 293.873 287.035 296.729 283.976C299.579 280.922 299.179 276.519 302.17 273.499C303.474 272.184 305.157 270.09 306.968 267.595L299.901 265.247Z" fill="#2D2D82"/>
<path d="M285.298 217.164C286.111 223.492 296.576 230.678 300.24 235.753C303.13 239.755 304.993 242.538 304.993 242.538C304.993 242.538 299.862 266.607 296.368 270.682C292.873 274.758 292.495 275.164 290.604 277.546C288.708 279.923 286.275 282.593 287.432 283.953C288.589 285.308 293.523 285.302 296.373 282.249C299.224 279.189 298.823 274.792 301.815 271.772C307.64 265.884 320.951 244.705 319.929 240.054C318.907 235.403 298.304 209.623 294.855 208.601C291.406 207.591 284.892 213.986 285.298 217.164Z" fill="#F2B394"/>
<path d="M283.689 202.894C280.607 207.156 281.335 215.296 283.723 220.715C286.992 228.132 293.912 237.824 296.232 239.862C298.558 241.9 314.583 223.232 314.583 223.232C314.583 223.232 306.438 215.674 301.849 211.091C297.265 206.513 294.561 204.531 290.999 202.753C287.432 200.969 284.931 201.178 283.689 202.894Z" fill="#414141"/>
<path d="M287.127 275.582C287.127 275.582 291.253 273.928 293.398 273.177C295.543 272.432 297.468 271.546 297.468 271.546L295.075 275.576L293.398 276.338C293.398 276.338 292.247 276.231 290.83 276.338C289.413 276.451 288.329 276.558 287.782 276.338C287.234 276.124 287.127 275.582 287.127 275.582Z" fill="#F2B394"/>
</g>
<defs>
<clipPath id="clip0_1_852">
<rect width="574" height="436.617" fill="white" transform="translate(0 0.495117)"/>
</clipPath>
</defs>
</svg>
