<svg width="59" height="227" viewBox="0 0 59 227" fill="none" xmlns="http://www.w3.org/2000/svg">
<path d="M1.4772 0.861746C1.09916 1.05809 0.878048 1.4621 0.878048 1.88122C0.878048 2.04735 0.913711 2.21727 0.985039 2.37963C4.23042 9.40272 8.06782 16.743 13.0607 25.4727C13.3674 26.0051 14.0236 26.1788 14.5301 25.8541C15.0329 25.5294 15.197 24.8346 14.8903 24.2985C9.93302 15.6291 6.12416 8.34549 2.9073 1.38281C2.65052 0.820209 2.00858 0.586109 1.4772 0.861746Z" fill="#B91E73"/>
<path d="M18.2355 224.294C17.8325 224.479 17.5935 224.894 17.5935 225.332C17.5935 225.483 17.6221 225.638 17.6827 225.782C17.9181 226.356 18.5493 226.616 19.0914 226.367C26.3953 222.984 32.9824 217.396 38.6743 209.749C39.038 209.259 38.9596 208.549 38.496 208.16C38.0323 207.775 37.3619 207.858 36.9945 208.349C31.5273 215.7 25.2148 221.062 18.2355 224.294Z" fill="#B91E73"/>
<path d="M22.804 39.8776C22.483 40.0929 22.3083 40.4591 22.3083 40.8329C22.3083 41.0406 22.3618 41.2483 22.4795 41.4408L23.7812 43.6082C25.3254 46.1833 26.8661 48.7471 28.3853 51.2996C30.8497 55.4417 33.1964 59.6631 35.354 63.843C35.6357 64.3905 36.2884 64.5906 36.8055 64.2923C37.3226 63.994 37.5116 63.303 37.2299 62.7555C35.0473 58.5341 32.6828 54.2712 30.1935 50.0913C28.6707 47.5351 27.13 44.9675 25.5822 42.3923L24.2805 40.225C23.9631 39.6964 23.3033 39.5416 22.804 39.8776Z" fill="#B91E73"/>
<path d="M43.6921 79.1125C43.2891 79.2976 43.0502 79.7129 43.0502 80.1509C43.0502 80.3019 43.0823 80.4567 43.1394 80.6078C46.5345 88.8316 49.3198 97.1083 51.4133 105.211C51.5702 105.815 52.1587 106.17 52.7293 106.004C53.2999 105.838 53.6351 105.215 53.4782 104.611C51.3562 96.4022 48.5388 88.0198 45.1008 79.6978C44.8655 79.1239 44.2342 78.8633 43.6921 79.1125Z" fill="#B91E73"/>
<path d="M46.0887 192.554C46.0174 192.713 45.9853 192.875 45.9853 193.038C45.9853 193.46 46.2135 193.868 46.5987 194.061C47.1301 194.329 47.7685 194.087 48.0217 193.521C51.4525 185.826 54.1166 177.36 55.9426 168.359C56.0674 167.747 55.7001 167.147 55.1223 167.014C54.5446 166.882 53.9775 167.271 53.8527 167.883C52.0624 176.715 49.4482 185.014 46.0887 192.554Z" fill="#B91E73"/>
<path d="M55.9426 122.165C55.4112 122.244 55.026 122.727 55.026 123.282C55.026 123.335 55.0296 123.392 55.0367 123.445C55.9247 129.909 56.3741 136.366 56.3741 142.641C56.3741 144.914 56.3135 147.206 56.1993 149.449C56.1672 150.076 56.6202 150.608 57.2086 150.642C57.7971 150.676 58.3035 150.197 58.3356 149.574C58.4533 147.289 58.5139 144.956 58.5139 142.641C58.5139 136.256 58.0574 129.69 57.1551 123.124C57.0695 122.505 56.5275 122.074 55.9426 122.165Z" fill="#B91E73"/>
</svg>
