<svg width="94" height="233" viewBox="0 0 94 233" fill="none" xmlns="http://www.w3.org/2000/svg">
<path d="M56.3087 231.907C56.7139 231.776 56.9984 231.414 57.0674 231C57.0947 230.836 57.0875 230.663 57.0438 230.491C54.9976 223.03 52.4195 215.158 48.9302 205.726C48.7153 205.151 48.0966 204.872 47.5436 205.109C46.9942 205.346 46.7182 206.005 46.9325 206.584C50.3966 215.95 52.9558 223.761 54.9838 231.158C55.1445 231.755 55.7392 232.092 56.3087 231.907Z" fill="#B91E73"/>
<path d="M76.5225 8.7611C76.9505 8.64488 77.2545 8.27448 77.3265 7.84244C77.3513 7.69347 77.3486 7.53605 77.3124 7.38456C77.1747 6.77973 76.5949 6.41893 76.0192 6.57559C68.2583 8.71156 60.842 13.1405 53.9701 19.7465C53.5306 20.1708 53.4913 20.8839 53.8846 21.3437C54.2786 21.7999 54.9536 21.8282 55.3966 21.4044C61.9984 15.052 69.1067 10.8015 76.5225 8.7611Z" fill="#B91E73"/>
<path d="M41.6885 189.915C42.0405 189.756 42.2731 189.423 42.3346 189.055C42.3688 188.85 42.3501 188.636 42.2657 188.427L41.3382 186.075C40.2384 183.281 39.1404 180.499 38.0615 177.731C36.3119 173.24 34.6914 168.69 33.2506 164.212C33.0627 163.626 32.4518 163.321 31.8927 163.531C31.3336 163.74 31.0335 164.39 31.2214 164.977C32.68 169.499 34.3113 174.093 36.0793 178.626C37.161 181.397 38.2585 184.183 39.3617 186.978L40.2893 189.33C40.5154 189.904 41.1408 190.165 41.6885 189.915Z" fill="#B91E73"/>
<path d="M27.5371 147.78C27.965 147.663 28.269 147.293 28.341 146.861C28.3659 146.712 28.3597 146.554 28.3282 146.396C26.3317 137.725 24.9454 129.103 24.213 120.766C24.1576 120.145 23.6355 119.698 23.0453 119.768C22.4552 119.838 22.022 120.397 22.0775 121.019C22.8206 129.465 24.2212 138.197 26.2438 146.971C26.3816 147.575 26.9614 147.936 27.5371 147.78Z" fill="#B91E73"/>
<path d="M43.8288 35.4882C43.9253 35.3435 43.9836 35.1887 44.0103 35.0285C44.0799 34.6114 43.9218 34.1716 43.5735 33.9183C43.0935 33.5665 42.4241 33.6999 42.0811 34.2169C37.4315 41.2431 33.4116 49.1552 30.1301 57.734C29.9064 58.3168 30.17 58.9694 30.7182 59.1948C31.2663 59.4202 31.8896 59.1298 32.1133 58.547C35.3316 50.1299 39.275 42.3735 43.8288 35.4882Z" fill="#B91E73"/>
<path d="M22.5335 103.299C23.0706 103.308 23.53 102.895 23.6213 102.347C23.63 102.295 23.6358 102.239 23.6375 102.185C23.8246 95.663 24.4432 89.2202 25.4752 83.0302C25.849 80.7881 26.2857 78.5373 26.7671 76.3438C26.9019 75.7308 26.5427 75.1312 25.9678 75.0009C25.393 74.8706 24.8146 75.2603 24.6805 75.8696C24.1887 78.1035 23.7452 80.3952 23.3645 82.6783C22.3145 88.9764 21.6849 95.5282 21.4951 102.153C21.4777 102.778 21.9416 103.292 22.5335 103.299Z" fill="#B91E73"/>
</svg>
