<svg width="52" height="52" viewBox="0 0 52 52" fill="none" xmlns="http://www.w3.org/2000/svg">
<path d="M25.9982 52C11.6619 52 0 40.3381 0 26.0018C0 11.6619 11.6619 0 25.9982 0C40.3346 0 52 11.6619 52 26.0018C52 40.3381 40.3381 52 25.9982 52ZM25.9982 1.42261C12.4478 1.42261 1.42261 12.4478 1.42261 26.0018C1.42261 39.5521 12.4478 50.5774 25.9982 50.5774C39.5486 50.5774 50.5774 39.5521 50.5774 26.0018C50.5774 12.4478 39.5521 1.42261 25.9982 1.42261Z" fill="#2D2D82"/>
<path d="M21.3338 34.225H25.7288V21.58C25.7288 21.09 25.7438 20.575 25.7738 20.035L22.6538 22.645C22.5238 22.755 22.3888 22.83 22.2488 22.87C22.1188 22.91 21.9888 22.93 21.8588 22.93C21.6588 22.93 21.4738 22.89 21.3038 22.81C21.1438 22.72 21.0238 22.62 20.9438 22.51L19.7738 20.905L26.3888 15.28H29.4338V34.225H33.3338V37H21.3338V34.225Z" fill="#2D2D82"/>
</svg>
