<svg width="52" height="52" viewBox="0 0 52 52" fill="none" xmlns="http://www.w3.org/2000/svg">
<path d="M25.9982 52C11.6619 52 0 40.3381 0 26.0018C0 11.6619 11.6619 0 25.9982 0C40.3346 0 52 11.6619 52 26.0018C52 40.3381 40.3381 52 25.9982 52ZM25.9982 1.42261C12.4478 1.42261 1.42261 12.4478 1.42261 26.0018C1.42261 39.5521 12.4478 50.5774 25.9982 50.5774C39.5486 50.5774 50.5774 39.5521 50.5774 26.0018C50.5774 12.4478 39.5521 1.42261 25.9982 1.42261Z" fill="#2D2D82"/>
<path d="M26.3288 15.07C27.3288 15.07 28.2438 15.22 29.0738 15.52C29.9038 15.81 30.6138 16.225 31.2038 16.765C31.7938 17.305 32.2538 17.955 32.5838 18.715C32.9138 19.475 33.0788 20.32 33.0788 21.25C33.0788 22.05 32.9588 22.79 32.7188 23.47C32.4888 24.15 32.1738 24.8 31.7738 25.42C31.3838 26.04 30.9238 26.64 30.3938 27.22C29.8638 27.8 29.3088 28.39 28.7288 28.99L23.8388 33.985C24.3188 33.845 24.7888 33.74 25.2488 33.67C25.7088 33.59 26.1488 33.55 26.5688 33.55H32.1338C32.5338 33.55 32.8488 33.665 33.0788 33.895C33.3188 34.115 33.4388 34.41 33.4388 34.78V37H18.5588V35.77C18.5588 35.52 18.6088 35.26 18.7088 34.99C18.8188 34.72 18.9888 34.47 19.2188 34.24L25.8038 27.64C26.3538 27.08 26.8438 26.545 27.2738 26.035C27.7138 25.525 28.0788 25.02 28.3688 24.52C28.6688 24.02 28.8938 23.515 29.0438 23.005C29.2038 22.485 29.2838 21.94 29.2838 21.37C29.2838 20.85 29.2088 20.395 29.0588 20.005C28.9088 19.605 28.6938 19.27 28.4138 19C28.1338 18.73 27.7988 18.53 27.4088 18.4C27.0288 18.26 26.5988 18.19 26.1188 18.19C25.2288 18.19 24.4938 18.415 23.9138 18.865C23.3438 19.315 22.9438 19.92 22.7138 20.68C22.6038 21.06 22.4388 21.335 22.2188 21.505C21.9988 21.665 21.7188 21.745 21.3788 21.745C21.2288 21.745 21.0638 21.73 20.8838 21.7L18.9338 21.355C19.0838 20.315 19.3738 19.405 19.8038 18.625C20.2338 17.835 20.7688 17.18 21.4088 16.66C22.0588 16.13 22.7988 15.735 23.6288 15.475C24.4688 15.205 25.3688 15.07 26.3288 15.07Z" fill="#2D2D82"/>
</svg>
