<svg width="196" height="31" viewBox="0 0 196 31" fill="none" xmlns="http://www.w3.org/2000/svg">
<g clip-path="url(#clip0_499_55)">
<path d="M70.5468 0C61.8754 0 54.8599 6.93194 54.8599 15.5C54.8599 24.0681 61.8754 31 70.5468 31C79.2183 31 86.2338 24.0681 86.2338 15.5C86.2338 6.93194 79.2183 0 70.5468 0ZM67.0173 22.2597H63.967V12.6153H67.0173V22.2597ZM65.4921 11.2806C64.5335 11.2806 63.7491 10.5056 63.7491 9.55833C63.7491 8.61111 64.5335 7.83611 65.4921 7.83611C66.4508 7.83611 67.2351 8.61111 67.2351 9.55833C67.2351 10.5056 66.4508 11.2806 65.4921 11.2806ZM78.3903 22.2597H75.3401V17.5667C75.3401 16.4472 75.2965 15.0264 73.7714 15.0264C72.2027 15.0264 71.9412 16.2319 71.9412 17.4806V22.2597H68.891V12.6153H71.8105V13.95H71.8541C72.2463 13.175 73.2485 12.4 74.73 12.4C77.7803 12.4 78.3467 14.3806 78.3467 17.0069V22.2597H78.3903Z" fill="white"/>
<path d="M125.407 12.2273C123.577 12.2273 122.095 13.6912 122.095 15.4995C122.095 17.3079 123.577 18.7717 125.407 18.7717C127.237 18.7717 128.719 17.3079 128.719 15.4995C128.719 13.6912 127.237 12.2273 125.407 12.2273Z" fill="white"/>
<path d="M133.12 9.73132C132.946 9.30077 132.728 8.95632 132.38 8.61188C132.031 8.26743 131.726 8.05215 131.247 7.87993C130.898 7.75077 130.375 7.57854 129.416 7.53549C128.371 7.49243 128.066 7.49243 125.408 7.49243C122.749 7.49243 122.444 7.49243 121.399 7.53549C120.44 7.57854 119.917 7.75077 119.569 7.87993C119.133 8.05215 118.828 8.26743 118.479 8.61188C118.131 8.95632 117.913 9.25771 117.738 9.73132C117.608 10.0758 117.433 10.5924 117.39 11.5397C117.346 12.573 117.346 12.8744 117.346 15.5008C117.346 18.1272 117.346 18.4285 117.39 19.4619C117.433 20.4091 117.608 20.9258 117.738 21.2702C117.913 21.7438 118.131 22.0452 118.479 22.3897C118.828 22.7341 119.133 22.9494 119.612 23.1216C119.961 23.2508 120.484 23.423 121.442 23.466C122.488 23.5091 122.793 23.5091 125.451 23.5091C128.109 23.5091 128.414 23.5091 129.46 23.466C130.419 23.423 130.942 23.2508 131.29 23.1216C131.77 22.9494 132.075 22.7341 132.423 22.3897C132.772 22.0452 132.99 21.7438 133.164 21.2702C133.295 20.9258 133.469 20.4091 133.513 19.4619C133.556 18.4285 133.556 18.1272 133.556 15.5008C133.556 12.8744 133.556 12.573 133.513 11.5397C133.425 10.5924 133.251 10.0758 133.12 9.73132ZM125.408 20.4952C122.619 20.4952 120.353 18.2563 120.353 15.5008C120.353 12.7452 122.619 10.5063 125.408 10.5063C128.196 10.5063 130.462 12.7452 130.462 15.5008C130.462 18.2563 128.24 20.4952 125.408 20.4952ZM130.68 11.4535C130.027 11.4535 129.504 10.9369 129.504 10.291C129.504 9.64521 130.027 9.12854 130.68 9.12854C131.334 9.12854 131.857 9.64521 131.857 10.291C131.9 10.9369 131.334 11.4535 130.68 11.4535Z" fill="white"/>
<path d="M125.408 0C116.736 0 109.721 6.93194 109.721 15.5C109.721 24.0681 116.736 31 125.408 31C134.079 31 141.095 24.0681 141.095 15.5C141.095 6.93194 134.079 0 125.408 0ZM135.256 19.5042C135.212 20.5375 135.038 21.2694 134.776 21.8722C134.515 22.5181 134.166 23.0778 133.643 23.5944C133.077 24.1542 132.554 24.4556 131.9 24.7139C131.29 24.9722 130.55 25.1014 129.504 25.1875C128.458 25.2306 128.109 25.2306 125.451 25.2306C122.793 25.2306 122.445 25.2306 121.399 25.1875C120.353 25.1444 119.612 24.9722 119.002 24.7139C118.349 24.4556 117.782 24.1111 117.259 23.5944C116.693 23.0347 116.388 22.5181 116.126 21.8722C115.865 21.2694 115.734 20.5375 115.647 19.5042C115.603 18.4708 115.603 18.1264 115.603 15.5C115.603 12.8736 115.603 12.5292 115.647 11.4958C115.69 10.4625 115.865 9.73056 116.126 9.12778C116.388 8.48194 116.736 7.92222 117.259 7.40556C117.782 6.88889 118.349 6.54445 119.002 6.28611C119.612 6.02778 120.353 5.89861 121.399 5.8125C122.445 5.76944 122.793 5.76944 125.451 5.76944C128.109 5.76944 128.458 5.76944 129.504 5.8125C130.55 5.85556 131.29 6.02778 131.9 6.28611C132.554 6.54445 133.12 6.88889 133.643 7.40556C134.166 7.92222 134.515 8.48194 134.776 9.12778C135.038 9.73056 135.168 10.4625 135.256 11.4958C135.299 12.5292 135.299 12.8736 135.299 15.5C135.299 18.1264 135.299 18.4708 135.256 19.5042Z" fill="white"/>
<path d="M15.687 0.0863037C7.01556 0.0863037 0 7.01825 0 15.5863C0 23.3363 5.75189 29.7516 13.2468 30.9141V20.0641H9.23788V15.5863H13.2032V12.1849C13.2032 8.30992 15.5562 6.15714 19.1294 6.15714C20.8724 6.15714 22.659 6.45853 22.659 6.45853V10.2905H20.6981C18.7372 10.2905 18.1272 11.496 18.1272 12.7016V15.6294H22.4847L21.7875 20.0641H18.1272V30.9141C25.6221 29.7516 31.3739 23.3363 31.3739 15.5863C31.3739 7.01825 24.3584 0.0863037 15.687 0.0863037Z" fill="white"/>
<path d="M180.314 0C171.643 0 164.627 6.93194 164.627 15.5C164.627 24.0681 171.643 31 180.314 31C188.985 31 196.001 24.0681 196.001 15.5C196.001 6.93194 188.985 0 180.314 0ZM189.029 10.2042C189.029 10.2472 189.029 10.3333 188.942 10.4625C188.55 10.9792 188.114 11.4528 187.591 11.8833C187.504 11.9264 187.373 12.0125 187.373 12.0986C187.373 14.8972 186.632 17.6958 184.584 19.6764C181.97 22.2597 178.048 22.9486 174.518 22.0014C173.821 21.8292 173.211 21.5708 172.558 21.2264C172.34 21.0972 172.165 21.0111 171.948 20.8819C171.904 20.8389 171.86 20.7958 171.904 20.7958C171.948 20.7958 171.991 20.7528 172.122 20.7958C173.08 20.8819 174.083 20.7528 175.041 20.4083C175.564 20.2361 176.654 19.8917 176.959 19.4181C176.959 19.4181 176.959 19.4181 177.002 19.375C176.915 19.375 176.784 19.375 176.654 19.375C175.695 19.1167 174.431 18.6431 173.865 17.05C173.821 16.9639 173.865 16.9208 173.952 16.9208C174.736 16.9639 174.998 16.9208 175.303 16.8778C175.129 16.8347 174.998 16.7917 174.867 16.7486C173.691 16.3181 172.819 15.1556 172.645 13.9069C172.645 13.7778 172.601 13.6486 172.601 13.5194C172.601 13.4333 172.645 13.3903 172.732 13.4333C173.342 13.7347 174.039 13.8208 174.083 13.8208C173.908 13.6917 173.778 13.5625 173.647 13.4333C172.601 12.4431 172.209 10.5056 173.037 9.25695C173.124 9.17083 173.168 9.17083 173.211 9.25695C175.085 11.4097 177.438 12.4 180.27 12.7875C180.357 12.7875 180.357 12.7875 180.357 12.7014C180.27 12.2278 180.27 11.7111 180.401 11.2375C180.532 10.7208 180.75 10.2472 181.098 9.85972C181.403 9.47222 181.795 9.17083 182.275 8.9125C182.711 8.69722 183.233 8.525 183.713 8.525C184.236 8.48195 184.759 8.56806 185.238 8.78333C185.586 8.9125 185.935 9.12778 186.24 9.38611C186.284 9.42917 186.371 9.51528 186.414 9.55833C186.458 9.60139 186.502 9.60139 186.545 9.60139C187.286 9.42917 187.94 9.17083 188.593 8.82639C188.637 8.82639 188.637 8.78333 188.68 8.82639C188.724 8.86944 188.68 8.86944 188.68 8.9125C188.55 9.3 188.375 9.64444 188.114 9.94583C187.94 10.1611 187.547 10.6347 187.242 10.6778C187.809 10.5917 188.419 10.4194 188.985 10.2042C189.029 10.1611 189.029 10.1611 189.029 10.2042Z" fill="white"/>
</g>
<defs>
<clipPath id="clip0_499_55">
<rect width="196" height="31" fill="white"/>
</clipPath>
</defs>
</svg>
