<svg width="202" height="175" viewBox="0 0 202 175" fill="none" xmlns="http://www.w3.org/2000/svg">
<rect width="202" height="175" rx="20" fill="#EEEEF7"/>
<path d="M172 149.422L163.051 145.845V148.298H34.7044V33.9439H37.1588L33.5794 25L30 33.9439H32.4544V148.298V149.422V150.521H163.051V153L172 149.422Z" fill="#2D2D82"/>
<path d="M45.7492 131.228C48.7406 131.228 51.1695 128.801 51.1695 125.811C51.1695 124.022 50.2746 122.438 48.9451 121.441L64.4644 88.63C64.899 88.7322 65.3337 88.8088 65.8195 88.8088C67.916 88.8088 69.7057 87.6078 70.6261 85.8701L103.045 95.4529C103.02 95.6318 102.994 95.7851 102.994 95.9895C102.994 98.9793 105.423 101.407 108.414 101.407C111.406 101.407 113.835 98.9793 113.835 95.9895C113.835 94.0985 112.863 92.4375 111.38 91.4664L130.734 44.2171C131.067 44.2938 131.45 44.3193 131.808 44.3193C134.8 44.3193 137.229 41.8917 137.229 38.9019C137.229 35.912 134.8 33.4844 131.808 33.4844C128.817 33.4844 126.388 35.912 126.388 38.9019C126.388 40.7929 127.36 42.4539 128.842 43.4249L109.463 90.6743C109.13 90.5976 108.747 90.5721 108.389 90.5721C106.292 90.5721 104.503 91.7731 103.582 93.5108L71.163 83.928C71.1886 83.7491 71.2141 83.5958 71.2141 83.3914C71.2141 80.4016 68.7852 77.9739 65.7939 77.9739C62.8025 77.9739 60.3737 80.4016 60.3737 83.3914C60.3737 85.1802 61.2685 86.7645 62.6236 87.7611L47.1043 120.572C46.6697 120.47 46.235 120.394 45.7748 120.394C42.7834 120.394 40.3546 122.821 40.3546 125.811C40.329 128.801 42.7579 131.228 45.7492 131.228ZM128.408 38.9019C128.408 37.0364 129.916 35.5287 131.783 35.5287C133.649 35.5287 135.158 37.0364 135.158 38.9019C135.158 40.7673 133.649 42.275 131.783 42.275C129.942 42.275 128.408 40.7673 128.408 38.9019ZM105.014 95.9895C105.014 94.1241 106.522 92.6164 108.389 92.6164C110.255 92.6164 111.764 94.1241 111.764 95.9895C111.764 97.8549 110.255 99.3626 108.389 99.3626C106.522 99.3626 105.014 97.8294 105.014 95.9895ZM62.419 83.3914C62.419 81.5259 63.9275 80.0183 65.7939 80.0183C67.6603 80.0183 69.1688 81.5259 69.1688 83.3914C69.1688 85.2568 67.6603 86.7645 65.7939 86.7645C63.9531 86.7645 62.419 85.2568 62.419 83.3914ZM45.7492 122.412C47.6156 122.412 49.1241 123.92 49.1241 125.785C49.1241 127.651 47.6156 129.159 45.7492 129.159C43.8828 129.159 42.3744 127.651 42.3744 125.785C42.3744 123.946 43.9084 122.412 45.7492 122.412Z" fill="#B91E73"/>
<path d="M45.7494 144.695C48.7408 144.695 51.1696 142.267 51.1696 139.277C51.1696 138.127 50.8117 137.054 50.1725 136.185L78.0152 107.539C78.8844 108.101 79.8816 108.434 80.981 108.434C82.2849 108.434 83.461 107.948 84.407 107.181L103.633 123.204C103.199 123.97 102.943 124.865 102.943 125.81C102.943 128.8 105.372 131.228 108.363 131.228C111.355 131.228 113.784 128.8 113.784 125.81C113.784 124.609 113.375 123.51 112.71 122.591L128.919 104.984C129.738 105.495 130.709 105.802 131.757 105.802C134.749 105.802 137.178 103.374 137.178 100.384C137.178 97.3943 134.749 94.9667 131.757 94.9667C128.766 94.9667 126.337 97.3943 126.337 100.384C126.337 101.585 126.746 102.684 127.411 103.604L111.201 121.211C110.358 120.7 109.412 120.393 108.363 120.393C107.059 120.393 105.883 120.878 104.937 121.645L85.7109 105.623C86.1455 104.856 86.4012 103.962 86.4012 103.016C86.4012 100.026 83.9723 97.5987 80.981 97.5987C77.9896 97.5987 75.5607 100.026 75.5607 103.016C75.5607 104.166 75.9442 105.239 76.5578 106.108L48.7408 134.754C47.897 134.192 46.8744 133.86 45.775 133.86C42.7836 133.86 40.3547 136.287 40.3547 139.277C40.3547 142.267 42.758 144.695 45.7494 144.695Z" fill="#2D2D82"/>
<path d="M81.6672 46.322H88.1528C89.0759 46.322 89.8199 47.0731 89.8199 47.996C89.8199 48.9228 89.0719 49.6699 88.1528 49.6699H81.6672C80.748 49.6739 80 48.9228 80 48C80 47.5365 80.187 47.1171 80.4894 46.8134C80.7918 46.5098 81.2096 46.322 81.6672 46.322Z" fill="#B91E73"/>
<path d="M105.895 47.972C105.903 48.4475 105.716 48.8749 105.405 49.1865C105.103 49.4902 104.685 49.6779 104.224 49.6779H97.738C96.8149 49.6779 96.0708 48.9269 96.0708 48.004C96.0708 47.0772 96.8188 46.3301 97.738 46.3301H104.184C105.103 46.3221 105.879 47.0492 105.895 47.972Z" fill="#B91E73"/>
<path d="M94.6144 36.6739V43.1859C94.6144 44.1128 93.8664 44.8638 92.9473 44.8638C92.0242 44.8638 91.2761 44.1128 91.2761 43.1859V36.6739C91.2761 35.7471 92.0242 35 92.9433 35C93.4048 35 93.8226 35.1878 94.125 35.4914C94.4274 35.795 94.6144 36.2105 94.6144 36.6739Z" fill="#B91E73"/>
<path d="M92.9473 51.136C93.8704 51.136 94.6144 51.8871 94.6144 52.814V59.3259C94.6144 60.2528 93.8664 60.9999 92.9433 60.9999C92.4817 60.9999 92.0639 60.8121 91.7655 60.5085C91.4631 60.2048 91.2761 59.7854 91.2761 59.3219V52.81C91.2761 51.8831 92.0242 51.136 92.9473 51.136Z" fill="#B91E73"/>
</svg>
