<svg width="202" height="175" viewBox="0 0 202 175" fill="none" xmlns="http://www.w3.org/2000/svg">
<rect width="202" height="175" rx="20" fill="#EEEEF7"/>
<g clip-path="url(#clip0_1_1320)">
<path d="M98.1293 171.491L103.016 130.582C103.172 130.444 103.284 130.245 103.301 130.02C103.336 129.666 103.155 129.329 102.844 129.164L75.4118 114.713C69.5834 111.644 65.7497 106.052 65.1539 99.7425L64.2818 90.4769C64.3077 90.4769 64.325 90.4855 64.3423 90.4855C64.4027 90.4855 64.4631 90.4769 64.515 90.4683L67.3125 89.7854C69.4798 89.2582 70.9132 87.2702 70.6368 85.1613C70.3087 82.672 69.0826 79.5172 65.1194 78.601C64.7135 78.5059 64.3164 78.7565 64.2214 79.1628C64.1264 79.569 64.3768 79.9666 64.7826 80.0617C67.2953 80.6408 68.7718 82.4213 69.1517 85.36C69.3244 86.7084 68.3832 87.9876 66.9585 88.342L64.1609 89.0248C64.1523 89.0248 64.1437 89.0335 64.135 89.0335L63.1766 78.9121C63.0039 77.0797 64.3423 75.3424 66.285 74.8671C70.8873 73.7434 75.5499 75.9993 77.1041 80.0358L78.1662 83.8215C79.3146 87.9098 81.5682 91.661 84.6939 94.6689C87.5692 97.4434 91.5152 98.7831 95.5303 98.3423L97.5162 98.1262C104.7 96.8125 109.276 89.094 109.035 82.6979C108.663 72.7581 102.766 64.521 92.914 60.1215L86.3949 56.5951C81.62 54.0107 79.6859 48.3839 81.8877 43.5004C82.3885 42.3854 83.3901 41.5297 84.6162 41.1494C85.8682 40.7691 87.1979 40.9247 88.2859 41.5989C88.3118 41.6162 91.2562 43.3276 95.1849 45.4452C95.3317 45.523 95.4957 45.5489 95.6598 45.5402C99.0186 47.485 108.318 52.6364 114.051 53.6304C119.733 55.5492 124.016 59.7412 125.812 65.1606L129.084 74.9967C129.188 75.3165 129.481 75.5153 129.801 75.5153C129.879 75.5153 129.965 75.5067 130.043 75.4721C130.44 75.3424 130.656 74.9103 130.517 74.5127L127.245 64.6766C125.285 58.7905 120.631 54.2354 114.474 52.1697L114.362 52.1437C108.862 51.2103 99.4417 45.9724 96.2728 44.14C94.4855 41.3655 94.0451 38.2021 95.0899 35.4448C95.418 34.5719 96.1088 33.9323 97.0413 33.6297C98.2156 33.2494 99.5799 33.4742 100.728 34.2348C100.78 34.2694 106.41 37.8045 112.471 41.2272C112.601 41.305 112.756 41.3309 112.903 41.3309C119.198 44.8661 123.662 46.975 126.14 47.5887C131.51 49.7495 135.767 53.9329 137.831 59.0843C137.952 59.3782 138.228 59.5511 138.522 59.5511C138.617 59.5511 138.712 59.5338 138.798 59.4992C139.178 59.3436 139.368 58.9115 139.212 58.5312C136.993 52.9908 132.408 48.4876 126.641 46.1885L126.537 46.1539C124.24 45.6007 119.793 43.4918 113.671 40.0517C112.92 37.9428 113.05 35.7301 114.034 33.9495C114.371 33.3359 114.958 32.9296 115.675 32.8086C116.037 32.7481 116.417 32.7827 116.797 32.8691C116.694 32.921 116.59 32.9988 116.521 33.1025C115.502 34.6064 115.657 36.3351 116.953 37.9514C117.462 38.591 118.256 38.9454 119.077 38.9454C119.534 38.9454 120.001 38.833 120.432 38.5997L121.771 37.8736C122.133 37.6748 122.263 37.2254 122.073 36.8623C121.874 36.4993 121.425 36.361 121.063 36.5598L119.716 37.2859C119.172 37.5797 118.472 37.4674 118.118 37.0179C116.797 35.3584 117.522 34.2866 117.756 33.9323C117.885 33.7421 117.902 33.5174 117.851 33.3186C117.997 33.4137 118.144 33.5087 118.274 33.6211C118.818 34.0792 131.519 44.8661 136.415 46.8281C140.249 49.0322 143.003 52.6796 143.979 56.8457C143.996 56.9235 144.031 57.0013 144.065 57.0704C149.427 66.6559 152.018 77.9095 154.522 88.7828C154.772 89.8632 155.022 90.9436 155.273 92.0154C156.939 99.1548 158.433 106.7 159.702 114.445C160.479 119.19 161.205 124.134 161.844 129.147C163.648 143.288 165.732 161.136 166.5 175H97.7756L98.1293 171.491Z" fill="white"/>
<path d="M80.8861 48.0037C77.3977 42.8004 71.4744 39.3776 64.7481 39.3776C54.024 39.3776 45.329 48.0814 45.329 58.8165C45.329 68.7995 52.8497 77.0279 62.5376 78.1256C63.1766 75.6191 65.1625 73.5101 68.5127 73.5101C70.9045 73.5101 72.5969 74.5905 73.6071 76.1204C79.8758 72.8964 84.1758 66.3621 84.1758 58.8165C84.1758 57.2952 83.9945 55.8172 83.6664 54.3997C81.5164 53.06 80.5925 50.4497 80.8861 48.0037Z" fill="white"/>
<path d="M62.9866 77.9096C53.1518 77.0625 45.4066 68.7909 45.4066 58.73C45.398 48.116 54.0325 39.4727 64.6444 39.4727C71.3362 39.4727 77.2336 42.9128 80.6788 48.116C80.6529 47.4246 80.6788 46.7331 80.7478 46.0503C76.9832 41.2792 71.1721 38.1935 64.6358 38.1935C53.3159 38.1935 44.1115 47.4073 44.1115 58.7387C44.1115 69.3959 52.2538 78.1775 62.6412 79.1802C62.7275 78.748 62.8398 78.3245 62.9866 77.9096Z" fill="#2D2D82" stroke="#2D2D82" stroke-miterlimit="10"/>
<path d="M85.1083 57.6409C84.5988 57.226 84.1326 56.7852 83.7095 56.2926C83.8131 57.0964 83.8822 57.9002 83.8822 58.73C83.8822 65.7051 80.1434 71.8073 74.5828 75.1869C74.8936 75.4894 75.1785 75.8178 75.4203 76.1722C81.2573 72.542 85.1601 66.0941 85.1601 58.7213C85.1601 58.367 85.1256 58.0039 85.1083 57.6409Z" fill="#2D2D82" stroke="#2D2D82" stroke-miterlimit="10"/>
<path d="M66.6649 70.0268H62.4771V66.5263C60.6898 66.1373 59.0233 65.3854 57.7368 64.3827L57.4 64.1234L59.5069 59.8536L60.0163 60.2858C61.3633 61.4267 63.7032 62.3948 65.1279 62.3948C65.5769 62.3948 66.1123 62.317 66.1123 61.928C66.1123 61.4527 64.9639 61.1588 63.8587 60.8649C61.5878 60.2772 58.4793 59.4733 58.4793 55.9555C58.4793 53.6304 59.9645 51.8499 62.4858 51.1412V47.7271H66.6735V50.9337C68.435 51.1585 70.1533 51.7548 71.4484 52.5932L71.8284 52.8439L69.7906 57.0964L69.3071 56.8198C67.7701 55.9469 65.7496 55.2554 64.7049 55.2554C64.4458 55.2554 64.0141 55.29 64.0141 55.532C64.0141 55.9728 65.1279 56.2839 66.2073 56.5778C68.5041 57.2088 71.6557 58.0731 71.6557 61.6947C71.6557 64.3655 69.8079 66.2065 66.6908 66.6819V70.0268H66.6649ZM63.5219 68.9896H65.6374V65.7657L66.1037 65.7138C67.4593 65.5755 70.6109 64.8927 70.6109 61.6947C70.6109 58.8683 68.1241 58.1855 65.931 57.5804C64.4113 57.1656 62.9779 56.768 62.9779 55.532C62.9779 54.901 63.4269 54.2182 64.7049 54.2182C65.9655 54.2182 67.891 54.901 69.333 55.653L70.49 53.2242C69.2639 52.5241 67.701 52.0574 66.1037 51.9104L65.6287 51.8672V48.7556H63.5133V51.9536L63.1075 52.0487C60.8193 52.5673 59.5069 53.9935 59.5069 55.9469C59.5069 58.6609 61.9504 59.2918 64.1091 59.8536C65.6633 60.2599 67.1398 60.6402 67.1398 61.9194C67.1398 62.2738 66.993 63.4233 65.1193 63.4233C63.6083 63.4233 61.4151 62.5936 59.8609 61.4699L58.7038 63.8123C59.9127 64.668 61.4583 65.2903 63.0816 65.5928L63.5047 65.6706V68.9896H63.5219Z" fill="#2D2D82" stroke="#2D2D82" stroke-width="0.75" stroke-miterlimit="10"/>
<path d="M96.031 174.481H97.7665L103.016 130.582C103.172 130.444 103.284 130.245 103.301 130.02C103.336 129.666 103.155 129.329 102.844 129.164L75.4117 114.713C69.5834 111.644 65.7496 106.052 65.1538 99.7426L63.1852 78.9035C63.0125 77.0711 64.3508 75.3338 66.2936 74.8584C70.8958 73.7348 75.5585 75.9907 77.1127 80.0271L78.1747 83.8129C79.3231 87.9012 81.5768 91.6524 84.7025 94.6603C87.5778 97.4348 91.5238 98.7745 95.5388 98.3337L97.5248 98.1176C104.709 96.8038 109.285 89.0853 109.043 82.6893C108.672 72.7495 102.775 64.5124 92.9226 60.1129L86.4035 56.5864C81.6286 54.0021 79.6944 48.3753 81.8962 43.4918C82.397 42.3768 83.3987 41.5211 84.6248 41.1408C85.8768 40.7605 87.2065 40.9161 88.2944 41.5903C88.3203 41.6075 91.2647 43.3189 95.1934 45.4365C95.5388 45.6267 95.9706 45.5489 96.2382 45.2637C96.5059 44.9698 96.5404 44.5376 96.3246 44.2092C94.494 41.4174 94.0537 38.2194 95.0985 35.4449C95.4266 34.5719 96.1173 33.9323 97.0499 33.6298C98.2242 33.2495 99.5884 33.4742 100.737 34.2348C100.789 34.2694 106.418 37.8045 112.48 41.2272C112.799 41.4088 113.188 41.3655 113.464 41.1322C113.74 40.8988 113.835 40.5098 113.715 40.1728C112.92 38.0292 113.032 35.7647 114.034 33.9496C114.371 33.3359 114.958 32.9297 115.675 32.8086C116.555 32.6531 117.522 32.9556 118.274 33.6298C118.818 34.0879 131.519 44.8747 136.415 46.8368C140.249 49.0408 143.003 52.6883 143.979 56.8544C143.996 56.9322 144.03 57.01 144.065 57.0791C149.427 66.6645 152.017 77.9182 154.521 88.7915C154.772 89.8719 155.022 90.9523 155.273 92.0241C156.939 99.1635 158.433 106.709 159.702 114.453C160.479 119.199 161.205 124.143 161.844 129.156C163.786 144.316 164.943 159.693 165.712 174.473H167.439C166.662 159.624 165.505 144.178 163.553 128.94C162.906 123.909 162.189 118.939 161.403 114.177C160.125 106.398 158.623 98.8091 156.948 91.6351C156.697 90.5633 156.447 89.4829 156.197 88.4025C153.675 77.4428 151.068 66.1114 145.619 56.3358C144.505 51.7375 141.44 47.727 137.209 45.3069C137.175 45.2896 137.131 45.2637 137.097 45.255C132.512 43.4659 119.508 32.4283 119.396 32.3333C118.256 31.3133 116.797 30.8725 115.372 31.1146C114.138 31.322 113.102 32.0567 112.514 33.1198C111.59 34.788 111.271 36.7586 111.556 38.7293C106.246 35.6696 101.695 32.8173 101.661 32.7914C100.098 31.7542 98.1724 31.4516 96.5059 31.9875C95.0639 32.4543 93.9846 33.4655 93.4665 34.8398C92.534 37.3032 92.5858 40.0172 93.5529 42.5929C90.9366 41.1495 89.1665 40.1209 89.1665 40.1209C87.6728 39.1961 85.825 38.9713 84.0981 39.4986C82.3884 40.0172 81.0069 41.2186 80.2988 42.7917C77.7171 48.5136 79.9794 55.0998 85.5573 58.1163L92.1368 61.6687C101.428 65.8175 106.954 73.5101 107.299 82.7584C107.515 88.4284 103.5 95.2739 97.2571 96.4149L95.3316 96.6223C91.8346 97.0026 88.3894 95.8358 85.8768 93.4243C82.9756 90.6325 80.8774 87.1492 79.8153 83.3548L78.7274 79.4912C76.845 74.5732 71.3189 71.8592 65.8619 73.1816C63.0902 73.8558 61.1906 76.3883 61.4496 79.0677L63.4183 99.9068C64.0659 106.796 68.245 112.906 74.5828 116.243L101.289 130.305L96.031 174.481Z" fill="#2D2D82" stroke="#2D2D82" stroke-width="1.2" stroke-miterlimit="10"/>
<path d="M89.9782 49.5508C89.1838 49.5508 88.3895 49.3088 87.7419 48.8248C85.3587 47.0442 84.5125 44.7624 85.3587 42.3855C85.4969 41.9965 85.9286 41.7977 86.3085 41.936C86.6971 42.0743 86.8957 42.4979 86.7575 42.8868C86.1358 44.6328 86.7662 46.2318 88.6312 47.6234C89.4774 48.2543 90.7726 48.1765 91.5842 47.4505L93.268 45.9379C93.5702 45.6613 94.0451 45.6872 94.3214 45.9898C94.5977 46.2923 94.5718 46.7677 94.2696 47.0442L92.5858 48.5568C91.8519 49.2224 90.9107 49.5508 89.9782 49.5508Z" fill="#2D2D82" stroke="#2D2D82" stroke-width="1.2" stroke-miterlimit="10"/>
<path d="M103.18 42.0138C102.386 42.0138 101.592 41.7718 100.944 41.2878C98.5609 39.5072 97.7147 37.2254 98.5609 34.8485C98.699 34.4595 99.1308 34.2607 99.5107 34.399C99.8992 34.5373 100.098 34.9608 99.9597 35.3498C99.338 37.0957 99.9683 38.6948 101.833 40.0863C102.68 40.7173 103.975 40.6395 104.786 39.9135L106.47 38.4009C106.772 38.1243 107.247 38.1502 107.524 38.4527C107.8 38.7553 107.774 39.2306 107.472 39.5072L105.788 41.0198C105.063 41.6853 104.122 42.0138 103.18 42.0138Z" fill="#2D2D82" stroke="#2D2D82" stroke-width="1.2" stroke-miterlimit="10"/>
<path d="M119.077 38.954C118.265 38.954 117.471 38.6083 116.953 37.96C115.657 36.3351 115.511 34.6151 116.521 33.1111C116.754 32.7654 117.212 32.679 117.557 32.9123C117.894 33.1457 117.989 33.6038 117.756 33.9495C117.514 34.3039 116.788 35.3757 118.118 37.0352C118.472 37.476 119.172 37.597 119.716 37.3032L121.063 36.5771C121.425 36.3783 121.874 36.5166 122.073 36.8796C122.271 37.2426 122.133 37.6921 121.771 37.8909L120.432 38.6083C120.001 38.8417 119.534 38.954 119.077 38.954Z" fill="#2D2D82" stroke="#2D2D82" stroke-width="1.2" stroke-miterlimit="10"/>
<path d="M138.53 59.5598C138.237 59.5598 137.952 59.3869 137.84 59.093C135.776 53.9416 131.519 49.7582 126.148 47.5974C123.601 46.9665 118.982 44.771 112.419 41.0631C112.057 40.8643 111.936 40.4062 112.134 40.0431C112.333 39.6888 112.791 39.5591 113.153 39.7579C119.552 43.3708 124.188 45.5835 126.554 46.154L126.658 46.1886C132.426 48.4877 137.002 52.9908 139.23 58.5312C139.385 58.9115 139.195 59.3523 138.815 59.4993C138.72 59.5425 138.625 59.5598 138.53 59.5598Z" fill="#2D2D82" stroke="#2D2D82" stroke-width="1.2" stroke-miterlimit="10"/>
<path d="M129.809 75.5067C129.49 75.5067 129.196 75.3079 129.093 74.9881L125.82 65.152C124.024 59.7412 119.733 55.5406 114.06 53.6218C107.109 52.4204 94.9344 45.1081 94.4163 44.7969C94.0537 44.5809 93.9414 44.1141 94.1573 43.7597C94.3732 43.3967 94.8394 43.2844 95.1934 43.5004C95.3143 43.5782 107.705 51.0115 114.362 52.1351L114.474 52.1611C120.639 54.2182 125.293 58.7818 127.254 64.6679L130.526 74.504C130.656 74.9016 130.44 75.3338 130.051 75.4635C129.973 75.498 129.896 75.5067 129.809 75.5067Z" fill="#2D2D82" stroke="#2D2D82" stroke-width="1.2" stroke-miterlimit="10"/>
<path d="M64.3422 90.4856C64.0055 90.4856 63.7033 90.2609 63.6169 89.9152C63.5219 89.5176 63.7637 89.1113 64.1695 89.0162L66.9671 88.3334C68.4005 87.9877 69.3416 86.7085 69.1603 85.3515C68.7717 82.4127 67.3039 80.6322 64.7912 80.0531C64.394 79.958 64.1436 79.5605 64.23 79.1542C64.325 78.748 64.7135 78.4973 65.128 78.5924C69.0912 79.5086 70.3173 82.6634 70.6454 85.1527C70.9217 87.2617 69.497 89.2496 67.3211 89.7769L64.5235 90.4683C64.4631 90.477 64.4027 90.4856 64.3422 90.4856Z" fill="#2D2D82" stroke="#2D2D82" stroke-width="1.2" stroke-miterlimit="10"/>
<path d="M56.9856 17.7001C55.2069 18.0285 53.4282 18.4866 51.7099 19.0484C51.2091 19.2127 50.9414 19.7486 51.1055 20.2499C51.235 20.6388 51.5976 20.9068 52.0035 20.9068C52.1071 20.9068 52.2021 20.8895 52.297 20.8635C53.9376 20.3277 55.63 19.8955 57.331 19.5757C57.5814 19.5325 57.7972 19.3855 57.944 19.1781C58.0908 18.9707 58.1426 18.72 58.0908 18.4693C57.9958 17.9507 57.495 17.605 56.9856 17.7001Z" fill="#B91E73"/>
<path d="M29.7263 77.7021C29.6054 77.4774 29.4068 77.3131 29.1651 77.244C28.9233 77.1749 28.6643 77.2008 28.4398 77.3218C28.2153 77.4428 28.0512 77.6416 27.9821 77.8836C27.9131 78.1256 27.939 78.3849 28.0598 78.6096C28.9233 80.2 29.9076 81.7472 30.9697 83.2165C31.151 83.4585 31.436 83.6055 31.7382 83.6055C31.9368 83.6055 32.1354 83.545 32.2994 83.424C32.5066 83.277 32.6362 83.0523 32.6793 82.8017C32.7225 82.551 32.6621 82.3003 32.5066 82.0929C31.4878 80.7013 30.5466 79.2233 29.7263 77.7021Z" fill="#B91E73"/>
<path d="M45.4326 21.9958C45.1908 21.9267 44.9318 21.9526 44.7159 22.0736C43.1272 22.938 41.5816 23.9233 40.1224 24.9951C39.6993 25.3062 39.6043 25.9026 39.9151 26.3262C40.0965 26.5682 40.3814 26.7151 40.6836 26.7151C40.8822 26.7151 41.0808 26.6546 41.2448 26.5336C42.6436 25.5137 44.1202 24.5716 45.6312 23.7504C46.0888 23.4998 46.2615 22.9207 46.0111 22.4626C45.8816 22.2292 45.6744 22.065 45.4326 21.9958Z" fill="#B91E73"/>
<path d="M52.3834 96.5358C50.7428 95.9999 49.1109 95.3517 47.5567 94.6083C47.0818 94.3836 46.5205 94.5824 46.296 95.0578C46.0715 95.5332 46.2701 96.095 46.745 96.3197C48.377 97.0976 50.0866 97.7805 51.8049 98.3423C51.8999 98.3768 51.9948 98.3855 52.0984 98.3855C52.5129 98.3855 52.8756 98.1175 53.0051 97.7286C53.1519 97.2359 52.8842 96.7 52.3834 96.5358Z" fill="#B91E73"/>
<path d="M41.3053 90.8917C39.9065 89.8718 38.5595 88.7568 37.3075 87.564C37.1262 87.3912 36.8844 87.2961 36.6254 87.3047C36.375 87.3134 36.1332 87.4171 35.9605 87.5986C35.7878 87.7801 35.6928 88.0221 35.7015 88.2814C35.7101 88.5321 35.8137 88.7741 35.995 88.947C37.3075 90.1916 38.7149 91.3671 40.1828 92.4302C40.3469 92.5512 40.5368 92.6117 40.744 92.6117C41.0463 92.6117 41.3312 92.4648 41.5125 92.2228C41.6593 92.0154 41.7197 91.7647 41.6852 91.514C41.642 91.2634 41.5125 91.0387 41.3053 90.8917Z" fill="#B91E73"/>
<path d="M31.1252 35.5485C31.2892 35.6696 31.4792 35.7301 31.6778 35.7301C31.98 35.7301 32.2649 35.5831 32.4463 35.3411C33.4651 33.9409 34.579 32.5925 35.7706 31.3392C36.1332 30.9589 36.1159 30.3539 35.736 29.9995C35.3561 29.6365 34.7517 29.6538 34.3977 30.0341C33.1543 31.3479 31.98 32.7654 30.9179 34.2261C30.6071 34.6496 30.7021 35.246 31.1252 35.5485Z" fill="#B91E73"/>
<path d="M24.8996 58.7299V58.6781C24.8996 56.9581 25.0119 55.2294 25.2277 53.5353C25.2623 53.2846 25.1932 53.034 25.0378 52.8352C24.8823 52.6364 24.6578 52.5067 24.4074 52.4722C24.157 52.4376 23.9066 52.5067 23.708 52.6623C23.5094 52.8179 23.3799 53.0426 23.3454 53.2933C23.1122 55.0652 23 56.8803 23 58.6867V58.7386C23 59.2658 23.4231 59.6893 23.9498 59.6893C24.4679 59.6807 24.8996 59.2572 24.8996 58.7299Z" fill="#B91E73"/>
<path d="M25.6249 47.0442C25.7199 47.0788 25.8149 47.0874 25.9185 47.0874C26.3329 47.0874 26.6956 46.8195 26.8251 46.4305C27.3604 44.7883 27.9994 43.1547 28.7506 41.5903C28.9751 41.1149 28.7765 40.5531 28.3016 40.3283C28.0685 40.216 27.8181 40.2073 27.5763 40.2938C27.3345 40.3802 27.1446 40.5531 27.041 40.7778C26.2639 42.42 25.5817 44.1227 25.0291 45.8428C24.8478 46.3527 25.1241 46.8886 25.6249 47.0442Z" fill="#B91E73"/>
<path d="M25.5644 65.9817C25.4695 65.4631 24.9773 65.126 24.4592 65.2211C23.9411 65.3162 23.6044 65.8175 23.6994 66.3275C24.0275 68.108 24.4851 69.8885 25.0377 71.6085C25.1672 71.9975 25.5299 72.2654 25.9357 72.2654C26.0393 72.2654 26.1343 72.2481 26.2293 72.2222C26.7301 72.058 26.9978 71.5221 26.8337 71.0294C26.307 69.3786 25.8753 67.6758 25.5644 65.9817Z" fill="#B91E73"/>
<path d="M82.5007 21.0191C80.8602 20.2412 79.1591 19.5584 77.4322 19.0052C77.1905 18.9274 76.9314 18.9447 76.7069 19.0657C76.4824 19.1781 76.3097 19.3769 76.232 19.6189C76.068 20.1202 76.3443 20.6561 76.8451 20.8117C78.4943 21.3389 80.1176 21.9872 81.6804 22.7305C81.8099 22.791 81.9481 22.8256 82.0863 22.8256C82.4489 22.8256 82.7857 22.6095 82.9411 22.281C83.0533 22.0477 83.062 21.797 82.9756 21.555C82.9065 21.3216 82.7339 21.1315 82.5007 21.0191Z" fill="#B91E73"/>
<path d="M69.9979 17.3457C68.2364 17.1124 66.4318 17 64.6358 17H64.5667C64.04 17 63.6169 17.4235 63.6169 17.9508C63.6169 18.478 64.04 18.9015 64.5667 18.9015H64.6358C66.3455 18.9015 68.0724 19.0139 69.7561 19.23C69.7993 19.2386 69.8338 19.2386 69.877 19.2386C70.3519 19.2386 70.7577 18.8842 70.8182 18.4089C70.8872 17.8816 70.5159 17.4062 69.9979 17.3457Z" fill="#B91E73"/>
<path d="M93.5443 29.0575C93.5357 28.8068 93.432 28.5648 93.2507 28.392C91.9383 27.1473 90.5222 25.9718 89.0543 24.9087C88.6312 24.5975 88.0355 24.6926 87.7332 25.1161C87.4224 25.5397 87.5174 26.136 87.9405 26.4386C89.3393 27.4498 90.6863 28.5735 91.9383 29.7576C92.111 29.9218 92.3441 30.0169 92.5859 30.0169C92.8449 30.0169 93.0953 29.9045 93.2766 29.723C93.4579 29.5502 93.5529 29.3081 93.5443 29.0575Z" fill="#B91E73"/>
<path d="M62.9866 77.9096C53.1518 77.0625 45.4066 68.7909 45.4066 58.73C45.398 48.116 54.0325 39.4727 64.6444 39.4727C71.3362 39.4727 77.2336 42.9128 80.6788 48.116C80.6529 47.4246 80.6788 46.7331 80.7478 46.0503C76.9832 41.2792 71.1721 38.1935 64.6358 38.1935C53.3159 38.1935 44.1115 47.4073 44.1115 58.7387C44.1115 69.3959 52.2538 78.1775 62.6412 79.1802C62.7275 78.748 62.8398 78.3245 62.9866 77.9096Z" fill="#2D2D82" stroke="#2D2D82" stroke-miterlimit="10"/>
<path d="M85.1083 57.6409C84.5988 57.226 84.1326 56.7852 83.7095 56.2926C83.8131 57.0964 83.8822 57.9002 83.8822 58.73C83.8822 65.7051 80.1434 71.8073 74.5828 75.1869C74.8936 75.4894 75.1785 75.8178 75.4203 76.1722C81.2573 72.542 85.1601 66.0941 85.1601 58.7213C85.1601 58.367 85.1256 58.0039 85.1083 57.6409Z" fill="#2D2D82" stroke="#2D2D82" stroke-miterlimit="10"/>
<path d="M66.6649 70.0268H62.4771V66.5263C60.6898 66.1373 59.0233 65.3854 57.7368 64.3827L57.4 64.1234L59.5069 59.8536L60.0163 60.2858C61.3633 61.4267 63.7032 62.3948 65.1279 62.3948C65.5769 62.3948 66.1123 62.317 66.1123 61.928C66.1123 61.4527 64.9639 61.1588 63.8587 60.8649C61.5878 60.2772 58.4793 59.4733 58.4793 55.9555C58.4793 53.6304 59.9645 51.8499 62.4858 51.1412V47.7271H66.6735V50.9337C68.435 51.1585 70.1533 51.7548 71.4484 52.5932L71.8284 52.8439L69.7906 57.0964L69.3071 56.8198C67.7701 55.9469 65.7496 55.2554 64.7049 55.2554C64.4458 55.2554 64.0141 55.29 64.0141 55.532C64.0141 55.9728 65.1279 56.2839 66.2073 56.5778C68.5041 57.2088 71.6557 58.0731 71.6557 61.6947C71.6557 64.3655 69.8079 66.2065 66.6908 66.6819V70.0268H66.6649ZM63.5219 68.9896H65.6374V65.7657L66.1037 65.7138C67.4593 65.5755 70.6109 64.8927 70.6109 61.6947C70.6109 58.8683 68.1241 58.1855 65.931 57.5804C64.4113 57.1656 62.9779 56.768 62.9779 55.532C62.9779 54.901 63.4269 54.2182 64.7049 54.2182C65.9655 54.2182 67.891 54.901 69.333 55.653L70.49 53.2242C69.2639 52.5241 67.701 52.0574 66.1037 51.9104L65.6287 51.8672V48.7556H63.5133V51.9536L63.1075 52.0487C60.8193 52.5673 59.5069 53.9935 59.5069 55.9469C59.5069 58.6609 61.9504 59.2918 64.1091 59.8536C65.6633 60.2599 67.1398 60.6402 67.1398 61.9194C67.1398 62.2738 66.993 63.4233 65.1193 63.4233C63.6083 63.4233 61.4151 62.5936 59.8609 61.4699L58.7038 63.8123C59.9127 64.668 61.4583 65.2903 63.0816 65.5928L63.5047 65.6706V68.9896H63.5219Z" fill="#B91E73" stroke="#B91E73" stroke-width="0.75" stroke-miterlimit="10"/>
<path d="M96.031 174.481H97.7665L103.016 130.582C103.172 130.444 103.284 130.245 103.301 130.02C103.336 129.666 103.155 129.329 102.844 129.164L75.4117 114.713C69.5834 111.644 65.7496 106.052 65.1538 99.7426L63.1852 78.9035C63.0125 77.0711 64.3508 75.3338 66.2936 74.8584C70.8958 73.7348 75.5585 75.9907 77.1127 80.0271L78.1747 83.8129C79.3231 87.9012 81.5768 91.6524 84.7025 94.6603C87.5778 97.4348 91.5238 98.7745 95.5388 98.3337L97.5248 98.1176C104.709 96.8038 109.285 89.0853 109.043 82.6893C108.672 72.7495 102.775 64.5124 92.9226 60.1129L86.4035 56.5864C81.6286 54.0021 79.6944 48.3753 81.8962 43.4918C82.397 42.3768 83.3987 41.5211 84.6248 41.1408C85.8768 40.7605 87.2065 40.9161 88.2944 41.5903C88.3203 41.6075 91.2647 43.3189 95.1934 45.4365C95.5388 45.6267 95.9706 45.5489 96.2382 45.2637C96.5059 44.9698 96.5404 44.5376 96.3246 44.2092C94.494 41.4174 94.0537 38.2194 95.0985 35.4449C95.4266 34.5719 96.1173 33.9323 97.0499 33.6298C98.2242 33.2495 99.5884 33.4742 100.737 34.2348C100.789 34.2694 106.418 37.8045 112.48 41.2272C112.799 41.4088 113.188 41.3655 113.464 41.1322C113.74 40.8988 113.835 40.5098 113.715 40.1728C112.92 38.0292 113.032 35.7647 114.034 33.9496C114.371 33.3359 114.958 32.9297 115.675 32.8086C116.555 32.6531 117.522 32.9556 118.274 33.6298C118.818 34.0879 131.519 44.8747 136.415 46.8368C140.249 49.0408 143.003 52.6883 143.979 56.8544C143.996 56.9322 144.03 57.01 144.065 57.0791C149.427 66.6645 152.017 77.9182 154.521 88.7915C154.772 89.8719 155.022 90.9523 155.273 92.0241C156.939 99.1635 158.433 106.709 159.702 114.453C160.479 119.199 161.205 124.143 161.844 129.156C163.786 144.316 164.943 159.693 165.712 174.473H167.439C166.662 159.624 165.505 144.178 163.553 128.94C162.906 123.909 162.189 118.939 161.403 114.177C160.125 106.398 158.623 98.8091 156.948 91.6351C156.697 90.5633 156.447 89.4829 156.197 88.4025C153.675 77.4428 151.068 66.1114 145.619 56.3358C144.505 51.7375 141.44 47.727 137.209 45.3069C137.175 45.2896 137.131 45.2637 137.097 45.255C132.512 43.4659 119.508 32.4283 119.396 32.3333C118.256 31.3133 116.797 30.8725 115.372 31.1146C114.138 31.322 113.102 32.0567 112.514 33.1198C111.59 34.788 111.271 36.7586 111.556 38.7293C106.246 35.6696 101.695 32.8173 101.661 32.7914C100.098 31.7542 98.1724 31.4516 96.5059 31.9875C95.0639 32.4543 93.9846 33.4655 93.4665 34.8398C92.534 37.3032 92.5858 40.0172 93.5529 42.5929C90.9366 41.1495 89.1665 40.1209 89.1665 40.1209C87.6728 39.1961 85.825 38.9713 84.0981 39.4986C82.3884 40.0172 81.0069 41.2186 80.2988 42.7917C77.7171 48.5136 79.9794 55.0998 85.5573 58.1163L92.1368 61.6687C101.428 65.8175 106.954 73.5101 107.299 82.7584C107.515 88.4284 103.5 95.2739 97.2571 96.4149L95.3316 96.6223C91.8346 97.0026 88.3894 95.8358 85.8768 93.4243C82.9756 90.6325 80.8774 87.1492 79.8153 83.3548L78.7274 79.4912C76.845 74.5732 71.3189 71.8592 65.8619 73.1816C63.0902 73.8558 61.1906 76.3883 61.4496 79.0677L63.4183 99.9068C64.0659 106.796 68.245 112.906 74.5828 116.243L101.289 130.305L96.031 174.481Z" fill="#2D2D82" stroke="#2D2D82" stroke-width="1.2" stroke-miterlimit="10"/>
<path d="M89.9782 49.5508C89.1838 49.5508 88.3895 49.3088 87.7419 48.8248C85.3587 47.0442 84.5125 44.7624 85.3587 42.3855C85.4969 41.9965 85.9286 41.7977 86.3085 41.936C86.6971 42.0743 86.8957 42.4979 86.7575 42.8868C86.1358 44.6328 86.7662 46.2318 88.6312 47.6234C89.4774 48.2543 90.7726 48.1765 91.5842 47.4505L93.268 45.9379C93.5702 45.6613 94.0451 45.6872 94.3214 45.9898C94.5977 46.2923 94.5718 46.7677 94.2696 47.0442L92.5858 48.5568C91.8519 49.2224 90.9107 49.5508 89.9782 49.5508Z" fill="#2D2D82" stroke="#2D2D82" stroke-width="1.2" stroke-miterlimit="10"/>
<path d="M103.18 42.0138C102.386 42.0138 101.592 41.7718 100.944 41.2878C98.5609 39.5072 97.7147 37.2254 98.5609 34.8485C98.699 34.4595 99.1308 34.2607 99.5107 34.399C99.8992 34.5373 100.098 34.9608 99.9597 35.3498C99.338 37.0957 99.9683 38.6948 101.833 40.0863C102.68 40.7173 103.975 40.6395 104.786 39.9135L106.47 38.4009C106.772 38.1243 107.247 38.1502 107.524 38.4527C107.8 38.7553 107.774 39.2306 107.472 39.5072L105.788 41.0198C105.063 41.6853 104.122 42.0138 103.18 42.0138Z" fill="#2D2D82" stroke="#2D2D82" stroke-width="1.2" stroke-miterlimit="10"/>
<path d="M119.077 38.954C118.265 38.954 117.471 38.6083 116.953 37.96C115.657 36.3351 115.511 34.6151 116.521 33.1111C116.754 32.7654 117.212 32.679 117.557 32.9123C117.894 33.1457 117.989 33.6038 117.756 33.9495C117.514 34.3039 116.788 35.3757 118.118 37.0352C118.472 37.476 119.172 37.597 119.716 37.3032L121.063 36.5771C121.425 36.3783 121.874 36.5166 122.073 36.8796C122.271 37.2426 122.133 37.6921 121.771 37.8909L120.432 38.6083C120.001 38.8417 119.534 38.954 119.077 38.954Z" fill="#2D2D82" stroke="#2D2D82" stroke-width="1.2" stroke-miterlimit="10"/>
<path d="M138.53 59.5598C138.237 59.5598 137.952 59.3869 137.84 59.093C135.776 53.9416 131.519 49.7582 126.148 47.5974C123.601 46.9665 118.982 44.771 112.419 41.0631C112.057 40.8643 111.936 40.4062 112.134 40.0431C112.333 39.6888 112.791 39.5591 113.153 39.7579C119.552 43.3708 124.188 45.5835 126.554 46.154L126.658 46.1886C132.426 48.4877 137.002 52.9908 139.23 58.5312C139.385 58.9115 139.195 59.3523 138.815 59.4993C138.72 59.5425 138.625 59.5598 138.53 59.5598Z" fill="#2D2D82" stroke="#2D2D82" stroke-width="1.2" stroke-miterlimit="10"/>
<path d="M129.809 75.5067C129.49 75.5067 129.196 75.3079 129.093 74.9881L125.82 65.152C124.024 59.7412 119.733 55.5406 114.06 53.6218C107.109 52.4204 94.9344 45.1081 94.4163 44.7969C94.0537 44.5809 93.9414 44.1141 94.1573 43.7597C94.3732 43.3967 94.8394 43.2844 95.1934 43.5004C95.3143 43.5782 107.705 51.0115 114.362 52.1351L114.474 52.1611C120.639 54.2182 125.293 58.7818 127.254 64.6679L130.526 74.504C130.656 74.9016 130.44 75.3338 130.051 75.4635C129.973 75.498 129.896 75.5067 129.809 75.5067Z" fill="#2D2D82" stroke="#2D2D82" stroke-width="1.2" stroke-miterlimit="10"/>
<path d="M64.3422 90.4856C64.0055 90.4856 63.7033 90.2609 63.6169 89.9152C63.5219 89.5176 63.7637 89.1113 64.1695 89.0162L66.9671 88.3334C68.4005 87.9877 69.3416 86.7085 69.1603 85.3515C68.7717 82.4127 67.3039 80.6322 64.7912 80.0531C64.394 79.958 64.1436 79.5605 64.23 79.1542C64.325 78.748 64.7135 78.4973 65.128 78.5924C69.0912 79.5086 70.3173 82.6634 70.6454 85.1527C70.9217 87.2617 69.497 89.2496 67.3211 89.7769L64.5235 90.4683C64.4631 90.477 64.4027 90.4856 64.3422 90.4856Z" fill="#2D2D82" stroke="#2D2D82" stroke-width="1.2" stroke-miterlimit="10"/>
</g>
<defs>
<clipPath id="clip0_1_1320">
<rect width="145" height="158" fill="white" transform="translate(23 17)"/>
</clipPath>
</defs>
</svg>
