<svg width="202" height="175" viewBox="0 0 202 175" fill="none" xmlns="http://www.w3.org/2000/svg">
<rect width="202" height="175" rx="20" fill="#EEEEF7"/>
<path d="M165 54.6218H86.8871L76.732 47H37V127.327H70.3144L67.9793 129.167L69.6388 132.018L78.6191 128.513C79.1404 128.302 79.7205 128.462 80.073 128.891C81.3212 130.404 82.6797 131.756 84.1189 132.905C84.5594 133.255 84.7136 133.836 84.508 134.353L80.9761 143.247L83.8545 144.891L89.8609 137.422C90.2061 136.985 90.7935 136.833 91.3148 137.029C93.1138 137.713 94.9715 138.207 96.8293 138.484C97.3873 138.571 97.8132 138.993 97.9013 139.545L99.3405 148.993H102.659L104.099 139.538C104.179 138.985 104.613 138.564 105.163 138.476C107.036 138.193 108.894 137.705 110.67 137.022C111.184 136.825 111.787 136.985 112.124 137.415L118.131 144.884L121.009 143.24L117.477 134.345C117.272 133.829 117.426 133.247 117.866 132.898C119.306 131.749 120.671 130.396 121.92 128.884C122.265 128.455 122.867 128.302 123.374 128.505L132.354 132.011L134.013 129.16L131.678 127.32H164.993V54.6218H165Z" fill="white"/>
<path d="M164.752 129.288H134.882C134.294 129.288 133.814 128.811 133.814 128.211C133.814 127.618 134.287 127.134 134.882 127.134H163.683V33.3266H38.3092V127.142H67.0961C67.6841 127.142 68.1646 127.618 68.1646 128.218C68.1646 128.811 67.6913 129.295 67.0961 129.295H37.2478C36.6597 129.295 36.1792 128.818 36.1792 128.218V32.2572C36.1792 31.6647 36.6597 31.1806 37.2478 31.1806H164.752C165.34 31.1806 165.821 31.6575 165.821 32.2572V128.218C165.821 128.811 165.34 129.288 164.752 129.288Z" fill="#2D2D82"/>
<path d="M164.752 129.468H134.882C134.194 129.468 133.634 128.905 133.634 128.211C133.634 127.517 134.194 126.954 134.882 126.954H163.504V33.5072H38.4886V126.961H67.0962C67.7846 126.961 68.3368 127.525 68.3368 128.218C68.3368 128.912 67.7775 129.475 67.0962 129.475H37.2479C36.5594 129.475 36 128.912 36 128.218V32.2572C36 31.5636 36.5594 31 37.2479 31H164.752C165.441 31 166 31.5636 166 32.2572V128.218C166 128.905 165.441 129.468 164.752 129.468ZM134.882 127.322C134.395 127.322 133.993 127.72 133.993 128.218C133.993 128.717 134.387 129.114 134.882 129.114H164.752C165.24 129.114 165.641 128.717 165.641 128.218V32.2572C165.641 31.7659 165.247 31.3613 164.752 31.3613H37.2479C36.753 31.3613 36.3586 31.7587 36.3586 32.2572V128.218C36.3586 128.71 36.753 129.114 37.2479 129.114H67.1033C67.591 129.114 67.9854 128.717 67.9854 128.218C67.9854 127.72 67.591 127.322 67.1033 127.322H38.13V33.146H163.863V127.322H134.882Z" fill="#2D2D82"/>
<path d="M163.877 54.5478H87.2126C87.0046 54.5478 86.8109 54.49 86.6316 54.3744L77.3516 48.3412H38.3308C37.7427 48.3412 37.2622 47.8643 37.2622 47.2646C37.2622 46.6721 37.7355 46.188 38.3308 46.188H77.66C77.8679 46.188 78.0616 46.2458 78.2337 46.3614L87.5209 52.3946H163.87C164.458 52.3946 164.939 52.8715 164.939 53.4712C164.939 54.0637 164.465 54.5478 163.877 54.5478Z" fill="#2D2D82"/>
<path d="M163.877 54.7285H87.2198C86.9831 54.7285 86.7465 54.6562 86.5457 54.5261L77.3015 48.5218H38.3309C37.6424 48.5218 37.083 47.9582 37.083 47.2646C37.083 46.5709 37.6424 46.0074 38.3309 46.0074H77.66C77.8967 46.0074 78.1334 46.0796 78.3342 46.2097L87.5784 52.214H163.87C164.559 52.214 165.118 52.7776 165.118 53.4712C165.118 54.1649 164.559 54.7285 163.877 54.7285ZM38.3309 46.3759C37.8432 46.3759 37.4416 46.7733 37.4416 47.2718C37.4416 47.7704 37.836 48.1678 38.3309 48.1678H77.4019L77.4449 48.1967L86.7321 54.2299C86.8756 54.3238 87.0405 54.3744 87.2126 54.3744H163.87C164.358 54.3744 164.759 53.977 164.759 53.4785C164.759 52.9799 164.365 52.5825 163.87 52.5825H87.478L87.435 52.5536L78.1477 46.5204C78.0043 46.4264 77.8393 46.3759 77.6672 46.3759H38.3309Z" fill="#2D2D82"/>
<path d="M142.097 44.5694H137.866C137.278 44.5694 136.797 44.0925 136.797 43.4928C136.797 42.8931 137.27 42.4162 137.866 42.4162H142.097C142.685 42.4162 143.166 42.8931 143.166 43.4928C143.166 44.0925 142.685 44.5694 142.097 44.5694Z" fill="#2D2D82"/>
<path d="M142.097 44.7501H137.866C137.177 44.7501 136.618 44.1865 136.618 43.4928C136.618 42.7992 137.177 42.2356 137.866 42.2356H142.097C142.786 42.2356 143.345 42.7992 143.345 43.4928C143.338 44.1865 142.786 44.7501 142.097 44.7501ZM137.866 42.6041C137.378 42.6041 136.977 43.0015 136.977 43.5001C136.977 43.9986 137.371 44.396 137.866 44.396H142.097C142.585 44.396 142.986 43.9986 142.986 43.5001C142.986 43.0015 142.592 42.6041 142.097 42.6041H137.866Z" fill="#2D2D82"/>
<path d="M150.595 44.5694H146.385C145.797 44.5694 145.317 44.0925 145.317 43.4928C145.317 42.8931 145.797 42.4162 146.385 42.4162H150.595C151.183 42.4162 151.664 42.8931 151.664 43.4928C151.664 44.0925 151.183 44.5694 150.595 44.5694Z" fill="#2D2D82"/>
<path d="M150.595 44.7501H146.386C145.697 44.7501 145.138 44.1865 145.138 43.4928C145.138 42.7992 145.697 42.2356 146.386 42.2356H150.595C151.284 42.2356 151.843 42.7992 151.843 43.4928C151.836 44.1865 151.284 44.7501 150.595 44.7501ZM146.386 42.6041C145.898 42.6041 145.496 43.0015 145.496 43.5001C145.496 43.9986 145.891 44.396 146.386 44.396H150.595C151.083 44.396 151.485 43.9986 151.485 43.5001C151.485 43.0015 151.09 42.6041 150.595 42.6041H146.386Z" fill="#2D2D82"/>
<path d="M159.094 44.5694H154.884C154.296 44.5694 153.815 44.0925 153.815 43.4928C153.815 42.8931 154.289 42.4162 154.884 42.4162H159.094C159.682 42.4162 160.162 42.8931 160.162 43.4928C160.162 44.0925 159.682 44.5694 159.094 44.5694Z" fill="#2D2D82"/>
<path d="M159.094 44.7501H154.884C154.196 44.7501 153.636 44.1865 153.636 43.4928C153.636 42.7992 154.196 42.2356 154.884 42.2356H159.094C159.782 42.2356 160.342 42.7992 160.342 43.4928C160.335 44.1865 159.775 44.7501 159.094 44.7501ZM154.884 42.6041C154.396 42.6041 153.995 43.0015 153.995 43.5001C153.995 43.9986 154.389 44.396 154.884 44.396H159.094C159.582 44.396 159.983 43.9986 159.983 43.5001C159.983 43.0015 159.589 42.6041 159.094 42.6041H154.884Z" fill="#2D2D82"/>
<path d="M103.686 150.819H98.3068C97.7833 150.819 97.3315 150.429 97.2526 149.902L95.7968 140.212C94.3266 139.945 92.8708 139.555 91.4436 139.042L85.3908 146.701C85.0609 147.113 84.48 147.228 84.0281 146.961L79.3594 144.251C78.9004 143.984 78.7068 143.42 78.9004 142.929L82.4647 133.811C81.346 132.85 80.2774 131.766 79.2734 130.588L70.2156 134.179C69.7279 134.381 69.1685 134.179 68.9032 133.717L66.2138 129.006C65.9485 128.543 66.0632 127.958 66.472 127.633L74.0739 121.549C73.5647 120.097 73.1775 118.623 72.9121 117.149L63.295 115.682C62.7715 115.602 62.3914 115.154 62.3914 114.62V111.91C62.3914 111.318 62.8647 110.834 63.4599 110.834C64.048 110.834 64.5285 111.311 64.5285 111.91V113.695L74.0022 115.14C74.4612 115.212 74.827 115.574 74.8987 116.043C75.1784 117.871 75.6589 119.721 76.3402 121.52C76.5051 121.954 76.3689 122.452 76.0103 122.741L68.5303 128.731L70.3017 131.838L79.216 128.298C79.6463 128.124 80.1411 128.254 80.4352 128.615C81.6615 130.133 82.9954 131.484 84.4154 132.633C84.7812 132.929 84.9103 133.428 84.7381 133.861L81.2312 142.842L84.315 144.627L90.2746 137.084C90.5615 136.715 91.0563 136.585 91.4938 136.751C93.2652 137.438 95.0868 137.929 96.9156 138.204C97.3745 138.276 97.7403 138.637 97.812 139.107L99.2463 148.652H102.789L104.223 139.107C104.295 138.644 104.654 138.276 105.113 138.204C106.956 137.922 108.777 137.431 110.534 136.751C110.965 136.585 111.46 136.715 111.754 137.084L117.72 144.627L120.797 142.842L117.29 133.861C117.118 133.428 117.247 132.929 117.613 132.633C119.026 131.484 120.367 130.133 121.6 128.615C121.894 128.254 122.389 128.117 122.819 128.298L131.734 131.838L133.505 128.731L126.004 122.72C125.638 122.423 125.502 121.925 125.674 121.484C126.362 119.728 126.85 117.893 127.13 116.036C127.201 115.574 127.56 115.205 128.026 115.133L137.5 113.688V111.903C137.5 111.311 137.973 110.826 138.568 110.826C139.156 110.826 139.637 111.303 139.637 111.903V114.613C139.637 115.14 139.25 115.595 138.733 115.675L129.116 117.141C128.851 118.63 128.456 120.104 127.947 121.527L135.556 127.626C135.972 127.958 136.08 128.543 135.814 128.998L133.125 133.709C132.86 134.172 132.3 134.367 131.813 134.172L122.755 130.581C121.751 131.759 120.682 132.842 119.564 133.803L123.121 142.922C123.314 143.42 123.121 143.977 122.662 144.244L117.993 146.954C117.541 147.221 116.96 147.105 116.63 146.694L110.577 139.035C109.158 139.54 107.702 139.938 106.224 140.205L104.768 149.894C104.661 150.429 104.216 150.819 103.686 150.819ZM100.996 126.874C92.8134 126.874 86.1509 120.162 86.1509 111.91C86.1509 111.318 86.6243 110.834 87.2195 110.834C87.8148 110.834 88.2881 111.311 88.2881 111.91C88.2881 118.977 93.9895 124.721 101.003 124.721C108.017 124.721 113.719 118.977 113.719 111.91C113.719 111.318 114.192 110.834 114.787 110.834C115.382 110.834 115.856 111.311 115.856 111.91C115.841 120.162 109.186 126.874 100.996 126.874Z" fill="#B91E73"/>
<path d="M103.686 151H98.3069C97.683 151 97.1666 150.552 97.0806 149.931L95.6463 140.371C94.255 140.111 92.8637 139.735 91.5082 139.259L85.5343 146.816C85.1542 147.293 84.4657 147.431 83.9422 147.12L79.2663 144.41C78.7284 144.1 78.5061 143.449 78.7284 142.864L82.2425 133.861C81.1883 132.944 80.1699 131.91 79.2161 130.798L70.2802 134.345C69.7137 134.576 69.0539 134.345 68.7455 133.803L66.0561 129.092C65.7549 128.558 65.884 127.864 66.3645 127.488L73.866 121.484C73.3927 120.104 73.0198 118.702 72.7616 117.308L63.2736 115.863C62.6711 115.769 62.2122 115.241 62.2122 114.62V111.91C62.2122 111.217 62.7715 110.653 63.46 110.653C64.1485 110.653 64.7079 111.217 64.7079 111.91V113.543L74.031 114.967C74.576 115.046 74.992 115.472 75.0781 116.014C75.3577 117.835 75.8382 119.67 76.5124 121.455C76.706 121.968 76.5482 122.539 76.1251 122.886L68.767 128.782L70.3878 131.614L79.1587 128.131C79.6679 127.922 80.2344 128.081 80.5787 128.507C81.7979 130.01 83.1246 131.354 84.5302 132.496C84.9605 132.842 85.1111 133.42 84.9103 133.933L81.4608 142.77L84.2721 144.403L90.1385 136.983C90.4755 136.549 91.0493 136.397 91.5584 136.592C93.3155 137.272 95.1299 137.763 96.9443 138.037C97.4894 138.124 97.9053 138.543 97.9914 139.092L99.397 148.478H102.639L104.044 139.085C104.123 138.536 104.546 138.117 105.084 138.03C106.913 137.748 108.727 137.264 110.463 136.585C110.965 136.39 111.553 136.549 111.883 136.975L117.749 144.396L120.56 142.763L117.111 133.926C116.91 133.413 117.061 132.835 117.491 132.488C118.897 131.347 120.231 130.003 121.45 128.5C121.787 128.074 122.375 127.922 122.87 128.124L131.641 131.607L133.261 128.774L125.882 122.864C125.459 122.524 125.301 121.932 125.502 121.426C126.183 119.678 126.671 117.857 126.95 116.014C127.029 115.465 127.452 115.046 127.99 114.959L137.313 113.536V111.903C137.313 111.209 137.873 110.646 138.561 110.646C139.25 110.646 139.809 111.209 139.809 111.903V114.613C139.809 115.227 139.357 115.761 138.748 115.855L129.26 117.3C129.001 118.709 128.629 120.111 128.148 121.47L135.657 127.488C136.137 127.871 136.266 128.565 135.958 129.092L133.269 133.803C132.96 134.338 132.3 134.569 131.734 134.345L122.798 130.798C121.844 131.91 120.826 132.936 119.764 133.861L123.279 142.864C123.508 143.449 123.279 144.1 122.741 144.41L118.072 147.12C117.534 147.431 116.867 147.3 116.48 146.816L110.506 139.259C109.158 139.735 107.773 140.104 106.375 140.371L104.941 149.931C104.826 150.537 104.302 151 103.686 151ZM91.3863 138.832L91.5082 138.876C92.921 139.381 94.3769 139.772 95.8399 140.039L95.969 140.061L97.4392 149.873C97.5037 150.313 97.8766 150.631 98.3141 150.631H103.693C104.13 150.631 104.503 150.306 104.568 149.873L106.038 140.061L106.167 140.039C107.63 139.772 109.086 139.381 110.492 138.876L110.613 138.832L116.745 146.592C117.025 146.939 117.498 147.033 117.878 146.809L122.547 144.1C122.934 143.876 123.092 143.413 122.927 143.001L119.32 133.76L119.42 133.673C120.532 132.72 121.6 131.643 122.597 130.472L122.683 130.371L131.856 134.013C132.265 134.172 132.731 134.006 132.946 133.63L135.635 128.919C135.85 128.536 135.757 128.045 135.42 127.777L127.711 121.6L127.754 121.477C128.263 120.061 128.65 118.594 128.915 117.12L128.937 116.99L138.683 115.501C139.113 115.436 139.436 115.053 139.436 114.62V111.91C139.436 111.419 139.042 111.014 138.547 111.014C138.052 111.014 137.658 111.412 137.658 111.91V113.854L128.026 115.321C127.639 115.378 127.338 115.682 127.28 116.072C127.001 117.936 126.506 119.786 125.817 121.563C125.674 121.925 125.789 122.344 126.09 122.589L133.713 128.695L131.784 132.069L122.726 128.471C122.375 128.326 121.959 128.435 121.715 128.738C120.482 130.263 119.126 131.628 117.706 132.785C117.405 133.03 117.297 133.442 117.441 133.811L121.005 142.936L117.656 144.88L111.596 137.214C111.359 136.917 110.943 136.802 110.585 136.939C108.821 137.626 106.985 138.117 105.127 138.406C104.74 138.464 104.446 138.767 104.388 139.157L102.933 148.854H99.0743L97.6185 139.157C97.5611 138.767 97.2599 138.464 96.8726 138.406C95.0295 138.124 93.1936 137.633 91.4078 136.939C91.0493 136.802 90.6333 136.91 90.3966 137.214L84.3366 144.88L80.9875 142.936L84.5518 133.811C84.6952 133.442 84.5876 133.03 84.2792 132.785C82.8521 131.628 81.5038 130.27 80.2703 128.746C80.0265 128.442 79.6177 128.334 79.2591 128.478L70.2013 132.076L68.2722 128.702L75.8741 122.611C76.1753 122.365 76.2901 121.961 76.1538 121.592C75.4725 119.779 74.9776 117.922 74.698 116.072C74.6406 115.682 74.3394 115.378 73.9521 115.321L64.3278 113.854V111.91C64.3278 111.419 63.9333 111.014 63.4385 111.014C62.9437 111.014 62.5492 111.412 62.5492 111.91V114.62C62.5492 115.061 62.8719 115.436 63.3022 115.501L73.0485 116.983L73.07 117.113C73.3353 118.572 73.7226 120.046 74.2246 121.484L74.2677 121.607L66.5653 127.77C66.2283 128.045 66.135 128.536 66.3502 128.912L69.0395 133.623C69.2619 134.006 69.728 134.172 70.1296 134.006L79.3021 130.364L79.3882 130.465C80.385 131.636 81.4536 132.712 82.5581 133.666L82.6585 133.753L79.0511 142.994C78.8934 143.406 79.0511 143.876 79.4312 144.092L84.1 146.802C84.4729 147.019 84.9677 146.925 85.2331 146.585L91.3863 138.832ZM100.996 127.055C92.7131 127.055 85.9717 120.263 85.9717 111.91C85.9717 111.217 86.5311 110.653 87.2196 110.653C87.9081 110.653 88.4675 111.217 88.4675 111.91C88.4675 118.876 94.09 124.54 101.003 124.54C107.917 124.54 113.539 118.876 113.539 111.91C113.539 111.217 114.099 110.653 114.787 110.653C115.476 110.653 116.035 111.217 116.035 111.91C116.021 120.263 109.28 127.055 100.996 127.055ZM87.2196 111.022C86.7319 111.022 86.3303 111.419 86.3303 111.918C86.3303 120.068 92.9067 126.701 100.996 126.701C109.086 126.701 115.662 120.068 115.662 111.918C115.662 111.426 115.268 111.022 114.773 111.022C114.278 111.022 113.884 111.419 113.884 111.918C113.884 119.085 108.096 124.909 100.989 124.909C93.882 124.909 88.0945 119.078 88.0945 111.918C88.1017 111.426 87.7073 111.022 87.2196 111.022Z" fill="#B91E73"/>
<path d="M150.23 112.987H51.7632C51.1751 112.987 50.6946 112.51 50.6946 111.91C50.6946 111.311 51.1679 110.834 51.7632 110.834H150.222C150.81 110.834 151.291 111.311 151.291 111.91C151.291 112.51 150.818 112.987 150.23 112.987Z" fill="#2D2D82"/>
<path d="M150.23 113.168H51.7632C51.0747 113.168 50.5225 112.604 50.5225 111.91C50.5225 111.217 51.0818 110.653 51.7632 110.653H150.222C150.911 110.653 151.47 111.217 151.47 111.91C151.47 112.604 150.911 113.168 150.23 113.168ZM51.7632 111.022C51.2755 111.022 50.881 111.419 50.881 111.918C50.881 112.416 51.2755 112.814 51.7632 112.814H150.222C150.71 112.814 151.112 112.416 151.112 111.918C151.112 111.419 150.717 111.022 150.222 111.022H51.7632Z" fill="#2D2D82"/>
<path d="M119.564 67.4956H67.4904C66.9024 67.4956 66.4219 67.0187 66.4219 66.419C66.4219 65.8193 66.8952 65.3424 67.4904 65.3424H119.564C120.152 65.3424 120.632 65.8193 120.632 66.419C120.632 67.0187 120.152 67.4956 119.564 67.4956Z" fill="#2D2D82"/>
<path d="M119.564 67.6762H67.4905C66.8021 67.6762 66.2427 67.1126 66.2427 66.419C66.2427 65.7254 66.8021 65.1618 67.4905 65.1618H119.564C120.252 65.1618 120.812 65.7254 120.812 66.419C120.812 67.1126 120.252 67.6762 119.564 67.6762ZM67.4905 65.5303C67.0029 65.5303 66.6013 65.9277 66.6013 66.4262C66.6013 66.9248 66.9957 67.3222 67.4905 67.3222H119.564C120.051 67.3222 120.453 66.9248 120.453 66.4262C120.453 65.9277 120.059 65.5303 119.564 65.5303H67.4905Z" fill="#2D2D82"/>
<path d="M134.481 67.4956H126.011C125.423 67.4956 124.942 67.0187 124.942 66.419C124.942 65.8193 125.416 65.3424 126.011 65.3424H134.481C135.069 65.3424 135.549 65.8193 135.549 66.419C135.549 67.0187 135.069 67.4956 134.481 67.4956Z" fill="#2D2D82"/>
<path d="M134.481 67.6762H126.011C125.323 67.6762 124.763 67.1126 124.763 66.419C124.763 65.7254 125.323 65.1618 126.011 65.1618H134.481C135.169 65.1618 135.729 65.7254 135.729 66.419C135.729 67.1126 135.169 67.6762 134.481 67.6762ZM126.018 65.5303C125.531 65.5303 125.129 65.9277 125.129 66.4262C125.129 66.9248 125.523 67.3222 126.018 67.3222H134.488C134.976 67.3222 135.377 66.9248 135.377 66.4262C135.377 65.9277 134.983 65.5303 134.488 65.5303H126.018Z" fill="#2D2D82"/>
<path d="M108.526 75.9277H67.4904C66.9024 75.9277 66.4219 75.4508 66.4219 74.8511C66.4219 74.2514 66.8952 73.7745 67.4904 73.7745H108.519C109.107 73.7745 109.588 74.2514 109.588 74.8511C109.588 75.4508 109.115 75.9277 108.526 75.9277Z" fill="#2D2D82"/>
<path d="M108.527 76.1083H67.4905C66.8021 76.1083 66.2427 75.5447 66.2427 74.8511C66.2427 74.1575 66.8021 73.5939 67.4905 73.5939H108.519C109.208 73.5939 109.767 74.1575 109.767 74.8511C109.767 75.5447 109.208 76.1083 108.527 76.1083ZM67.4905 73.9624C67.0029 73.9624 66.6013 74.3598 66.6013 74.8583C66.6013 75.3569 66.9957 75.7543 67.4905 75.7543H108.519C109.007 75.7543 109.409 75.3569 109.409 74.8583C109.409 74.3598 109.014 73.9624 108.519 73.9624H67.4905Z" fill="#2D2D82"/>
<path d="M134.481 75.9277H126.011C125.423 75.9277 124.942 75.4508 124.942 74.8511C124.942 74.2514 125.416 73.7745 126.011 73.7745H134.481C135.069 73.7745 135.549 74.2514 135.549 74.8511C135.549 75.4508 135.069 75.9277 134.481 75.9277Z" fill="#2D2D82"/>
<path d="M134.481 76.1083H126.011C125.323 76.1083 124.763 75.5447 124.763 74.8511C124.763 74.1575 125.323 73.5939 126.011 73.5939H134.481C135.169 73.5939 135.729 74.1575 135.729 74.8511C135.729 75.5447 135.169 76.1083 134.481 76.1083ZM126.018 73.9624C125.531 73.9624 125.129 74.3598 125.129 74.8583C125.129 75.3569 125.523 75.7543 126.018 75.7543H134.488C134.976 75.7543 135.377 75.3569 135.377 74.8583C135.377 74.3598 134.983 73.9624 134.488 73.9624H126.018Z" fill="#2D2D82"/>
<path d="M119.779 75.9277H113.869C113.281 75.9277 112.801 75.4508 112.801 74.8511C112.801 74.2514 113.274 73.7745 113.869 73.7745H119.779C120.367 73.7745 120.847 74.2514 120.847 74.8511C120.847 75.4508 120.367 75.9277 119.779 75.9277Z" fill="#2D2D82"/>
<path d="M119.779 76.1083H113.869C113.181 76.1083 112.622 75.5447 112.622 74.8511C112.622 74.1575 113.181 73.5939 113.869 73.5939H119.779C120.467 73.5939 121.027 74.1575 121.027 74.8511C121.027 75.5447 120.467 76.1083 119.779 76.1083ZM113.869 73.9624C113.382 73.9624 112.98 74.3598 112.98 74.8583C112.98 75.3569 113.375 75.7543 113.869 75.7543H119.779C120.267 75.7543 120.668 75.3569 120.668 74.8583C120.668 74.3598 120.274 73.9624 119.779 73.9624H113.869Z" fill="#2D2D82"/>
<path d="M134.481 83.5795H93.459C92.8709 83.5795 92.3904 83.1026 92.3904 82.5029C92.3904 81.9104 92.8637 81.4263 93.459 81.4263H134.488C135.076 81.4263 135.556 81.9032 135.556 82.5029C135.549 83.0954 135.069 83.5795 134.481 83.5795Z" fill="#2D2D82"/>
<path d="M134.481 83.7601H93.459C92.7706 83.7601 92.2112 83.1965 92.2112 82.5029C92.2112 81.8092 92.7706 81.2457 93.459 81.2457H134.488C135.176 81.2457 135.736 81.8092 135.736 82.5029C135.729 83.1965 135.169 83.7601 134.481 83.7601ZM93.459 81.6069C92.9714 81.6069 92.5698 82.0043 92.5698 82.5029C92.5698 83.0014 92.9642 83.3988 93.459 83.3988H134.488C134.976 83.3988 135.377 83.0014 135.377 82.5029C135.377 82.0043 134.983 81.6069 134.488 81.6069H93.459Z" fill="#2D2D82"/>
<path d="M75.9601 83.5795H67.4904C66.9024 83.5795 66.4219 83.1026 66.4219 82.5029C66.4219 81.9104 66.8952 81.4263 67.4904 81.4263H75.9601C76.5482 81.4263 77.0287 81.9032 77.0287 82.5029C77.0287 83.0954 76.5482 83.5795 75.9601 83.5795Z" fill="#2D2D82"/>
<path d="M75.9602 83.7601H67.4905C66.8021 83.7601 66.2427 83.1965 66.2427 82.5029C66.2427 81.8092 66.8021 81.2457 67.4905 81.2457H75.9602C76.6487 81.2457 77.2081 81.8092 77.2081 82.5029C77.2081 83.1965 76.6487 83.7601 75.9602 83.7601ZM67.4905 81.6069C67.0029 81.6069 66.6013 82.0043 66.6013 82.5029C66.6013 83.0014 66.9957 83.3988 67.4905 83.3988H75.9602C76.4479 83.3988 76.8495 83.0014 76.8495 82.5029C76.8495 82.0043 76.4551 81.6069 75.9602 81.6069H67.4905Z" fill="#2D2D82"/>
<path d="M88.1089 83.5795H82.2138C81.6258 83.5795 81.1453 83.1026 81.1453 82.5029C81.1453 81.9104 81.6258 81.4263 82.2138 81.4263H88.1089C88.697 81.4263 89.1775 81.9032 89.1775 82.5029C89.1775 83.0954 88.697 83.5795 88.1089 83.5795Z" fill="#2D2D82"/>
<path d="M88.109 83.7601H82.2139C81.5255 83.7601 80.9661 83.1965 80.9661 82.5029C80.9661 81.8092 81.5255 81.2457 82.2139 81.2457H88.109C88.7975 81.2457 89.3569 81.8092 89.3569 82.5029C89.3569 83.1965 88.7975 83.7601 88.109 83.7601ZM82.2139 81.6069C81.7263 81.6069 81.3246 82.0043 81.3246 82.5029C81.3246 83.0014 81.7191 83.3988 82.2139 83.3988H88.109C88.5967 83.3988 88.9983 83.0014 88.9983 82.5029C88.9983 82.0043 88.6038 81.6069 88.109 81.6069H82.2139Z" fill="#2D2D82"/>
<path d="M134.481 91.8744H83.1389C82.5508 91.8744 82.0703 91.3975 82.0703 90.7978C82.0703 90.1981 82.5436 89.7212 83.1389 89.7212H134.481C135.069 89.7212 135.549 90.1981 135.549 90.7978C135.549 91.3975 135.069 91.8744 134.481 91.8744Z" fill="#2D2D82"/>
<path d="M134.481 92.055H83.139C82.4505 92.055 81.8911 91.4915 81.8911 90.7978C81.8911 90.1042 82.4505 89.5406 83.139 89.5406H134.481C135.169 89.5406 135.728 90.1042 135.728 90.7978C135.728 91.4915 135.169 92.055 134.481 92.055ZM83.139 89.9091C82.6513 89.9091 82.2497 90.3065 82.2497 90.805C82.2497 91.3036 82.6513 91.6938 83.139 91.6938H134.481C134.968 91.6938 135.37 91.2964 135.37 90.7978C135.37 90.2993 134.975 89.9019 134.481 89.9019H83.139V89.9091Z" fill="#2D2D82"/>
<path d="M75.9601 91.8744H67.4904C66.9024 91.8744 66.4219 91.3975 66.4219 90.7978C66.4219 90.1981 66.8952 89.7212 67.4904 89.7212H75.9601C76.5482 89.7212 77.0287 90.1981 77.0287 90.7978C77.0287 91.3975 76.5482 91.8744 75.9601 91.8744Z" fill="#2D2D82"/>
<path d="M75.9602 92.055H67.4905C66.8021 92.055 66.2427 91.4915 66.2427 90.7978C66.2427 90.1042 66.8021 89.5406 67.4905 89.5406H75.9602C76.6487 89.5406 77.2081 90.1042 77.2081 90.7978C77.2081 91.4915 76.6487 92.055 75.9602 92.055ZM67.4905 89.9091C67.0029 89.9091 66.6013 90.3065 66.6013 90.805C66.6013 91.3036 67.0029 91.6938 67.4905 91.6938H75.9602C76.4479 91.6938 76.8495 91.2964 76.8495 90.7978C76.8495 90.2993 76.4551 89.9019 75.9602 89.9019H67.4905V89.9091Z" fill="#2D2D82"/>
<path d="M108.527 100.003H67.5122C66.9241 100.003 66.4436 99.5261 66.4436 98.9264C66.4436 98.3339 66.9169 97.8498 67.5122 97.8498H108.527C109.115 97.8498 109.595 98.3339 109.595 98.9264C109.588 99.5261 109.115 100.003 108.527 100.003Z" fill="#2D2D82"/>
<path d="M108.527 100.184H67.5122C66.8237 100.184 66.2715 99.6201 66.2715 98.9264C66.2715 98.2328 66.8309 97.6692 67.5122 97.6692H108.527C109.215 97.6692 109.775 98.2328 109.775 98.9264C109.767 99.6201 109.208 100.184 108.527 100.184ZM67.5122 98.0377C67.0245 98.0377 66.6301 98.4351 66.6301 98.9337C66.6301 99.4322 67.0245 99.8296 67.5122 99.8296H108.527C109.014 99.8296 109.416 99.4322 109.416 98.9337C109.416 98.4351 109.022 98.0377 108.527 98.0377H67.5122Z" fill="#2D2D82"/>
<path d="M134.481 100.003H126.011C125.423 100.003 124.942 99.5261 124.942 98.9264C124.942 98.3339 125.416 97.8498 126.011 97.8498H134.481C135.069 97.8498 135.549 98.3339 135.549 98.9264C135.549 99.5261 135.069 100.003 134.481 100.003Z" fill="#2D2D82"/>
<path d="M134.481 100.184H126.011C125.323 100.184 124.763 99.6201 124.763 98.9264C124.763 98.2328 125.323 97.6692 126.011 97.6692H134.481C135.169 97.6692 135.729 98.2328 135.729 98.9264C135.729 99.6201 135.169 100.184 134.481 100.184ZM126.018 98.0377C125.531 98.0377 125.129 98.4351 125.129 98.9337C125.129 99.4322 125.523 99.8296 126.018 99.8296H134.488C134.976 99.8296 135.377 99.4322 135.377 98.9337C135.377 98.4351 134.983 98.0377 134.488 98.0377H126.018Z" fill="#2D2D82"/>
<path d="M119.779 100.003H113.869C113.281 100.003 112.801 99.5261 112.801 98.9264C112.801 98.3339 113.274 97.8498 113.869 97.8498H119.779C120.367 97.8498 120.847 98.3339 120.847 98.9264C120.847 99.5261 120.367 100.003 119.779 100.003Z" fill="#2D2D82"/>
<path d="M119.779 100.184H113.869C113.181 100.184 112.622 99.6201 112.622 98.9264C112.622 98.2328 113.181 97.6692 113.869 97.6692H119.779C120.467 97.6692 121.027 98.2328 121.027 98.9264C121.027 99.6201 120.467 100.184 119.779 100.184ZM113.869 98.0377C113.382 98.0377 112.98 98.4351 112.98 98.9337C112.98 99.4322 113.375 99.8296 113.869 99.8296H119.779C120.267 99.8296 120.668 99.4322 120.668 98.9337C120.668 98.4351 120.274 98.0377 119.779 98.0377H113.869Z" fill="#2D2D82"/>
</svg>
