<svg width="202" height="175" viewBox="0 0 202 175" fill="none" xmlns="http://www.w3.org/2000/svg">
<rect width="202" height="175" rx="20" fill="#EEEEF7"/>
<g clip-path="url(#clip0_1_1240)">
<g clip-path="url(#clip1_1_1240)">
<path d="M132.253 151H67.7467C67.1257 143.678 61.2544 137.796 54 137.172V113.829C61.3038 113.212 67.1398 107.344 67.7538 100H132.253C132.874 107.344 138.703 113.212 146 113.829V137.172C138.703 137.789 132.867 143.657 132.253 151Z" fill="white"/>
</g>
<path d="M100.493 108.924C91.4661 108.924 84.1283 116.263 84.1283 125.283C84.1283 134.304 91.4729 141.65 100.493 141.65C109.52 141.65 116.865 134.31 116.865 125.283C116.872 116.263 109.527 108.924 100.493 108.924ZM114.412 125.283C114.412 132.953 108.169 139.192 100.493 139.192C92.8242 139.192 86.581 132.953 86.581 125.283C86.581 117.613 92.8242 111.374 100.493 111.374C108.169 111.374 114.412 117.613 114.412 125.283Z" fill="#B91E73"/>
<path d="M101.392 123.339V119.882C101.838 120.152 102.128 120.597 102.263 121.225L102.297 121.381L105.135 121.009L105.108 120.84C104.946 119.841 104.52 119.011 103.858 118.376C103.236 117.789 102.426 117.431 101.398 117.289V116.29H99.6282V117.289C98.5134 117.424 97.6485 117.856 96.9728 118.599C96.2634 119.362 95.9053 120.314 95.9053 121.428C95.9053 122.542 96.2228 123.494 96.8377 124.25C97.4323 125 98.3715 125.567 99.6282 125.938V129.658C99.3985 129.51 99.1755 129.294 98.9661 129.017C98.6823 128.652 98.4931 128.22 98.4053 127.741L98.3782 127.585L95.4661 127.93L95.4931 128.105C95.7026 129.408 96.1755 130.448 96.9053 131.191C97.608 131.88 98.5269 132.312 99.6282 132.474V134.317H101.398V132.453C102.662 132.231 103.662 131.704 104.378 130.894C105.128 130.063 105.507 129.01 105.507 127.774C105.507 126.64 105.216 125.749 104.615 125.047C104.02 124.324 102.973 123.771 101.392 123.339ZM102.736 128.099C102.736 128.558 102.594 128.943 102.311 129.28C102.061 129.564 101.757 129.76 101.385 129.874V126.451C101.851 126.613 102.169 126.809 102.385 127.072C102.621 127.369 102.736 127.707 102.736 128.099ZM98.7026 121.3C98.7026 120.948 98.8039 120.638 98.9998 120.354C99.1688 120.125 99.3782 119.949 99.6147 119.821V122.724C99.3309 122.562 99.1147 122.38 98.9728 122.171C98.7971 121.9 98.7026 121.617 98.7026 121.3Z" fill="#B91E73"/>
<path d="M145.77 98.5663H132.541H101.73V90.2143C101.811 90.2481 101.892 90.2818 101.98 90.2953C101.986 90.2953 101.986 90.2953 101.993 90.2953C106.203 91.1326 110.209 91.5512 113.919 91.5512C123.324 91.5512 130.743 88.8977 135.98 83.6651C143.304 76.3596 145.595 64.6115 142.608 49.6765C142.507 49.1904 142.128 48.8123 141.642 48.711C137.426 47.8738 133.405 47.4484 129.703 47.4484C120.304 47.4484 112.878 50.1019 107.649 55.3345C105.02 57.9542 103.054 61.1546 101.73 64.868V44.9232C101.75 44.8962 101.764 44.8625 101.784 44.8287C101.797 44.8017 101.811 44.7814 101.824 44.7544C101.872 44.6599 101.912 44.5586 101.932 44.4573C101.932 44.4506 101.932 44.4506 101.939 44.4438C103.453 36.8346 102.264 30.8254 98.5 27.0512C94.7162 23.3174 88.7027 22.1291 81.0946 23.6348C80.6081 23.7361 80.2297 24.1074 80.1284 24.6003C78.6149 32.1961 79.8108 38.2052 83.5811 41.9727C86.2973 44.6802 90.1149 46.0575 94.9392 46.0575C96.3041 46.0575 97.7568 45.9427 99.2703 45.7132V71.1877C98.4054 69.3648 97.2838 67.7443 95.8986 66.3602C92.2297 62.7075 87.0473 60.8507 80.5 60.8507C77.9324 60.8507 75.1554 61.1411 72.25 61.7217C71.7568 61.823 71.3784 62.2011 71.2838 62.6872C69.2297 73.0512 70.8378 81.2209 75.9392 86.305C79.5946 89.9713 84.7703 91.828 91.3311 91.828C93.8041 91.828 96.473 91.5512 99.2703 91.011V98.5663H68.4595H55.2297C54.5541 98.5663 54 99.1132 54 99.7951V113.015V137.558V150.778C54 151.453 54.5473 152.007 55.2297 152.007H68.4662H68.5068H68.5135H132.547H145.777C146.453 152.007 147.007 151.46 147.007 150.778V137.558V113.015V99.7951C147 99.1132 146.446 98.5663 145.77 98.5663ZM144.541 138.841V149.549H133.831C134.412 143.878 138.872 139.421 144.541 138.841ZM131.378 149.549H69.6149C69.0203 142.588 63.3986 136.984 56.4527 136.39V114.176C63.4459 113.582 69.0338 108.005 69.6216 101.017H131.378C131.973 108.005 137.554 113.589 144.541 114.176V136.39C137.554 136.977 131.973 142.561 131.378 149.549ZM56.4527 149.549V138.841C62.1284 139.421 66.5878 143.878 67.1689 149.549H56.4527ZM56.4527 111.726V101.017H67.1689C66.5946 106.689 62.1284 111.145 56.4527 111.726ZM144.541 111.726C138.872 111.152 134.405 106.689 133.831 101.017H144.541V111.726ZM82.3851 25.8899C88.75 24.7826 93.723 25.7886 96.7568 28.8067C99.527 31.5816 100.601 35.9838 99.9054 41.5946L92.4595 33.8165C91.9932 33.3304 91.2162 33.3101 90.723 33.776C90.2365 34.2419 90.2162 35.0183 90.6824 35.5112L98.223 43.3838C97.0811 43.5323 95.9797 43.6066 94.9392 43.6066C90.7905 43.6066 87.5541 42.4723 85.3176 40.2442C82.2905 37.2127 81.277 32.2501 82.3851 25.8899ZM73.5405 63.9768C82.6622 62.3159 89.7905 63.7405 94.1689 68.0954C98.2838 72.2073 99.7838 78.77 98.5473 87.1558L94.6014 83.0439L95.2162 73.5509C95.2635 72.8757 94.75 72.295 94.0743 72.2478C93.75 72.214 93.4459 72.3153 93.2027 72.5246C92.9459 72.7407 92.7905 73.058 92.7703 73.3956L92.3041 80.647L82.1081 70.0467C81.6419 69.5606 80.8581 69.5403 80.3716 70.0129C80.1351 70.2425 80 70.5463 79.9932 70.8704C79.9865 71.1945 80.1081 71.5118 80.3378 71.7481L84.1351 75.7047L78.7905 77.7235C78.1554 77.9598 77.8378 78.6687 78.0743 79.3034C78.2568 79.776 78.7162 80.0934 79.223 80.0934C79.3716 80.0934 79.5135 80.0664 79.6554 80.0124L85.9797 77.6222L96.8446 88.9315C94.9189 89.2151 93.0608 89.3704 91.3243 89.3704C85.4392 89.3704 80.8514 87.7567 77.6689 84.5698C73.3108 80.2284 71.8851 73.1053 73.5405 63.9768ZM113.919 89.107C111.034 89.107 107.932 88.8167 104.696 88.2833L109.02 83.7731L124.73 81.2884C125.054 81.2344 125.338 81.0656 125.534 80.7956C125.73 80.5255 125.804 80.2082 125.75 79.8841C125.696 79.56 125.52 79.2697 125.25 79.0738C124.986 78.8848 124.662 78.8105 124.351 78.8645L111.831 80.8496L119.365 72.9905C119.378 72.977 119.399 72.9635 119.412 72.9432C119.419 72.9365 119.419 72.9365 119.419 72.9297L129.365 62.5589C129.831 62.0728 129.818 61.2963 129.324 60.8237C128.838 60.3578 128.061 60.3781 127.588 60.8642L119.473 69.331L118.48 57.0697C118.453 56.7389 118.284 56.4215 118.02 56.2055C117.77 56.0029 117.459 55.9084 117.155 55.9489C116.831 55.9759 116.534 56.1245 116.318 56.3743C116.108 56.6241 116 56.9414 116.027 57.2723L117.196 71.7009L103.007 86.5076C100.865 73.5509 103.047 63.3962 109.378 57.0832C114.135 52.3299 120.973 49.9128 129.703 49.9128C133.007 49.9128 136.588 50.2706 140.358 50.9728C142.939 64.6722 140.824 75.3739 134.243 81.9366C129.48 86.6966 122.642 89.107 113.919 89.107Z" fill="#2D2D82"/>
<path d="M62.3514 62.6536C65.1216 62.6536 67.3716 60.412 67.3716 57.6505C67.3716 54.889 65.1216 52.6474 62.3514 52.6474C59.5879 52.6474 57.3446 54.8957 57.3446 57.6505C57.3379 60.4052 59.5879 62.6536 62.3514 62.6536ZM59.7973 57.6505C59.7973 56.2461 60.946 55.0983 62.3514 55.0983C63.7635 55.0983 64.9189 56.2461 64.9189 57.6505C64.9189 59.0549 63.7703 60.2027 62.3514 60.2027C60.9392 60.2027 59.7973 59.0549 59.7973 57.6505Z" fill="#2D2D82"/>
<path d="M138.5 36.0581C141.264 36.0581 143.507 33.8098 143.507 31.055C143.507 28.2935 141.257 26.0519 138.5 26.0519C135.743 26.0519 133.493 28.2935 133.493 31.055C133.493 33.8098 135.743 36.0581 138.5 36.0581ZM135.946 31.055C135.946 29.6507 137.095 28.5028 138.5 28.5028C139.905 28.5028 141.054 29.6439 141.054 31.055C141.054 32.4594 139.905 33.6072 138.5 33.6072C137.095 33.6072 135.946 32.4594 135.946 31.055Z" fill="#2D2D82"/>
</g>
<defs>
<clipPath id="clip0_1_1240">
<rect width="93" height="129" fill="white" transform="translate(54 23)"/>
</clipPath>
<clipPath id="clip1_1_1240">
<rect width="92" height="51" fill="white" transform="translate(54 100)"/>
</clipPath>
</defs>
</svg>
