<svg width="202" height="175" viewBox="0 0 202 175" fill="none" xmlns="http://www.w3.org/2000/svg">
<rect width="202" height="175" rx="20" fill="#EEEEF7"/>
<path d="M55 106H147V103.041H141.568C139.527 103.041 137.864 101.387 137.864 99.3491V83.6612C137.864 82.9577 138.43 82.392 139.135 82.392H142.454V79.7737C142.454 76.5752 144.211 73.645 147 72.0856V41.6744C147 36.8948 143.107 33 138.314 33H63.6858C58.8999 33 55 36.8875 55 41.6744V42.2039C57.658 44.1912 61.3836 44.8149 66.3366 44.1041C66.6997 44.0534 67.0701 44.1621 67.3461 44.4015C67.622 44.6408 67.7818 44.989 67.7818 45.3589C67.7818 48.0642 67.8254 50.3198 67.8544 52.2418C68.0578 63.462 67.898 63.8246 59.1686 71.5634C57.9631 72.6369 56.5759 73.8626 55 75.2914V106Z" fill="white"/>
<path d="M148.021 108.365H53.9793C53.2786 108.365 52.7151 107.805 52.7151 107.108V74.8679C52.7151 74.5157 52.8668 74.1779 53.1269 73.9408C54.8823 72.3525 56.3993 71.0086 57.7141 69.8515C65.6893 62.8085 65.6893 62.8085 65.5087 52.6321C65.4798 51.0654 65.4509 49.2687 65.4365 47.1845C60.1846 47.6948 56.1103 46.6887 53.163 44.202C52.8812 43.9649 52.7151 43.6127 52.7151 43.239V42.1107C52.7151 35.9876 57.7285 31 63.8833 31H138.117C144.279 31 149.285 35.9876 149.285 42.1107V73.0281C149.285 73.5239 148.989 73.9767 148.533 74.1779C146.243 75.1841 144.763 77.4192 144.763 79.8626V83.7147C144.763 84.4118 144.199 84.9724 143.498 84.9724H140.197V99.2597C140.197 99.8921 140.717 100.402 141.346 100.402H148.013C148.714 100.402 149.278 100.963 149.278 101.66V107.108C149.285 107.805 148.721 108.365 148.021 108.365ZM55.2435 105.85H146.756V102.918H141.353C139.323 102.918 137.669 101.279 137.669 99.2597V83.7147C137.669 83.0176 138.232 82.4571 138.933 82.4571H142.234V79.8626C142.234 76.6933 143.982 73.7898 146.756 72.2447V42.1107C146.756 37.3746 142.884 33.5154 138.117 33.5154H63.8833C59.1155 33.5154 55.2435 37.3675 55.2435 42.1107V42.6353C57.8874 44.6045 61.5933 45.2226 66.52 44.5183C66.8812 44.468 67.2497 44.5758 67.5242 44.8129C67.7987 45.0501 67.9576 45.395 67.9576 45.7616C67.9576 48.4422 68.0009 50.6773 68.0298 52.5818C68.2321 63.6997 68.0732 64.059 59.39 71.7273C58.1908 72.7909 56.8111 74.0055 55.2435 75.4212V105.85Z" fill="#2D2D82"/>
<path d="M160.496 102.918H141.353C139.323 102.918 137.669 101.279 137.669 99.2598V83.7148C137.669 83.0177 138.232 82.4572 138.933 82.4572H163.068C163.769 82.4572 164.332 83.0177 164.332 83.7148V99.1016C164.34 101.207 162.613 102.918 160.496 102.918ZM140.204 84.9725V99.2598C140.204 99.8922 140.724 100.402 141.353 100.402H160.496C161.219 100.402 161.811 99.8203 161.811 99.1016V84.9725H140.204Z" fill="#B91E73"/>
<path d="M158.503 84.9724H143.499C142.798 84.9724 142.234 84.4118 142.234 83.7147V79.8626C142.234 75.0619 146.164 71.1523 150.997 71.1523C155.83 71.1523 159.767 75.0619 159.767 79.8626V83.7147C159.767 84.4118 159.203 84.9724 158.503 84.9724ZM144.763 82.457H157.238V79.8626C157.238 76.4489 154.443 73.6676 151.004 73.6676C147.566 73.6676 144.77 76.4417 144.77 79.8626V82.457H144.763Z" fill="#B91E73"/>
<path d="M147.06 97.8152C146.735 97.8152 146.41 97.6858 146.157 97.4415C145.666 96.9456 145.673 96.1479 146.171 95.6663L154.06 87.9262C154.551 87.4375 155.36 87.4447 155.844 87.9406C156.335 88.4365 156.328 89.2342 155.83 89.7157L147.941 97.4558C147.703 97.693 147.378 97.8152 147.06 97.8152Z" fill="#B91E73"/>
<path d="M154.941 97.8151C154.623 97.8151 154.298 97.6929 154.053 97.4558L146.179 89.7156C145.68 89.2269 145.68 88.4292 146.164 87.9333C146.655 87.4375 147.457 87.4303 147.956 87.919L155.83 95.6591C156.328 96.1478 156.328 96.9455 155.844 97.4414C155.591 97.6929 155.266 97.8151 154.941 97.8151Z" fill="#B91E73"/>
<path d="M53.9938 76.1256C53.6904 76.1256 53.387 76.0178 53.1414 75.8022C51.256 74.0989 49.6378 72.7047 48.2652 71.5045C39.9433 64.2746 39.7916 63.9009 39.9071 51.3457C39.9216 49.7143 39.936 47.8673 39.936 45.7616C39.936 45.3879 40.1022 45.0357 40.3911 44.7986C40.6801 44.5614 41.063 44.468 41.4314 44.5255C45.8236 45.3304 49.7028 44.5614 53.2931 42.1898C53.7627 41.8807 54.3839 41.9167 54.8101 42.276C57.4758 44.5255 61.3117 45.2585 66.5201 44.5183C66.8813 44.468 67.2498 44.5758 67.5243 44.8129C67.7988 45.0501 67.9577 45.3951 67.9577 45.7616C67.9577 48.4422 68.0011 50.6845 68.03 52.5818C68.2322 63.7069 68.0733 64.059 59.3973 71.7273C58.0898 72.8843 56.5872 74.2139 54.8463 75.795C54.6006 76.0178 54.2972 76.1256 53.9938 76.1256ZM42.4644 47.2205C42.4572 48.7441 42.45 50.1239 42.4355 51.3744C42.3272 63.0026 42.3272 63.0026 49.934 69.6072C51.1115 70.6277 52.4551 71.792 53.9938 73.1718C55.3881 71.9141 56.6306 70.8146 57.7286 69.8515C65.7038 62.8085 65.7038 62.8085 65.516 52.6321C65.4871 51.0654 65.4582 49.2687 65.4438 47.1846C60.6182 47.6589 56.8039 46.8396 53.9216 44.777C50.4252 46.8612 46.6037 47.6804 42.4644 47.2205Z" fill="#B91E73"/>
<path d="M100.754 66.2942C94.9896 66.2942 90.3013 61.63 90.3013 55.9021C90.3013 50.1671 94.9896 45.4957 100.754 45.4957C106.519 45.4957 111.215 50.1671 111.215 55.9021C111.215 61.63 106.519 66.2942 100.754 66.2942ZM100.754 48.0111C96.3838 48.0111 92.8296 51.547 92.8296 55.9021C92.8296 60.2429 96.3838 63.7788 100.754 63.7788C105.125 63.7788 108.686 60.2429 108.686 55.9021C108.679 51.547 105.125 48.0111 100.754 48.0111Z" fill="#2D2D82"/>
<path d="M117.868 93.8624C117.167 93.8624 116.604 93.3018 116.604 92.6047V79.0433C116.604 74.3647 112.775 70.5629 108.072 70.5629H93.9422C89.2394 70.5629 85.4107 74.3647 85.4107 79.0433V92.6047C85.4107 93.3018 84.8472 93.8624 84.1465 93.8624C83.4458 93.8624 82.8823 93.3018 82.8823 92.6047V79.0433C82.8823 72.9777 87.8452 68.0404 93.9422 68.0404H108.072C114.169 68.0404 119.132 72.9777 119.132 79.0433V92.6047C119.132 93.2946 118.569 93.8624 117.868 93.8624ZM111.742 93.8624C111.041 93.8624 110.478 93.3018 110.478 92.6047V85.1808C110.478 84.4837 111.041 83.9231 111.742 83.9231C112.443 83.9231 113.006 84.4837 113.006 85.1808V92.5975C113.006 93.2946 112.443 93.8624 111.742 93.8624ZM90.258 93.8624C89.5572 93.8624 88.9938 93.3018 88.9938 92.6047V85.1808C88.9938 84.4837 89.5572 83.9231 90.258 83.9231C90.9587 83.9231 91.5222 84.4837 91.5222 85.1808V92.5975C91.5222 93.2946 90.9587 93.8624 90.258 93.8624Z" fill="#2D2D82"/>
<path d="M101.007 88.8102C100.306 88.8102 99.7429 88.2497 99.7429 87.5526V75.2129H97.5252C96.8245 75.2129 96.261 74.6524 96.261 73.9553C96.261 73.2581 96.8245 72.6976 97.5252 72.6976H104.482C105.183 72.6976 105.746 73.2581 105.746 73.9553C105.746 74.6524 105.183 75.2129 104.482 75.2129H102.271V87.5454C102.271 88.2425 101.701 88.8102 101.007 88.8102Z" fill="#2D2D82"/>
<path d="M117.868 93.8625H84.1465C83.4458 93.8625 82.8823 93.3019 82.8823 92.6048C82.8823 91.9077 83.4458 91.3471 84.1465 91.3471H117.868C118.569 91.3471 119.132 91.9077 119.132 92.6048C119.132 93.2947 118.569 93.8625 117.868 93.8625Z" fill="#2D2D82"/>
<path d="M176.736 108.365H25.2642C24.5635 108.365 24 107.805 24 107.108C24 106.41 24.5635 105.85 25.2642 105.85H176.736C177.437 105.85 178 106.41 178 107.108C178 107.805 177.437 108.365 176.736 108.365Z" fill="#2D2D82"/>
<path d="M176.736 117.643H25.2642C24.5635 117.643 24 117.083 24 116.386C24 115.689 24.5635 115.128 25.2642 115.128H176.736C177.437 115.128 178 115.689 178 116.386C178 117.083 177.437 117.643 176.736 117.643Z" fill="#2D2D82"/>
<path d="M53.9793 151.838C53.2786 151.838 52.7151 151.277 52.7151 150.58V131.413C52.7151 130.716 53.2786 130.155 53.9793 130.155C54.68 130.155 55.2435 130.716 55.2435 131.413V150.58C55.2435 151.27 54.68 151.838 53.9793 151.838Z" fill="#B91E73"/>
<path d="M65.74 155C65.0393 155 64.4758 154.439 64.4758 153.742V122.365C64.4758 121.668 65.0393 121.107 65.74 121.107C66.4407 121.107 67.0042 121.668 67.0042 122.365V153.742C67.0042 154.439 66.4335 155 65.74 155Z" fill="#B91E73"/>
<path d="M77.4932 135.014C76.7925 135.014 76.229 134.453 76.229 133.756V122.365C76.229 121.668 76.7925 121.107 77.4932 121.107C78.1939 121.107 78.7574 121.668 78.7574 122.365V133.756C78.7574 134.453 78.1939 135.014 77.4932 135.014Z" fill="#B91E73"/>
<path d="M89.2539 155C88.5532 155 87.9897 154.439 87.9897 153.742V122.365C87.9897 121.668 88.5532 121.107 89.2539 121.107C89.9547 121.107 90.5181 121.668 90.5181 122.365V153.742C90.5181 154.439 89.9474 155 89.2539 155Z" fill="#B91E73"/>
<path d="M101.007 151.838C100.306 151.838 99.7429 151.277 99.7429 150.58V131.413C99.7429 130.716 100.306 130.155 101.007 130.155C101.708 130.155 102.271 130.716 102.271 131.413V150.58C102.271 151.27 101.701 151.838 101.007 151.838Z" fill="#B91E73"/>
<path d="M112.761 155C112.06 155 111.496 154.439 111.496 153.742V122.365C111.496 121.668 112.06 121.107 112.761 121.107C113.461 121.107 114.025 121.668 114.025 122.365V153.742C114.025 154.439 113.461 155 112.761 155Z" fill="#B91E73"/>
<path d="M124.507 142.768C123.806 142.768 123.242 142.208 123.242 141.51V122.365C123.242 121.668 123.806 121.107 124.507 121.107C125.207 121.107 125.771 121.668 125.771 122.365V141.51C125.771 142.208 125.207 142.768 124.507 142.768Z" fill="#B91E73"/>
<path d="M136.267 155C135.567 155 135.003 154.439 135.003 153.742V137.083C135.003 136.386 135.567 135.826 136.267 135.826C136.968 135.826 137.532 136.386 137.532 137.083V153.742C137.532 154.439 136.968 155 136.267 155Z" fill="#B91E73"/>
<path d="M148.021 146.548C147.32 146.548 146.756 145.988 146.756 145.291V122.365C146.756 121.668 147.32 121.107 148.021 121.107C148.721 121.107 149.285 121.668 149.285 122.365V145.291C149.285 145.988 148.721 146.548 148.021 146.548Z" fill="#B91E73"/>
<path d="M53.9793 129.947C53.2786 129.947 52.7151 129.386 52.7151 128.689V122.365C52.7151 121.668 53.2786 121.107 53.9793 121.107C54.68 121.107 55.2435 121.668 55.2435 122.365V128.689C55.2435 129.386 54.68 129.947 53.9793 129.947Z" fill="#2D2D82"/>
<path d="M77.4932 151.838C76.7925 151.838 76.229 151.277 76.229 150.58V144.234C76.229 143.537 76.7925 142.977 77.4932 142.977C78.1939 142.977 78.7574 143.537 78.7574 144.234V150.58C78.7574 151.27 78.1939 151.838 77.4932 151.838Z" fill="#B91E73"/>
<path d="M101.007 129.947C100.306 129.947 99.7429 129.386 99.7429 128.689V122.365C99.7429 121.668 100.306 121.107 101.007 121.107C101.708 121.107 102.271 121.668 102.271 122.365V128.689C102.271 129.386 101.701 129.947 101.007 129.947Z" fill="#2D2D82"/>
<path d="M124.507 151.838C123.806 151.838 123.242 151.277 123.242 150.58V144.234C123.242 143.537 123.806 142.977 124.507 142.977C125.207 142.977 125.771 143.537 125.771 144.234V150.58C125.771 151.27 125.207 151.838 124.507 151.838Z" fill="#B91E73"/>
<path d="M49.7245 62.4276C49.58 62.4276 49.4356 62.3988 49.2911 62.3485C48.9588 62.2263 48.6915 61.9748 48.5542 61.6442L46.0909 55.7367C45.8236 55.0971 46.127 54.3569 46.7772 54.0909C47.4201 53.825 48.1642 54.1269 48.4314 54.7737L50.3675 59.4091L61.644 53.5304C62.2653 53.2142 63.031 53.4441 63.3489 54.0622C63.674 54.6803 63.4356 55.4349 62.8143 55.7583L50.3097 62.2766C50.1291 62.3773 49.9268 62.4276 49.7245 62.4276Z" fill="#B91E73"/>
<path d="M77.4932 142.129C76.7925 142.129 76.229 141.568 76.229 140.871V137.256C76.229 136.559 76.7925 135.998 77.4932 135.998C78.1939 135.998 78.7574 136.559 78.7574 137.256V140.871C78.7574 141.561 78.1939 142.129 77.4932 142.129Z" fill="#B91E73"/>
<path d="M136.267 135.927C135.567 135.927 135.003 135.366 135.003 134.669V128.33C135.003 127.633 135.567 127.072 136.267 127.072C136.968 127.072 137.532 127.633 137.532 128.33V134.669C137.532 135.366 136.968 135.927 136.267 135.927Z" fill="#B91E73"/>
<path d="M136.267 126.849C135.567 126.849 135.003 126.289 135.003 125.592V122.293C135.003 121.596 135.567 121.035 136.267 121.035C136.968 121.035 137.532 121.596 137.532 122.293V125.592C137.532 126.282 136.968 126.849 136.267 126.849Z" fill="#2D2D82"/>
</svg>
