<svg width="1042" height="227" viewBox="0 0 1042 227" fill="none" xmlns="http://www.w3.org/2000/svg">
<g clip-path="url(#clip0_1_2351)">
<path d="M177.43 52.57H185.94C187.15 52.57 188.13 53.55 188.13 54.76C188.13 55.97 187.15 56.95 185.94 56.95H177.43C176.22 56.95 175.24 55.97 175.24 54.76C175.24 54.16 175.49 53.61 175.88 53.21C176.28 52.81 176.82 52.57 177.43 52.57Z" fill="#F89F1E"/>
<path d="M209.19 54.7201C209.2 55.3401 208.95 55.9001 208.55 56.3001C208.15 56.7001 207.61 56.9401 207 56.9401H198.49C197.28 56.9401 196.3 55.9601 196.3 54.7501C196.3 53.5401 197.28 52.5601 198.49 52.5601H206.94C208.15 52.5701 209.17 53.5201 209.19 54.7201Z" fill="#F89F1E"/>
<path d="M194.4 39.97V48.47C194.4 49.68 193.42 50.66 192.21 50.66C191 50.66 190.02 49.68 190.02 48.47V39.97C190.02 38.76 191 37.78 192.21 37.78C192.81 37.78 193.36 38.02 193.76 38.42C194.16 38.82 194.4 39.36 194.4 39.97Z" fill="#F89F1E"/>
<path d="M192.21 58.85C193.42 58.85 194.4 59.83 194.4 61.04V69.54C194.4 70.75 193.42 71.73 192.21 71.73C191.61 71.73 191.06 71.48 190.66 71.09C190.26 70.69 190.02 70.15 190.02 69.54V61.04C190.03 59.83 191.01 58.85 192.21 58.85Z" fill="#F89F1E"/>
<path d="M1034.74 82.55C1030.98 82.55 1027.93 85.6 1027.93 89.36C1027.93 93.12 1030.98 96.17 1034.74 96.17C1038.5 96.17 1041.55 93.12 1041.55 89.36C1041.56 85.6 1038.51 82.55 1034.74 82.55ZM1034.74 93.14C1032.65 93.14 1030.96 91.45 1030.96 89.36C1030.96 87.27 1032.65 85.58 1034.74 85.58C1036.83 85.58 1038.52 87.27 1038.52 89.36C1038.53 91.45 1036.83 93.14 1034.74 93.14Z" fill="#2F2F81"/>
<path d="M1002.44 65.73H1008.04C1008.83 65.73 1009.48 66.37 1009.48 67.17C1009.48 67.96 1008.84 68.61 1008.04 68.61H1002.44C1001.65 68.61 1001 67.97 1001 67.17C1001 66.77 1001.16 66.41 1001.42 66.15C1001.68 65.89 1002.05 65.73 1002.44 65.73Z" fill="#2F2F81"/>
<path d="M1023.34 67.14C1023.35 67.55 1023.18 67.92 1022.92 68.18C1022.66 68.44 1022.3 68.6 1021.9 68.6H1016.3C1015.51 68.6 1014.86 67.96 1014.86 67.16C1014.86 66.37 1015.5 65.72 1016.3 65.72H1021.86C1022.66 65.73 1023.33 66.35 1023.34 67.14Z" fill="#2F2F81"/>
<path d="M1013.61 57.44V63.03C1013.61 63.83 1012.97 64.47 1012.17 64.47C1011.37 64.47 1010.73 63.83 1010.73 63.03V57.44C1010.73 56.64 1011.37 56 1012.17 56C1012.57 56 1012.93 56.16 1013.19 56.42C1013.45 56.68 1013.61 57.04 1013.61 57.44Z" fill="#2F2F81"/>
<path d="M1012.17 69.86C1012.97 69.86 1013.61 70.5 1013.61 71.3V76.9C1013.61 77.69 1012.97 78.34 1012.17 78.34C1011.77 78.34 1011.41 78.18 1011.15 77.92C1010.89 77.66 1010.73 77.3 1010.73 76.9V71.3C1010.73 70.5 1011.38 69.86 1012.17 69.86Z" fill="#2F2F81"/>
<path d="M723.654 41.0206H733.976C735.445 41.0206 736.63 42.216 736.63 43.6849C736.63 45.1601 735.439 46.3491 733.976 46.3491H723.654C722.191 46.3555 721 45.1601 721 43.6912C721 42.9536 721.298 42.2859 721.779 41.8027C722.26 41.3194 722.925 41.0206 723.654 41.0206Z" fill="#B81F74"/>
<path d="M762.215 43.6468C762.228 44.4035 761.93 45.0838 761.436 45.5798C760.955 46.0631 760.29 46.3619 759.555 46.3619H749.232C747.763 46.3619 746.579 45.1665 746.579 43.6977C746.579 42.2224 747.769 41.0334 749.232 41.0334H759.492C760.955 41.0207 762.19 42.1779 762.215 43.6468Z" fill="#B81F74"/>
<path d="M744.261 25.6643V36.0289C744.261 37.5042 743.07 38.6996 741.607 38.6996C740.138 38.6996 738.948 37.5042 738.948 36.0289V25.6643C738.948 24.1891 740.138 23 741.601 23C742.336 23 743.001 23.2989 743.482 23.7821C743.963 24.2654 744.261 24.9267 744.261 25.6643Z" fill="#B81F74"/>
<path d="M741.607 48.6829C743.077 48.6829 744.261 49.8783 744.261 51.3535V61.7182C744.261 63.1934 743.07 64.3824 741.601 64.3824C740.866 64.3824 740.201 64.0836 739.726 63.6003C739.245 63.1171 738.948 62.4494 738.948 61.7118V51.3472C738.948 49.8719 740.138 48.6829 741.607 48.6829Z" fill="#B81F74"/>
</g>
<defs>
<clipPath id="clip0_1_2351">
<rect width="1041.56" height="226.36" fill="white"/>
</clipPath>
</defs>
</svg>
