<svg width="820" height="189" viewBox="0 0 820 189" fill="none" xmlns="http://www.w3.org/2000/svg">
<g clip-path="url(#clip0_1_1574)">
<path d="M188.464 189C188.364 189 188.265 189 188.165 188.992C166.985 187.313 147.277 181.894 131.189 173.345C129.359 172.376 128.668 170.097 129.633 168.268C130.598 166.431 132.869 165.738 134.691 166.707C149.89 174.789 168.582 179.907 188.755 181.51C190.818 181.677 192.357 183.481 192.191 185.552C192.033 187.505 190.394 189 188.464 189ZM229.767 187.831C227.904 187.831 226.298 186.437 226.057 184.541C225.799 182.479 227.255 180.6 229.31 180.35C247.395 178.079 265.497 173.612 284.647 166.698C286.594 165.997 288.74 167.007 289.439 168.961C290.138 170.915 289.131 173.069 287.184 173.77C267.502 180.876 248.876 185.468 230.242 187.806C230.075 187.823 229.926 187.831 229.767 187.831ZM323.954 157.681C322.573 157.681 321.242 156.904 320.585 155.577C319.678 153.715 320.443 151.46 322.298 150.55C337.605 143.036 353.619 134.135 372.694 122.546C374.466 121.469 376.762 122.037 377.835 123.815C378.908 125.594 378.343 127.898 376.571 128.975C357.304 140.681 341.099 149.682 325.593 157.305C325.069 157.564 324.511 157.681 323.954 157.681ZM101.715 147.11C100.55 147.11 99.394 146.559 98.6619 145.532C88.5129 131.255 83.3635 114.255 83.3635 95.0009C83.3635 92.7215 83.4384 90.3753 83.5798 88.0374C83.7046 85.9667 85.4848 84.397 87.5479 84.5223C89.611 84.6475 91.1833 86.4343 91.0502 88.505C90.9171 90.6926 90.8422 92.8718 90.8422 95.0009C90.8422 112.66 95.5174 128.19 104.751 141.174C105.949 142.86 105.558 145.207 103.878 146.417C103.229 146.877 102.464 147.11 101.715 147.11ZM816.257 118.547C814.817 118.547 813.436 117.703 812.821 116.292C805.783 100.144 794.095 85.5325 778.065 72.8496C776.442 71.5638 776.16 69.2009 777.441 67.5727C778.722 65.9445 781.076 65.6607 782.698 66.9465C799.702 80.3976 812.147 95.9862 819.684 113.278C820.516 115.182 819.651 117.394 817.754 118.229C817.263 118.446 816.756 118.547 816.257 118.547ZM409.771 107.509C408.532 107.509 407.326 106.891 406.61 105.763C405.504 104.01 406.019 101.689 407.758 100.578L412.558 97.5141C418.223 93.8988 423.872 90.2918 429.495 86.7349C438.729 80.8986 448.138 75.3378 457.463 70.2279C459.277 69.2343 461.548 69.9022 462.546 71.7224C463.536 73.5426 462.871 75.8304 461.057 76.824C451.865 81.8671 442.598 87.3444 433.488 93.0972C427.873 96.6458 422.233 100.244 416.576 103.86L411.776 106.924C411.152 107.316 410.462 107.509 409.771 107.509ZM496.396 58.9476C494.957 58.9476 493.576 58.1043 492.96 56.6933C492.128 54.7896 492.993 52.5769 494.89 51.742C513.283 43.668 531.809 37.0552 549.953 32.0705C551.949 31.5194 554.004 32.7051 554.553 34.7006C555.102 36.7045 553.921 38.7668 551.933 39.3179C534.138 44.2024 515.953 50.6983 497.893 58.6304C497.411 58.8474 496.895 58.9476 496.396 58.9476ZM745.105 52.076C744.573 52.076 744.024 51.9591 743.508 51.7169C726.987 43.8934 708.793 37.8066 689.427 33.6319C687.405 33.1977 686.116 31.2021 686.549 29.1732C686.981 27.1443 688.969 25.8501 690.991 26.2843C710.915 30.5759 729.657 36.8464 746.694 44.9204C748.566 45.8055 749.364 48.0431 748.483 49.9218C747.85 51.2828 746.511 52.076 745.105 52.076ZM591.422 30.9183C589.592 30.9183 587.995 29.574 587.72 27.7037C587.421 25.6497 588.843 23.746 590.89 23.4454C605.423 21.3246 619.956 20.2476 634.081 20.2476C639.206 20.2476 644.364 20.3895 649.421 20.665C651.484 20.7819 653.065 22.552 652.957 24.6227C652.841 26.6934 651.069 28.2965 649.014 28.1713C644.097 27.8957 639.073 27.7621 634.081 27.7621C620.314 27.7621 606.147 28.8142 591.971 30.8849C591.78 30.9016 591.597 30.9183 591.422 30.9183Z" fill="#B71F74"/>
<g opacity="0.89">
<path opacity="0.89" d="M0.308231 3.2476L39.3154 68.2988C39.357 68.3656 39.3986 68.424 39.4402 68.4825C40.1473 69.426 41.4867 69.618 42.435 68.9083L66.8925 50.3807L83.9795 63.097C84.5368 63.573 85.3271 63.7483 86.0675 63.4895C86.8495 63.2139 87.3736 62.5293 87.4817 61.7611L94.428 29.5236L113.927 14.7533C114.427 14.4109 114.784 13.8515 114.843 13.1919C114.959 12.0146 114.094 10.9626 112.921 10.8457L2.34636 0.00798211C1.90545 -0.0337655 1.44792 0.0580793 1.04029 0.308565C0.025389 0.909731 -0.299047 2.22896 0.308231 3.2476ZM89.9691 29.891L84.8779 53.5285L79.7618 38.7665C79.5954 38.2822 79.2544 37.8564 78.7719 37.5892L45.7293 19.3956L89.9691 29.891ZM6.1564 4.69207L107.048 14.5779L92.0072 25.9667L31.3959 11.5971C30.2479 11.3216 29.0999 12.0397 28.8253 13.1835C28.6007 14.1437 29.0499 15.1039 29.8735 15.5548L73.8221 39.7517L65.678 45.9221C65.6197 45.9638 65.5698 45.9972 65.5199 46.0473L41.7529 64.0489L6.1564 4.69207Z" fill="#B71E74"/>
</g>
</g>
<defs>
<clipPath id="clip0_1_1574">
<rect width="820" height="189" fill="white"/>
</clipPath>
</defs>
</svg>
