<svg width="444" height="449" viewBox="0 0 444 449" fill="none" xmlns="http://www.w3.org/2000/svg">
<g filter="url(#filter0_d_1_1591)">
<rect x="10" y="40" width="366" height="365" rx="80" fill="#F9A01B"/>
</g>
<path d="M138.83 224.897C146.004 217.838 153.782 203.273 158.673 193.181C153.555 205.049 147.263 221.371 142.106 235.975C137.396 249.308 133.634 261.203 132.577 266.946C131.532 272.618 131.208 295.972 131.234 324.175C137.007 330.735 141.827 334.657 144.707 333.937C145.193 333.814 145.725 333.568 146.29 333.218C150.616 319.631 158.776 302.039 173.897 280.714C179.826 272.345 193.234 250.767 203.898 233.356L205.033 233.778L259.112 253.911L260.092 254.274C255.934 264.197 250.239 275.573 249.285 277.745C239.445 300.134 230.908 321.809 216.145 341.677C203.087 359.249 186.838 377.801 171.211 392.884C166.898 397.046 162.766 399.463 157.246 401.92C157.233 401.926 150.973 403.417 150.973 403.417L143.195 396.54C140.036 396.313 136.112 393.448 131.701 388.69C131.772 394.537 131.844 400.189 131.915 405.543H246.45C242.13 392.955 239.062 380.316 240.178 371.837C242.072 357.428 259.8 295.181 268.784 246.067C274.181 216.561 276.412 191.8 270.159 185.001C254.935 168.452 230.383 164.381 226.231 163.798C232.024 174.992 205.941 210.384 180.838 206.054C173.404 204.771 186.968 173.878 186.513 170.183C181.752 171.213 177.361 172.322 173.897 173.463C173.884 173.437 173.864 173.411 173.851 173.385C164.29 176.406 141.807 185.59 130.28 207.72C120.259 226.958 119.928 232.086 119.928 232.086L126.479 233.233C130.456 231.366 135.003 228.67 138.83 224.897ZM163.609 182.447C163.609 182.453 163.603 182.453 163.603 182.46C163.609 182.447 163.609 182.44 163.609 182.44V182.447Z" fill="white"/>
<path d="M59.5043 216.911C61.2946 216.873 62.3649 216.179 62.3649 215.336C62.3649 213.69 52.7646 205.451 54.7885 202.159C56.8058 198.866 70.4473 208.751 74.9945 218.085C79.5416 227.419 78.0237 243.896 78.0237 243.896C78.0237 243.896 110.671 300.814 131.234 324.188C131.214 295.985 131.539 272.624 132.577 266.959C133.634 261.209 137.396 249.315 142.106 235.988L127.822 233.486C123.8 249.82 121.257 265.974 119.441 266.965C116.412 268.612 82.8433 216.937 76.9794 208.79C69.7208 198.717 67.0094 187.153 62.4622 178.363C57.9151 169.58 41.9059 166.585 35.8474 167.687C35.7306 167.707 35.6268 167.739 35.5295 167.778L59.5043 216.911Z" fill="#E89C80"/>
<path d="M32.5586 180.988C31.3845 188.067 30.139 197.038 30.8072 199.857C31.9683 204.758 34.8938 202.133 35.4451 201.063C35.6397 200.681 35.8343 200.214 36.0224 199.682C35.7305 202.035 35.5813 203.941 35.75 204.738C36.3533 207.662 38.2214 208.316 39.6809 207.208C40.5826 206.527 41.4712 203.798 42.2172 200.778L32.5586 180.988Z" fill="#E89C80"/>
<path d="M44.1957 204.829C44.1957 204.829 47.2055 211.492 52.7646 214.785C55.4695 216.386 57.8112 216.944 59.5043 216.911L35.5295 167.758L32.7597 162.087C28.5563 164.135 26.8114 169.204 28.8547 173.404L32.5521 180.988L42.2043 200.778L44.1827 204.835C44.1892 204.835 44.1957 204.829 44.1957 204.829Z" fill="#184655"/>
<path d="M158.673 193.181C153.782 203.273 146.004 217.845 138.83 224.897C135.003 228.663 130.456 231.366 126.46 233.233L127.822 233.473L142.106 235.975C147.262 221.377 153.555 205.049 158.673 193.181Z" fill="#EFEFEF"/>
<path d="M163.609 182.447V182.44C163.609 182.44 163.602 182.447 163.602 182.46C163.602 182.454 163.602 182.447 163.609 182.447Z" fill="#EFEFEF"/>
<path d="M143.189 396.54L150.966 403.417C150.966 403.417 157.226 401.927 157.239 401.92C162.766 399.47 166.891 397.052 171.205 392.884C186.831 377.807 203.087 359.256 216.138 341.677C230.895 321.809 239.438 300.14 249.279 277.745C250.232 275.573 255.927 264.198 260.085 254.274L259.106 253.911C233.873 319.612 159.308 397.713 143.189 396.54Z" fill="#EFEFEF"/>
<path d="M205.033 233.784L203.898 233.363C193.227 250.773 179.826 272.352 173.897 280.72C158.776 302.052 150.616 319.638 146.29 333.224C158.653 325.685 188.862 266.693 205.033 233.784Z" fill="#EFEFEF"/>
<path d="M143.189 396.54C159.308 397.707 233.866 319.612 259.112 253.917L205.033 233.784C188.861 266.686 158.647 325.685 146.289 333.224C145.725 333.567 145.193 333.82 144.707 333.943C141.827 334.663 137.007 330.741 131.234 324.182C110.671 300.801 78.0237 243.889 78.0237 243.889C78.0237 243.889 79.5415 227.419 74.9944 218.078C70.4472 208.744 56.8057 198.859 54.7884 202.152C52.7645 205.445 62.3648 213.683 62.3648 215.33C62.3648 216.172 61.2945 216.872 59.5042 216.905C57.8112 216.937 55.4695 216.38 52.7645 214.779C47.2055 211.486 44.1956 204.822 44.1956 204.822L44.1892 204.829C44.0854 205.023 35.1338 221.455 44.6757 236.195C54.2759 251.02 58.3171 257.061 58.3171 257.061C58.3171 257.061 104.373 359.223 131.694 388.684C136.105 393.448 140.03 396.313 143.189 396.54Z" fill="#F2B394"/>
<path d="M213.076 115.436C221.23 107.372 225.453 97.3773 227.049 87.1034C231.369 86.883 235.546 81.9502 236.785 75.2154C237.252 72.6745 237.233 70.2178 236.831 68.0204C236.046 63.7358 233.762 60.5013 230.584 59.8531C228.599 59.4448 226.582 60.1189 224.798 61.5644C209.152 59.5744 187.856 23.6902 184.645 18.1287C158.368 19.4251 150.902 39.6748 150.298 61.3634C147.872 59.6003 145.349 59.0429 143.429 60.1513C139.894 62.1802 139.706 69.0122 143.007 75.4099C145.284 79.8241 148.625 82.8771 151.635 83.6809C151.706 84.2254 151.777 84.7699 151.855 85.3079C154.171 101.876 164.102 117.899 177.348 124.077C187.266 128.698 199.046 127.804 210.89 117.465C211.643 116.81 212.356 116.136 213.05 115.449C213.141 115.916 213.232 116.395 213.329 116.888C210.702 124.329 206.343 131.304 199.701 137.105C193.603 142.427 187.525 145.247 181.707 146.102C181.713 146.128 181.72 146.161 181.726 146.187C183.491 155.073 185.216 163.746 186.481 170.099C186.487 170.124 186.487 170.15 186.487 170.176C186.942 173.871 173.384 204.764 180.812 206.048C205.915 210.378 231.998 174.986 226.205 163.792C226.199 163.772 226.186 163.753 226.179 163.733C221.885 155.624 215.755 128.646 213.076 115.436Z" fill="#F2B394"/>
<path opacity="0.4" d="M181.713 146.109C180.727 141.124 179.722 136.068 178.781 131.317C179.722 136.068 180.721 141.124 181.713 146.109Z" fill="#EF815B"/>
<path d="M213.329 116.901C213.232 116.402 213.141 115.929 213.05 115.462C212.356 116.149 211.636 116.823 210.89 117.478C199.046 127.817 187.266 128.711 177.348 124.09C177.802 126.378 178.282 128.808 178.781 131.323C179.722 136.075 180.721 141.131 181.713 146.115C187.532 145.26 193.61 142.44 199.707 137.118C206.35 131.31 210.702 124.342 213.329 116.901Z" fill="#F2B394"/>
<path opacity="0.4" d="M213.329 116.901C213.232 116.402 213.141 115.929 213.05 115.462C212.356 116.149 211.636 116.823 210.89 117.478C199.046 127.817 187.266 128.711 177.348 124.09C177.802 126.378 178.282 128.808 178.781 131.323C179.722 136.075 180.721 141.131 181.713 146.115C187.532 145.26 193.61 142.44 199.707 137.118C206.35 131.31 210.702 124.342 213.329 116.901Z" fill="#EF815B"/>
<path d="M374.575 77.3674C354.557 65.46 332.288 62.1283 308.32 58.6669C231.181 47.5179 242.973 -3.96843 187.778 2.57188C168.299 4.87947 151.466 15.484 141.729 33.9187C129.697 56.6899 134.166 77.5554 138.733 98.2847C141.269 109.797 160.184 149.7 173.832 173.391C173.845 173.417 173.864 173.443 173.877 173.469C177.335 172.328 181.733 171.22 186.494 170.189C186.494 170.163 186.487 170.131 186.487 170.112C185.216 163.759 183.491 155.086 181.733 146.2C181.726 146.174 181.72 146.141 181.713 146.115C180.721 141.131 179.722 136.075 178.781 131.323C178.282 128.808 177.802 126.378 177.348 124.089C164.102 117.912 154.171 101.889 151.855 85.3208C151.777 84.7828 151.706 84.2383 151.635 83.6938C148.618 82.89 145.278 79.837 143.007 75.4228C139.706 69.0251 139.894 62.1931 143.429 60.1642C145.355 59.0623 147.872 59.6198 150.298 61.3764C150.902 39.6812 158.368 19.4315 184.645 18.1416C187.856 23.7031 209.152 59.5873 224.798 61.5773C226.582 60.1318 228.599 59.4577 230.584 59.8661C233.762 60.5143 236.039 63.7553 236.831 68.0334C237.233 70.2243 237.252 72.6874 236.785 75.2283C235.546 81.9696 231.369 86.9024 227.049 87.1163C225.446 97.3967 221.23 107.385 213.076 115.449C215.755 128.659 221.885 155.637 226.192 163.753C226.199 163.772 226.212 163.792 226.218 163.811C230.37 164.394 254.928 168.465 270.146 185.014C276.399 191.813 274.168 216.574 268.771 246.08C315.832 263.971 369.743 261.488 400.386 189.616C424.354 133.385 410.712 98.8811 374.575 77.3674Z" fill="#414141"/>
<defs>
<filter id="filter0_d_1_1591" x="0" y="34" width="386" height="385" filterUnits="userSpaceOnUse" color-interpolation-filters="sRGB">
<feFlood flood-opacity="0" result="BackgroundImageFix"/>
<feColorMatrix in="SourceAlpha" type="matrix" values="0 0 0 0 0 0 0 0 0 0 0 0 0 0 0 0 0 0 127 0" result="hardAlpha"/>
<feOffset dy="4"/>
<feGaussianBlur stdDeviation="5"/>
<feComposite in2="hardAlpha" operator="out"/>
<feColorMatrix type="matrix" values="0 0 0 0 0.835294 0 0 0 0 0.835294 0 0 0 0 0.901961 0 0 0 1 0"/>
<feBlend mode="normal" in2="BackgroundImageFix" result="effect1_dropShadow_1_1591"/>
<feBlend mode="normal" in="SourceGraphic" in2="effect1_dropShadow_1_1591" result="shape"/>
</filter>
</defs>
</svg>
