<svg width="50" height="202" viewBox="0 0 50 202" fill="none" xmlns="http://www.w3.org/2000/svg">
<path d="M0.996913 105.902C0.996914 96.327 1.88678 86.6961 3.63147 77.2743C3.93276 75.6564 5.40419 74.422 7.05078 74.5824C8.92159 74.7637 10.1898 76.4863 9.86051 78.2786C8.16487 87.3655 7.30302 96.6617 7.30302 105.902C7.30302 109.222 7.41514 112.59 7.63235 115.91C7.84957 119.104 8.19288 122.367 8.66233 125.61C8.92158 127.43 7.58331 129.09 5.70549 129.195C4.05189 129.286 2.6365 128.002 2.39827 126.377C1.9148 123.023 1.55744 119.641 1.33322 116.328C1.10901 112.862 0.996913 109.361 0.996913 105.902ZM11.423 159.496C11.423 158.171 12.2708 156.923 13.6441 156.498C15.2557 155.996 16.9653 156.951 17.5819 158.52C17.7851 159.043 17.9954 159.566 18.2126 160.089L21.5828 167.963C21.8351 168.479 22.1224 168.988 22.4377 169.56L28.4074 180.404L30.6076 183.633C33.5504 187.964 36.5703 192.413 40.0387 196.5C41.1037 197.755 41.0196 199.624 39.8145 200.754L39.7024 200.858C38.4131 202.03 36.3952 201.919 35.2671 200.594C31.5605 196.235 28.4355 191.632 25.3945 187.155L23.2154 183.961C23.1033 183.8 22.9772 183.598 22.8581 183.389L16.9163 172.6C16.566 171.966 16.2086 171.324 15.8793 170.648C15.8583 170.599 15.8373 170.557 15.8163 170.508L12.3899 162.509C12.1237 161.854 11.8855 161.254 11.6472 160.654C11.4931 160.264 11.423 159.88 11.423 159.496ZM13.9595 44.6575C13.9595 44.1833 14.0645 43.7021 14.2958 43.2488L18.8432 34.2594C19.3827 33.1785 19.9993 31.9511 20.672 30.7516C20.707 30.6958 20.735 30.64 20.7701 30.5912L28.4425 18.5891C28.5826 18.3729 28.7087 18.1986 28.8489 18.0242L33.9778 11.5316C36.4302 8.13527 39.317 5.08071 41.8464 2.47248C43.0026 1.28692 44.9014 1.05678 46.1906 2.09589C47.6551 3.27447 47.7601 5.40848 46.4849 6.72655C44.0676 9.20925 41.3069 12.1243 39.0577 15.2486C39.0297 15.2835 39.0017 15.3253 38.9737 15.3602L33.8027 21.9017C33.7816 21.9296 33.7606 21.9575 33.7396 21.9924L26.1372 33.8898C25.5557 34.9498 24.9811 36.0796 24.4766 37.0839L19.9923 45.9546C19.2566 47.4052 17.5469 48.1863 16.0195 47.6144C14.7162 47.1193 13.9595 45.9128 13.9595 44.6575Z" fill="#2D2D82"/>
<path d="M20.3844 10.2483C20.3844 8.99299 21.1481 7.80743 22.3953 7.31926C27.1109 5.4921 31.8825 3.7835 36.5841 2.24227C36.6121 2.2353 36.6471 2.22135 36.6752 2.21438C39.0925 1.49607 41.8042 0.819603 45.2095 0.0733973C46.2325 -0.149767 47.2975 0.143136 48.0542 0.861446C48.811 1.57278 49.1683 2.61886 49.0001 3.64403C48.6358 5.86172 48.1874 8.8047 47.9211 11.922C47.6688 16.4272 47.5427 20.9741 47.5287 25.4374C47.5287 27.1739 46.1133 28.5757 44.3686 28.5687C42.631 28.5687 41.2226 27.16 41.2226 25.4304C41.2226 25.4304 41.2226 25.4304 41.2226 25.4235C41.2296 20.8346 41.3627 16.1552 41.622 11.5245C41.622 11.4966 41.629 11.4617 41.629 11.4339C41.7551 9.97631 41.9163 8.56759 42.0844 7.24255C40.8022 7.56335 39.639 7.88415 38.518 8.21192C33.9355 9.71828 29.283 11.392 24.6796 13.1703C23.054 13.798 21.2322 12.996 20.6016 11.385C20.4475 11.0084 20.3844 10.6249 20.3844 10.2483Z" fill="#2D2D82"/>
</svg>
