<svg width="202" height="175" viewBox="0 0 202 175" fill="none" xmlns="http://www.w3.org/2000/svg">
<rect width="202" height="175" rx="20" fill="white"/>
<g clip-path="url(#clip0_1_2143)">
<path d="M68.9207 42.3772H46.9201C46.4018 42.3772 45.9841 41.9594 45.9841 41.4411C45.9841 34.8581 51.3383 29.5032 57.9204 29.5032H58.1972C58.2424 29.5032 58.3079 29.5082 58.3783 29.5183C58.7054 29.5183 59.0375 29.5535 59.3546 29.5988C59.2992 29.5888 59.4451 29.5888 59.6011 29.624C59.7974 29.6391 60.0842 29.6894 60.361 29.7548C60.3761 29.7599 60.3912 29.7599 60.4063 29.7649C60.5321 29.785 60.6679 29.8152 60.8088 29.8555C60.8743 29.8656 60.9447 29.8807 61.0101 29.9109C61.2466 29.9662 61.4781 30.0367 61.7096 30.1172C62.0618 30.238 62.4292 30.3739 62.7663 30.5249C63.1136 30.6759 63.4608 30.852 63.803 31.0533C64.0999 31.2244 64.4119 31.4157 64.7088 31.6069C64.744 31.6321 64.7792 31.6573 64.8144 31.6874C65.0962 31.8888 65.373 32.1052 65.6447 32.3367C65.8662 32.5179 66.1027 32.7393 66.3291 32.9608C66.4549 33.0664 66.5354 33.1772 66.5908 33.2476C66.7619 33.4087 67.0135 33.6754 67.2299 33.9573C68.1658 35.1198 68.8754 36.4485 69.3232 37.8829C69.4641 38.3207 69.5698 38.7787 69.6604 39.2317C69.7258 39.5638 69.7711 39.891 69.8013 40.2332C69.8466 40.6308 69.8667 41.0284 69.8667 41.4411C69.8566 41.9594 69.439 42.3772 68.9207 42.3772ZM68.9207 41.4411H68.9358H68.9207ZM47.8963 40.505H67.9444C67.9444 40.4798 67.9394 40.4597 67.9394 40.4345C67.9344 40.3993 67.9344 40.364 67.9344 40.3288V40.3137C67.9142 40.1174 67.879 39.8557 67.8237 39.589C67.7482 39.2015 67.6576 38.819 67.5419 38.4415C67.1594 37.2286 66.5606 36.1063 65.7655 35.1148C65.5844 34.8783 65.3831 34.6719 65.1868 34.4706L65.846 33.8063L65.0761 34.3347C64.8648 34.1284 64.6635 33.9422 64.4572 33.7761C64.2005 33.5597 63.9489 33.3634 63.6923 33.1822C63.6621 33.1621 63.6319 33.1369 63.6067 33.1117C63.4205 32.996 63.1438 32.8249 62.867 32.6638C62.5802 32.4927 62.3034 32.3568 62.0166 32.231C61.7247 32.1001 61.4177 31.9844 61.1108 31.8787C60.8994 31.8183 60.7132 31.7629 60.522 31.7176C60.4465 31.7076 60.371 31.6874 60.2956 31.6573C60.2503 31.6371 60.1446 31.617 60.049 31.6019C60.0138 31.5969 59.9785 31.5868 59.9433 31.5767C59.9383 31.5767 59.9332 31.5767 59.9282 31.5717C59.7219 31.5214 59.5105 31.4912 59.2942 31.466C59.2489 31.466 59.1231 31.4559 59.0778 31.4509C58.7859 31.4056 58.479 31.4308 58.1871 31.3754H57.9305C52.687 31.3754 48.3694 35.3916 47.8963 40.505Z" fill="#F9A01B"/>
<path d="M68.9207 42.8805H46.9202C46.1251 42.8805 45.481 42.2363 45.481 41.4411C45.481 34.5814 51.0616 29 57.9204 29H58.1972C58.2475 29 58.328 29.005 58.4086 29.0151C58.7054 29.0201 59.0174 29.0453 59.3395 29.0906C59.4301 29.0856 59.5408 29.1007 59.6767 29.1258C59.9132 29.151 60.2151 29.2013 60.4768 29.2667C60.6227 29.2969 60.7686 29.3221 60.9196 29.3674C61.0001 29.3825 61.0806 29.4026 61.1561 29.4328C61.3926 29.4932 61.6241 29.5637 61.8707 29.6492C62.2783 29.7851 62.6507 29.9311 62.9677 30.077C63.3602 30.2481 63.7175 30.4293 64.0496 30.6306C64.3515 30.8018 64.6685 31.0031 64.9705 31.1993C65.0359 31.2245 65.0862 31.2648 65.1416 31.3101C65.3982 31.4912 65.68 31.7077 65.9668 31.9543C66.1681 32.1153 66.3946 32.3267 66.6764 32.6035C66.7871 32.6991 66.8827 32.8098 66.9632 32.9155C67.1343 33.0816 67.3909 33.3484 67.6224 33.6554C68.5936 34.8632 69.3283 36.2372 69.8013 37.737C69.9322 38.1446 70.0429 38.6026 70.1486 39.1411C70.219 39.4934 70.2643 39.8357 70.2945 40.198L70.2995 40.2584C70.3398 40.6309 70.3599 41.0184 70.3599 41.4512C70.3599 42.2363 69.7158 42.8805 68.9207 42.8805ZM57.9204 30.0066C51.6151 30.0066 46.4874 35.135 46.4874 41.4411C46.4874 41.6777 46.6836 41.874 46.9202 41.874H68.9257C68.9308 41.874 68.9358 41.874 68.9408 41.874L68.9257 40.9379H68.9408V41.874C69.1723 41.8639 69.3585 41.6777 69.3585 41.4411C69.3585 41.0234 69.3384 40.646 69.2981 40.2937L69.2579 39.9414H69.2629C69.2377 39.735 69.2025 39.5337 69.1673 39.3324C69.0666 38.8291 68.961 38.4063 68.8452 38.0389C68.4125 36.66 67.7382 35.3967 66.8374 34.2794C66.616 33.9976 66.3845 33.751 66.2436 33.6201L66.1832 33.5497C66.148 33.4993 66.0876 33.4239 66.0021 33.3484C65.7203 33.0716 65.5089 32.8803 65.3278 32.7344C65.051 32.5028 64.7893 32.2965 64.5176 32.1053C64.4622 32.06 64.4471 32.0499 64.432 32.0348C64.1452 31.8486 63.8433 31.6624 63.5514 31.4912C63.2444 31.3101 62.9224 31.144 62.5651 30.988C62.2732 30.8571 61.9311 30.7263 61.5486 30.5954C61.3171 30.5149 61.1058 30.4495 60.8894 30.3991L60.819 30.379C60.7938 30.3689 60.7636 30.3639 60.7334 30.3589L60.663 30.3387C60.5422 30.3035 60.4214 30.2783 60.3157 30.2582L60.2302 30.2381C59.9685 30.1726 59.7018 30.1374 59.5559 30.1223L59.4905 30.1123C59.4401 30.1022 59.3898 30.0921 59.3647 30.0921L59.3798 29.5939H59.3697L59.2841 30.0921C58.9671 30.0418 58.6652 30.0166 58.3834 30.0166L58.328 30.0116C58.2777 30.0116 58.2324 30.0066 58.2022 30.0066H57.9204ZM68.4678 41.0083H47.3429L47.3932 40.4597C47.8964 35.0847 52.5159 30.8722 57.9204 30.8722L58.2677 30.8823C58.3985 30.9074 58.5344 30.9125 58.6702 30.9175C58.8313 30.9225 58.9923 30.9326 59.1483 30.9578C59.1785 30.9628 59.254 30.9678 59.2892 30.9678L59.3445 30.9729C59.6163 31.0031 59.8377 31.0433 60.039 31.0886C60.0994 31.1037 60.1195 31.1088 60.1346 31.1138C60.3006 31.144 60.3963 31.1641 60.4818 31.1993C60.512 31.2144 60.5472 31.2195 60.5875 31.2295C60.834 31.2849 61.0353 31.3403 61.2618 31.4208C61.6442 31.5516 61.9411 31.6624 62.2129 31.7882C62.5399 31.9291 62.8268 32.0751 63.1136 32.2462C63.3652 32.3921 63.6219 32.5481 63.808 32.6639L63.9339 32.7545C64.2408 32.9759 64.5025 33.1772 64.7742 33.4088C64.89 33.4993 65.0057 33.605 65.1164 33.7057L65.5542 33.4037L66.1983 34.1737L65.8813 34.4908C65.9769 34.5965 66.0675 34.7022 66.1581 34.8179C66.9884 35.8547 67.6174 37.0324 68.02 38.3057C68.1307 38.658 68.2263 39.0354 68.3169 39.5035C68.3672 39.7702 68.4074 40.047 68.4326 40.2735V40.3239C68.4326 40.354 68.4326 40.3691 68.4376 40.3893C68.4427 40.4195 68.4477 40.4547 68.4477 40.495L68.4678 41.0083ZM48.465 40.0017H67.3809C67.3658 39.9011 67.3456 39.7954 67.3255 39.6847C67.24 39.2569 67.1544 38.9096 67.0538 38.5926C66.6915 37.435 66.1228 36.3731 65.363 35.4269C65.1919 35.2055 65.0007 35.0092 64.8195 34.823L64.4673 34.4707L64.4723 34.4656C64.3566 34.36 64.2408 34.2543 64.1301 34.1687C63.8735 33.9523 63.6319 33.7661 63.3904 33.5899C63.3602 33.5698 63.33 33.5446 63.2948 33.5195L63.2797 33.5144C63.0985 33.4037 62.8519 33.2527 62.6054 33.1068C62.3487 32.9558 62.0971 32.83 61.8053 32.6991C61.5587 32.5884 61.297 32.4877 60.9397 32.3619C60.7435 32.2915 60.5774 32.2462 60.4113 32.2059C60.3308 32.1958 60.2151 32.1656 60.1044 32.1203C60.0893 32.1203 60.0289 32.1103 59.9735 32.1002C59.9132 32.0902 59.8628 32.0801 59.8176 32.065L59.7974 32.06C59.6465 32.0247 59.4703 31.9945 59.2489 31.9694C59.1734 31.9643 59.0476 31.9543 58.9923 31.9492C58.8715 31.9291 58.7507 31.9241 58.6249 31.919C58.4689 31.914 58.3029 31.9039 58.1318 31.8788H57.9154C53.2154 31.8788 49.1695 35.4018 48.465 40.0017Z" fill="#F9A01B"/>
<path d="M147.448 143.497C147.236 143.497 147.025 143.426 146.854 143.285L110.195 113.36C110.159 113.33 110.114 113.285 110.079 113.249C109.908 113.058 109.817 112.802 109.842 112.545C109.862 112.288 109.988 112.047 110.195 111.886L146.869 82.7506C147.151 82.5292 147.533 82.4839 147.855 82.6399C148.177 82.7959 148.384 83.123 148.384 83.4804V142.561C148.384 142.923 148.177 143.25 147.85 143.406C147.719 143.467 147.583 143.497 147.448 143.497ZM112.258 112.635L146.512 140.588V85.423L112.258 112.635Z" fill="#F9A01B"/>
<path d="M147.447 144C147.115 144 146.793 143.884 146.537 143.673L109.877 113.748C109.827 113.702 109.757 113.637 109.711 113.592C109.44 113.295 109.309 112.897 109.339 112.505C109.369 112.112 109.565 111.745 109.877 111.493L146.552 82.358C146.99 82.0107 147.568 81.9453 148.071 82.1869C148.565 82.4234 148.887 82.9317 148.887 83.4803V142.561C148.887 143.114 148.565 143.623 148.066 143.859C147.865 143.95 147.659 144 147.447 144ZM147.442 83.0475C147.347 83.0475 147.256 83.0777 147.176 83.1431L110.501 112.278C110.406 112.354 110.35 112.464 110.34 112.58C110.33 112.701 110.371 112.822 110.451 112.907C110.466 112.922 110.491 112.953 110.517 112.968L147.171 142.888C147.296 142.993 147.483 143.014 147.629 142.943C147.78 142.873 147.875 142.717 147.875 142.551V83.4803C147.875 83.3142 147.78 83.1632 147.629 83.0928C147.573 83.0626 147.508 83.0475 147.442 83.0475ZM147.015 141.65L111.458 112.63L147.015 84.3812V141.65ZM113.058 112.64L146.003 139.531V86.4648L113.058 112.64Z" fill="#F9A01B"/>
<path d="M126.725 100.889C126.589 100.889 126.448 100.859 126.317 100.798C125.995 100.642 125.789 100.315 125.789 99.9576V83.4852C125.789 82.9668 126.207 82.5491 126.725 82.5491H147.447C147.845 82.5491 148.197 82.8007 148.328 83.1782C148.459 83.5557 148.338 83.9734 148.026 84.22L127.304 100.692C127.138 100.823 126.931 100.889 126.725 100.889ZM127.661 84.4163V98.015L144.765 84.4163H127.661Z" fill="#F9A01B"/>
<path d="M126.725 101.392C126.509 101.392 126.292 101.342 126.101 101.251C125.608 101.015 125.286 100.506 125.286 99.9577V83.4853C125.286 82.6901 125.93 82.0459 126.725 82.0459H147.447C148.056 82.0459 148.605 82.4334 148.806 83.0122C149.007 83.591 148.821 84.2301 148.343 84.6126L127.621 101.085C127.364 101.281 127.047 101.392 126.725 101.392ZM126.725 83.0474C126.489 83.0474 126.292 83.2437 126.292 83.4803V99.9527C126.292 100.119 126.388 100.27 126.539 100.34C126.685 100.411 126.866 100.391 126.997 100.29L147.719 83.8175C147.865 83.7017 147.921 83.5104 147.86 83.3393C147.8 83.1632 147.634 83.0474 147.453 83.0474H126.725ZM127.158 99.0568V83.9131H146.21L127.158 99.0568ZM128.164 84.9196V96.9732L143.326 84.9196H128.164Z" fill="#F9A01B"/>
<path d="M147.447 84.4162H126.725C126.207 84.4162 125.789 83.9985 125.789 83.4801V67.2593C125.789 66.7409 126.207 66.3232 126.725 66.3232H127.032C127.243 66.3232 127.45 66.3937 127.616 66.5245L148.031 82.7453C148.343 82.9919 148.464 83.4096 148.333 83.7871C148.197 84.1646 147.845 84.4162 147.447 84.4162ZM127.661 82.544H144.765L127.661 68.9503V82.544Z" fill="#F9A01B"/>
<path d="M147.447 84.9196H126.725C125.93 84.9196 125.286 84.2754 125.286 83.4802V67.2594C125.286 66.4642 125.93 65.82 126.725 65.82H127.032C127.354 65.82 127.671 65.9307 127.928 66.132L148.343 82.3528C148.821 82.7353 149.007 83.3745 148.806 83.9533C148.605 84.532 148.056 84.9196 147.447 84.9196ZM126.725 66.8266C126.489 66.8266 126.292 67.0228 126.292 67.2594V83.4802C126.292 83.7167 126.489 83.913 126.725 83.913H147.447C147.634 83.913 147.795 83.7972 147.855 83.6261C147.915 83.45 147.86 83.2587 147.719 83.143L127.304 66.9222C127.228 66.8618 127.133 66.8266 127.037 66.8266H126.725ZM146.205 83.0474H127.153V67.9086L146.205 83.0474ZM128.164 82.0408H143.321L128.164 69.9922V82.0408Z" fill="#F9A01B"/>
<path d="M147.447 143.497L44.4997 143.411C43.9814 143.411 43.5637 142.993 43.5637 142.475C43.5637 142.198 43.6895 141.851 43.9009 141.67L80.2078 111.533C80.55 111.251 81.0381 111.246 81.3854 111.518L96.0541 123.129L110.189 111.886C110.577 111.579 111.13 111.624 111.463 111.991L148.036 141.836C148.343 142.088 148.459 142.5 148.328 142.873C148.192 143.245 147.84 143.497 147.447 143.497ZM46.9856 141.544L144.816 141.625L110.758 113.823L96.6328 125.056C96.2956 125.328 95.8125 125.328 95.4703 125.056L80.8167 113.456L46.9856 141.544Z" fill="#F9A01B"/>
<path d="M147.447 144L44.4997 143.914C43.7097 143.914 43.0605 143.27 43.0605 142.475C43.0605 142.098 43.2216 141.584 43.5789 141.282L79.8858 111.146C80.4041 110.713 81.169 110.703 81.6974 111.126L96.0491 122.49L109.872 111.493C110.456 111.035 111.296 111.09 111.805 111.624L148.353 141.448C148.826 141.836 149.002 142.475 148.796 143.049C148.595 143.613 148.051 144 147.447 144ZM80.8067 111.82C80.7061 111.82 80.6104 111.855 80.5299 111.921L44.223 142.057C44.1475 142.118 44.067 142.309 44.067 142.475C44.067 142.712 44.2582 142.908 44.4997 142.908L147.447 142.993V143.497V142.993C147.629 142.993 147.795 142.878 147.855 142.707C147.915 142.535 147.86 142.344 147.719 142.228L111.09 112.334C110.939 112.167 110.678 112.147 110.501 112.288L96.0541 123.778L81.0734 111.921C80.9979 111.85 80.9023 111.82 80.8067 111.82ZM146.23 142.128L45.5968 142.042L80.8168 112.807L95.7924 124.659C95.9484 124.785 96.1699 124.785 96.3258 124.659L110.768 113.169L146.23 142.128ZM48.3795 141.041L143.402 141.116L110.758 114.467L96.9498 125.449C96.4265 125.867 95.6918 125.867 95.1634 125.454L80.8319 114.105L48.3795 141.041Z" fill="#F9A01B"/>
<path d="M44.4997 143.326C44.3638 143.326 44.228 143.295 44.1022 143.235C43.7751 143.079 43.5637 142.752 43.5637 142.389V83.4803C43.5637 83.123 43.77 82.7958 44.0921 82.6398C44.4142 82.4838 44.8016 82.5241 45.0784 82.7505L69.4994 102.097L81.3853 111.523C81.6068 111.699 81.7376 111.966 81.7376 112.248C81.7426 112.53 81.6168 112.796 81.4004 112.978L45.0985 143.109C44.9274 143.255 44.7111 143.326 44.4997 143.326ZM45.4357 85.4179V140.402L79.3222 112.273L45.4357 85.4179Z" fill="#F9A01B"/>
<path d="M44.4997 143.829C44.2884 143.829 44.077 143.784 43.8858 143.693C43.3826 143.456 43.0605 142.948 43.0605 142.39V83.4803C43.0605 82.9317 43.3776 82.4234 43.8707 82.1869C44.3689 81.9503 44.9627 82.0158 45.3904 82.353L69.8165 101.699L81.7024 111.126C82.0396 111.392 82.2409 111.8 82.2459 112.233C82.2509 112.671 82.0597 113.078 81.7276 113.36L45.4206 143.497C45.159 143.713 44.8369 143.829 44.4997 143.829ZM44.4997 83.0525C44.4343 83.0525 44.3689 83.0676 44.3085 83.0978C44.1626 83.1683 44.067 83.3193 44.067 83.4854V142.39C44.067 142.556 44.1626 142.712 44.3186 142.782C44.4645 142.853 44.6507 142.827 44.7765 142.722L81.0835 112.585C81.1841 112.505 81.2395 112.374 81.2395 112.248C81.2395 112.117 81.1791 111.996 81.0734 111.916L69.3233 102.595H68.9963V102.333L44.7664 83.1431C44.691 83.0827 44.5954 83.0525 44.4997 83.0525ZM44.9325 141.469V84.3762L80.1223 112.263L44.9325 141.469ZM45.9389 86.4547V139.325L78.5271 112.278L45.9389 86.4547Z" fill="#F9A01B"/>
<path d="M68.9207 103.762C68.7144 103.762 68.5081 103.692 68.342 103.561L43.921 84.2149C43.609 83.9683 43.4882 83.5506 43.619 83.1731C43.7499 82.7957 44.1072 82.544 44.5047 82.544H68.9257C69.444 82.544 69.8617 82.9618 69.8617 83.4801V102.826C69.8617 103.184 69.6554 103.511 69.3333 103.667C69.2025 103.732 69.0616 103.762 68.9207 103.762ZM47.1868 84.4162L67.9847 100.889V84.4162H47.1868Z" fill="#F9A01B"/>
<path d="M68.9208 104.266C68.5987 104.266 68.2817 104.155 68.0301 103.954L43.6091 84.6126C43.131 84.2301 42.9398 83.591 43.1411 83.0122C43.3424 82.4334 43.8858 82.0459 44.4997 82.0459H68.9208C69.7158 82.0459 70.36 82.6901 70.36 83.4853V102.831C70.36 103.38 70.0429 103.888 69.5498 104.125C69.3535 104.215 69.1422 104.266 68.9208 104.266ZM44.4997 83.0474C44.3136 83.0474 44.1525 83.1632 44.0921 83.3393C44.0318 83.5155 44.0871 83.7067 44.233 83.8225L68.6541 103.169C68.7799 103.269 68.961 103.289 69.112 103.219C69.2579 103.149 69.3535 102.993 69.3535 102.831V83.4853C69.3535 83.2487 69.1573 83.0525 68.9208 83.0525H44.4997V83.0474ZM68.488 101.931L45.7427 83.9131H68.488V101.931ZM48.6362 84.9196L67.4866 99.852V84.9196H48.6362Z" fill="#F9A01B"/>
<path d="M68.9208 84.4164H44.4998C44.1023 84.4164 43.745 84.1648 43.6142 83.7873C43.4833 83.4099 43.6041 82.9921 43.9161 82.7455L68.2667 63.4547C68.8353 63.0018 69.8518 63.4598 69.8518 64.1895V83.4803C69.8568 83.9987 69.4391 84.4164 68.9208 84.4164ZM47.187 82.5442H67.9849V66.0718L47.187 82.5442Z" fill="#F9A01B"/>
<path d="M68.9208 84.9197H44.4998C43.8859 84.9197 43.3424 84.5322 43.1411 83.9534C42.9398 83.3746 43.126 82.7304 43.6091 82.353L67.9597 63.0621C68.3824 62.7249 68.9812 62.6796 69.5197 62.9363C70.038 63.188 70.3651 63.6661 70.3651 64.1895V83.4803C70.36 84.2755 69.7159 84.9197 68.9208 84.9197ZM68.8101 63.7818C68.7246 63.7818 68.6491 63.802 68.5837 63.8523L44.2331 83.1431C44.0872 83.2589 44.0318 83.4501 44.0922 83.6263C44.1526 83.7974 44.3186 83.9182 44.4998 83.9182H68.9208C69.1573 83.9182 69.3536 83.7219 69.3536 83.4853V64.1895C69.3536 64.0335 69.2127 63.9077 69.0819 63.8422C69.0013 63.807 68.9057 63.7818 68.8101 63.7818ZM68.4881 83.0475H45.7427L68.4931 65.0249V83.0475H68.4881ZM48.6312 82.0409H67.4816V67.1085L48.6312 82.0409Z" fill="#F9A01B"/>
<path d="M68.9208 103.767C68.4025 103.767 67.9848 103.355 67.9848 102.841V41.4409C67.9848 41.0987 67.9697 40.7665 67.9345 40.4344C67.8741 39.921 68.2414 39.458 68.7547 39.3976C69.268 39.3423 69.731 39.7046 69.7913 40.218C69.8366 40.6206 69.8568 41.0232 69.8568 41.4409V102.826C69.8568 103.34 69.4391 103.767 68.9208 103.767Z" fill="#F9A01B"/>
<path d="M68.9207 104.271C68.1256 104.271 67.4815 103.627 67.4815 102.841V41.4411C67.4815 41.0737 67.4664 40.7717 67.4362 40.4949C67.3457 39.7047 67.9143 38.9901 68.6993 38.8995C69.4944 38.8139 70.2039 39.3826 70.2945 40.1627C70.3398 40.5603 70.3599 40.978 70.3599 41.4411V102.826C70.3599 103.622 69.7158 104.271 68.9207 104.271ZM68.8603 39.896C68.8452 39.896 68.8301 39.896 68.81 39.901C68.5785 39.9262 68.4074 40.1426 68.4326 40.3791C68.4678 40.7012 68.488 41.0384 68.488 41.4411V102.841C68.488 103.078 68.6792 103.264 68.9207 103.264C69.1572 103.264 69.3535 103.068 69.3535 102.826V41.4411C69.3535 41.0133 69.3334 40.6358 69.2931 40.2785C69.2679 40.0621 69.0818 39.896 68.8603 39.896Z" fill="#F9A01B"/>
<path d="M68.8655 41.2502C68.3875 41.2502 67.9749 40.8828 67.9346 40.3946C67.9094 40.1178 67.8742 39.8561 67.8239 39.5894C67.7232 39.0811 68.0554 38.5929 68.5636 38.4922C69.0769 38.3966 69.565 38.7237 69.6606 39.2321C69.726 39.5592 69.7713 39.8863 69.8015 40.2286C69.8468 40.7419 69.4644 41.1949 68.9511 41.2402C68.9209 41.2502 68.8907 41.2502 68.8655 41.2502Z" fill="#F9A01B"/>
<path d="M68.8654 41.7533C68.1257 41.7533 67.4967 41.1745 67.4313 40.4397C67.4112 40.1931 67.3759 39.9465 67.3256 39.6848C67.2501 39.3124 67.3306 38.9248 67.542 38.6078C67.7584 38.2907 68.0855 38.0743 68.4629 37.9988C69.2429 37.8478 70.0027 38.3612 70.1486 39.1362C70.2141 39.4835 70.2644 39.8257 70.2946 40.1881C70.3298 40.5706 70.209 40.943 69.9625 41.2399C69.7159 41.5369 69.3687 41.713 68.9812 41.7483C68.956 41.7533 68.9057 41.7533 68.8654 41.7533ZM68.7396 38.9802C68.7095 38.9802 68.6843 38.9852 68.6541 38.9903C68.5434 39.0104 68.4427 39.0758 68.3824 39.1714C68.3169 39.2671 68.2968 39.3828 68.3169 39.4936C68.3723 39.7905 68.4126 40.0673 68.4377 40.3491C68.4578 40.5706 68.644 40.7417 68.8654 40.7417H68.8906C69.0164 40.7316 69.1221 40.6763 69.1976 40.5907C69.2731 40.5051 69.3083 40.3894 69.2982 40.2736C69.268 39.9515 69.2278 39.6395 69.1674 39.3275C69.1221 39.1262 68.946 38.9802 68.7396 38.9802Z" fill="#F9A01B"/>
<path d="M68.4275 39.101C68.03 39.101 67.6576 38.8443 67.5368 38.4467C67.1544 37.2338 66.5606 36.1166 65.7605 35.1201C65.5793 34.8835 65.378 34.6772 65.1818 34.4759C64.8194 34.1085 64.8194 33.5146 65.1868 33.1522C65.5541 32.7899 66.1479 32.7899 66.5102 33.1573C66.7619 33.4089 67.0135 33.6756 67.2298 33.9575C68.1658 35.1201 68.8754 36.4487 69.3232 37.8831C69.4792 38.3763 69.2024 38.8997 68.7093 39.0557C68.6137 39.0859 68.5181 39.101 68.4275 39.101Z" fill="#F9A01B"/>
<path d="M68.4276 39.6043C67.7935 39.6043 67.245 39.1967 67.0538 38.5978C66.6915 37.4453 66.1229 36.3833 65.363 35.4372C65.1919 35.2157 65.0007 35.0194 64.8195 34.8332C64.5478 34.5614 64.4019 34.1991 64.4019 33.8166C64.4019 33.4341 64.5528 33.0717 64.8246 32.8C65.0963 32.5282 65.4536 32.3822 65.836 32.3822H65.8411C66.2235 32.3822 66.5858 32.5332 66.8575 32.805C67.1746 33.1221 67.4161 33.3938 67.6174 33.6555C68.5886 34.8634 69.3233 36.2374 69.7963 37.7372C70.0328 38.4971 69.6101 39.3024 68.8553 39.5439C68.7194 39.5792 68.5735 39.6043 68.4276 39.6043ZM65.8411 33.3838C65.7253 33.3838 65.6196 33.4291 65.5341 33.5096C65.4536 33.5901 65.4083 33.7008 65.4083 33.8166C65.4083 33.9323 65.4536 34.0431 65.5341 34.1236C65.7404 34.3299 65.9568 34.5564 66.153 34.8131C66.9884 35.8498 67.6124 37.0275 68.0149 38.2958C68.0854 38.5172 68.332 38.6481 68.5534 38.5776C68.7849 38.5072 68.9107 38.2606 68.8402 38.0341C68.4074 36.6551 67.7331 35.3919 66.8324 34.2746C66.6512 34.038 66.4348 33.8015 66.148 33.5096C66.0675 33.4291 65.9467 33.3737 65.8411 33.3838Z" fill="#F9A01B"/>
<path d="M65.7003 34.5966C65.4638 34.5966 65.2222 34.506 65.0411 34.3249C64.8498 34.1386 64.6485 33.9474 64.4473 33.7813C64.1906 33.5649 63.939 33.3686 63.6824 33.1874C63.2597 32.8905 63.159 32.3067 63.461 31.8839C63.7629 31.4612 64.3416 31.3605 64.7643 31.6625C65.0662 31.8739 65.353 32.1003 65.6399 32.3419C65.8764 32.5332 66.123 32.7647 66.3595 33.0012C66.7268 33.3636 66.7268 33.9575 66.3645 34.3249C66.1834 34.506 65.9418 34.5966 65.7003 34.5966Z" fill="#F9A01B"/>
<path d="M65.7003 35.0997C65.3178 35.0997 64.9605 34.9538 64.6888 34.682C64.5378 34.531 64.3365 34.3347 64.1353 34.1737C63.8786 33.9573 63.6371 33.7711 63.3955 33.5949C63.0835 33.3735 62.8722 33.0413 62.8068 32.6638C62.7413 32.2864 62.8269 31.9039 63.0533 31.5919C63.5113 30.9477 64.412 30.7916 65.0612 31.2496C65.3581 31.461 65.66 31.6925 65.972 31.9542C66.1884 32.1304 66.4349 32.3568 66.7218 32.6387C66.9935 32.9105 67.1445 33.2728 67.1445 33.6553C67.1445 34.0378 66.9985 34.4002 66.7268 34.6719C66.45 34.9487 66.0877 35.0997 65.7003 35.0997ZM64.2258 31.9894C64.09 31.9894 63.9541 32.0549 63.8736 32.1706C63.8082 32.2663 63.783 32.382 63.7981 32.4927C63.8182 32.6085 63.8786 32.7041 63.9742 32.7746C64.2409 32.9658 64.5026 33.1671 64.7743 33.3936C65.0058 33.5798 65.2272 33.7962 65.3983 33.9623C65.5644 34.1284 65.8462 34.1234 66.0072 33.9623C66.0877 33.8818 66.133 33.7711 66.133 33.6553C66.133 33.5396 66.0877 33.4339 66.0072 33.3483C65.7506 33.0916 65.5191 32.8803 65.3279 32.7242C65.031 32.4726 64.7542 32.2612 64.4774 32.0649C64.3969 32.0146 64.3114 31.9894 64.2258 31.9894Z" fill="#F9A01B"/>
<path d="M64.1904 33.3335C64.0143 33.3335 63.8381 33.2832 63.6821 33.1825C63.4154 33.0114 63.1336 32.8352 62.8518 32.6742C62.565 32.5031 62.2882 32.3672 62.0014 32.2414C61.7095 32.1105 61.4026 31.9947 61.0956 31.8891C60.8843 31.8136 60.6779 31.7532 60.4666 31.7079C59.9634 31.5972 59.6413 31.0989 59.752 30.5956C59.8627 30.0923 60.3659 29.7753 60.8641 29.881C61.156 29.9464 61.4328 30.0269 61.7095 30.1225C62.0618 30.2433 62.4291 30.3792 62.7663 30.5302C63.1135 30.6812 63.4607 30.8573 63.8029 31.0586C64.0998 31.2298 64.4118 31.421 64.7087 31.6123C65.1415 31.8941 65.2622 32.4729 64.9804 32.9057C64.7993 33.1825 64.4973 33.3335 64.1904 33.3335Z" fill="#F9A01B"/>
<path d="M64.1905 33.8367C63.9137 33.8367 63.642 33.7562 63.4055 33.6052C63.1438 33.4341 62.872 33.268 62.6003 33.1069C62.3487 32.956 62.0921 32.8301 61.8002 32.6993C61.5536 32.5886 61.292 32.4879 60.9347 32.3621C60.7233 32.2866 60.5422 32.2363 60.356 32.196C59.9786 32.1155 59.6615 31.889 59.4502 31.5669C59.2439 31.2448 59.1734 30.8573 59.2539 30.4848C59.425 29.7148 60.1849 29.2216 60.9649 29.3826C61.2668 29.4481 61.5637 29.5336 61.8707 29.6444C62.2783 29.7802 62.6506 29.9262 62.9677 30.0671C63.3602 30.2382 63.7175 30.4194 64.0496 30.6207C64.3515 30.7918 64.6685 30.9932 64.9705 31.1894C65.6347 31.6223 65.8259 32.5131 65.3932 33.1774C65.1365 33.5901 64.6836 33.8367 64.1905 33.8367ZM60.668 30.359C60.4667 30.359 60.2855 30.4999 60.2402 30.7012C60.2151 30.812 60.2352 30.9277 60.3006 31.0233C60.366 31.119 60.4616 31.1894 60.5724 31.2146C60.7988 31.2649 61.0202 31.3304 61.2618 31.4109C61.6442 31.5417 61.9411 31.6525 62.2128 31.7783C62.5399 31.9192 62.8268 32.0651 63.1136 32.2363C63.3954 32.4023 63.6873 32.5785 63.959 32.7597C64.1552 32.8855 64.432 32.8251 64.5578 32.6339C64.6887 32.4325 64.6333 32.1658 64.432 32.0349C64.1452 31.8487 63.8433 31.6625 63.5514 31.4914C63.2444 31.3102 62.9224 31.1441 62.5651 30.9881C62.2732 30.8573 61.931 30.7264 61.5486 30.5956C61.2718 30.4999 61.0202 30.4244 60.7585 30.3691C60.7284 30.364 60.6982 30.359 60.668 30.359Z" fill="#F9A01B"/>
<path d="M60.6479 31.7278C60.5322 31.7278 60.4114 31.7026 60.2956 31.6574C60.2504 31.6372 60.1447 31.6171 60.0491 31.602L60.3661 29.76L60.2 30.681L60.3762 29.76C60.5523 29.7902 60.7737 29.8304 61.0001 29.9261C61.4782 30.1223 61.7097 30.6709 61.5134 31.149C61.3675 31.5064 61.0152 31.7278 60.6479 31.7278Z" fill="#F9A01B"/>
<path d="M60.6478 32.2312C60.4616 32.2312 60.2804 32.1959 60.1043 32.1255C60.0892 32.1204 60.0288 32.1104 59.9735 32.1003L59.4854 32.0097L59.5508 31.5165L59.7118 30.5905H59.7068L59.8728 29.6695H59.8879L59.9835 29.1762L60.4717 29.2618C60.6629 29.297 60.9195 29.3423 61.2013 29.4581C61.5586 29.604 61.8354 29.8808 61.9813 30.2331C62.1272 30.5854 62.1323 30.978 61.9863 31.3353C61.7549 31.8789 61.2365 32.2312 60.6478 32.2312ZM60.6226 31.2246C60.8239 31.2397 60.9799 31.129 61.0503 30.9579C61.0956 30.8522 61.0906 30.7364 61.0503 30.6257C61.0051 30.52 60.9245 30.4344 60.8138 30.3942C60.7987 30.3891 60.7887 30.3841 60.7736 30.3791L60.6226 31.2246Z" fill="#F9A01B"/>
<path d="M60.1446 31.6019C60.0691 31.6019 59.9987 31.5919 59.9232 31.5768C59.7169 31.5265 59.5055 31.4963 59.2891 31.4711C58.7759 31.4107 58.4085 30.9477 58.4689 30.4343C58.5293 29.921 59.0023 29.5536 59.5055 29.614C59.7974 29.6492 60.0893 29.6945 60.361 29.7599C60.8642 29.8807 61.1712 30.384 61.0504 30.8873C60.9497 31.31 60.5673 31.6019 60.1446 31.6019Z" fill="#F9A01B"/>
<path d="M60.1445 32.1053C60.0338 32.1053 59.9181 32.0902 59.8074 32.065C59.6464 32.0247 59.4652 31.9945 59.2337 31.9694C58.8513 31.9241 58.5091 31.7328 58.2726 31.4359C58.0361 31.1339 57.9254 30.7565 57.9706 30.374C58.0612 29.5888 58.7708 29.0252 59.5658 29.1107C59.908 29.151 60.21 29.2013 60.4817 29.2667C61.2516 29.453 61.7297 30.233 61.5435 31.0031C61.3875 31.6523 60.8138 32.1053 60.1445 32.1053ZM59.3998 30.1072C59.1834 30.1072 58.9922 30.2733 58.967 30.4897C58.9519 30.6055 58.9871 30.7162 59.0576 30.8068C59.128 30.8974 59.2337 30.9527 59.3444 30.9678C59.6162 30.998 59.8376 31.0383 60.0389 31.0836C60.2854 31.144 60.5069 30.988 60.5622 30.7665C60.6176 30.535 60.4767 30.2985 60.2452 30.2431C60.0137 30.1877 59.752 30.1425 59.4501 30.1072C59.43 30.1072 59.4149 30.1072 59.3998 30.1072Z" fill="#F9A01B"/>
<path d="M59.2189 31.4609C59.1736 31.4609 59.1233 31.4559 59.078 31.4509C58.8415 31.4157 58.5949 31.3905 58.3483 31.3905C57.83 31.3905 57.4124 30.9728 57.4124 30.4544C57.4124 29.936 57.83 29.5183 58.3483 29.5183C58.6905 29.5183 59.0377 29.5485 59.3648 29.5988C59.8781 29.6793 60.2253 30.1574 60.1498 30.6658C60.0693 31.1288 59.6718 31.4609 59.2189 31.4609Z" fill="#F9A01B"/>
<path d="M59.2188 31.9643C59.1434 31.9643 59.0729 31.9593 59.0025 31.9492C58.7559 31.914 58.5445 31.8939 58.3432 31.8939C57.5482 31.8939 56.9041 31.2496 56.9041 30.4545C56.9041 29.6593 57.5482 29.0151 58.3432 29.0151C58.6905 29.0151 59.0578 29.0453 59.4352 29.1057C59.8126 29.1661 60.1498 29.3674 60.3762 29.6794C60.6027 29.9914 60.6983 30.3689 60.6379 30.7514C60.5272 31.451 59.9284 31.9643 59.2188 31.9643ZM58.3432 30.0216C58.1067 30.0216 57.9105 30.2179 57.9105 30.4545C57.9105 30.691 58.1067 30.8873 58.3432 30.8873C58.5949 30.8873 58.8565 30.9074 59.1484 30.9527C59.3597 30.9829 59.6063 30.8219 59.6415 30.5903C59.6617 30.4746 59.6315 30.3639 59.561 30.2682C59.4906 30.1726 59.3899 30.1122 59.2792 30.0971C58.9521 30.0468 58.6351 30.0216 58.3432 30.0216Z" fill="#F9A01B"/>
<path d="M126.725 46.8211C126.207 46.8211 125.789 46.4034 125.789 45.885V36.2774C125.789 33.5496 123.665 31.4006 120.948 31.3754H58.2021C57.6838 31.3754 57.2661 30.9577 57.2661 30.4393C57.2661 29.9209 57.6838 29.5032 58.2021 29.5032H120.958C124.722 29.5334 127.661 32.5128 127.661 36.2774V45.885C127.661 46.4034 127.243 46.8211 126.725 46.8211Z" fill="#F9A01B"/>
<path d="M126.725 47.3245C125.93 47.3245 125.286 46.6803 125.286 45.8851V36.2724C125.286 33.8265 123.379 31.8939 120.943 31.8737H58.2021C57.4071 31.8737 56.7629 31.2295 56.7629 30.4344C56.7629 29.6392 57.4071 29 58.2021 29H120.958C124.999 29.0352 128.164 32.2311 128.164 36.2775V45.8902C128.164 46.6803 127.52 47.3245 126.725 47.3245ZM120.953 30.0066H58.2021C57.9656 30.0066 57.7694 30.2028 57.7694 30.4394C57.7694 30.6759 57.9656 30.8722 58.2021 30.8722H120.948C123.947 30.8974 126.292 33.2729 126.292 36.2775V45.8902C126.292 46.1267 126.488 46.323 126.725 46.323C126.961 46.323 127.158 46.1267 127.158 45.8902V36.2775C127.158 32.7897 124.43 30.0368 120.953 30.0066Z" fill="#F9A01B"/>
<path d="M126.725 100.889C126.206 100.889 125.789 100.471 125.789 99.9524V45.8848C125.789 45.3664 126.206 44.9487 126.725 44.9487C127.243 44.9487 127.661 45.3664 127.661 45.8848V99.9524C127.661 100.471 127.243 100.889 126.725 100.889Z" fill="#F9A01B"/>
<path d="M126.725 101.392C125.93 101.392 125.286 100.748 125.286 99.9525V45.8849C125.286 45.0897 125.93 44.4455 126.725 44.4455C127.52 44.4455 128.164 45.0897 128.164 45.8849V99.9525C128.164 100.748 127.52 101.392 126.725 101.392ZM126.725 45.4571C126.488 45.4571 126.292 45.6534 126.292 45.8899V99.9575C126.292 100.194 126.488 100.39 126.725 100.39C126.961 100.39 127.158 100.194 127.158 99.9575V45.8849C127.158 45.6483 126.961 45.4571 126.725 45.4571Z" fill="#F9A01B"/>
<path d="M68.9208 42.3772C68.4025 42.3772 67.9848 41.9594 67.9848 41.4411C67.9848 41.0988 67.9697 40.7667 67.9345 40.4345C67.9093 40.1174 67.8691 39.8557 67.8187 39.594C67.7432 39.2065 67.6527 38.824 67.5369 38.4465C67.1545 37.2336 66.5557 36.1113 65.7606 35.1198C65.5845 34.8934 65.4033 34.692 65.202 34.5008C65.1618 34.4656 65.1265 34.4253 65.0963 34.38C64.8548 34.1435 64.6585 33.9673 64.4573 33.7912C64.1905 33.5546 63.9389 33.3684 63.6823 33.1872C63.6521 33.1671 63.6269 33.1419 63.5968 33.1218L63.5615 33.1017C63.3451 32.9608 63.1187 32.8098 62.8923 32.694C62.5702 32.5028 62.2934 32.3669 62.0066 32.2411C61.7097 32.1102 61.4128 31.9945 61.1008 31.8888C60.8995 31.8183 60.7133 31.7629 60.5221 31.7176C60.4466 31.7076 60.3711 31.6874 60.2957 31.6573C60.2504 31.6371 60.1447 31.617 60.0491 31.6019C60.0139 31.5969 59.9786 31.5868 59.9434 31.5767H59.9384C59.717 31.5264 59.5157 31.4912 59.2943 31.466C59.249 31.466 59.1232 31.4559 59.0779 31.4509C58.786 31.4056 58.4791 31.4308 58.1872 31.3754H57.9306C52.3801 31.3754 47.8612 35.8899 47.8612 41.4411C47.8612 41.9594 47.4436 42.3772 46.9252 42.3772C46.4069 42.3772 45.9893 41.9594 45.9893 41.4411C45.9842 34.8581 51.3384 29.5032 57.9205 29.5032H58.1973C58.2425 29.5032 58.308 29.5082 58.3784 29.5183C58.7055 29.5183 59.0376 29.5535 59.3547 29.5988C59.2993 29.5888 59.4452 29.5888 59.6012 29.624C59.7925 29.6391 60.0642 29.6844 60.351 29.7498C60.3711 29.7548 60.3862 29.7599 60.4064 29.7649C60.5322 29.785 60.668 29.8152 60.8089 29.8555C60.8744 29.8656 60.9448 29.8807 61.0102 29.9109C61.2467 29.9662 61.4782 30.0367 61.7097 30.1172C62.0569 30.233 62.4041 30.3688 62.7564 30.5198C63.1187 30.6809 63.4659 30.852 63.8031 31.0533C64.0346 31.1741 64.3164 31.3553 64.5881 31.5314C64.5982 31.5415 64.6384 31.5667 64.6787 31.5969C64.734 31.6271 64.7793 31.6623 64.8296 31.7025C65.1165 31.9089 65.3983 32.1253 65.6599 32.3518C65.9065 32.5682 66.1229 32.7594 66.3242 32.9608C66.4198 33.0413 66.4902 33.1218 66.5406 33.1923C66.7922 33.4338 67.0136 33.6905 67.2249 33.9623C68.1609 35.1249 68.8704 36.4535 69.3183 37.8879C69.4592 38.3257 69.5649 38.7837 69.6555 39.2367C69.7209 39.5689 69.7662 39.896 69.7964 40.2382C69.8417 40.6257 69.8568 41.0284 69.8568 41.4461C69.8568 41.9594 69.4391 42.3772 68.9208 42.3772Z" fill="#F9A01B"/>
<path d="M68.9207 42.8805C68.1256 42.8805 67.4815 42.2363 67.4815 41.4411C67.4815 41.0737 67.4664 40.7718 67.4362 40.495C67.4111 40.198 67.3758 39.9565 67.3255 39.6897C67.24 39.2619 67.1544 38.9147 67.0538 38.5976C66.6915 37.44 66.1228 36.3781 65.363 35.4319C65.1869 35.2055 65.0258 35.0243 64.8497 34.8632C64.7994 34.8179 64.7541 34.7676 64.7088 34.7123C64.4874 34.4958 64.3012 34.3348 64.12 34.1687C63.8634 33.9422 63.6168 33.7611 63.3853 33.6C63.3602 33.5799 63.33 33.5597 63.3048 33.5396L63.2797 33.5245C63.0532 33.3786 62.8469 33.2427 62.6507 33.142C62.3487 32.9659 62.0921 32.835 61.7952 32.7042C61.5084 32.5783 61.2215 32.4676 60.9297 32.372C60.7334 32.3015 60.5673 32.2562 60.4013 32.216C60.3208 32.2059 60.205 32.1757 60.0943 32.1304C60.0792 32.1304 60.0188 32.1203 59.9635 32.1103C59.9031 32.1002 59.8528 32.0902 59.8075 32.0751C59.6364 32.0247 59.4552 31.9945 59.254 31.9694C59.1785 31.9643 59.0527 31.9543 58.9973 31.9492C58.8765 31.9291 58.7558 31.9241 58.63 31.919C58.474 31.914 58.3079 31.9039 58.1368 31.8788H57.9204C52.6467 31.8788 48.3593 36.1718 48.3593 41.4411C48.3593 42.2363 47.7152 42.8805 46.9202 42.8805C46.1251 42.8805 45.481 42.2363 45.481 41.4411C45.481 34.5814 51.0616 29 57.9204 29H58.1972C58.2475 29 58.328 29.005 58.4086 29.0151C58.7054 29.0201 59.0174 29.0453 59.3395 29.0906C59.4301 29.0856 59.5408 29.1007 59.6767 29.1258C59.893 29.146 60.1698 29.1963 60.4566 29.2617L60.5673 29.2869C60.6579 29.302 60.7837 29.3271 60.9146 29.3674C60.9951 29.3825 61.0756 29.4026 61.1511 29.4328C61.3876 29.4932 61.6191 29.5637 61.8656 29.6492C62.2129 29.77 62.5802 29.9059 62.9425 30.067C63.3501 30.2481 63.7124 30.4293 64.0496 30.6306C64.276 30.7464 64.5578 30.9276 64.8547 31.1239C64.8547 31.1239 64.89 31.144 64.9252 31.1691C65.0007 31.2144 65.0711 31.2648 65.1315 31.3201C65.4787 31.5718 65.7505 31.7832 65.9819 31.9895C66.2386 32.216 66.46 32.4123 66.6663 32.6136C66.7569 32.6891 66.8475 32.7897 66.9079 32.8652C67.1595 33.1068 67.3909 33.3685 67.6174 33.6654C68.5886 34.8733 69.3233 36.2473 69.7963 37.747C69.9271 38.1547 70.0378 38.6127 70.1435 39.1512C70.214 39.5035 70.2593 39.8457 70.2895 40.2081C70.3297 40.5805 70.3549 40.9982 70.3549 41.4562C70.3599 42.2363 69.7158 42.8805 68.9207 42.8805ZM59.9987 31.0735L60.0843 31.0937C60.0994 31.0987 60.1195 31.1037 60.1346 31.1037C60.3006 31.1339 60.3963 31.154 60.4818 31.1893C60.512 31.2044 60.5472 31.2094 60.5875 31.2195C60.834 31.2748 61.0353 31.3302 61.2618 31.4107C61.5788 31.5164 61.8908 31.6372 62.2028 31.7731C62.5399 31.919 62.8318 32.07 63.1438 32.2562C63.3602 32.367 63.5866 32.5179 63.808 32.6639L63.9238 32.7394C63.9389 32.7495 63.954 32.7646 63.964 32.7746C64.2157 32.9508 64.4874 33.1521 64.7793 33.4138C64.9856 33.595 65.1869 33.7761 65.4385 34.0228L65.4938 34.0832C65.5039 34.0982 65.519 34.1133 65.5341 34.1284C65.7454 34.3298 65.9467 34.5512 66.148 34.8079C66.9783 35.8446 67.6073 37.0173 68.0099 38.2956C68.1206 38.6479 68.2162 39.0254 68.3068 39.4934C68.3621 39.7954 68.4024 40.0772 68.4276 40.3893C68.4628 40.6963 68.4779 41.0335 68.4779 41.4361C68.4779 41.6726 68.6741 41.8689 68.9106 41.8689C69.1472 41.8689 69.3434 41.6726 69.3434 41.4361C69.3434 41.0133 69.3233 40.6359 69.283 40.2836C69.2528 39.9464 69.2126 39.6394 69.1472 39.3223C69.0465 38.819 68.9408 38.3963 68.8251 38.0289C68.3923 36.6499 67.718 35.3867 66.8173 34.2694C66.6059 33.9976 66.3996 33.7661 66.1732 33.5497L66.148 33.4993C66.1077 33.454 66.0625 33.3937 66.0021 33.3433C65.7756 33.1269 65.5693 32.9407 65.3328 32.7344C65.1114 32.5381 64.8648 32.3418 64.5327 32.1103L64.4924 32.0801C64.4723 32.06 64.4471 32.0449 64.422 32.0298L64.3213 31.9643C64.0496 31.7832 63.7779 31.612 63.5715 31.5013C63.2444 31.3101 62.9174 31.144 62.55 30.9829C62.2129 30.837 61.8757 30.7061 61.5486 30.5954C61.3171 30.5149 61.1058 30.4495 60.8944 30.3991L60.824 30.379C60.7988 30.3689 60.7686 30.3639 60.7384 30.3589L60.663 30.3387C60.5422 30.3035 60.4214 30.2783 60.3157 30.2582L59.9031 30.1726C59.7723 30.1475 59.6565 30.1324 59.5609 30.1223L59.4955 30.1123C59.4452 30.1022 59.3949 30.0921 59.3697 30.0921L59.3848 29.5939H59.3747L59.2892 30.0921C58.9722 30.0418 58.6702 30.0166 58.3884 30.0166L58.3331 30.0116C58.2777 30.0116 58.2324 30.0066 58.2022 30.0066H57.9255C51.6151 30.0066 46.4874 35.135 46.4874 41.4411C46.4874 41.6777 46.6836 41.874 46.9202 41.874C47.1567 41.874 47.3529 41.6777 47.3529 41.4411C47.3529 35.6131 52.0932 30.8722 57.9204 30.8722L58.2677 30.8823C58.3985 30.9074 58.5344 30.9125 58.6702 30.9175C58.8313 30.9225 58.9923 30.9326 59.1483 30.9578C59.1785 30.9628 59.254 30.9678 59.2892 30.9678L59.3496 30.9729C59.581 30.998 59.7823 31.0333 59.9937 31.0786L59.9987 31.0735Z" fill="#F9A01B"/>
<path d="M68.8905 42.3772H46.9201C46.4018 42.3772 45.9841 41.9594 45.9841 41.441C45.9841 40.9227 46.4018 40.5049 46.9201 40.5049H68.8955C69.4138 40.5049 69.8315 40.9227 69.8315 41.441C69.8315 41.9594 69.4088 42.3772 68.8905 42.3772Z" fill="#F9A01B"/>
<path d="M68.8905 42.8805H46.9202C46.1251 42.8805 45.481 42.2363 45.481 41.4411C45.481 40.6459 46.1251 40.0017 46.9202 40.0017H68.8956C69.6906 40.0017 70.3347 40.6459 70.3347 41.4411C70.3347 42.2363 69.6856 42.8805 68.8905 42.8805ZM46.9202 41.0083C46.6836 41.0083 46.4874 41.2046 46.4874 41.4411C46.4874 41.6777 46.6836 41.8739 46.9202 41.8739H68.8956C69.1321 41.8739 69.3283 41.6777 69.3283 41.4411C69.3283 41.2046 69.1321 41.0083 68.8956 41.0083H46.9202Z" fill="#F9A01B"/>
<path d="M99.7325 76.54H76.1267C75.6083 76.54 75.1907 76.1222 75.1907 75.6039C75.1907 75.0855 75.6083 74.6678 76.1267 74.6678H99.7325C100.251 74.6678 100.668 75.0855 100.668 75.6039C100.668 76.1222 100.246 76.54 99.7325 76.54Z" fill="#F9A01B"/>
<path d="M99.7325 77.0433H76.1267C75.3316 77.0433 74.6875 76.3991 74.6875 75.6039C74.6875 74.8088 75.3316 74.1646 76.1267 74.1646H99.7325C100.528 74.1646 101.172 74.8088 101.172 75.6039C101.172 76.3991 100.523 77.0433 99.7325 77.0433ZM76.1267 75.1711C75.8902 75.1711 75.6939 75.3674 75.6939 75.6039C75.6939 75.8405 75.8902 76.0368 76.1267 76.0368H99.7325C99.969 76.0368 100.165 75.8405 100.165 75.6039C100.165 75.3674 99.969 75.1711 99.7325 75.1711H76.1267Z" fill="#F9A01B"/>
<path d="M87.6454 81.4217H76.1218C75.6035 81.4217 75.1858 81.004 75.1858 80.4856C75.1858 79.9672 75.6035 79.5495 76.1218 79.5495H87.6454C88.1637 79.5495 88.5814 79.9672 88.5814 80.4856C88.5814 81.004 88.1637 81.4217 87.6454 81.4217Z" fill="#F9A01B"/>
<path d="M87.6454 81.9251H76.1218C75.3267 81.9251 74.6826 81.2809 74.6826 80.4857C74.6826 79.6905 75.3267 79.0463 76.1218 79.0463H87.6454C88.4405 79.0463 89.0846 79.6905 89.0846 80.4857C89.0846 81.2809 88.4405 81.9251 87.6454 81.9251ZM76.1268 80.0529C75.8903 80.0529 75.6941 80.2491 75.6941 80.4857C75.6941 80.7222 75.8903 80.9185 76.1268 80.9185H87.6505C87.887 80.9185 88.0832 80.7222 88.0832 80.4857C88.0832 80.2491 87.887 80.0529 87.6505 80.0529H76.1268Z" fill="#F9A01B"/>
<path d="M94.5242 88.144H76.1267C75.6083 88.144 75.1907 87.7262 75.1907 87.2079C75.1907 86.6895 75.6083 86.2718 76.1267 86.2718H94.5242C95.0425 86.2718 95.4602 86.6895 95.4602 87.2079C95.4602 87.7262 95.0425 88.144 94.5242 88.144Z" fill="#F9A01B"/>
<path d="M94.5242 88.6473H76.1267C75.3316 88.6473 74.6875 88.0031 74.6875 87.2079C74.6875 86.4128 75.3316 85.7686 76.1267 85.7686H94.5242C95.3193 85.7686 95.9634 86.4128 95.9634 87.2079C95.9634 88.0031 95.3193 88.6473 94.5242 88.6473ZM76.1267 86.7751C75.8902 86.7751 75.6939 86.9714 75.6939 87.2079C75.6939 87.4445 75.8902 87.6408 76.1267 87.6408H94.5242C94.7607 87.6408 94.957 87.4445 94.957 87.2079C94.957 86.9714 94.7607 86.7751 94.5242 86.7751H76.1267Z" fill="#F9A01B"/>
<path d="M85.2249 93.2406H76.3935C75.8752 93.2406 75.4575 92.8229 75.4575 92.3045C75.4575 91.7862 75.8752 91.3684 76.3935 91.3684H85.2249C85.7432 91.3684 86.1609 91.7862 86.1609 92.3045C86.1609 92.8179 85.7432 93.2406 85.2249 93.2406Z" fill="#F9A01B"/>
<path d="M85.225 93.744H76.3935C75.5985 93.744 74.9543 93.0998 74.9543 92.3046C74.9543 91.5094 75.5985 90.8652 76.3935 90.8652H85.225C86.02 90.8652 86.6642 91.5094 86.6642 92.3046C86.6642 93.0998 86.02 93.744 85.225 93.744ZM76.3935 91.8718C76.157 91.8718 75.9608 92.0681 75.9608 92.3046C75.9608 92.5412 76.157 92.7374 76.3935 92.7374H85.225C85.4615 92.7374 85.6577 92.5412 85.6577 92.3046C85.6577 92.0681 85.4615 91.8718 85.225 91.8718H76.3935Z" fill="#F9A01B"/>
<path d="M104.624 98.2163H76.1267C75.6083 98.2163 75.1907 97.7986 75.1907 97.2802C75.1907 96.7618 75.6083 96.3441 76.1267 96.3441H104.629C105.147 96.3441 105.565 96.7618 105.565 97.2802C105.565 97.7986 105.142 98.2163 104.624 98.2163Z" fill="#F9A01B"/>
<path d="M104.624 98.7197H76.1267C75.3316 98.7197 74.6875 98.0755 74.6875 97.2803C74.6875 96.4851 75.3316 95.8409 76.1267 95.8409H104.629C105.424 95.8409 106.068 96.4851 106.068 97.2803C106.068 98.0755 105.419 98.7197 104.624 98.7197ZM76.1267 96.8525C75.8902 96.8525 75.6939 97.0488 75.6939 97.2853C75.6939 97.5219 75.8902 97.7181 76.1267 97.7181H104.629C104.865 97.7181 105.062 97.5219 105.062 97.2853C105.062 97.0488 104.865 96.8525 104.629 96.8525H76.1267Z" fill="#F9A01B"/>
<path d="M68.951 84.4163H68.6843C68.166 84.4163 67.7483 83.9986 67.7483 83.4802C67.7483 82.9619 68.166 82.5441 68.6843 82.5441H68.9258C69.4441 82.5441 69.8769 82.9619 69.8769 83.4802C69.8769 83.9986 69.4643 84.4163 68.951 84.4163Z" fill="#F9A01B"/>
<path d="M68.951 84.9197H68.6843C67.8892 84.9197 67.2451 84.2755 67.2451 83.4803C67.2451 82.6851 67.8892 82.0409 68.6843 82.0409H68.9259C69.726 82.0409 70.3801 82.6851 70.3801 83.4803C70.3801 84.2755 69.736 84.9197 68.951 84.9197ZM68.6843 83.0475C68.4478 83.0475 68.2515 83.2438 68.2515 83.4803C68.2515 83.7169 68.4478 83.9131 68.6843 83.9131H68.951C69.1875 83.9131 69.3687 83.7219 69.3687 83.4803C69.3687 83.2438 69.1624 83.0475 68.9208 83.0475H68.6843Z" fill="#F9A01B"/>
<path d="M96.059 125.257C95.8527 125.257 95.6464 125.192 95.4803 125.056L43.9209 84.2148C43.5183 83.8927 43.4479 83.3039 43.77 82.9013C44.092 82.4936 44.6808 82.4282 45.0833 82.7503L96.059 123.134L146.864 82.7503C147.266 82.4282 147.855 82.4936 148.177 82.9013C148.499 83.3039 148.434 83.8927 148.026 84.2148L96.6377 125.056C96.4666 125.192 96.2653 125.257 96.059 125.257Z" fill="#F9A01B"/>
<path d="M96.0591 125.766C95.737 125.766 95.42 125.655 95.1684 125.454L43.609 84.6074C42.985 84.1142 42.8793 83.2083 43.3725 82.5842C43.8656 81.9652 44.7714 81.8595 45.3904 82.3477L96.0541 122.484L146.552 82.3527C146.849 82.1162 147.231 82.0055 147.608 82.0508C147.991 82.0961 148.333 82.2823 148.575 82.5842C148.811 82.8862 148.922 83.2586 148.877 83.6411C148.831 84.0236 148.645 84.3659 148.343 84.6074L96.9548 125.449C96.6982 125.65 96.3811 125.766 96.0591 125.766ZM44.4997 83.0523C44.3739 83.0523 44.243 83.1077 44.1575 83.2184C44.0116 83.4046 44.0417 83.6764 44.2279 83.8273L95.7823 124.669C95.9383 124.789 96.1648 124.789 96.3157 124.669L147.704 83.8273C147.795 83.7569 147.85 83.6512 147.865 83.5354C147.88 83.4197 147.845 83.309 147.775 83.2184C147.704 83.1278 147.598 83.0724 147.483 83.0573C147.367 83.0422 147.256 83.0775 147.166 83.1479L96.044 123.778L44.7664 83.1429C44.6909 83.0825 44.5953 83.0523 44.4997 83.0523Z" fill="#F9A01B"/>
<path d="M147.447 143.497L44.4997 143.411C44.1072 143.411 43.7096 143.17 43.5738 142.797C43.4379 142.43 43.4932 142.017 43.7952 141.76C43.8002 141.755 43.9008 141.67 43.9059 141.665L80.2128 111.528C80.6104 111.196 81.1991 111.252 81.5313 111.649C81.8634 112.047 81.808 112.636 81.4105 112.968L46.9906 141.539L144.821 141.62L110.199 113.355C109.797 113.028 109.741 112.439 110.064 112.037C110.391 111.639 110.979 111.579 111.382 111.906L148.041 141.831C148.348 142.083 148.464 142.495 148.333 142.868C148.192 143.245 147.84 143.497 147.447 143.497Z" fill="#F9A01B"/>
<path d="M147.447 144L44.4997 143.915C43.8807 143.915 43.3071 143.527 43.1008 142.973C42.8844 142.385 43.0253 141.761 43.4631 141.383L43.5285 141.328C43.5738 141.292 43.614 141.257 43.6191 141.257L79.8908 111.146C80.1827 110.899 80.5551 110.783 80.9425 110.819C81.325 110.854 81.6722 111.035 81.9188 111.332C82.1653 111.629 82.2811 112.001 82.2459 112.384C82.2106 112.766 82.0295 113.114 81.7326 113.36L48.3845 141.041L143.407 141.116L109.877 113.748C109.263 113.245 109.173 112.339 109.671 111.725C110.179 111.111 111.085 111.02 111.699 111.518L148.358 141.443C148.831 141.831 149.007 142.47 148.801 143.044C148.595 143.613 148.051 144 147.447 144ZM44.1173 142.148C43.9764 142.269 43.9864 142.475 44.0418 142.626C44.0971 142.782 44.3034 142.908 44.4947 142.908L147.442 142.994V143.497V142.994C147.624 142.994 147.79 142.878 147.85 142.707C147.91 142.536 147.855 142.344 147.714 142.229L111.055 112.303C110.869 112.152 110.597 112.183 110.446 112.364C110.3 112.545 110.325 112.822 110.511 112.973L146.23 142.128L45.5967 142.042L81.0885 112.585C81.1791 112.51 81.2344 112.409 81.2445 112.293C81.2545 112.178 81.2193 112.067 81.1489 111.976C81.0734 111.886 80.9727 111.83 80.857 111.82C80.7362 111.81 80.6305 111.845 80.545 111.916L44.1877 142.093C44.1625 142.108 44.1424 142.128 44.1173 142.148Z" fill="#F9A01B"/>
<path d="M147.447 84.4164C147.241 84.4164 147.035 84.3509 146.864 84.2151L126.448 67.9943C126.046 67.6722 125.975 67.0833 126.297 66.6807C126.619 66.2731 127.208 66.2076 127.611 66.5297L148.026 82.7505C148.429 83.0726 148.499 83.6615 148.177 84.0641C147.996 84.2956 147.724 84.4164 147.447 84.4164Z" fill="#F9A01B"/>
<path d="M147.447 84.9197C147.12 84.9197 146.803 84.809 146.552 84.6077L126.141 68.3869C125.839 68.1503 125.648 67.8081 125.608 67.4256C125.563 67.0431 125.673 66.6657 125.91 66.3637C126.146 66.0617 126.488 65.8755 126.871 65.8302C127.253 65.7849 127.631 65.8956 127.933 66.1322L148.348 82.353C148.65 82.5895 148.841 82.9317 148.882 83.3142C148.927 83.6967 148.816 84.0742 148.58 84.3711C148.298 84.7234 147.89 84.9197 147.447 84.9197ZM127.032 66.8267C127.017 66.8267 126.997 66.8267 126.982 66.8317C126.866 66.8468 126.765 66.9022 126.695 66.9928C126.619 67.0834 126.589 67.1991 126.604 67.3149C126.619 67.4306 126.675 67.5313 126.765 67.6018L147.181 83.8225C147.276 83.898 147.382 83.9182 147.447 83.9182C147.578 83.9182 147.704 83.8578 147.785 83.7571C147.855 83.6665 147.89 83.5508 147.875 83.4401C147.86 83.3243 147.805 83.2236 147.714 83.1532L127.299 66.9324C127.223 66.8619 127.128 66.8267 127.032 66.8267Z" fill="#F9A01B"/>
<path d="M68.6843 84.4166H44.4998C44.1023 84.4166 43.745 84.165 43.6142 83.7875C43.4833 83.4101 43.6041 82.9923 43.9161 82.7457L68.2667 63.4549C68.6692 63.1379 69.258 63.2033 69.58 63.6059C69.9021 64.0136 69.8317 64.5974 69.4291 64.9195L47.187 82.5444H68.6793C69.1976 82.5444 69.6153 82.9621 69.6153 83.4805C69.6153 83.9989 69.1976 84.4166 68.6843 84.4166Z" fill="#F9A01B"/>
<path d="M68.6843 84.9197H44.4998C43.8859 84.9197 43.3424 84.5322 43.1411 83.9534C42.9398 83.3746 43.126 82.7304 43.6091 82.353L67.9597 63.0622C68.5786 62.569 69.4844 62.6746 69.9776 63.2937C70.4707 63.9177 70.3651 64.8237 69.7461 65.3169L48.6362 82.0409H68.6843C69.4794 82.0409 70.1235 82.6852 70.1235 83.4803C70.1235 84.2755 69.4744 84.9197 68.6843 84.9197ZM68.8504 63.7617C68.7548 63.7617 68.6642 63.7919 68.5837 63.8523L44.2331 83.1431C44.0872 83.2589 44.0318 83.4501 44.0922 83.6263C44.1526 83.7974 44.3186 83.9182 44.4998 83.9182H68.6843C68.9208 83.9182 69.1171 83.7219 69.1171 83.4854C69.1171 83.2488 68.9208 83.0525 68.6843 83.0525H45.7427L69.1221 64.5318C69.3083 64.3858 69.3435 64.109 69.1926 63.9228C69.107 63.8171 68.9812 63.7617 68.8504 63.7617Z" fill="#F9A01B"/>
<path d="M90.3727 66.8265H76.1267C75.6083 66.8265 75.1907 66.4088 75.1907 65.8904C75.1907 65.372 75.6083 64.9543 76.1267 64.9543H90.3777C90.896 64.9543 91.3137 65.372 91.3137 65.8904C91.3137 66.4088 90.891 66.8265 90.3727 66.8265Z" fill="#F9A01B"/>
<path d="M90.3727 67.3299H76.1267C75.3316 67.3299 74.6875 66.6857 74.6875 65.8905C74.6875 65.0953 75.3316 64.4511 76.1267 64.4511H90.3777C91.1728 64.4511 91.8169 65.0953 91.8169 65.8905C91.8169 66.6857 91.1678 67.3299 90.3727 67.3299ZM76.1267 65.4627C75.8902 65.4627 75.6939 65.659 75.6939 65.8955C75.6939 66.1321 75.8902 66.3283 76.1267 66.3283H90.3777C90.6143 66.3283 90.8105 66.1321 90.8105 65.8955C90.8105 65.659 90.6143 65.4627 90.3777 65.4627H76.1267Z" fill="#F9A01B"/>
<path d="M94.5242 62.1613H76.1267C75.6083 62.1613 75.1907 61.7436 75.1907 61.2252C75.1907 60.7068 75.6083 60.2891 76.1267 60.2891H94.5242C95.0425 60.2891 95.4602 60.7068 95.4602 61.2252C95.4602 61.7385 95.0425 62.1613 94.5242 62.1613Z" fill="#F9A01B"/>
<path d="M94.5242 62.6646H76.1267C75.3316 62.6646 74.6875 62.0204 74.6875 61.2252C74.6875 60.4301 75.3316 59.7859 76.1267 59.7859H94.5242C95.3193 59.7859 95.9634 60.4301 95.9634 61.2252C95.9634 62.0204 95.3193 62.6646 94.5242 62.6646ZM76.1267 60.7924C75.8902 60.7924 75.6939 60.9887 75.6939 61.2252C75.6939 61.4618 75.8902 61.6581 76.1267 61.6581H94.5242C94.7607 61.6581 94.957 61.4618 94.957 61.2252C94.957 60.9887 94.7607 60.7924 94.5242 60.7924H76.1267Z" fill="#F9A01B"/>
<path d="M90.3727 54.0685H76.1267C75.6083 54.0685 75.1907 53.6507 75.1907 53.1324C75.1907 52.614 75.6083 52.1963 76.1267 52.1963H90.3777C90.896 52.1963 91.3137 52.614 91.3137 53.1324C91.3087 53.6507 90.891 54.0685 90.3727 54.0685Z" fill="#F9A01B"/>
<path d="M90.3727 54.5718H76.1267C75.3316 54.5718 74.6875 53.9276 74.6875 53.1324C74.6875 52.3373 75.3316 51.6931 76.1267 51.6931H90.3777C91.1728 51.6931 91.8169 52.3373 91.8169 53.1324C91.8169 53.9276 91.1678 54.5718 90.3727 54.5718ZM76.1267 52.6996C75.8902 52.6996 75.6939 52.8959 75.6939 53.1324C75.6939 53.369 75.8902 53.5653 76.1267 53.5653H90.3777C90.6143 53.5653 90.8105 53.369 90.8105 53.1324C90.8105 52.8959 90.6143 52.6996 90.3777 52.6996H76.1267Z" fill="#F9A01B"/>
<path d="M140.357 105.7C155.309 105.7 167.43 93.5776 167.43 78.6236C167.43 63.6697 155.309 51.5471 140.357 51.5471C125.405 51.5471 113.284 63.6697 113.284 78.6236C113.284 93.5776 125.405 105.7 140.357 105.7Z" fill="white"/>
<path d="M140.357 105.7C155.309 105.7 167.43 93.5776 167.43 78.6236C167.43 63.6697 155.309 51.5471 140.357 51.5471C125.405 51.5471 113.284 63.6697 113.284 78.6236C113.284 93.5776 125.405 105.7 140.357 105.7Z" fill="white"/>
<path d="M140.357 106.717C124.838 106.717 112.212 94.0895 112.212 78.5683C112.212 68.558 117.607 59.2171 126.287 54.1944C126.77 53.9176 127.384 54.0786 127.661 54.5618C127.938 55.0449 127.777 55.6589 127.294 55.9357C119.232 60.6011 114.225 69.2727 114.225 78.5683C114.225 92.9773 125.945 104.704 140.357 104.704C154.769 104.704 166.489 92.9823 166.489 78.5683C166.489 65.2716 156.51 54.2648 143.653 52.6392L145.787 54.2397C146.229 54.5718 146.32 55.206 145.988 55.6488C145.656 56.0917 145.027 56.1823 144.579 55.8502L139.763 52.2366C139.733 52.2165 139.703 52.1913 139.678 52.1661C139.652 52.141 139.627 52.1158 139.607 52.0906C139.451 51.9145 139.356 51.683 139.356 51.4263C139.356 51.1696 139.451 50.9381 139.607 50.762C139.632 50.7368 139.658 50.7116 139.683 50.6865C139.708 50.6613 139.738 50.6412 139.763 50.6211L144.579 47.0075C145.027 46.6753 145.656 46.7659 145.988 47.2088C146.32 47.6517 146.229 48.2858 145.787 48.618L143.19 50.5657C157.386 51.99 168.502 64.0084 168.502 78.5734C168.497 94.0895 155.876 106.717 140.357 106.717Z" fill="#2D2D82"/>
<path d="M140.357 107.22C124.561 107.22 111.709 94.3664 111.709 78.5683C111.709 68.3769 117.199 58.8749 126.03 53.7616C126.75 53.3438 127.676 53.5904 128.094 54.3101C128.511 55.0298 128.265 55.9559 127.545 56.3736C119.64 60.9484 114.728 69.4539 114.728 78.5683C114.728 92.7005 126.227 104.201 140.357 104.201C154.487 104.201 165.986 92.7005 165.986 78.5683C165.986 66.3738 157.361 55.9257 145.606 53.4797L146.089 53.8421C146.411 54.0837 146.622 54.436 146.677 54.8386C146.733 55.2412 146.632 55.6338 146.391 55.9559C145.892 56.6202 144.941 56.7561 144.277 56.2578L139.461 52.6443C139.421 52.6141 139.376 52.5788 139.335 52.5386C139.3 52.5084 139.265 52.4732 139.23 52.4329C139.008 52.1813 138.878 51.8692 138.852 51.5421L138.711 51.1898L138.883 51.1042C138.938 50.8526 139.054 50.6211 139.23 50.4248C139.27 50.3845 139.305 50.3443 139.346 50.309C139.386 50.2738 139.426 50.2386 139.471 50.2084L144.282 46.5999C144.951 46.1016 145.897 46.2375 146.396 46.9018C146.637 47.2239 146.738 47.6215 146.682 48.0191C146.627 48.4167 146.416 48.774 146.094 49.0156L144.498 50.2134C158.558 52.2366 169.01 64.2147 169.01 78.5683C169 94.3664 156.153 107.22 140.357 107.22ZM126.785 54.5618C126.7 54.5618 126.614 54.5819 126.534 54.6272C118.009 59.5594 112.71 68.7342 112.71 78.5633C112.71 93.8077 125.11 106.209 140.352 106.209C155.594 106.209 167.994 93.8077 167.994 78.5633C167.994 64.3053 157.305 52.4832 143.135 51.0589L141.852 50.9281L145.48 48.2053C145.585 48.1248 145.656 48.009 145.676 47.8732C145.696 47.7423 145.661 47.6064 145.58 47.5007C145.414 47.2793 145.097 47.234 144.876 47.4001L140.06 51.0136C140.04 51.0287 140.03 51.0388 140.015 51.0489C140 51.064 139.985 51.0791 139.975 51.0942C139.909 51.1697 139.869 51.2602 139.854 51.3609L139.954 51.683L139.929 51.6981C139.944 51.7182 139.959 51.7384 139.975 51.7585C139.985 51.7686 139.995 51.7837 140.01 51.7937C140.025 51.8088 140.04 51.8189 140.05 51.829L144.871 55.4476C145.092 55.6136 145.409 55.5683 145.575 55.3469C145.656 55.2412 145.691 55.1053 145.671 54.9745C145.651 54.8436 145.58 54.7228 145.475 54.6423L141.821 51.8994L143.708 52.136C156.978 53.8119 166.982 65.176 166.982 78.5633C166.982 93.2491 155.036 105.202 140.347 105.202C125.658 105.202 113.712 93.2541 113.712 78.5633C113.712 69.0915 118.814 60.2539 127.032 55.4979C127.273 55.357 127.354 55.05 127.218 54.8084C127.133 54.6524 126.961 54.5618 126.785 54.5618Z" fill="#2D2D82"/>
<path d="M137.75 81.0594H140.241V83.0172C140.241 83.1984 140.181 83.3594 140.065 83.4903C139.949 83.6211 139.773 83.6866 139.547 83.6866H137.755V88.5181H134.801V83.6866H126.458C126.232 83.6866 126.03 83.6161 125.854 83.4752C125.683 83.3342 125.573 83.1581 125.527 82.9467L125.185 81.2356L134.555 68.7189H137.755V81.0594H137.75ZM134.796 74.5872C134.796 74.2953 134.807 73.9782 134.822 73.641C134.842 73.3038 134.872 72.9515 134.917 72.5892L128.773 81.0594H134.791V74.5872H134.796Z" fill="#2D2D82"/>
<path d="M138.254 89.0214H134.293V84.1899H126.453C126.106 84.1899 125.799 84.0792 125.532 83.8628C125.271 83.6514 125.1 83.3746 125.029 83.0525L124.642 81.1149L134.298 68.2157H138.254V80.5562H140.744V83.0173C140.744 83.3243 140.639 83.6011 140.438 83.8275C140.287 83.9936 140.01 84.1949 139.542 84.1949H138.254V89.0214ZM135.3 88.0149H137.247V83.1833H139.542C139.612 83.1833 139.668 83.1733 139.688 83.1531C139.718 83.1179 139.738 83.0827 139.738 83.0173V81.5628H137.247V69.2223H134.802L125.718 81.3615L126.015 82.8512C126.036 82.9418 126.081 83.0173 126.166 83.0877C126.252 83.1582 126.337 83.1884 126.448 83.1884H135.295V88.0149H135.3ZM135.3 81.5628H127.792L135.662 70.712L135.42 72.6547C135.375 73.007 135.345 73.3492 135.33 73.6713C135.31 73.9984 135.305 74.3054 135.305 74.5873V81.5628H135.3ZM129.764 80.5562H134.293V74.5873C134.293 74.4967 134.293 74.4011 134.293 74.3054L129.764 80.5562Z" fill="#2D2D82"/>
<path d="M148.665 88.7346C147.643 88.7346 146.713 88.5988 145.867 88.3219C145.022 88.0502 144.302 87.6626 143.698 87.1594C143.094 86.6561 142.626 86.0521 142.294 85.3375C141.962 84.6228 141.796 83.8327 141.796 82.957C141.796 81.7893 142.083 80.8029 142.657 79.9926C143.23 79.1874 144.126 78.5885 145.339 78.1959C144.373 77.7933 143.648 77.2246 143.17 76.4847C142.692 75.7449 142.45 74.8591 142.45 73.8174C142.45 73.0675 142.601 72.3729 142.908 71.7237C143.215 71.0745 143.638 70.5108 144.186 70.0327C144.735 69.5545 145.389 69.1821 146.149 68.9103C146.909 68.6436 147.749 68.5077 148.66 68.5077C149.571 68.5077 150.406 68.6436 151.171 68.9103C151.931 69.1771 152.585 69.5545 153.134 70.0327C153.682 70.5108 154.105 71.0745 154.412 71.7237C154.719 72.3729 154.87 73.0675 154.87 73.8174C154.87 74.8591 154.628 75.7449 154.145 76.4847C153.662 77.2246 152.942 77.7933 151.981 78.1959C153.194 78.5885 154.09 79.1874 154.663 79.9926C155.237 80.7979 155.524 81.7893 155.524 82.957C155.524 83.8327 155.358 84.6279 155.026 85.3375C154.694 86.0471 154.226 86.6561 153.622 87.1594C153.018 87.6626 152.298 88.0502 151.453 88.3219C150.618 88.5988 149.687 88.7346 148.665 88.7346ZM148.665 86.0974C149.224 86.0974 149.712 86.0169 150.129 85.8559C150.547 85.6948 150.904 85.4734 151.191 85.1915C151.478 84.9097 151.694 84.5725 151.84 84.1799C151.986 83.7874 152.062 83.3646 152.062 82.9066C152.062 81.8195 151.76 80.9992 151.161 80.4456C150.557 79.8869 149.732 79.6101 148.67 79.6101C147.608 79.6101 146.783 79.8869 146.179 80.4456C145.575 81.0042 145.278 81.8246 145.278 82.9066C145.278 83.3646 145.349 83.7874 145.495 84.1799C145.641 84.5725 145.857 84.9097 146.144 85.1915C146.431 85.4734 146.783 85.6948 147.206 85.8559C147.623 86.0169 148.111 86.0974 148.665 86.0974ZM148.665 76.9578C149.214 76.9578 149.671 76.8723 150.049 76.6961C150.421 76.525 150.723 76.2935 150.95 76.0066C151.176 75.7198 151.337 75.3926 151.433 75.0202C151.528 74.6528 151.579 74.2703 151.579 73.8777C151.579 73.5053 151.518 73.148 151.403 72.8108C151.282 72.4736 151.106 72.1766 150.869 71.9149C150.633 71.6532 150.331 71.4469 149.968 71.2909C149.601 71.1349 149.168 71.0594 148.67 71.0594C148.172 71.0594 147.734 71.1349 147.372 71.2909C147.004 71.4469 146.702 71.6532 146.461 71.9149C146.219 72.1766 146.043 72.4736 145.928 72.8108C145.812 73.148 145.756 73.5053 145.756 73.8777C145.756 74.2703 145.802 74.6528 145.902 75.0202C145.998 75.3876 146.159 75.7198 146.385 76.0066C146.612 76.2935 146.914 76.525 147.286 76.6961C147.659 76.8672 148.117 76.9578 148.665 76.9578Z" fill="#2D2D82"/>
<path d="M148.665 89.238C147.598 89.238 146.602 89.0921 145.711 88.8052C144.81 88.5133 144.025 88.0905 143.376 87.552C142.722 87.0035 142.204 86.3341 141.841 85.559C141.479 84.784 141.293 83.9083 141.293 82.9671C141.293 81.6989 141.615 80.6017 142.249 79.7109C142.702 79.0717 143.341 78.5483 144.146 78.1457C143.567 77.7682 143.1 77.3052 142.752 76.7667C142.224 75.9463 141.952 74.9599 141.952 73.8275C141.952 73.0072 142.123 72.2321 142.46 71.5175C142.793 70.8078 143.266 70.1888 143.864 69.6654C144.458 69.147 145.173 68.7343 145.993 68.4474C146.803 68.1606 147.704 68.0146 148.67 68.0146C149.636 68.0146 150.537 68.1606 151.347 68.4474C152.167 68.7343 152.882 69.147 153.476 69.6654C154.075 70.1888 154.543 70.8129 154.88 71.5175C155.217 72.2321 155.388 73.0072 155.388 73.8275C155.388 74.9599 155.116 75.9514 154.583 76.7717C154.231 77.3102 153.763 77.7682 153.189 78.1457C153.999 78.5483 154.633 79.0717 155.091 79.7109C155.725 80.6017 156.047 81.6938 156.047 82.9671C156.047 83.9133 155.861 84.784 155.499 85.559C155.136 86.3341 154.618 87.0035 153.964 87.552C153.315 88.0905 152.53 88.5133 151.629 88.8052C150.728 89.0921 149.737 89.238 148.665 89.238ZM148.665 69.0162C147.815 69.0162 147.025 69.142 146.32 69.3886C145.621 69.6352 145.017 69.9825 144.519 70.4153C144.025 70.8481 143.638 71.3614 143.361 71.9402C143.089 72.519 142.949 73.1481 142.949 73.8175C142.949 74.7536 143.165 75.5588 143.588 76.2131C144.005 76.8623 144.659 77.3706 145.525 77.733L146.788 78.2564L145.49 78.6792C144.388 79.0365 143.573 79.58 143.064 80.2897C142.556 81.0043 142.294 81.9052 142.294 82.9621C142.294 83.7573 142.445 84.487 142.747 85.1312C143.044 85.7704 143.472 86.324 144.015 86.777C144.564 87.235 145.238 87.5973 146.018 87.849C146.808 88.1056 147.694 88.2365 148.66 88.2365C149.626 88.2365 150.512 88.1056 151.302 87.849C152.082 87.5973 152.751 87.235 153.305 86.777C153.848 86.324 154.271 85.7704 154.573 85.1312C154.875 84.4921 155.026 83.7623 155.026 82.9621C155.026 81.9052 154.769 81.0094 154.256 80.2897C153.748 79.575 152.932 79.0365 151.83 78.6792L150.537 78.2614L151.79 77.738C152.651 77.3807 153.3 76.8674 153.722 76.2181C154.15 75.5639 154.366 74.7636 154.366 73.8275C154.366 73.1582 154.231 72.524 153.954 71.9503C153.677 71.3665 153.29 70.8531 152.796 70.4253C152.298 69.9925 151.694 69.6453 150.995 69.3986C150.301 69.142 149.515 69.0162 148.665 69.0162ZM148.665 86.6008C148.051 86.6008 147.498 86.5102 147.025 86.3291C146.541 86.1479 146.129 85.8862 145.792 85.554C145.455 85.2218 145.193 84.8192 145.022 84.3562C144.856 83.9083 144.77 83.4251 144.77 82.9067C144.77 81.6787 145.127 80.7275 145.837 80.0733C146.531 79.4291 147.483 79.107 148.67 79.107C149.853 79.107 150.809 79.4341 151.503 80.0733C152.208 80.7275 152.57 81.6787 152.57 82.9067C152.57 83.4201 152.484 83.9083 152.318 84.3562C152.147 84.8142 151.891 85.2168 151.548 85.554C151.211 85.8862 150.799 86.1428 150.316 86.3291C149.833 86.5052 149.279 86.6008 148.665 86.6008ZM148.665 80.1135C147.729 80.1135 147.03 80.345 146.516 80.8131C146.018 81.2761 145.777 81.9606 145.777 82.9067C145.777 83.2993 145.837 83.6717 145.963 84.0039C146.084 84.331 146.255 84.6028 146.491 84.8343C146.728 85.0658 147.025 85.252 147.377 85.3879C147.739 85.5238 148.167 85.5943 148.66 85.5943C149.153 85.5943 149.586 85.5238 149.943 85.3879C150.295 85.252 150.592 85.0709 150.829 84.8343C151.065 84.6028 151.236 84.331 151.357 84.0039C151.483 83.6717 151.543 83.2993 151.543 82.9067C151.543 81.9606 151.302 81.2761 150.804 80.8131C150.301 80.345 149.601 80.1135 148.665 80.1135ZM148.665 77.4612C148.046 77.4612 147.513 77.3555 147.07 77.1542C146.627 76.9479 146.26 76.666 145.983 76.3188C145.711 75.9765 145.52 75.584 145.404 75.1461C145.299 74.7385 145.243 74.3107 145.243 73.8779C145.243 73.4501 145.309 73.0374 145.439 72.6498C145.575 72.2472 145.792 71.8849 146.084 71.5728C146.37 71.2608 146.733 71.0142 147.165 70.828C147.593 70.6468 148.096 70.5562 148.66 70.5562C149.224 70.5562 149.732 70.6468 150.155 70.828C150.587 71.0091 150.95 71.2608 151.231 71.5728C151.513 71.8798 151.73 72.2422 151.866 72.6398C152.001 73.0323 152.072 73.445 152.072 73.8728C152.072 74.3056 152.016 74.7334 151.911 75.1411C151.8 75.579 151.604 75.9715 151.332 76.3137C151.055 76.661 150.693 76.9428 150.245 77.1492C149.817 77.3555 149.284 77.4612 148.665 77.4612ZM148.665 71.5628C148.232 71.5628 147.865 71.6282 147.563 71.754C147.266 71.8798 147.02 72.0509 146.828 72.2573C146.632 72.4687 146.496 72.7002 146.401 72.972C146.305 73.2538 146.255 73.5608 146.255 73.8779C146.255 74.2251 146.295 74.5674 146.38 74.8945C146.461 75.1965 146.587 75.4582 146.773 75.6947C146.949 75.9161 147.191 76.1024 147.493 76.2433C147.8 76.3842 148.192 76.4547 148.665 76.4547C149.138 76.4547 149.531 76.3842 149.838 76.2433C150.139 76.1024 150.381 75.9212 150.557 75.6947C150.743 75.4632 150.869 75.2015 150.95 74.8945C151.035 74.5674 151.075 74.2251 151.075 73.8779C151.075 73.5608 151.025 73.2588 150.925 72.977C150.829 72.7052 150.683 72.4636 150.492 72.2523C150.306 72.0459 150.059 71.8798 149.762 71.754C149.465 71.6282 149.098 71.5628 148.665 71.5628Z" fill="#2D2D82"/>
</g>
<defs>
<clipPath id="clip0_1_2143">
<rect width="126" height="115" fill="white" transform="translate(43 29)"/>
</clipPath>
</defs>
</svg>
