<svg width="202" height="175" viewBox="0 0 202 175" fill="none" xmlns="http://www.w3.org/2000/svg">
<rect width="202" height="175" rx="20" fill="white"/>
<path d="M75.5187 151.447C67.2088 151.447 59.3621 148.75 52.8277 143.642C43.7568 136.55 38.5514 125.881 38.5514 114.367C38.5514 105.484 41.7386 96.8881 47.523 90.1663C54.5757 81.9963 64.777 77.3087 75.5187 77.3087C76.0867 77.3087 76.5444 77.7675 76.5444 78.3369C76.5444 78.9063 76.0867 79.3651 75.5187 79.3651C65.3726 79.3651 55.7337 83.7928 49.0725 91.5096C43.6134 97.861 40.6027 105.981 40.6027 114.367C40.6027 125.24 45.5214 135.317 54.0905 142.017C60.2609 146.837 67.672 149.385 75.5187 149.385C84.6944 149.385 93.3573 145.848 99.9081 139.419C106.696 132.769 110.435 123.869 110.435 114.361C110.435 104.953 107.628 97.4188 101.855 91.3382C101.529 90.9955 101.182 90.6472 100.824 90.3045C93.5337 83.2456 89.5194 73.771 89.5194 63.622C89.5194 54.7333 92.7011 46.1321 98.4745 39.4048C105.533 31.2403 115.734 26.5527 126.476 26.5527C146.862 26.5527 163.449 43.1858 163.449 63.6275C163.449 74.0805 159.01 84.1024 151.273 91.1171C144.452 97.2861 135.646 100.686 126.476 100.686C125.908 100.686 125.45 100.227 125.45 99.6575C125.45 99.0882 125.908 98.6293 126.476 98.6293C135.139 98.6293 143.459 95.4177 149.895 89.5914C157.201 82.9636 161.392 73.5001 161.392 63.6275C161.392 44.319 145.726 28.6091 126.47 28.6091C116.324 28.6091 106.685 33.0368 100.024 40.7536C94.5704 47.1105 91.5651 55.2308 91.5651 63.6275C91.5651 73.2127 95.3534 82.1677 102.241 88.8286C102.621 89.1934 102.985 89.5583 103.332 89.9231C109.486 96.4072 112.481 104.4 112.481 114.361C112.481 124.427 108.521 133.847 101.336 140.884C94.4105 147.699 85.2348 151.447 75.5187 151.447Z" fill="#F9A01B"/>
<path d="M75.5188 152C67.0875 152 59.125 149.258 52.4914 144.079C43.2826 136.882 38 126.053 38 114.367C38 105.351 41.2313 96.6283 47.104 89.8015C54.2614 81.5099 64.6172 76.756 75.5188 76.756C76.39 76.756 77.0958 77.4635 77.0958 78.3369C77.0958 79.2103 76.39 79.9179 75.5188 79.9179C65.5325 79.9179 56.0481 84.2738 49.4916 91.8689C44.1153 98.1208 41.1541 106.108 41.1541 114.367C41.1541 125.069 45.9956 134.991 54.4324 141.58C60.5035 146.323 67.7989 148.833 75.5188 148.833C84.5511 148.833 93.0761 145.35 99.5222 139.021C106.205 132.476 109.883 123.72 109.883 114.361C109.883 105.102 107.126 97.6952 101.458 91.7197C101.138 91.3825 100.796 91.0397 100.443 90.7026C93.043 83.5386 88.968 73.9202 88.968 63.622C88.968 54.6007 92.1938 45.8723 98.0554 39.04C105.218 30.7539 115.574 26 126.476 26C147.165 26 164 42.8818 164 63.6275C164 74.2353 159.495 84.4064 151.643 91.5262C144.722 97.7892 135.784 101.238 126.476 101.238C125.604 101.238 124.899 100.531 124.899 99.6575C124.899 98.7842 125.604 98.0766 126.476 98.0766C135.001 98.0766 143.189 94.9147 149.525 89.1769C156.716 82.6541 160.84 73.3398 160.84 63.622C160.84 44.6175 145.423 29.1564 126.47 29.1564C116.484 29.1564 106.999 33.5122 100.443 41.1074C95.0777 47.3593 92.1221 55.358 92.1221 63.622C92.1221 73.0579 95.8552 81.8692 102.627 88.4306C103.013 88.801 103.382 89.1714 103.735 89.5417C109.994 96.1364 113.032 104.251 113.032 114.361C113.032 124.577 109.018 134.134 101.722 141.282C94.6917 148.197 85.3837 152 75.5188 152ZM75.5188 77.8615C64.937 77.8615 54.8846 82.4772 47.9366 90.5257C42.2404 97.1535 39.1028 105.622 39.1028 114.367C39.1028 125.71 44.2311 136.218 53.1696 143.205C59.6047 148.236 67.3357 150.894 75.5188 150.894C85.0915 150.894 94.1238 147.202 100.956 140.497C108.036 133.559 111.935 124.284 111.935 114.367C111.935 104.555 108.99 96.6836 102.941 90.3046C102.599 89.9453 102.241 89.5859 101.866 89.2266C94.8737 82.4551 91.0193 73.3675 91.0193 63.622C91.0193 55.0927 94.0686 46.8397 99.6104 40.3833C106.376 32.5449 116.17 28.0453 126.476 28.0453C146.035 28.0453 161.949 44.004 161.949 63.6165C161.949 73.6439 157.692 83.2566 150.27 89.995C143.73 95.9152 135.276 99.1766 126.476 99.1766C126.217 99.1766 126.001 99.3922 126.001 99.652C126.001 99.9118 126.217 100.127 126.476 100.127C135.508 100.127 144.187 96.7776 150.904 90.697C158.524 83.7818 162.897 73.9147 162.897 63.6165C162.897 43.4899 146.559 27.1056 126.476 27.1056C115.899 27.1056 105.841 31.7212 98.8936 39.7697C93.2084 46.3975 90.0708 54.8715 90.0708 63.6275C90.0708 73.6273 94.0245 82.9637 101.204 89.9121C101.568 90.2603 101.915 90.6141 102.252 90.9624C108.13 97.1535 110.986 104.809 110.986 114.367C110.986 124.024 107.187 133.062 100.294 139.817C93.6385 146.345 84.8378 149.944 75.5188 149.944C67.5452 149.944 60.0183 147.357 53.7541 142.454C45.0472 135.649 40.0513 125.411 40.0513 114.367C40.0513 105.843 43.1062 97.5957 48.6535 91.1448C55.4194 83.3064 65.2127 78.8068 75.5188 78.8068C75.7779 78.8068 75.993 78.5912 75.993 78.3314C75.993 78.0716 75.7835 77.8615 75.5188 77.8615Z" fill="#F9A01B"/>
<path d="M100.371 140.911C99.9302 140.911 99.5221 140.624 99.3898 140.181C97.7796 134.842 92.7893 131.116 87.253 131.116H83.2166C82.6486 131.116 82.1909 130.657 82.1909 130.088C82.1909 129.518 82.6486 129.06 83.2166 129.06H87.253C93.6881 129.06 99.489 133.388 101.353 139.584C101.518 140.126 101.209 140.701 100.669 140.867C100.564 140.895 100.465 140.911 100.371 140.911Z" fill="#2D2D82"/>
<path d="M100.371 141.464C99.6711 141.464 99.0645 141.011 98.8605 140.342C97.322 135.234 92.5467 131.669 87.2475 131.669H83.2111C82.3399 131.669 81.634 130.961 81.634 130.088C81.634 129.214 82.3399 128.507 83.2111 128.507H87.2475C93.9252 128.507 99.9413 132.995 101.877 139.43C101.998 139.833 101.954 140.264 101.755 140.635C101.557 141.005 101.226 141.282 100.824 141.403C100.675 141.442 100.52 141.464 100.371 141.464ZM83.2111 129.612C82.9519 129.612 82.7369 129.828 82.7369 130.088C82.7369 130.348 82.9519 130.563 83.2111 130.563H87.2475C93.0264 130.563 98.2374 134.455 99.9137 140.021C99.9854 140.264 100.25 140.414 100.504 140.336C100.757 140.259 100.895 139.994 100.824 139.745C99.0259 133.78 93.4455 129.612 87.253 129.612H83.2111Z" fill="#2D2D82"/>
<path d="M53.8369 143.393C53.7983 143.393 53.7652 143.393 53.7266 143.388C53.1642 143.327 52.7561 142.818 52.8168 142.255C53.5777 135.085 59.5772 129.419 66.7678 129.071C66.9773 129.054 67.2365 129.054 67.4791 129.054H71.5045C72.0724 129.054 72.5301 129.513 72.5301 130.082C72.5301 130.652 72.0724 131.111 71.5045 131.111H67.4791C67.2971 131.111 67.0821 131.111 66.8946 131.122C60.68 131.42 55.5187 136.301 54.8625 142.47C54.7964 143.001 54.3552 143.393 53.8369 143.393Z" fill="#2D2D82"/>
<path d="M53.8369 143.946C53.7818 143.946 53.7266 143.946 53.6715 143.935C52.8057 143.841 52.1771 143.062 52.2709 142.194C53.0594 134.759 59.2849 128.877 66.7402 128.518C66.9497 128.502 67.2254 128.502 67.4791 128.502H71.5045C72.3757 128.502 73.0815 129.209 73.0815 130.083C73.0815 130.956 72.3757 131.663 71.5045 131.663H67.4791C67.2861 131.663 67.0986 131.663 66.9332 131.675C60.9833 131.962 56.0371 136.627 55.4085 142.531C55.3147 143.338 54.642 143.946 53.8369 143.946ZM67.4736 129.613C67.2475 129.613 67.0049 129.613 66.8008 129.629C59.8639 129.966 54.0961 135.422 53.3627 142.321C53.3351 142.581 53.5226 142.819 53.7818 142.846H53.8314C54.074 142.846 54.2725 142.664 54.3001 142.421C54.9839 135.981 60.3823 130.89 66.856 130.58C67.0379 130.569 67.2309 130.569 67.4405 130.569H71.4934C71.7526 130.569 71.9677 130.353 71.9677 130.094C71.9677 129.834 71.7526 129.618 71.4934 129.618H67.4736V129.613Z" fill="#2D2D82"/>
<path d="M77.355 142.979C76.9635 142.979 76.6106 142.758 76.4341 142.409L70.5891 130.558C70.3354 130.049 70.5449 129.436 71.0522 129.181C71.5596 128.933 72.1772 129.137 72.4253 129.646L77.3495 139.634L82.2296 129.723C82.2461 129.679 82.2627 129.635 82.2847 129.59C82.5494 129.087 83.178 128.877 83.6798 129.143C84.143 129.386 84.3526 129.928 84.1651 130.409C84.1485 130.453 84.132 130.497 84.1154 130.536L78.2704 142.404C78.0994 142.758 77.741 142.979 77.355 142.979Z" fill="#2D2D82"/>
<path d="M77.355 143.532C76.7595 143.532 76.2026 143.189 75.9434 142.653L70.0983 130.801C69.9108 130.425 69.8833 129.994 70.0156 129.596C70.1535 129.198 70.4347 128.872 70.8097 128.684C71.5927 128.297 72.5356 128.618 72.9216 129.397L77.3495 138.38L81.7223 129.496C81.7444 129.436 81.7719 129.38 81.7995 129.325C81.9925 128.955 82.3399 128.667 82.7424 128.54C83.145 128.413 83.5696 128.452 83.939 128.651C84.6448 129.027 84.9647 129.867 84.6835 130.602C84.6669 130.646 84.6393 130.713 84.6118 130.779L78.7667 142.647C78.4965 143.194 77.9561 143.532 77.355 143.532ZM71.51 129.624C71.4383 129.624 71.3666 129.64 71.3004 129.673C71.1846 129.729 71.1019 129.828 71.0633 129.944C71.0247 130.066 71.0302 130.193 71.0854 130.309L76.9305 142.161C77.0904 142.481 77.6197 142.487 77.7796 142.161L83.6247 130.292C83.6357 130.27 83.6413 130.254 83.6468 130.232C83.7405 129.988 83.6413 129.745 83.4262 129.629C83.3159 129.574 83.1946 129.563 83.0733 129.596C82.9465 129.635 82.8417 129.723 82.781 129.839C82.77 129.861 82.759 129.883 82.7535 129.906L82.7314 129.961L77.355 140.878L71.9401 129.889C71.8519 129.723 71.6864 129.624 71.51 129.624Z" fill="#2D2D82"/>
<path d="M77.355 125.66C69.7619 125.66 63.5859 119.469 63.5859 111.852C63.5859 104.235 69.7619 98.0435 77.355 98.0435C84.948 98.0435 91.1295 104.235 91.1295 111.852C91.1295 119.469 84.948 125.66 77.355 125.66ZM77.355 100.1C70.8923 100.1 65.6372 105.373 65.6372 111.852C65.6372 118.33 70.8923 123.604 77.355 123.604C83.8176 123.604 89.0782 118.33 89.0782 111.852C89.0727 105.373 83.8176 100.1 77.355 100.1Z" fill="#2D2D82"/>
<path d="M77.355 126.213C69.4586 126.213 63.0345 119.773 63.0345 111.852C63.0345 103.931 69.4586 97.4907 77.355 97.4907C85.2514 97.4907 91.6809 103.931 91.6809 111.852C91.6809 119.773 85.2514 126.213 77.355 126.213ZM77.355 98.5963C70.0652 98.5963 64.1374 104.544 64.1374 111.852C64.1374 119.16 70.0652 125.107 77.355 125.107C84.6448 125.107 90.5781 119.16 90.5781 111.852C90.5781 104.544 84.6448 98.5963 77.355 98.5963ZM77.355 124.157C70.589 124.157 65.0858 118.64 65.0858 111.852C65.0858 105.064 70.589 99.5471 77.355 99.5471C84.1209 99.5471 89.6296 105.064 89.6296 111.852C89.6296 118.64 84.1209 124.157 77.355 124.157ZM77.355 100.653C71.1956 100.653 66.1887 105.677 66.1887 111.852C66.1887 118.026 71.2011 123.051 77.355 123.051C83.5144 123.051 88.5268 118.026 88.5268 111.852C88.5268 105.677 83.5144 100.653 77.355 100.653Z" fill="#2D2D82"/>
<path d="M150.396 91.1722C149.828 91.1722 149.371 90.7134 149.371 90.1441V89.2154C149.371 82.1288 143.619 76.3689 136.55 76.3689H132.481C131.913 76.3689 131.455 75.9101 131.455 75.3407C131.455 74.7713 131.913 74.3125 132.481 74.3125H136.55C144.75 74.3125 151.422 80.9956 151.422 89.2154V90.1441C151.422 90.7079 150.964 91.1722 150.396 91.1722Z" fill="#F9A01B"/>
<path d="M150.396 91.725C149.525 91.725 148.819 91.0175 148.819 90.1441V89.2154C148.819 82.4329 143.316 76.9217 136.55 76.9217H132.481C131.61 76.9217 130.904 76.2141 130.904 75.3407C130.904 74.4674 131.61 73.7598 132.481 73.7598H136.55C145.053 73.7598 151.974 80.6916 151.974 89.2154V90.1441C151.974 91.012 151.268 91.725 150.396 91.725ZM132.486 74.8653C132.227 74.8653 132.012 75.0809 132.012 75.3407C132.012 75.6005 132.227 75.8161 132.486 75.8161H136.556C143.928 75.8161 149.928 81.8303 149.928 89.2154V90.1441C149.928 90.4039 150.143 90.6195 150.402 90.6195C150.661 90.6195 150.876 90.4039 150.876 90.1441V89.2154C150.876 81.2997 144.452 74.8653 136.556 74.8653H132.486Z" fill="#F9A01B"/>
<path d="M102.737 91.526C102.169 91.526 101.711 91.0672 101.711 90.4979V89.2154C101.711 81.272 107.909 74.7271 115.817 74.3291C116.054 74.3125 116.324 74.3125 116.578 74.3125H120.647C121.215 74.3125 121.673 74.7713 121.673 75.3407C121.673 75.9101 121.215 76.3689 120.647 76.3689H116.578C116.374 76.3744 116.148 76.3689 115.938 76.3799C109.106 76.7282 103.763 82.3665 103.763 89.2154V90.4979C103.763 91.0672 103.305 91.526 102.737 91.526Z" fill="#F9A01B"/>
<path d="M102.737 92.0788C101.866 92.0788 101.16 91.3713 101.16 90.4979V89.2154C101.16 80.9735 107.584 74.191 115.789 73.7764C116.032 73.7598 116.313 73.7598 116.578 73.7598H120.647C121.518 73.7598 122.224 74.4674 122.224 75.3407C122.224 76.2141 121.518 76.9217 120.647 76.9217L116.352 76.9272C116.225 76.9272 116.098 76.9272 115.977 76.9383C109.437 77.2699 104.32 82.665 104.32 89.221V90.5034C104.314 91.3713 103.608 92.0788 102.737 92.0788ZM116.578 74.8654C116.335 74.8654 116.081 74.8653 115.855 74.8819C108.229 75.2689 102.263 81.565 102.263 89.2154V90.4979C102.263 90.7577 102.478 90.9733 102.737 90.9733C102.996 90.9733 103.211 90.7577 103.211 90.4979V89.2154C103.211 82.068 108.786 76.192 115.905 75.8272C116.043 75.8161 116.192 75.8161 116.335 75.8161H116.556H120.642C120.901 75.8161 121.116 75.6005 121.116 75.3407C121.116 75.0809 120.901 74.8654 120.642 74.8654H116.578Z" fill="#F9A01B"/>
<path d="M126.569 88.3588C126.178 88.3588 125.825 88.1377 125.649 87.7894L119.743 75.8107C119.489 75.3022 119.699 74.6886 120.206 74.4343C120.719 74.18 121.331 74.3956 121.579 74.8987L126.564 85.0089L131.554 74.8821C131.797 74.3901 132.398 74.1579 132.9 74.3846C133.402 74.6112 133.644 75.175 133.44 75.6891L127.49 87.7839C127.319 88.1377 126.961 88.3588 126.569 88.3588Z" fill="#F9A01B"/>
<path d="M126.569 88.9116C125.968 88.9116 125.422 88.5744 125.152 88.0327L119.247 76.054C118.861 75.2746 119.18 74.3238 119.963 73.9369C120.746 73.5499 121.695 73.8761 122.075 74.6555L126.564 83.7597L131.058 74.6389C131.433 73.8816 132.359 73.5389 133.12 73.8816C133.898 74.2299 134.256 75.1143 133.947 75.8937L127.981 88.0272C127.716 88.5744 127.176 88.9116 126.569 88.9116ZM120.664 74.8821C120.592 74.8821 120.52 74.8987 120.449 74.9319C120.217 75.048 120.118 75.3299 120.234 75.5676L126.139 87.5462C126.222 87.7066 126.382 87.8116 126.564 87.8116C126.746 87.8116 126.906 87.7121 126.989 87.5462L132.938 75.4515C133.016 75.258 132.905 75.0037 132.668 74.8987C132.437 74.7937 132.161 74.9042 132.045 75.1364L126.564 86.2638L121.083 75.153C121.006 74.9761 120.84 74.8821 120.664 74.8821Z" fill="#F9A01B"/>
<path d="M126.58 67.9335C118.971 67.9335 112.778 61.7424 112.778 54.1251C112.778 46.5079 118.971 40.3167 126.58 40.3167C134.174 40.3167 140.355 46.5079 140.355 54.1251C140.355 61.7424 134.179 67.9335 126.58 67.9335ZM126.58 42.3731C120.101 42.3731 114.83 47.6466 114.83 54.1251C114.83 60.6037 120.101 65.8772 126.58 65.8772C133.043 65.8772 138.304 60.6037 138.304 54.1251C138.304 47.6466 133.049 42.3731 126.58 42.3731Z" fill="#F9A01B"/>
<path d="M126.58 68.4863C118.668 68.4863 112.227 62.0464 112.227 54.1251C112.227 46.2038 118.668 39.764 126.58 39.764C134.477 39.764 140.906 46.2038 140.906 54.1251C140.906 62.0464 134.482 68.4863 126.58 68.4863ZM126.58 40.8751C119.274 40.8751 113.33 46.823 113.33 54.1307C113.33 61.4384 119.274 67.3863 126.58 67.3863C133.87 67.3863 139.804 61.4384 139.804 54.1307C139.804 46.823 133.876 40.8751 126.58 40.8751ZM126.58 66.43C119.798 66.43 114.278 60.9132 114.278 54.1251C114.278 47.337 119.798 41.8203 126.58 41.8203C133.346 41.8203 138.855 47.337 138.855 54.1251C138.855 60.9132 133.352 66.43 126.58 66.43ZM126.58 42.9259C120.405 42.9259 115.381 47.9506 115.381 54.1251C115.381 60.2997 120.405 65.3244 126.58 65.3244C132.74 65.3244 137.752 60.2997 137.752 54.1251C137.752 47.9506 132.74 42.9259 126.58 42.9259Z" fill="#F9A01B"/>
<path d="M75.5187 79.365H43.6465C43.0785 79.365 42.6208 78.9062 42.6208 78.3368C42.6208 77.7674 43.0785 77.3086 43.6465 77.3086H75.5187C76.0867 77.3086 76.5444 77.7674 76.5444 78.3368C76.5444 78.9062 76.0867 79.365 75.5187 79.365Z" fill="#2D2D82"/>
<path d="M75.5187 79.9178H43.6465C42.7753 79.9178 42.0695 79.2102 42.0695 78.3368C42.0695 77.4634 42.7753 76.7559 43.6465 76.7559H75.5187C76.39 76.7559 77.0958 77.4634 77.0958 78.3368C77.0958 79.2102 76.39 79.9178 75.5187 79.9178ZM43.6465 77.8614C43.3874 77.8614 43.1723 78.077 43.1723 78.3368C43.1723 78.5966 43.3874 78.8122 43.6465 78.8122H75.5187C75.7779 78.8122 75.993 78.5966 75.993 78.3368C75.993 78.077 75.7779 77.8614 75.5187 77.8614H43.6465Z" fill="#2D2D82"/>
<path d="M47.8814 85.2356C47.5892 85.2356 47.3024 85.114 47.0984 84.8708L42.1356 79.0003C41.8103 78.6189 41.8103 78.055 42.1356 77.6681L47.0984 71.8142C47.4623 71.3775 48.113 71.3333 48.5431 71.6981C48.9732 72.0629 49.0284 72.7152 48.6589 73.1464L44.2641 78.3369L48.6644 83.5441C49.0284 83.9753 48.9788 84.6275 48.5431 84.9924C48.3501 85.1582 48.1185 85.2356 47.8814 85.2356Z" fill="#2D2D82"/>
<path d="M47.8815 85.7884C47.4183 85.7884 46.9771 85.5839 46.6794 85.2301L41.7166 79.3596C41.2148 78.7682 41.2148 77.9058 41.7166 77.3144L46.6794 71.4605C46.9496 71.1398 47.3245 70.9464 47.7491 70.9077C48.1737 70.8745 48.5818 71.0017 48.9016 71.278C49.5633 71.8419 49.646 72.8424 49.0836 73.5057L44.9865 78.337L49.0836 83.1849C49.646 83.8482 49.5633 84.8487 48.9016 85.4126C48.6204 85.6558 48.2564 85.7884 47.8815 85.7884ZM47.8815 72.0077C47.8649 72.0077 47.8539 72.0077 47.8373 72.0077C47.7105 72.0188 47.6002 72.074 47.5175 72.1735L42.5547 78.033C42.4113 78.2099 42.4113 78.4697 42.5602 78.6466L47.523 84.5171C47.6168 84.6276 47.7436 84.6829 47.887 84.6829C47.9642 84.6829 48.0855 84.6608 48.1903 84.5723C48.3888 84.401 48.4163 84.1025 48.2454 83.9035L43.5418 78.3425L48.2454 72.7927C48.4163 72.5937 48.3888 72.2896 48.1903 72.1238C48.102 72.0464 47.9917 72.0077 47.8815 72.0077Z" fill="#2D2D82"/>
<path d="M158.37 100.691H126.476C125.908 100.691 125.45 100.232 125.45 99.6629C125.45 99.0936 125.908 98.6348 126.476 98.6348H158.37C158.938 98.6348 159.396 99.0936 159.396 99.6629C159.396 100.227 158.932 100.691 158.37 100.691Z" fill="#F9A01B"/>
<path d="M158.37 101.244H126.476C125.605 101.244 124.899 100.536 124.899 99.663C124.899 98.7896 125.605 98.082 126.476 98.082H158.37C159.241 98.082 159.947 98.7896 159.947 99.663C159.947 100.536 159.236 101.244 158.37 101.244ZM126.476 99.1876C126.217 99.1876 126.002 99.4032 126.002 99.663C126.002 99.9228 126.217 100.138 126.476 100.138H158.37C158.629 100.138 158.844 99.9228 158.844 99.663C158.844 99.4032 158.629 99.1876 158.37 99.1876H126.476Z" fill="#F9A01B"/>
<path d="M154.543 106.545C154.306 106.545 154.074 106.462 153.876 106.302C153.446 105.932 153.396 105.285 153.76 104.854L158.171 99.6633L153.76 94.4561C153.396 94.0249 153.446 93.3727 153.876 93.0078C154.306 92.643 154.957 92.6928 155.321 93.1239L160.3 98.9944C160.625 99.3814 160.625 99.9452 160.3 100.327L155.321 106.181C155.122 106.424 154.835 106.545 154.543 106.545Z" fill="#F9A01B"/>
<path d="M154.543 107.098C154.168 107.098 153.804 106.965 153.523 106.722C152.861 106.158 152.784 105.158 153.341 104.494L157.449 99.6632L153.341 94.8153C152.779 94.152 152.861 93.1515 153.523 92.5876C153.843 92.3112 154.251 92.1841 154.675 92.2173C155.094 92.2504 155.475 92.4494 155.745 92.77L160.724 98.6405C161.226 99.232 161.226 100.094 160.724 100.691L155.745 106.545C155.442 106.893 155.006 107.098 154.543 107.098ZM154.543 93.3173C154.433 93.3173 154.322 93.356 154.234 93.4278C154.036 93.5992 154.008 93.8977 154.179 94.0967L158.894 99.6632L154.174 105.208C154.003 105.407 154.03 105.705 154.229 105.876C154.339 105.97 154.455 105.992 154.538 105.992C154.675 105.992 154.808 105.932 154.901 105.827L159.881 99.9727C160.03 99.7958 160.03 99.536 159.881 99.3591L154.901 93.4886C154.819 93.3891 154.703 93.3339 154.582 93.3228C154.571 93.3173 154.56 93.3173 154.543 93.3173Z" fill="#F9A01B"/>
</svg>
