<svg width="202" height="175" viewBox="0 0 202 175" fill="none" xmlns="http://www.w3.org/2000/svg">
<rect width="202" height="175" rx="20" fill="white"/>
<path d="M41.3032 45.7686V138.439C41.3032 142.989 45.011 146.697 49.5611 146.697H151.439C155.989 146.697 159.697 142.989 159.697 138.439V45.7686H41.3032Z" fill="white"/>
<path d="M151.439 150H49.5611C43.186 150 38 144.814 38 138.439V36.5611C38 30.186 43.186 25 49.5611 25H151.439C157.814 25 163 30.186 163 36.5611V138.439C163 144.814 157.814 150 151.439 150ZM49.5611 28.3032C45.011 28.3032 41.3032 32.011 41.3032 36.5611V138.439C41.3032 142.989 45.011 146.697 49.5611 146.697H151.439C155.989 146.697 159.697 142.989 159.697 138.439V36.5611C159.697 32.011 155.989 28.3032 151.439 28.3032H49.5611Z" fill="#2D2D8B"/>
<path d="M129.481 118.62H128.73C129.836 117.976 130.596 116.787 130.596 115.416C130.596 113.368 128.928 111.7 126.88 111.7C124.832 111.7 123.164 113.368 123.164 115.416C123.164 116.787 123.924 117.976 125.03 118.62H124.46C122.288 118.62 120.53 120.387 120.53 122.551V127.398C120.53 127.646 120.728 127.844 120.975 127.844H132.966C133.214 127.844 133.412 127.646 133.412 127.398V122.551C133.42 120.387 131.653 118.62 129.481 118.62ZM124.064 115.424C124.064 113.872 125.327 112.6 126.88 112.6C128.432 112.6 129.696 113.863 129.696 115.424C129.696 116.977 128.432 118.24 126.88 118.24C125.327 118.24 124.064 116.977 124.064 115.424ZM124.46 119.52H129.481C131.157 119.52 132.512 120.883 132.512 122.551V126.952H121.421V122.551C121.43 120.883 122.784 119.52 124.46 119.52Z" fill="#2D2D8B"/>
<path d="M132.966 128.265H120.976C120.497 128.265 120.117 127.877 120.117 127.406V122.559C120.117 120.354 121.768 118.529 123.899 118.248C123.18 117.489 122.759 116.481 122.759 115.424C122.759 113.145 124.609 111.295 126.888 111.295C129.167 111.295 131.017 113.153 131.017 115.424C131.017 116.473 130.604 117.48 129.894 118.232C132.099 118.438 133.833 120.296 133.833 122.559V127.406C133.833 127.877 133.445 128.265 132.966 128.265ZM124.46 119.033C122.52 119.033 120.942 120.61 120.942 122.551V127.398L132.974 127.431L133.007 122.551C133.007 120.61 131.43 119.033 129.489 119.033H127.202L128.532 118.265C129.555 117.67 130.191 116.58 130.191 115.416C130.191 113.591 128.705 112.113 126.888 112.113C125.063 112.113 123.585 113.599 123.585 115.416C123.585 116.58 124.221 117.67 125.245 118.265L126.574 119.033H124.46ZM132.933 127.365H121.017V122.551C121.017 120.651 122.561 119.107 124.46 119.107H129.481C131.38 119.107 132.925 120.651 132.925 122.551V127.365H132.933ZM121.843 126.539H132.107V122.551C132.107 121.106 130.935 119.933 129.489 119.933H124.469C123.023 119.933 121.851 121.106 121.851 122.551V126.539H121.843ZM126.88 118.653C125.096 118.653 123.651 117.208 123.651 115.424C123.651 113.64 125.104 112.187 126.88 112.187C128.664 112.187 130.117 113.64 130.117 115.424C130.117 117.2 128.664 118.653 126.88 118.653ZM126.88 113.013C125.55 113.013 124.477 114.095 124.477 115.424C124.477 116.745 125.559 117.827 126.88 117.827C128.209 117.827 129.291 116.745 129.291 115.424C129.291 114.095 128.209 113.013 126.88 113.013Z" fill="#2D2D8B"/>
<path d="M126.971 135.301C118.828 135.301 112.206 128.678 112.206 120.536C112.206 112.394 118.828 105.771 126.971 105.771C135.113 105.771 141.736 112.394 141.736 120.536C141.736 128.678 135.113 135.301 126.971 135.301ZM126.971 108.248C120.191 108.248 114.683 113.764 114.683 120.536C114.683 127.307 120.199 132.824 126.971 132.824C133.742 132.824 139.258 127.307 139.258 120.536C139.258 113.764 133.75 108.248 126.971 108.248Z" fill="#2D2D8B"/>
<path d="M131.942 36.9741H127.07C126.393 36.9741 125.839 36.429 125.839 35.7436C125.839 35.0582 126.384 34.5132 127.07 34.5132H131.942C132.619 34.5132 133.172 35.0582 133.172 35.7436C133.172 36.429 132.619 36.9741 131.942 36.9741Z" fill="#2D2D8B"/>
<path d="M131.942 37.1805H127.07C126.277 37.1805 125.633 36.5364 125.633 35.7436C125.633 34.9509 126.277 34.3068 127.07 34.3068H131.942C132.735 34.3068 133.379 34.9509 133.379 35.7436C133.379 36.5364 132.735 37.1805 131.942 37.1805ZM127.078 34.7279C126.516 34.7279 126.054 35.1821 126.054 35.7519C126.054 36.3217 126.508 36.7759 127.078 36.7759H131.95C132.512 36.7759 132.974 36.3217 132.974 35.7519C132.974 35.1821 132.52 34.7279 131.95 34.7279H127.078Z" fill="#2D2D8B"/>
<path d="M141.727 36.9741H136.88C136.203 36.9741 135.65 36.429 135.65 35.7436C135.65 35.0582 136.203 34.5132 136.88 34.5132H141.727C142.405 34.5132 142.958 35.0582 142.958 35.7436C142.958 36.429 142.405 36.9741 141.727 36.9741Z" fill="#2D2D8B"/>
<path d="M141.727 37.1805H136.88C136.087 37.1805 135.443 36.5364 135.443 35.7436C135.443 34.9509 136.087 34.3068 136.88 34.3068H141.727C142.52 34.3068 143.164 34.9509 143.164 35.7436C143.164 36.5364 142.52 37.1805 141.727 37.1805ZM136.88 34.7279C136.318 34.7279 135.856 35.1821 135.856 35.7519C135.856 36.3217 136.31 36.7759 136.88 36.7759H141.727C142.289 36.7759 142.751 36.3217 142.751 35.7519C142.751 35.1821 142.297 34.7279 141.727 34.7279H136.88Z" fill="#2D2D8B"/>
<path d="M151.513 36.9741H146.666C145.989 36.9741 145.435 36.429 145.435 35.7436C145.435 35.0582 145.98 34.5132 146.666 34.5132H151.513C152.19 34.5132 152.744 35.0582 152.744 35.7436C152.744 36.429 152.19 36.9741 151.513 36.9741Z" fill="#2D2D8B"/>
<path d="M151.513 37.1805H146.666C145.873 37.1805 145.229 36.5364 145.229 35.7436C145.229 34.9509 145.873 34.3068 146.666 34.3068H151.513C152.306 34.3068 152.95 34.9509 152.95 35.7436C152.942 36.5364 152.306 37.1805 151.513 37.1805ZM146.666 34.7279C146.104 34.7279 145.642 35.1821 145.642 35.7519C145.642 36.3217 146.096 36.7759 146.666 36.7759H151.513C152.075 36.7759 152.537 36.3217 152.537 35.7519C152.537 35.1821 152.083 34.7279 151.513 34.7279H146.666Z" fill="#2D2D8B"/>
<path d="M121.892 63.1763H61.9316C61.2545 63.1763 60.7012 62.6313 60.7012 61.9459C60.7012 61.2605 61.2462 60.7155 61.9316 60.7155H121.892C122.569 60.7155 123.123 61.2605 123.123 61.9459C123.123 62.6313 122.569 63.1763 121.892 63.1763Z" fill="#2D2D8B"/>
<path d="M121.892 63.3828H61.9315C61.1387 63.3828 60.4946 62.7387 60.4946 61.9459C60.4946 61.1532 61.1387 60.509 61.9315 60.509H121.892C122.685 60.509 123.329 61.1532 123.329 61.9459C123.329 62.7387 122.685 63.3828 121.892 63.3828ZM61.9315 60.9302C61.37 60.9302 60.9075 61.3844 60.9075 61.9542C60.9075 62.524 61.3617 62.9781 61.9315 62.9781H121.892C122.454 62.9781 122.916 62.524 122.916 61.9542C122.916 61.3844 122.462 60.9302 121.892 60.9302H61.9315Z" fill="#2D2D8B"/>
<path d="M139.069 63.1763H129.316C128.639 63.1763 128.086 62.6313 128.086 61.9459C128.086 61.2605 128.631 60.7155 129.316 60.7155H139.069C139.746 60.7155 140.299 61.2605 140.299 61.9459C140.299 62.6313 139.746 63.1763 139.069 63.1763Z" fill="#2D2D8B"/>
<path d="M139.069 63.3828H129.316C128.523 63.3828 127.879 62.7387 127.879 61.9459C127.879 61.1532 128.523 60.509 129.316 60.509H139.069C139.861 60.509 140.506 61.1532 140.506 61.9459C140.506 62.7387 139.861 63.3828 139.069 63.3828ZM129.316 60.9302C128.754 60.9302 128.292 61.3844 128.292 61.9542C128.292 62.524 128.746 62.9781 129.316 62.9781H139.069C139.63 62.9781 140.093 62.524 140.093 61.9542C140.093 61.3844 139.638 60.9302 139.069 60.9302H129.316Z" fill="#2D2D8B"/>
<path d="M109.175 72.8133H61.9316C61.2545 72.8133 60.7012 72.2683 60.7012 71.5829C60.7012 70.8975 61.2462 70.3525 61.9316 70.3525H109.175C109.852 70.3525 110.406 70.8975 110.406 71.5829C110.406 72.2683 109.852 72.8133 109.175 72.8133Z" fill="#2D2D8B"/>
<path d="M109.175 73.0198H61.9315C61.1387 73.0198 60.4946 72.3757 60.4946 71.5829C60.4946 70.7901 61.1387 70.146 61.9315 70.146H109.175C109.968 70.146 110.612 70.7901 110.612 71.5829C110.612 72.3757 109.968 73.0198 109.175 73.0198ZM61.9315 70.5672C61.37 70.5672 60.9075 71.0214 60.9075 71.5912C60.9075 72.161 61.3617 72.6151 61.9315 72.6151H109.175C109.737 72.6151 110.199 72.161 110.199 71.5912C110.199 71.0214 109.745 70.5672 109.175 70.5672H61.9315Z" fill="#2D2D8B"/>
<path d="M139.069 72.8133H129.316C128.639 72.8133 128.086 72.2683 128.086 71.5829C128.086 70.8975 128.631 70.3525 129.316 70.3525H139.069C139.746 70.3525 140.299 70.8975 140.299 71.5829C140.299 72.2683 139.746 72.8133 139.069 72.8133Z" fill="#2D2D8B"/>
<path d="M139.069 73.0198H129.316C128.523 73.0198 127.879 72.3757 127.879 71.5829C127.879 70.7901 128.523 70.146 129.316 70.146H139.069C139.861 70.146 140.506 70.7901 140.506 71.5829C140.506 72.3757 139.861 73.0198 139.069 73.0198ZM129.316 70.5672C128.754 70.5672 128.292 71.0214 128.292 71.5912C128.292 72.161 128.746 72.6151 129.316 72.6151H139.069C139.63 72.6151 140.093 72.161 140.093 71.5912C140.093 71.0214 139.638 70.5672 139.069 70.5672H129.316Z" fill="#2D2D8B"/>
<path d="M122.14 72.8133H115.336C114.659 72.8133 114.105 72.2683 114.105 71.5829C114.105 70.8975 114.65 70.3525 115.336 70.3525H122.14C122.817 70.3525 123.371 70.8975 123.371 71.5829C123.371 72.2683 122.817 72.8133 122.14 72.8133Z" fill="#2D2D8B"/>
<path d="M122.14 73.0198H115.336C114.543 73.0198 113.899 72.3757 113.899 71.5829C113.899 70.7901 114.543 70.146 115.336 70.146H122.14C122.933 70.146 123.577 70.7901 123.577 71.5829C123.577 72.3757 122.925 73.0198 122.14 73.0198ZM115.336 70.5672C114.774 70.5672 114.312 71.0214 114.312 71.5912C114.312 72.161 114.766 72.6151 115.336 72.6151H122.14C122.702 72.6151 123.164 72.161 123.164 71.5912C123.164 71.0214 122.71 70.5672 122.14 70.5672H115.336Z" fill="#2D2D8B"/>
<path d="M139.069 81.5502H91.8252C91.148 81.5502 90.5947 81.0052 90.5947 80.3198C90.5947 79.6426 91.1398 79.0893 91.8252 79.0893H139.069C139.746 79.0893 140.299 79.6343 140.299 80.3198C140.299 81.0052 139.746 81.5502 139.069 81.5502Z" fill="#2D2D8B"/>
<path d="M139.069 81.7566H91.8251C91.0323 81.7566 90.3882 81.1125 90.3882 80.3197C90.3882 79.527 91.0323 78.8829 91.8251 78.8829H139.069C139.861 78.8829 140.505 79.527 140.505 80.3197C140.505 81.1125 139.861 81.7566 139.069 81.7566ZM91.8251 79.304C91.2635 79.304 90.8011 79.7582 90.8011 80.328C90.8011 80.8978 91.2553 81.352 91.8251 81.352H139.069C139.63 81.352 140.093 80.8978 140.093 80.328C140.093 79.7582 139.638 79.304 139.069 79.304H91.8251Z" fill="#2D2D8B"/>
<path d="M71.6842 81.5502H61.9316C61.2545 81.5502 60.7012 81.0052 60.7012 80.3198C60.7012 79.6426 61.2462 79.0893 61.9316 79.0893H71.6842C72.3613 79.0893 72.9146 79.6343 72.9146 80.3198C72.9064 81.0052 72.3613 81.5502 71.6842 81.5502Z" fill="#2D2D8B"/>
<path d="M71.6841 81.7566H61.9315C61.1387 81.7566 60.4946 81.1125 60.4946 80.3197C60.4946 79.527 61.1387 78.8829 61.9315 78.8829H71.6841C72.4769 78.8829 73.121 79.527 73.121 80.3197C73.1127 81.1125 72.4686 81.7566 71.6841 81.7566ZM61.9315 79.304C61.37 79.304 60.9075 79.7582 60.9075 80.328C60.9075 80.8978 61.3617 81.352 61.9315 81.352H71.6841C72.2456 81.352 72.7081 80.8978 72.7081 80.328C72.7081 79.7582 72.2539 79.304 71.6841 79.304H61.9315Z" fill="#2D2D8B"/>
<path d="M85.6732 81.5502H78.8852C78.2081 81.5502 77.6548 81.0052 77.6548 80.3198C77.6548 79.6426 78.2081 79.0893 78.8852 79.0893H85.6732C86.3504 79.0893 86.9037 79.6343 86.9037 80.3198C86.9037 81.0052 86.3504 81.5502 85.6732 81.5502Z" fill="#2D2D8B"/>
<path d="M85.6731 81.7566H78.8851C78.0924 81.7566 77.4482 81.1125 77.4482 80.3197C77.4482 79.527 78.0924 78.8829 78.8851 78.8829H85.6731C86.4659 78.8829 87.11 79.527 87.11 80.3197C87.11 81.1125 86.4659 81.7566 85.6731 81.7566ZM78.8851 79.304C78.3236 79.304 77.8611 79.7582 77.8611 80.328C77.8611 80.8978 78.3153 81.352 78.8851 81.352H85.6731C86.2347 81.352 86.6971 80.8978 86.6971 80.328C86.6971 79.7582 86.2429 79.304 85.6731 79.304H78.8851Z" fill="#2D2D8B"/>
<path d="M139.069 91.0385H79.9504C79.2732 91.0385 78.72 90.4935 78.72 89.8081C78.72 89.1227 79.265 88.5859 79.9504 88.5859H139.069C139.746 88.5859 140.299 89.131 140.299 89.8164C140.299 90.5018 139.746 91.0385 139.069 91.0385Z" fill="#2D2D8B"/>
<path d="M139.069 91.2449H79.9503C79.1575 91.2449 78.5134 90.6008 78.5134 89.8081C78.5134 89.0153 79.1575 88.3712 79.9503 88.3712H139.069C139.861 88.3712 140.506 89.0153 140.506 89.8081C140.506 90.6008 139.861 91.2449 139.069 91.2449ZM79.9503 88.7923C79.3888 88.7923 78.9263 89.2465 78.9263 89.8163C78.9263 90.3861 79.3805 90.8403 79.9503 90.8403H139.069C139.63 90.8403 140.093 90.3861 140.093 89.8163C140.093 89.2465 139.638 88.7923 139.069 88.7923H79.9503Z" fill="#2D2D8B"/>
<path d="M71.6842 91.0385H61.9316C61.2545 91.0385 60.7012 90.4935 60.7012 89.8081C60.7012 89.1227 61.2545 88.5859 61.9316 88.5859H71.6842C72.3613 88.5859 72.9146 89.131 72.9146 89.8164C72.9146 90.5018 72.3613 91.0385 71.6842 91.0385Z" fill="#2D2D8B"/>
<path d="M71.6841 91.2449H61.9315C61.1387 91.2449 60.4946 90.6008 60.4946 89.8081C60.4946 89.0153 61.1387 88.3712 61.9315 88.3712H71.6841C72.4769 88.3712 73.121 89.0153 73.121 89.8081C73.121 90.6008 72.4686 91.2449 71.6841 91.2449ZM61.9315 88.7923C61.37 88.7923 60.9075 89.2465 60.9075 89.8163C60.9075 90.3861 61.3617 90.8403 61.9315 90.8403H71.6841C72.2456 90.8403 72.7081 90.3861 72.7081 89.8163C72.7081 89.2465 72.2539 88.7923 71.6841 88.7923H61.9315Z" fill="#2D2D8B"/>
<path d="M109.175 100.329H61.9482C61.2711 100.329 60.7178 99.7836 60.7178 99.0982C60.7178 98.4211 61.2628 97.8678 61.9482 97.8678H109.175C109.852 97.8678 110.406 98.4211 110.406 99.0982C110.406 99.7836 109.852 100.329 109.175 100.329Z" fill="#2D2D8B"/>
<path d="M109.175 100.535H61.9481C61.1554 100.535 60.5195 99.891 60.5195 99.0982C60.5195 98.3055 61.1636 97.6613 61.9481 97.6613H109.175C109.968 97.6613 110.612 98.3055 110.612 99.0982C110.612 99.891 109.968 100.535 109.175 100.535ZM61.9481 98.0825C61.3866 98.0825 60.9324 98.5367 60.9324 99.1065C60.9324 99.6763 61.3866 100.13 61.9481 100.13H109.175C109.737 100.13 110.199 99.6763 110.199 99.1065C110.199 98.5367 109.745 98.0825 109.175 98.0825H61.9481Z" fill="#2D2D8B"/>
<path d="M139.069 100.329H129.316C128.639 100.329 128.086 99.7836 128.086 99.0982C128.086 98.4211 128.631 97.8678 129.316 97.8678H139.069C139.746 97.8678 140.299 98.4211 140.299 99.0982C140.299 99.7836 139.746 100.329 139.069 100.329Z" fill="#2D2D8B"/>
<path d="M139.069 100.535H129.316C128.523 100.535 127.879 99.891 127.879 99.0982C127.879 98.3055 128.523 97.6613 129.316 97.6613H139.069C139.861 97.6613 140.506 98.3055 140.506 99.0982C140.506 99.891 139.861 100.535 139.069 100.535ZM129.316 98.0825C128.754 98.0825 128.292 98.5367 128.292 99.1065C128.292 99.6763 128.746 100.13 129.316 100.13H139.069C139.63 100.13 140.093 99.6763 140.093 99.1065C140.093 98.5367 139.638 98.0825 139.069 98.0825H129.316Z" fill="#2D2D8B"/>
<path d="M122.14 100.329H115.336C114.659 100.329 114.105 99.7836 114.105 99.0982C114.105 98.4211 114.65 97.8678 115.336 97.8678H122.14C122.817 97.8678 123.371 98.4211 123.371 99.0982C123.362 99.7836 122.817 100.329 122.14 100.329Z" fill="#2D2D8B"/>
<path d="M122.14 100.535H115.336C114.543 100.535 113.899 99.891 113.899 99.0982C113.899 98.3055 114.543 97.6613 115.336 97.6613H122.14C122.933 97.6613 123.577 98.3055 123.577 99.0982C123.569 99.891 122.925 100.535 122.14 100.535ZM115.336 98.0825C114.774 98.0825 114.312 98.5367 114.312 99.1065C114.312 99.6763 114.766 100.13 115.336 100.13H122.14C122.702 100.13 123.164 99.6763 123.164 99.1065C123.164 98.5367 122.71 98.0825 122.14 98.0825H115.336Z" fill="#2D2D8B"/>
<path d="M161.53 43.2582H39.6516V46.5613H161.53V43.2582Z" fill="#2D2D8B"/>
<path d="M69.4131 134.071C69.0498 134.071 68.6947 134.004 68.3478 133.881C67.5221 133.583 66.8614 132.947 66.5228 132.138L60.4285 117.431C59.7679 115.829 60.5193 114.004 62.1214 113.343C63.7069 112.683 65.5567 113.434 66.209 115.036L70.9904 126.572L98.9021 111.948C100.446 111.155 102.329 111.741 103.13 113.269C103.931 114.805 103.345 116.688 101.809 117.497L70.8665 133.707C70.4123 133.947 69.9168 134.071 69.4131 134.071Z" fill="#B91E73"/>
</svg>
