<svg width="202" height="175" viewBox="0 0 202 175" fill="none" xmlns="http://www.w3.org/2000/svg">
<rect width="202" height="175" rx="20" fill="white"/>
<g clip-path="url(#clip0_1_1978)">
<path d="M138.845 146.44H64.1548C60.5186 146.44 57.5603 143.481 57.5603 139.844V106.359H59.4821V139.844C59.4821 142.422 61.5775 144.518 64.1548 144.518H138.851C141.423 144.518 143.524 142.422 143.524 139.844V44.3244C143.524 41.7468 141.428 39.6512 138.851 39.6512H122.922V37.7292H138.851C142.487 37.7292 145.445 40.6878 145.445 44.3244V139.844C145.44 143.481 142.481 146.44 138.845 146.44ZM59.4821 106.695H57.5603V44.3244C57.5603 40.6878 60.5186 37.7292 64.1548 37.7292H79.9098V39.6512H64.1548C61.5775 39.6512 59.4821 41.7468 59.4821 44.3244V106.695Z" fill="#F9A01B"/>
<path d="M138.845 147H64.1547C60.2104 147 57 143.789 57 139.844V44.3244C57 40.3797 60.2104 37.1689 64.1547 37.1689H80.47V40.2116H64.1547C61.8856 40.2116 60.0423 42.0551 60.0423 44.3188V139.839C60.0423 142.103 61.8856 143.946 64.1547 143.946H138.851C141.114 143.946 142.958 142.103 142.958 139.839V44.3244C142.958 42.0607 141.114 40.2172 138.851 40.2172H122.362V37.1745H138.851C142.795 37.1745 146.006 40.3853 146.006 44.33V139.85C146 143.789 142.79 147 138.845 147ZM58.1206 107.255V139.844C58.1206 143.173 60.8267 145.879 64.1547 145.879H138.851C142.179 145.879 144.885 143.173 144.885 139.844V44.3244C144.885 40.996 142.179 38.2896 138.851 38.2896H123.482V39.0909H138.851C141.736 39.0909 144.078 41.4387 144.078 44.3188V139.839C144.078 142.725 141.731 145.067 138.851 145.067H64.1547C61.2693 145.067 58.9218 142.719 58.9218 139.839V107.25H58.1206V107.255ZM58.1206 105.799H58.9218V44.3244C58.9218 41.4387 61.2693 39.0965 64.1547 39.0965H79.3494V38.2952H64.1547C60.8267 38.2896 58.1206 40.996 58.1206 44.3244V105.799Z" fill="#F9A01B"/>
<path d="M113.806 65.7011H70.413C69.8359 65.7011 69.3708 65.2361 69.3708 64.6589C69.3708 64.0818 69.8359 63.6167 70.413 63.6167H113.812C114.389 63.6167 114.854 64.0818 114.854 64.6589C114.854 65.2361 114.384 65.7011 113.806 65.7011Z" fill="#2D2D82"/>
<path d="M113.806 66.2615H70.4129C69.5277 66.2615 68.8105 65.5443 68.8105 64.6589C68.8105 63.7736 69.5277 63.0564 70.4129 63.0564H113.812C114.697 63.0564 115.414 63.7736 115.414 64.6589C115.414 65.5443 114.692 66.2615 113.806 66.2615ZM70.4129 64.1771C70.1496 64.1771 69.9311 64.3956 69.9311 64.6589C69.9311 64.9223 70.1496 65.1408 70.4129 65.1408H113.812C114.075 65.1408 114.294 64.9223 114.294 64.6589C114.294 64.3956 114.075 64.1771 113.812 64.1771H70.4129Z" fill="#2D2D82"/>
<path d="M132.581 65.7011H122.104C121.527 65.7011 121.062 65.2361 121.062 64.6589C121.062 64.0818 121.527 63.6167 122.104 63.6167H132.581C133.158 63.6167 133.623 64.0818 133.623 64.6589C133.623 65.2361 133.158 65.7011 132.581 65.7011Z" fill="#2D2D82"/>
<path d="M132.581 66.2615H122.104C121.219 66.2615 120.502 65.5443 120.502 64.6589C120.502 63.7736 121.219 63.0564 122.104 63.0564H132.581C133.467 63.0564 134.184 63.7736 134.184 64.6589C134.184 65.5443 133.461 66.2615 132.581 66.2615ZM122.104 64.1771C121.841 64.1771 121.622 64.3956 121.622 64.6589C121.622 64.9223 121.841 65.1408 122.104 65.1408H132.581C132.845 65.1408 133.063 64.9223 133.063 64.6589C133.063 64.3956 132.845 64.1771 132.581 64.1771H122.104Z" fill="#2D2D82"/>
<path d="M113.806 74.8907H74.8224C74.2453 74.8907 73.7803 74.4256 73.7803 73.8485C73.7803 73.2714 74.2453 72.8063 74.8224 72.8063H113.806C114.384 72.8063 114.849 73.2714 114.849 73.8485C114.854 74.4256 114.384 74.8907 113.806 74.8907Z" fill="#2D2D82"/>
<path d="M113.806 75.4511H74.8224C73.9371 75.4511 73.22 74.7339 73.22 73.8485C73.22 72.9632 73.9371 72.246 74.8224 72.246H113.806C114.692 72.246 115.409 72.9632 115.409 73.8485C115.409 74.7339 114.692 75.4511 113.806 75.4511ZM74.8224 73.3666C74.559 73.3666 74.3405 73.5852 74.3405 73.8485C74.3405 74.1119 74.559 74.3304 74.8224 74.3304H113.806C114.07 74.3304 114.288 74.1119 114.288 73.8485C114.288 73.5852 114.07 73.3666 113.806 73.3666H74.8224Z" fill="#2D2D82"/>
<path d="M132.581 74.8907H122.104C121.527 74.8907 121.062 74.4256 121.062 73.8485C121.062 73.2714 121.527 72.8063 122.104 72.8063H132.581C133.158 72.8063 133.623 73.2714 133.623 73.8485C133.623 74.4256 133.158 74.8907 132.581 74.8907Z" fill="#2D2D82"/>
<path d="M132.581 75.4511H122.104C121.219 75.4511 120.502 74.7339 120.502 73.8485C120.502 72.9632 121.219 72.246 122.104 72.246H132.581C133.467 72.246 134.184 72.9632 134.184 73.8485C134.184 74.7339 133.461 75.4511 132.581 75.4511ZM122.104 73.3666C121.841 73.3666 121.622 73.5852 121.622 73.8485C121.622 74.1119 121.841 74.3304 122.104 74.3304H132.581C132.845 74.3304 133.063 74.1119 133.063 73.8485C133.063 73.5852 132.845 73.3666 132.581 73.3666H122.104Z" fill="#2D2D82"/>
<path d="M113.807 84.0745H74.9569C74.3798 84.0745 73.9148 83.6094 73.9148 83.0322C73.9148 82.4551 74.3798 81.99 74.9569 81.99H113.807C114.384 81.99 114.849 82.4551 114.849 83.0322C114.854 83.6094 114.384 84.0745 113.807 84.0745Z" fill="#2D2D82"/>
<path d="M113.806 84.6348H74.9569C74.0716 84.6348 73.3545 83.9176 73.3545 83.0323C73.3545 82.1469 74.0716 81.4297 74.9569 81.4297H113.806C114.692 81.4297 115.409 82.1469 115.409 83.0323C115.409 83.9176 114.692 84.6348 113.806 84.6348ZM74.9569 82.5504C74.6936 82.5504 74.475 82.7689 74.475 83.0323C74.475 83.2956 74.6936 83.5142 74.9569 83.5142H113.806C114.07 83.5142 114.288 83.2956 114.288 83.0323C114.288 82.7689 114.07 82.5504 113.806 82.5504H74.9569Z" fill="#2D2D82"/>
<path d="M132.581 84.0745H122.104C121.527 84.0745 121.062 83.6094 121.062 83.0322C121.062 82.4551 121.527 81.99 122.104 81.99H132.581C133.158 81.99 133.623 82.4551 133.623 83.0322C133.623 83.6094 133.158 84.0745 132.581 84.0745Z" fill="#2D2D82"/>
<path d="M132.581 84.6348H122.104C121.219 84.6348 120.502 83.9176 120.502 83.0323C120.502 82.1469 121.219 81.4297 122.104 81.4297H132.581C133.467 81.4297 134.184 82.1469 134.184 83.0323C134.184 83.9176 133.461 84.6348 132.581 84.6348ZM122.104 82.5504C121.841 82.5504 121.622 82.7689 121.622 83.0323C121.622 83.2956 121.841 83.5142 122.104 83.5142H132.581C132.845 83.5142 133.063 83.2956 133.063 83.0323C133.063 82.7689 132.845 82.5504 132.581 82.5504H122.104Z" fill="#2D2D82"/>
<path d="M113.806 93.2642H73.6906C73.1135 93.2642 72.6484 92.7991 72.6484 92.222C72.6484 91.6449 73.1135 91.1798 73.6906 91.1798H113.812C114.389 91.1798 114.854 91.6449 114.854 92.222C114.854 92.7935 114.383 93.2642 113.806 93.2642Z" fill="#2D2D82"/>
<path d="M113.806 93.8187H73.6905C72.8053 93.8187 72.0881 93.1015 72.0881 92.2162C72.0881 91.3309 72.8053 90.6136 73.6905 90.6136H113.812C114.697 90.6136 115.414 91.3309 115.414 92.2162C115.414 93.1015 114.692 93.8187 113.806 93.8187ZM73.6905 91.7343C73.4272 91.7343 73.2087 91.9528 73.2087 92.2162C73.2087 92.4796 73.4272 92.6981 73.6905 92.6981H113.812C114.075 92.6981 114.294 92.4796 114.294 92.2162C114.294 91.9528 114.075 91.7343 113.812 91.7343H73.6905Z" fill="#2D2D82"/>
<path d="M132.581 93.2642H122.104C121.527 93.2642 121.062 92.7991 121.062 92.222C121.062 91.6449 121.527 91.1798 122.104 91.1798H132.581C133.158 91.1798 133.623 91.6449 133.623 92.222C133.623 92.7935 133.158 93.2642 132.581 93.2642Z" fill="#2D2D82"/>
<path d="M132.581 93.8187H122.104C121.219 93.8187 120.502 93.1015 120.502 92.2162C120.502 91.3309 121.219 90.6136 122.104 90.6136H132.581C133.467 90.6136 134.184 91.3309 134.184 92.2162C134.184 93.1015 133.461 93.8187 132.581 93.8187ZM122.104 91.7343C121.841 91.7343 121.622 91.9528 121.622 92.2162C121.622 92.4796 121.841 92.6981 122.104 92.6981H132.581C132.845 92.6981 133.063 92.4796 133.063 92.2162C133.063 91.9528 132.845 91.7343 132.581 91.7343H122.104Z" fill="#2D2D82"/>
<path d="M113.806 102.448H70.413C69.8359 102.448 69.3708 101.983 69.3708 101.406C69.3708 100.828 69.8359 100.363 70.413 100.363H113.812C114.389 100.363 114.854 100.828 114.854 101.406C114.854 101.983 114.384 102.448 113.806 102.448Z" fill="#2D2D82"/>
<path d="M113.806 103.008H70.4129C69.5277 103.008 68.8105 102.291 68.8105 101.406C68.8105 100.52 69.5277 99.803 70.4129 99.803H113.812C114.697 99.803 115.414 100.52 115.414 101.406C115.414 102.291 114.692 103.008 113.806 103.008ZM70.4129 100.924C70.1496 100.924 69.9311 101.142 69.9311 101.406C69.9311 101.669 70.1496 101.887 70.4129 101.887H113.812C114.075 101.887 114.294 101.669 114.294 101.406C114.294 101.142 114.075 100.924 113.812 100.924H70.4129Z" fill="#2D2D82"/>
<path d="M132.581 102.448H122.104C121.527 102.448 121.062 101.983 121.062 101.406C121.062 100.828 121.527 100.363 122.104 100.363H132.581C133.158 100.363 133.623 100.828 133.623 101.406C133.623 101.983 133.158 102.448 132.581 102.448Z" fill="#2D2D82"/>
<path d="M132.581 103.008H122.104C121.219 103.008 120.502 102.291 120.502 101.406C120.502 100.52 121.219 99.803 122.104 99.803H132.581C133.467 99.803 134.184 100.52 134.184 101.406C134.184 102.291 133.461 103.008 132.581 103.008ZM122.104 100.924C121.841 100.924 121.622 101.142 121.622 101.406C121.622 101.669 121.841 101.887 122.104 101.887H132.581C132.845 101.887 133.063 101.669 133.063 101.406C133.063 101.142 132.845 100.924 132.581 100.924H122.104Z" fill="#2D2D82"/>
<path d="M113.806 111.638H70.413C69.8359 111.638 69.3708 111.172 69.3708 110.595C69.3708 110.018 69.8359 109.553 70.413 109.553H113.812C114.389 109.553 114.854 110.018 114.854 110.595C114.854 111.172 114.384 111.638 113.806 111.638Z" fill="#2D2D82"/>
<path d="M113.806 112.198H70.4129C69.5277 112.198 68.8105 111.481 68.8105 110.595C68.8105 109.71 69.5277 108.993 70.4129 108.993H113.812C114.697 108.993 115.414 109.71 115.414 110.595C115.414 111.481 114.692 112.198 113.806 112.198ZM70.4129 110.113C70.1496 110.113 69.9311 110.332 69.9311 110.595C69.9311 110.859 70.1496 111.077 70.4129 111.077H113.812C114.075 111.077 114.294 110.859 114.294 110.595C114.294 110.332 114.075 110.113 113.812 110.113H70.4129Z" fill="#2D2D82"/>
<path d="M132.581 111.638H122.104C121.527 111.638 121.062 111.172 121.062 110.595C121.062 110.018 121.527 109.553 122.104 109.553H132.581C133.158 109.553 133.623 110.018 133.623 110.595C133.623 111.172 133.158 111.638 132.581 111.638Z" fill="#2D2D82"/>
<path d="M132.581 112.198H122.104C121.219 112.198 120.502 111.481 120.502 110.595C120.502 109.71 121.219 108.993 122.104 108.993H132.581C133.467 108.993 134.184 109.71 134.184 110.595C134.184 111.481 133.461 112.198 132.581 112.198ZM122.104 110.113C121.841 110.113 121.622 110.332 121.622 110.595C121.622 110.859 121.841 111.077 122.104 111.077H132.581C132.845 111.077 133.063 110.859 133.063 110.595C133.063 110.332 132.845 110.113 132.581 110.113H122.104Z" fill="#2D2D82"/>
<path d="M113.806 120.81H70.413C69.8359 120.81 69.3708 120.345 69.3708 119.768C69.3708 119.191 69.8359 118.726 70.413 118.726H113.812C114.389 118.726 114.854 119.191 114.854 119.768C114.854 120.339 114.384 120.81 113.806 120.81Z" fill="#2D2D82"/>
<path d="M113.806 121.37H70.4129C69.5277 121.37 68.8105 120.653 68.8105 119.768C68.8105 118.883 69.5277 118.165 70.4129 118.165H113.812C114.697 118.165 115.414 118.883 115.414 119.768C115.414 120.653 114.692 121.37 113.806 121.37ZM70.4129 119.286C70.1496 119.286 69.9311 119.504 69.9311 119.768C69.9311 120.031 70.1496 120.25 70.4129 120.25H113.812C114.075 120.25 114.294 120.031 114.294 119.768C114.294 119.504 114.075 119.286 113.812 119.286H70.4129Z" fill="#2D2D82"/>
<path d="M132.581 120.81H122.104C121.527 120.81 121.062 120.345 121.062 119.768C121.062 119.191 121.527 118.726 122.104 118.726H132.581C133.158 118.726 133.623 119.191 133.623 119.768C133.623 120.339 133.158 120.81 132.581 120.81Z" fill="#2D2D82"/>
<path d="M132.581 121.37H122.104C121.219 121.37 120.502 120.653 120.502 119.768C120.502 118.883 121.219 118.165 122.104 118.165H132.581C133.467 118.165 134.184 118.883 134.184 119.768C134.184 120.653 133.461 121.37 132.581 121.37ZM122.104 119.286C121.841 119.286 121.622 119.504 121.622 119.768C121.622 120.031 121.841 120.25 122.104 120.25H132.581C132.845 120.25 133.063 120.031 133.063 119.768C133.063 119.504 132.845 119.286 132.581 119.286H122.104Z" fill="#2D2D82"/>
<path d="M113.806 129.999H70.413C69.8359 129.999 69.3708 129.534 69.3708 128.957C69.3708 128.38 69.8359 127.915 70.413 127.915H113.812C114.389 127.915 114.854 128.38 114.854 128.957C114.854 129.529 114.384 129.999 113.806 129.999Z" fill="#2D2D82"/>
<path d="M113.806 130.56H70.4129C69.5277 130.56 68.8105 129.843 68.8105 128.957C68.8105 128.072 69.5277 127.355 70.4129 127.355H113.812C114.697 127.355 115.414 128.072 115.414 128.957C115.414 129.843 114.692 130.56 113.806 130.56ZM70.4129 128.475C70.1496 128.475 69.9311 128.694 69.9311 128.957C69.9311 129.221 70.1496 129.439 70.4129 129.439H113.812C114.075 129.439 114.294 129.221 114.294 128.957C114.294 128.694 114.075 128.475 113.812 128.475H70.4129Z" fill="#2D2D82"/>
<path d="M132.581 129.999H122.104C121.527 129.999 121.062 129.534 121.062 128.957C121.062 128.38 121.527 127.915 122.104 127.915H132.581C133.158 127.915 133.623 128.38 133.623 128.957C133.623 129.529 133.158 129.999 132.581 129.999Z" fill="#2D2D82"/>
<path d="M132.581 130.56H122.104C121.219 130.56 120.502 129.843 120.502 128.957C120.502 128.072 121.219 127.355 122.104 127.355H132.581C133.467 127.355 134.184 128.072 134.184 128.957C134.184 129.843 133.461 130.56 132.581 130.56ZM122.104 128.475C121.841 128.475 121.622 128.694 121.622 128.957C121.622 129.221 121.841 129.439 122.104 129.439H132.581C132.845 129.439 133.063 129.221 133.063 128.957C133.063 128.694 132.845 128.475 132.581 128.475H122.104Z" fill="#2D2D82"/>
<path d="M123.46 48.8687H79.3776C78.8005 48.8687 78.3354 48.4037 78.3354 47.8265V42.1447C78.3354 38.4353 81.3497 35.4207 85.0588 35.4207H117.785C121.488 35.4207 124.508 38.4409 124.508 42.1447V47.8321C124.502 48.4037 124.037 48.8687 123.46 48.8687ZM80.4197 46.7843H122.418V42.1447C122.418 39.584 120.339 37.5052 117.779 37.5052H85.0588C82.5039 37.5052 80.4197 39.584 80.4197 42.1447V46.7843Z" fill="#F9A01B"/>
<path d="M123.46 49.4291H79.3775C78.4923 49.4291 77.7751 48.7119 77.7751 47.8266V42.1448C77.7751 38.1272 81.0416 34.8604 85.0587 34.8604H117.785C121.802 34.8604 125.068 38.1272 125.068 42.1448V47.8322C125.063 48.7119 124.345 49.4291 123.46 49.4291ZM85.0587 35.9811C81.6635 35.9811 78.8957 38.7492 78.8957 42.1448V47.8322C78.8957 48.0955 79.1142 48.3141 79.3775 48.3141H123.46C123.723 48.3141 123.942 48.0955 123.942 47.8322V42.1448C123.942 38.7436 121.18 35.9811 117.779 35.9811H85.0587ZM122.978 47.3447H79.8594V42.1448C79.8594 39.2759 82.1901 36.9449 85.0587 36.9449H117.785C120.653 36.9449 122.984 39.2759 122.984 42.1448V47.3447H122.978ZM80.9799 46.224H121.858V42.1448C121.858 39.8922 120.031 38.0656 117.779 38.0656H85.0587C82.812 38.0656 80.9799 39.8978 80.9799 42.1448V46.224Z" fill="#F9A01B"/>
<path d="M111.42 37.5053H91.4178C90.8408 37.5053 90.3757 37.0402 90.3757 36.4631V28.2262C90.3757 27.649 90.8408 27.1839 91.4178 27.1839H96.3707C96.7461 27.1839 97.0935 27.3856 97.2783 27.7106C98.1244 29.2067 99.7099 30.1313 101.419 30.1313C103.133 30.1313 104.724 29.2067 105.57 27.7106C105.755 27.3856 106.103 27.1839 106.478 27.1839H111.431C112.008 27.1839 112.473 27.649 112.473 28.2262V36.4631C112.462 37.0346 111.997 37.5053 111.42 37.5053ZM92.46 35.4208H110.378V29.2628H107.044C105.772 31.0951 103.671 32.2157 101.413 32.2157C99.1665 32.2157 97.0598 31.1007 95.7936 29.2628H92.46V35.4208V35.4208Z" fill="#F9A01B"/>
<path d="M111.42 38.0656H91.4178C90.5326 38.0656 89.8154 37.3484 89.8154 36.4631V28.2262C89.8154 27.3409 90.5326 26.6236 91.4178 26.6236H96.3707C96.9478 26.6236 97.48 26.9374 97.7658 27.4361C98.5109 28.7529 99.9116 29.5766 101.419 29.5766C102.932 29.5766 104.332 28.7585 105.083 27.4417C105.369 26.9374 105.901 26.6292 106.478 26.6292H111.431C112.316 26.6292 113.033 27.3465 113.033 28.2318V36.4687C113.022 37.3428 112.305 38.0656 111.42 38.0656ZM91.4178 27.7387C91.1545 27.7387 90.936 27.9572 90.936 28.2206V36.4575C90.936 36.7208 91.1545 36.9394 91.4178 36.9394H111.42C111.683 36.9394 111.902 36.7208 111.902 36.4575V28.2206C111.902 27.9572 111.683 27.7387 111.42 27.7387H106.467C106.293 27.7387 106.136 27.8339 106.047 27.9852C105.105 29.655 103.329 30.6916 101.413 30.6916C99.5026 30.6916 97.7265 29.655 96.7853 27.9852C96.7012 27.8339 96.5388 27.7387 96.3651 27.7387H91.4178ZM110.938 35.9812H91.8997V28.7025H96.0905L96.2586 28.9434C97.4352 30.6412 99.3625 31.6498 101.419 31.6498C103.481 31.6498 105.414 30.6356 106.59 28.9378L106.758 28.6969H110.949V35.9812H110.938ZM93.0202 34.8605H109.817V29.8231H107.33C105.929 31.6778 103.744 32.7761 101.413 32.7761C99.088 32.7761 96.9029 31.6778 95.5078 29.8231H93.0202V34.8605V34.8605Z" fill="#F9A01B"/>
<path d="M101.413 32.2156C97.6482 32.2156 94.5891 29.1562 94.5891 25.3964C94.5891 21.6253 97.6538 18.5603 101.413 18.5603C105.178 18.5603 108.249 21.6253 108.249 25.3964C108.249 29.1562 105.184 32.2156 101.413 32.2156ZM101.413 20.6447C98.8024 20.6447 96.6733 22.774 96.6733 25.3908C96.6733 28.0019 98.7968 30.1256 101.413 30.1256C104.03 30.1256 106.159 28.0019 106.159 25.3908C106.164 22.774 104.03 20.6447 101.413 20.6447Z" fill="#F9A01B"/>
<path d="M101.413 32.776C97.34 32.776 94.0288 29.4644 94.0288 25.3964C94.0288 21.3172 97.34 18 101.413 18C105.492 18 108.809 21.3172 108.809 25.3964C108.809 29.4644 105.492 32.776 101.413 32.776ZM101.413 19.1207C97.962 19.1207 95.1494 21.9335 95.1494 25.3964C95.1494 28.8481 97.9564 31.6553 101.413 31.6553C104.87 31.6553 107.688 28.8481 107.688 25.3964C107.688 21.9335 104.876 19.1207 101.413 19.1207ZM101.413 30.6916C98.4942 30.6916 96.113 28.3157 96.113 25.3964C96.113 22.4715 98.4886 20.09 101.413 20.09C104.338 20.09 106.725 22.4715 106.725 25.3964C106.725 28.3157 104.344 30.6916 101.413 30.6916ZM101.413 21.2051C99.1105 21.2051 97.2336 23.0822 97.2336 25.3908C97.2336 27.6938 99.1105 29.5653 101.413 29.5653C103.722 29.5653 105.604 27.6938 105.604 25.3908C105.604 23.0822 103.722 21.2051 101.413 21.2051Z" fill="#F9A01B"/>
</g>
<defs>
<clipPath id="clip0_1_1978">
<rect width="89" height="129" fill="white" transform="translate(57 18)"/>
</clipPath>
</defs>
</svg>
