<svg width="467" height="204" viewBox="0 0 467 204" fill="none" xmlns="http://www.w3.org/2000/svg">
<path d="M420.626 199.457C420.626 198.669 420.92 197.888 421.509 197.274C423.926 194.784 426.687 191.869 428.936 188.752C428.964 188.717 428.992 188.675 429.02 188.64L434.191 182.099C434.212 182.071 434.233 182.043 434.254 182.008L441.856 170.111C442.445 169.051 443.012 167.921 443.517 166.917L448.008 158.039C448.695 156.679 450.236 155.884 451.708 156.295C453.691 156.853 454.574 159.008 453.698 160.738L449.15 169.727C448.611 170.808 447.994 172.035 447.322 173.235C447.286 173.291 447.258 173.347 447.223 173.395L439.551 185.397C439.411 185.614 439.285 185.788 439.145 185.962L434.016 192.455C431.57 195.844 428.683 198.892 426.161 201.5C424.886 202.818 422.693 202.916 421.452 201.563C420.899 200.984 420.626 200.217 420.626 199.457ZM427.948 7.49364C426.876 6.23137 426.967 4.36934 428.172 3.23957L428.291 3.13496C429.58 1.96335 431.605 2.07493 432.733 3.39997C436.433 7.75168 439.565 12.3614 442.606 16.8386L444.785 20.0327C444.897 20.1931 445.023 20.3953 445.142 20.6045L451.084 31.3931C451.435 32.0278 451.792 32.6694 452.121 33.3458C452.142 33.3946 452.163 33.4365 452.184 33.4853L455.611 41.4843C455.856 42.0911 456.08 42.656 456.304 43.2139C456.865 44.6296 456.423 46.3103 455.134 47.1262C453.396 48.2211 451.189 47.44 450.482 45.6338C450.257 45.055 450.026 44.4761 449.788 43.8973L446.418 36.0238C446.165 35.5077 445.878 34.9986 445.563 34.4268L439.593 23.5894L437.386 20.3535C434.436 16.0297 431.416 11.5803 427.948 7.49364ZM458.084 126.294C458.084 126.105 458.098 125.91 458.14 125.715C459.829 116.628 460.69 107.332 460.69 98.0913C460.69 94.7718 460.578 91.4034 460.361 88.0838C460.151 84.9386 459.808 81.7236 459.352 78.5296C459.135 77.0233 459.934 75.489 461.377 74.9799C463.325 74.2965 465.294 75.5587 465.574 77.4835C466.065 80.8868 466.429 84.311 466.653 87.6654C466.877 91.1244 466.997 94.6323 466.997 98.0913C466.997 107.666 466.114 117.297 464.362 126.719C464.054 128.386 462.498 129.627 460.81 129.397C459.212 129.181 458.084 127.821 458.084 126.294Z" fill="#F9A01B"/>
<path d="M418.958 200.858C418.958 200.691 418.972 200.524 419 200.356C419.364 198.139 419.813 195.196 420.079 192.078C420.331 187.573 420.464 183.026 420.471 178.563C420.471 176.826 421.887 175.425 423.632 175.432C425.369 175.432 426.778 176.84 426.778 178.57C426.778 178.57 426.778 178.57 426.778 178.577C426.771 183.166 426.637 187.838 426.378 192.476C426.378 192.504 426.371 192.539 426.371 192.566C426.245 194.024 426.084 195.433 425.916 196.751C427.205 196.43 428.375 196.109 429.482 195.781C434.058 194.275 438.71 192.608 443.321 190.823C444.946 190.195 446.768 190.997 447.399 192.608C448.029 194.219 447.223 196.039 445.605 196.667C440.882 198.494 436.111 200.203 431.423 201.751C431.395 201.758 431.36 201.772 431.332 201.779C428.908 202.497 426.203 203.174 422.798 203.92C421.775 204.143 420.71 203.85 419.953 203.132C419.308 202.539 418.958 201.709 418.958 200.858Z" fill="#F9A01B"/>
<path d="M0.996913 105.902C0.996914 96.327 1.88678 86.6961 3.63147 77.2743C3.93276 75.6564 5.40419 74.422 7.05078 74.5824C8.92159 74.7637 10.1898 76.4863 9.86051 78.2786C8.16487 87.3655 7.30302 96.6617 7.30302 105.902C7.30302 109.222 7.41514 112.59 7.63235 115.91C7.84957 119.104 8.19288 122.367 8.66233 125.61C8.92158 127.43 7.58331 129.09 5.70549 129.195C4.05189 129.286 2.6365 128.002 2.39827 126.377C1.9148 123.023 1.55744 119.641 1.33322 116.328C1.10901 112.862 0.996913 109.361 0.996913 105.902ZM11.423 159.496C11.423 158.171 12.2708 156.923 13.6441 156.498C15.2557 155.996 16.9653 156.951 17.5819 158.52C17.7851 159.043 17.9954 159.566 18.2126 160.089L21.5828 167.963C21.8351 168.479 22.1224 168.988 22.4377 169.56L28.4074 180.404L30.6076 183.633C33.5504 187.964 36.5703 192.413 40.0387 196.5C41.1037 197.755 41.0196 199.624 39.8145 200.754L39.7024 200.858C38.4131 202.03 36.3952 201.919 35.2671 200.594C31.5605 196.235 28.4355 191.632 25.3945 187.155L23.2154 183.961C23.1033 183.8 22.9772 183.598 22.8581 183.389L16.9163 172.6C16.566 171.966 16.2086 171.324 15.8793 170.648C15.8583 170.599 15.8373 170.557 15.8163 170.508L12.3899 162.509C12.1237 161.854 11.8855 161.254 11.6472 160.654C11.4931 160.264 11.423 159.88 11.423 159.496ZM13.9595 44.6575C13.9595 44.1833 14.0645 43.7021 14.2958 43.2488L18.8432 34.2594C19.3827 33.1785 19.9993 31.9511 20.672 30.7516C20.707 30.6958 20.735 30.64 20.7701 30.5912L28.4425 18.5891C28.5826 18.3729 28.7087 18.1986 28.8489 18.0242L33.9778 11.5316C36.4302 8.13527 39.317 5.08071 41.8464 2.47248C43.0026 1.28692 44.9014 1.05678 46.1906 2.09589C47.6551 3.27447 47.7601 5.40848 46.4849 6.72655C44.0676 9.20925 41.3069 12.1243 39.0577 15.2486C39.0297 15.2835 39.0017 15.3253 38.9737 15.3602L33.8027 21.9017C33.7816 21.9296 33.7606 21.9575 33.7396 21.9924L26.1372 33.8898C25.5557 34.9498 24.9811 36.0796 24.4766 37.0839L19.9923 45.9546C19.2566 47.4052 17.5469 48.1863 16.0195 47.6144C14.7162 47.1193 13.9595 45.9128 13.9595 44.6575Z" fill="#2D2D82"/>
<path d="M20.3844 10.2483C20.3844 8.99299 21.1481 7.80743 22.3953 7.31926C27.1109 5.4921 31.8825 3.7835 36.5841 2.24227C36.6121 2.2353 36.6471 2.22135 36.6752 2.21438C39.0925 1.49607 41.8042 0.819603 45.2095 0.0733973C46.2325 -0.149767 47.2975 0.143136 48.0542 0.861446C48.811 1.57278 49.1683 2.61886 49.0001 3.64403C48.6358 5.86172 48.1874 8.8047 47.9211 11.922C47.6688 16.4272 47.5427 20.9741 47.5287 25.4374C47.5287 27.1739 46.1133 28.5757 44.3686 28.5687C42.631 28.5687 41.2226 27.16 41.2226 25.4304C41.2226 25.4304 41.2226 25.4304 41.2226 25.4235C41.2296 20.8346 41.3627 16.1552 41.622 11.5245C41.622 11.4966 41.629 11.4617 41.629 11.4339C41.7551 9.97631 41.9163 8.56759 42.0844 7.24255C40.8022 7.56335 39.639 7.88415 38.518 8.21192C33.9355 9.71828 29.283 11.392 24.6796 13.1703C23.054 13.798 21.2322 12.996 20.6016 11.385C20.4475 11.0084 20.3844 10.6249 20.3844 10.2483Z" fill="#2D2D82"/>
</svg>
