<svg width="654" height="244" viewBox="0 0 654 244" fill="none" xmlns="http://www.w3.org/2000/svg">
<path d="M590.304 5.13306C618.677 12.3738 646.764 31.7288 648.726 63.2607C650.129 85.7556 640.201 109.037 623.194 123.825C597.397 146.25 559.808 151.124 526.261 144.371C492.714 137.617 462.219 120.678 432.693 103.419C403.168 86.1594 373.531 68.1273 340.606 58.8118C307.848 49.5451 270.454 49.9976 242.165 68.8931C219.865 83.7853 205.309 109.615 204.143 136.35C202.977 163.092 215.237 190.078 236.161 206.843C245.544 214.362 257.887 220.036 269.442 216.673C283.063 212.712 290.666 196.072 286.519 182.538C282.372 169.003 268.513 159.708 254.348 158.817C240.189 157.933 226.219 164.512 216.109 174.433C199.102 191.115 191.757 216.541 172.432 230.486C149.295 247.175 117.305 241.57 91.1453 228.899" stroke="#B81F74" stroke-width="9" stroke-linecap="round" stroke-linejoin="round" stroke-dasharray="69.66 69.66"/>
<path d="M88.143 227.402C86.7327 226.678 85.3503 225.94 83.9819 225.174" stroke="#B81F74" stroke-width="9" stroke-linecap="round" stroke-linejoin="round"/>
<path opacity="0.89" d="M0.258343 169.469L32.9952 223.712C33.0301 223.768 33.065 223.817 33.0999 223.865C33.6933 224.652 34.8174 224.812 35.6133 224.22L56.1393 208.771L70.4795 219.375C70.9473 219.772 71.6105 219.918 72.2319 219.702C72.8882 219.472 73.328 218.901 73.4188 218.261L79.2484 191.38L95.6134 179.063C96.0323 178.778 96.3325 178.311 96.3814 177.761C96.4791 176.78 95.753 175.903 94.7686 175.805L1.96884 166.768C1.59881 166.733 1.21483 166.81 0.872726 167.012C0.0209677 167.527 -0.251316 168.62 0.258343 169.469ZM75.5063 191.686L71.2335 211.396L66.9398 199.087C66.8002 198.683 66.514 198.328 66.109 198.105L38.378 182.934L75.5063 191.686ZM5.16642 170.681L89.8396 178.924L77.2168 188.421L26.3417 176.432C25.3782 176.202 24.4148 176.801 24.1844 177.755C23.9959 178.555 24.3729 179.356 25.0641 179.732L61.948 199.908L55.113 205.053C55.0641 205.088 55.0222 205.116 54.9803 205.158L35.0478 220.161L5.16642 170.681Z" fill="#B81E74"/>
</svg>
