<svg width="52" height="52" viewBox="0 0 52 52" fill="none" xmlns="http://www.w3.org/2000/svg">
<path d="M25.9982 52C11.6619 52 0 40.3381 0 26.0018C0 11.6619 11.6619 0 25.9982 0C40.3346 0 52 11.6619 52 26.0018C52 40.3381 40.3381 52 25.9982 52ZM25.9982 1.42261C12.4478 1.42261 1.42261 12.4478 1.42261 26.0018C1.42261 39.5521 12.4478 50.5774 25.9982 50.5774C39.5486 50.5774 50.5774 39.5521 50.5774 26.0018C50.5774 12.4478 39.5521 1.42261 25.9982 1.42261Z" fill="#2D2D82"/>
<path d="M26.6738 15.07C27.6738 15.07 28.5738 15.215 29.3738 15.505C30.1838 15.785 30.8738 16.18 31.4438 16.69C32.0138 17.19 32.4488 17.78 32.7488 18.46C33.0588 19.14 33.2138 19.875 33.2138 20.665C33.2138 21.355 33.1338 21.965 32.9738 22.495C32.8238 23.015 32.5988 23.47 32.2988 23.86C32.0088 24.25 31.6488 24.58 31.2188 24.85C30.7988 25.12 30.3188 25.345 29.7788 25.525C31.0788 25.935 32.0488 26.56 32.6888 27.4C33.3288 28.24 33.6488 29.295 33.6488 30.565C33.6488 31.645 33.4488 32.6 33.0488 33.43C32.6488 34.26 32.1088 34.96 31.4288 35.53C30.7488 36.09 29.9588 36.515 29.0588 36.805C28.1688 37.095 27.2238 37.24 26.2238 37.24C25.1338 37.24 24.1838 37.115 23.3738 36.865C22.5638 36.615 21.8588 36.245 21.2588 35.755C20.6588 35.265 20.1488 34.665 19.7288 33.955C19.3088 33.245 18.9488 32.425 18.6488 31.495L20.2838 30.82C20.5638 30.7 20.8488 30.64 21.1388 30.64C21.3988 30.64 21.6288 30.695 21.8288 30.805C22.0388 30.915 22.1988 31.075 22.3088 31.285C22.4888 31.635 22.6838 31.98 22.8938 32.32C23.1138 32.66 23.3738 32.965 23.6738 33.235C23.9738 33.495 24.3238 33.71 24.7238 33.88C25.1338 34.04 25.6188 34.12 26.1788 34.12C26.8088 34.12 27.3588 34.02 27.8288 33.82C28.2988 33.61 28.6888 33.34 28.9988 33.01C29.3188 32.68 29.5538 32.315 29.7038 31.915C29.8638 31.505 29.9438 31.095 29.9438 30.685C29.9438 30.165 29.8888 29.695 29.7788 29.275C29.6688 28.845 29.4388 28.48 29.0888 28.18C28.7388 27.88 28.2338 27.645 27.5738 27.475C26.9238 27.305 26.0488 27.22 24.9488 27.22V24.58C25.8588 24.57 26.6138 24.485 27.2138 24.325C27.8138 24.165 28.2888 23.945 28.6388 23.665C28.9988 23.375 29.2488 23.03 29.3888 22.63C29.5288 22.23 29.5988 21.79 29.5988 21.31C29.5988 20.28 29.3188 19.505 28.7588 18.985C28.1988 18.455 27.4338 18.19 26.4638 18.19C25.5838 18.19 24.8538 18.425 24.2738 18.895C23.6938 19.355 23.2888 19.95 23.0588 20.68C22.9388 21.06 22.7738 21.335 22.5638 21.505C22.3538 21.665 22.0788 21.745 21.7388 21.745C21.5788 21.745 21.4088 21.73 21.2288 21.7L19.2788 21.355C19.4288 20.315 19.7188 19.405 20.1488 18.625C20.5788 17.835 21.1138 17.18 21.7538 16.66C22.4038 16.13 23.1438 15.735 23.9738 15.475C24.8138 15.205 25.7138 15.07 26.6738 15.07Z" fill="#2D2D82"/>
</svg>
