<svg width="52" height="52" viewBox="0 0 52 52" fill="none" xmlns="http://www.w3.org/2000/svg">
<path d="M25.9982 52C11.6619 52 0 40.3381 0 26.0018C0 11.6619 11.6619 0 25.9982 0C40.3346 0 52 11.6619 52 26.0018C52 40.3381 40.3381 52 25.9982 52ZM25.9982 1.42261C12.4478 1.42261 1.42261 12.4478 1.42261 26.0018C1.42261 39.5521 12.4478 50.5774 25.9982 50.5774C39.5486 50.5774 50.5774 39.5521 50.5774 26.0018C50.5774 12.4478 39.5521 1.42261 25.9982 1.42261Z" fill="#2D2D82"/>
<path d="M31.4288 28.825H34.1588V30.97C34.1588 31.17 34.0938 31.345 33.9638 31.495C33.8338 31.635 33.6438 31.705 33.3938 31.705H31.4288V37H28.1888V31.705H19.0388C18.7888 31.705 18.5688 31.63 18.3788 31.48C18.1888 31.32 18.0688 31.125 18.0188 30.895L17.6438 29.02L27.9188 15.295H31.4288V28.825ZM28.1888 21.73C28.1888 21.41 28.1988 21.065 28.2188 20.695C28.2388 20.325 28.2738 19.94 28.3238 19.54L21.5888 28.825H28.1888V21.73Z" fill="#2D2D82"/>
</svg>
