<svg width="52" height="52" viewBox="0 0 52 52" fill="none" xmlns="http://www.w3.org/2000/svg">
<path d="M25.9982 52C11.6619 52 0 40.3381 0 26.0018C0 11.6619 11.6619 0 25.9982 0C40.3346 0 52 11.6619 52 26.0018C52 40.3381 40.3381 52 25.9982 52ZM25.9982 1.42261C12.4478 1.42261 1.42261 12.4478 1.42261 26.0018C1.42261 39.5521 12.4478 50.5774 25.9982 50.5774C39.5486 50.5774 50.5774 39.5521 50.5774 26.0018C50.5774 12.4478 39.5521 1.42261 25.9982 1.42261Z" fill="#2D2D82"/>
<path d="M32.1338 16.885C32.1338 17.415 31.9638 17.845 31.6238 18.175C31.2938 18.505 30.7388 18.67 29.9588 18.67H23.9888L23.2088 23.2C24.1888 23 25.0838 22.9 25.8938 22.9C27.0338 22.9 28.0338 23.07 28.8938 23.41C29.7638 23.75 30.4938 24.22 31.0838 24.82C31.6738 25.42 32.1188 26.125 32.4188 26.935C32.7188 27.735 32.8688 28.6 32.8688 29.53C32.8688 30.68 32.6638 31.73 32.2538 32.68C31.8538 33.63 31.2938 34.445 30.5738 35.125C29.8538 35.795 28.9988 36.315 28.0088 36.685C27.0288 37.055 25.9588 37.24 24.7988 37.24C24.1188 37.24 23.4738 37.17 22.8638 37.03C22.2538 36.89 21.6788 36.705 21.1388 36.475C20.6088 36.235 20.1138 35.965 19.6538 35.665C19.2038 35.355 18.7988 35.03 18.4388 34.69L19.5788 33.115C19.8188 32.775 20.1388 32.605 20.5388 32.605C20.7888 32.605 21.0388 32.685 21.2888 32.845C21.5488 33.005 21.8488 33.18 22.1888 33.37C22.5288 33.56 22.9238 33.735 23.3738 33.895C23.8238 34.055 24.3688 34.135 25.0088 34.135C25.6888 34.135 26.2888 34.025 26.8088 33.805C27.3288 33.585 27.7588 33.28 28.0988 32.89C28.4488 32.49 28.7088 32.02 28.8788 31.48C29.0588 30.93 29.1488 30.335 29.1488 29.695C29.1488 28.515 28.8038 27.595 28.1138 26.935C27.4338 26.265 26.4288 25.93 25.0988 25.93C24.0488 25.93 22.9938 26.12 21.9338 26.5L19.6238 25.84L21.4238 15.31H32.1338V16.885Z" fill="#2D2D82"/>
</svg>
