<svg width="52" height="52" viewBox="0 0 52 52" fill="none" xmlns="http://www.w3.org/2000/svg">
<path d="M25.9982 52C11.6619 52 0 40.3381 0 26.0018C0 11.6619 11.6619 0 25.9982 0C40.3346 0 52 11.6619 52 26.0018C52 40.3381 40.3381 52 25.9982 52ZM25.9982 1.42261C12.4478 1.42261 1.42261 12.4478 1.42261 26.0018C1.42261 39.5521 12.4478 50.5774 25.9982 50.5774C39.5486 50.5774 50.5774 39.5521 50.5774 26.0018C50.5774 12.4478 39.5521 1.42261 25.9982 1.42261Z" fill="#2D2D82"/>
<path d="M27.3488 23.455C28.1688 23.455 28.9638 23.59 29.7338 23.86C30.5138 24.13 31.1988 24.54 31.7888 25.09C32.3788 25.63 32.8538 26.305 33.2138 27.115C33.5738 27.925 33.7538 28.87 33.7538 29.95C33.7538 30.96 33.5688 31.91 33.1988 32.8C32.8288 33.68 32.3088 34.45 31.6388 35.11C30.9688 35.77 30.1588 36.29 29.2088 36.67C28.2688 37.05 27.2288 37.24 26.0888 37.24C24.9288 37.24 23.8888 37.055 22.9688 36.685C22.0488 36.315 21.2638 35.8 20.6138 35.14C19.9638 34.47 19.4638 33.67 19.1138 32.74C18.7738 31.8 18.6038 30.76 18.6038 29.62C18.6038 28.6 18.8088 27.555 19.2188 26.485C19.6388 25.405 20.2838 24.285 21.1538 23.125L26.3288 16.18C26.5088 15.94 26.7688 15.735 27.1088 15.565C27.4588 15.395 27.8588 15.31 28.3088 15.31H31.6088L25.1738 23.185C25.0338 23.355 24.8988 23.515 24.7688 23.665C24.6488 23.815 24.5288 23.97 24.4088 24.13C24.8288 23.92 25.2788 23.755 25.7588 23.635C26.2488 23.515 26.7788 23.455 27.3488 23.455ZM22.1588 30.19C22.1588 30.79 22.2388 31.34 22.3988 31.84C22.5688 32.33 22.8138 32.75 23.1338 33.1C23.4638 33.45 23.8688 33.725 24.3488 33.925C24.8288 34.115 25.3838 34.21 26.0138 34.21C26.6038 34.21 27.1438 34.11 27.6338 33.91C28.1338 33.71 28.5588 33.43 28.9088 33.07C29.2688 32.71 29.5488 32.29 29.7488 31.81C29.9488 31.32 30.0488 30.79 30.0488 30.22C30.0488 29.6 29.9538 29.045 29.7638 28.555C29.5738 28.055 29.3038 27.635 28.9538 27.295C28.6038 26.945 28.1838 26.68 27.6938 26.5C27.2038 26.32 26.6638 26.23 26.0738 26.23C25.4838 26.23 24.9488 26.33 24.4688 26.53C23.9888 26.73 23.5738 27.01 23.2238 27.37C22.8838 27.72 22.6188 28.14 22.4288 28.63C22.2488 29.11 22.1588 29.63 22.1588 30.19Z" fill="#2D2D82"/>
</svg>
