<svg width="49" height="202" viewBox="0 0 49 202" fill="none" xmlns="http://www.w3.org/2000/svg">
<path d="M2.62569 197.457C2.62569 196.669 2.91998 195.888 3.50855 195.274C5.92589 192.784 8.68656 189.869 10.9357 186.752C10.9638 186.717 10.9918 186.675 11.0198 186.64L16.1908 180.099C16.2118 180.071 16.2329 180.043 16.2539 180.008L23.8562 168.111C24.4448 167.051 25.0124 165.921 25.5168 164.917L30.0082 156.039C30.6949 154.679 32.2364 153.884 33.7078 154.295C35.6907 154.853 36.5736 157.008 35.6977 158.738L31.1503 167.727C30.6108 168.808 29.9942 170.035 29.3215 171.235C29.2865 171.291 29.2585 171.347 29.2234 171.395L21.551 183.397C21.4109 183.614 21.2848 183.788 21.1446 183.962L16.0157 190.455C13.5703 193.844 10.6835 196.892 8.16105 199.5C6.88582 200.818 4.69269 200.916 3.45249 199.563C2.89896 198.984 2.62569 198.217 2.62569 197.457ZM9.94779 5.49364C8.87575 4.23137 8.96684 2.36934 10.172 1.23957L10.2911 1.13496C11.5804 -0.0366475 13.6053 0.0749348 14.7334 1.39997C18.433 5.75168 21.565 10.3614 24.606 14.8386L26.7851 18.0327C26.8972 18.1931 27.0233 18.3953 27.1424 18.6045L33.0842 29.3931C33.4345 30.0278 33.7919 30.6694 34.1212 31.3458C34.1422 31.3946 34.1632 31.4365 34.1842 31.4853L37.6106 39.4843C37.8558 40.0911 38.08 40.656 38.3042 41.2139C38.8648 42.6296 38.4233 44.3103 37.1341 45.1262C35.3964 46.2211 33.1893 45.44 32.4816 43.6338C32.2574 43.055 32.0262 42.4761 31.7879 41.8973L28.4177 34.0238C28.1654 33.5077 27.8781 32.9986 27.5628 32.4268L21.5931 21.5894L19.3859 18.3535C16.4361 14.0297 13.4161 9.58034 9.94779 5.49364ZM40.084 124.294C40.084 124.105 40.098 123.91 40.14 123.715C41.8286 114.628 42.6905 105.332 42.6905 96.0913C42.6905 92.7718 42.5784 89.4034 42.3612 86.0838C42.151 82.9386 41.8076 79.7236 41.3522 76.5296C41.135 75.0233 41.9337 73.489 43.3771 72.9799C45.325 72.2965 47.2939 73.5587 47.5742 75.4835C48.0647 78.8868 48.429 82.311 48.6532 85.6654C48.8775 89.1244 48.9966 92.6323 48.9966 96.0913C48.9966 105.666 48.1137 115.297 46.362 124.719C46.0537 126.386 44.4982 127.627 42.8096 127.397C41.212 127.181 40.084 125.821 40.084 124.294Z" fill="#F9A01B"/>
<path d="M0.957995 198.858C0.957995 198.691 0.972007 198.524 1.00004 198.356C1.36439 196.139 1.81282 193.196 2.07908 190.078C2.33133 185.573 2.46445 181.026 2.47146 176.563C2.47146 174.826 3.88683 173.425 5.63152 173.432C7.3692 173.432 8.77756 174.84 8.77756 176.57C8.77756 176.57 8.77756 176.57 8.77756 176.577C8.77056 181.166 8.63743 185.838 8.37818 190.476C8.37818 190.504 8.37117 190.539 8.37117 190.566C8.24505 192.024 8.08389 193.433 7.91573 194.751C9.20498 194.43 10.3751 194.109 11.4822 193.781C16.0576 192.275 20.7101 190.608 25.3206 188.823C26.9461 188.195 28.7679 188.997 29.3985 190.608C30.0291 192.219 29.2234 194.039 27.6048 194.667C22.8822 196.494 18.1106 198.203 13.4231 199.751C13.395 199.758 13.36 199.772 13.332 199.779C10.9076 200.497 8.20301 201.174 4.79771 201.92C3.77472 202.143 2.70969 201.85 1.95296 201.132C1.30833 200.539 0.957995 199.709 0.957995 198.858Z" fill="#F9A01B"/>
</svg>
