<svg width="34" height="34" viewBox="0 0 34 34" fill="none" xmlns="http://www.w3.org/2000/svg">
<g clip-path="url(#clip0_1_1673)">
<path d="M2.19 14.79H10.7C11.91 14.79 12.89 15.77 12.89 16.98C12.89 18.19 11.91 19.17 10.7 19.17H2.19C0.98 19.16 0 18.18 0 16.97C0 16.37 0.25 15.82 0.64 15.42C1.04 15.03 1.58 14.79 2.19 14.79Z" fill="#F89F1E"/>
<path d="M33.9501 16.94C33.9601 17.56 33.7101 18.12 33.3101 18.52C32.9101 18.92 32.3701 19.16 31.7601 19.16H23.2501C22.0401 19.16 21.0601 18.18 21.0601 16.97C21.0601 15.76 22.0401 14.78 23.2501 14.78H31.7001C32.9101 14.79 33.9301 15.73 33.9501 16.94Z" fill="#F89F1E"/>
<path d="M19.16 2.19V10.69C19.16 11.9 18.18 12.88 16.97 12.88C15.76 12.88 14.78 11.9 14.78 10.69V2.19C14.78 0.98 15.76 0 16.97 0C17.57 0 18.12 0.24 18.52 0.64C18.92 1.04 19.16 1.58 19.16 2.19Z" fill="#F89F1E"/>
<path d="M16.97 21.0699C18.18 21.0699 19.16 22.0499 19.16 23.2599V31.7599C19.16 32.9699 18.18 33.9499 16.97 33.9499C16.37 33.9499 15.82 33.6999 15.42 33.3099C15.02 32.9099 14.78 32.3699 14.78 31.7599V23.2599C14.79 22.0499 15.77 21.0699 16.97 21.0699Z" fill="#F89F1E"/>
</g>
<defs>
<clipPath id="clip0_1_1673">
<rect width="33.95" height="33.95" fill="white"/>
</clipPath>
</defs>
</svg>
