<svg width="186" height="186" viewBox="0 0 186 186" fill="none" xmlns="http://www.w3.org/2000/svg">
<path d="M75.6894 1.56577C71.7314 2.30421 67.7734 3.30847 63.9336 4.56381C62.8259 4.93302 62.2204 6.11452 62.5749 7.22217C62.8555 8.09352 63.6677 8.68426 64.5834 8.68426C64.8049 8.68426 65.0265 8.65473 65.2332 8.58088C68.8811 7.38462 72.6618 6.42466 76.4426 5.71576C77.0038 5.61238 77.4764 5.30224 77.8014 4.82964C78.1263 4.35705 78.2444 3.79584 78.141 3.2494C77.9342 2.11221 76.8266 1.35901 75.6894 1.56577Z" fill="#F89F1E"/>
<path d="M14.9904 135.016C14.7245 134.513 14.2667 134.159 13.735 133.997C13.1886 133.834 12.6274 133.893 12.1252 134.174C11.6231 134.44 11.2687 134.897 11.1062 135.429C10.9437 135.961 11.0028 136.537 11.2834 137.039C13.2181 140.569 15.3891 144.024 17.7668 147.274C18.1656 147.82 18.8006 148.145 19.48 148.145C19.9231 148.145 20.3661 148.012 20.7206 147.746C21.1784 147.407 21.4738 146.919 21.5624 146.373C21.651 145.811 21.5181 145.25 21.1784 144.807C18.9188 141.691 16.8364 138.398 14.9904 135.016Z" fill="#F89F1E"/>
<path d="M49.9623 11.1211C49.4158 10.9586 48.8546 11.0177 48.3525 11.2983C44.8228 13.233 41.3669 15.4188 38.1178 17.7965C37.1726 18.4759 36.9658 19.8051 37.6599 20.7503C38.0587 21.2967 38.6938 21.6216 39.3731 21.6216C39.8162 21.6216 40.2592 21.4739 40.6137 21.2229C43.7299 18.9485 47.0085 16.8661 50.3758 15.02C51.3948 14.4588 51.7788 13.1739 51.2176 12.1549C50.9518 11.638 50.5087 11.2688 49.9623 11.1211Z" fill="#F89F1E"/>
<path d="M65.4399 176.928C61.7772 175.747 58.1589 174.299 54.6883 172.645C53.6397 172.143 52.3696 172.586 51.8675 173.649C51.3654 174.698 51.8084 175.968 52.8718 176.47C56.5196 178.213 60.3004 179.719 64.1403 180.96C64.347 181.034 64.5686 181.063 64.7901 181.063C65.7057 181.063 66.518 180.472 66.7986 179.601C67.153 178.479 66.5475 177.282 65.4399 176.928Z" fill="#F89F1E"/>
<path d="M40.7763 164.361C37.6601 162.101 34.6621 159.605 31.8708 156.962C31.4573 156.578 30.9256 156.356 30.3644 156.386C29.8031 156.401 29.2715 156.637 28.8875 157.051C28.5035 157.464 28.2968 157.996 28.3115 158.557C28.3263 159.118 28.5626 159.65 28.9761 160.034C31.9003 162.81 35.0461 165.41 38.2952 167.787C38.6644 168.053 39.0927 168.186 39.5357 168.186C40.2151 168.186 40.8501 167.861 41.2489 167.315C41.5738 166.857 41.7215 166.296 41.6328 165.749C41.5295 165.173 41.2341 164.686 40.7763 164.361Z" fill="#F89F1E"/>
<path d="M18.1212 41.2639C18.4905 41.5298 18.9187 41.6627 19.3618 41.6627C20.0412 41.6627 20.6762 41.3378 21.075 40.7913C23.3346 37.6752 25.8157 34.6771 28.474 31.8859C29.2716 31.044 29.242 29.7001 28.3854 28.9026C27.5436 28.1051 26.1997 28.1346 25.4022 28.9912C22.6257 31.9154 20.0264 35.0611 17.6486 38.325C16.9693 39.2554 17.1761 40.5846 18.1212 41.2639Z" fill="#F89F1E"/>
<path d="M179.72 76.3841C179.912 77.3884 180.783 78.1121 181.787 78.1121C181.92 78.1121 182.053 78.0973 182.171 78.0825C182.733 77.9791 183.205 77.669 183.53 77.1964C183.855 76.7238 183.973 76.1626 183.87 75.6161C183.131 71.6581 182.127 67.7001 180.872 63.8603C180.695 63.3286 180.325 62.8856 179.823 62.6345C179.321 62.3834 178.745 62.3391 178.213 62.5164C177.682 62.6936 177.239 63.0628 176.988 63.5649C176.737 64.0671 176.692 64.643 176.869 65.1747C178.051 68.8373 179.026 72.6033 179.72 76.3841Z" fill="#F89F1E"/>
<path d="M4.23864 92.8204V92.7171C4.23864 88.892 4.48971 85.0374 4.97707 81.2714C5.05092 80.7101 4.90322 80.1637 4.54877 79.7059C4.20909 79.2628 3.70694 78.9674 3.14573 78.9084C2.58452 78.8345 2.03809 78.9822 1.58026 79.3219C1.1372 79.6616 0.841842 80.1637 0.767999 80.7249C0.251096 84.6682 0 88.7 0 92.7171V92.8204C0 93.9872 0.945228 94.9324 2.11195 94.9324C3.29344 94.9324 4.23864 93.9872 4.23864 92.8204Z" fill="#F89F1E"/>
<path d="M5.84841 66.8426C6.05517 66.9165 6.2767 66.946 6.49823 66.946C7.41389 66.946 8.22614 66.3553 8.50675 65.4839C9.68824 61.8213 11.1356 58.203 12.7896 54.7323C13.2918 53.6838 12.8487 52.4137 11.7854 51.9115C11.2685 51.6752 10.7073 51.6457 10.1756 51.8229C9.64394 52.0149 9.21565 52.3989 8.97935 52.901C7.25142 56.5489 5.73024 60.3444 4.48967 64.1695C4.13522 65.2772 4.74076 66.4734 5.84841 66.8426Z" fill="#F89F1E"/>
<path d="M5.7304 108.948C5.52364 107.796 4.41602 107.043 3.26406 107.25C2.11211 107.456 1.35887 108.564 1.56563 109.716C2.30406 113.689 3.30836 117.632 4.54893 121.472C4.82953 122.343 5.64179 122.934 6.55744 122.934C6.77897 122.934 7.0005 122.904 7.20727 122.831C8.31492 122.476 8.92045 121.28 8.566 120.172C7.38451 116.495 6.42453 112.729 5.7304 108.948Z" fill="#F89F1E"/>
<path d="M144.762 164.302C141.646 166.561 138.368 168.644 134.986 170.49C133.966 171.051 133.582 172.336 134.144 173.355C134.513 174.034 135.222 174.463 136.005 174.463C136.359 174.463 136.699 174.374 137.009 174.212C140.539 172.292 143.994 170.106 147.258 167.728C147.716 167.403 148.011 166.901 148.1 166.355C148.189 165.793 148.056 165.232 147.716 164.789C147.037 163.829 145.708 163.622 144.762 164.302Z" fill="#F89F1E"/>
<path d="M179.587 118.695C179.055 118.518 178.479 118.563 177.977 118.828C177.475 119.079 177.106 119.522 176.929 120.054C175.747 123.717 174.3 127.335 172.631 130.806C172.395 131.308 172.35 131.884 172.542 132.416C172.734 132.947 173.118 133.375 173.62 133.612C173.901 133.745 174.211 133.819 174.536 133.819C175.348 133.819 176.087 133.346 176.441 132.622C178.184 128.974 179.69 125.194 180.946 121.354C181.3 120.261 180.695 119.065 179.587 118.695Z" fill="#F89F1E"/>
<path d="M174.137 48.2934C172.203 44.7637 170.017 41.3226 167.639 38.0587C166.945 37.1135 165.631 36.9067 164.685 37.6009C164.228 37.9405 163.932 38.4279 163.844 38.9891C163.755 39.5503 163.888 40.1115 164.228 40.5546C166.502 43.6708 168.584 46.9494 170.43 50.3167C170.8 50.996 171.509 51.4096 172.291 51.4096C172.646 51.4096 173 51.3209 173.31 51.1437C174.315 50.6121 174.699 49.3272 174.137 48.2934Z" fill="#F89F1E"/>
<path d="M167.299 144.261C166.354 143.581 165.04 143.788 164.346 144.718C162.086 147.835 159.59 150.818 156.947 153.609C156.149 154.451 156.179 155.795 157.02 156.592C157.419 156.962 157.936 157.168 158.468 157.168C159.044 157.168 159.605 156.932 160.004 156.504C162.78 153.58 165.394 150.449 167.757 147.185C168.082 146.727 168.23 146.166 168.141 145.619C168.053 145.073 167.742 144.586 167.299 144.261Z" fill="#F89F1E"/>
<path d="M185.45 92.4964C185.45 91.3297 184.505 90.3845 183.323 90.3845C182.762 90.3845 182.231 90.6061 181.832 91.0048C181.433 91.4036 181.212 91.9352 181.212 92.4964V92.7032C181.212 96.5578 180.96 100.442 180.458 104.252C180.384 104.814 180.532 105.36 180.872 105.818C181.211 106.261 181.714 106.556 182.275 106.63C182.363 106.645 182.467 106.645 182.555 106.645C183.619 106.645 184.505 105.847 184.653 104.799C185.169 100.811 185.435 96.7498 185.435 92.7032L185.45 92.4964Z" fill="#F89F1E"/>
<path d="M132.505 8.93536C128.857 7.20743 125.061 5.70103 121.221 4.46046C120.69 4.28324 120.114 4.32754 119.612 4.59338C119.109 4.84445 118.74 5.2875 118.563 5.81917C118.208 6.92682 118.814 8.12309 119.922 8.47754C123.584 9.65903 127.203 11.0916 130.688 12.7457C130.969 12.8786 131.279 12.9524 131.589 12.9524C132.401 12.9524 133.154 12.4798 133.494 11.7414C133.73 11.2245 133.76 10.6633 133.583 10.1316C133.391 9.61472 133.007 9.18643 132.505 8.93536Z" fill="#F89F1E"/>
<path d="M120.128 176.884C116.466 178.08 112.7 179.025 108.919 179.734C107.767 179.941 107.014 181.048 107.22 182.2C107.412 183.205 108.284 183.928 109.303 183.928C109.436 183.928 109.554 183.913 109.687 183.899C113.66 183.16 117.603 182.156 121.443 180.915C121.974 180.738 122.417 180.369 122.668 179.867C122.919 179.365 122.964 178.789 122.801 178.257C122.432 177.135 121.236 176.529 120.128 176.884Z" fill="#F89F1E"/>
<path d="M104.665 0.767971C100.737 0.265836 96.7199 0 92.7176 0H92.57C91.4032 0 90.458 0.945194 90.458 2.11192C90.458 3.27864 91.4032 4.22384 92.57 4.22384H92.7324C96.5427 4.22384 100.383 4.4749 104.134 4.9475C104.222 4.96227 104.311 4.96227 104.4 4.96227C105.463 4.96227 106.364 4.16476 106.497 3.11619C106.644 1.96423 105.817 0.915657 104.665 0.767971Z" fill="#F89F1E"/>
<path d="M157.094 26.8196C157.079 26.2584 156.843 25.7267 156.43 25.3428C153.505 22.5662 150.36 19.967 147.096 17.604C146.151 16.9246 144.836 17.1314 144.142 18.0766C143.463 19.0218 143.669 20.3362 144.615 21.0303C147.731 23.2899 150.729 25.771 153.52 28.4146C153.919 28.7838 154.436 28.9906 154.967 28.9906C155.543 28.9906 156.105 28.7543 156.503 28.326C156.902 27.9125 157.109 27.3808 157.094 26.8196Z" fill="#F89F1E"/>
<path d="M92.7914 181.212H92.7324C88.8925 181.212 85.0231 180.96 81.2276 180.473C80.6664 180.399 80.1199 180.547 79.6621 180.901C79.219 181.241 78.9237 181.743 78.8498 182.304C78.776 182.866 78.9237 183.412 79.2781 183.87C79.6178 184.313 80.1199 184.608 80.6811 184.682C84.6539 185.199 88.7005 185.45 92.7176 185.45H92.7767C93.9434 185.45 94.8886 184.505 94.8886 183.338C94.9033 182.157 93.9582 181.212 92.7914 181.212Z" fill="#F89F1E"/>
</svg>
